<svg width="256" height="87" viewBox="0 0 256 87" fill="none" xmlns="http://www.w3.org/2000/svg">
<g clip-path="url(#clip0_1_6453)">
<g clip-path="url(#clip1_1_6453)">
<g clip-path="url(#clip2_1_6453)">
<path d="M126.933 3.05322H0.00500488V28.6522H126.933V3.05322Z" fill="#F6F5F4"/>
<path d="M17.7127 13.9943V15.9442H11.3796V13.9943H17.7127ZM12.1212 9.05287V21.1857H9.62128V9.05287H12.1212ZM19.4959 9.05287V21.1857H17.0043V9.05287H19.4959ZM25.6707 21.3523C24.9706 21.3523 24.3429 21.2413 23.7874 21.0191C23.2318 20.7913 22.7596 20.4774 22.3708 20.0774C21.9875 19.6774 21.693 19.2135 21.4875 18.6858C21.2819 18.1525 21.1792 17.5859 21.1792 16.9859V16.6526C21.1792 15.9693 21.2764 15.3443 21.4708 14.7777C21.6653 14.211 21.943 13.7194 22.3041 13.3027C22.6708 12.8861 23.1152 12.5667 23.6373 12.3444C24.1596 12.1166 24.7485 12.0027 25.404 12.0027C26.0429 12.0027 26.6095 12.1083 27.1039 12.3194C27.5984 12.5305 28.0122 12.8305 28.3455 13.2193C28.6844 13.6082 28.94 14.0749 29.1122 14.6194C29.2844 15.1582 29.3705 15.7582 29.3705 16.4192V17.4193H22.2041V15.8193H27.0123V15.636C27.0123 15.3027 26.9511 15.0054 26.8289 14.7443C26.7123 14.4776 26.5345 14.2665 26.2956 14.111C26.0568 13.9555 25.7512 13.8776 25.379 13.8776C25.0624 13.8776 24.7902 13.9471 24.5623 14.0861C24.3346 14.2249 24.1485 14.4193 24.0041 14.6693C23.8652 14.9193 23.7596 15.2137 23.6874 15.5527C23.6207 15.8859 23.5874 16.2526 23.5874 16.6526V16.9859C23.5874 17.3469 23.6373 17.6803 23.7374 17.9859C23.843 18.2914 23.9902 18.5553 24.1791 18.7775C24.3735 18.9997 24.6068 19.1719 24.879 19.2942C25.1568 19.4163 25.4707 19.4774 25.8206 19.4774C26.254 19.4774 26.6567 19.3941 27.0289 19.2275C27.4067 19.0553 27.7317 18.7969 28.0039 18.4525L29.1706 19.7191C28.9817 19.9913 28.7233 20.2524 28.3956 20.5024C28.0733 20.7525 27.6844 20.958 27.2289 21.1191C26.7734 21.2746 26.254 21.3523 25.6707 21.3523ZM33.2704 8.38623V21.1857H30.8621V8.38623H33.2704ZM37.7869 8.38623V21.1857H35.3786V8.38623H37.7869ZM39.3868 16.7693V16.5942C39.3868 15.9331 39.4812 15.3248 39.6701 14.7693C39.859 14.2082 40.134 13.7221 40.495 13.3111C40.8562 12.9 41.3005 12.5805 41.8283 12.3528C42.3561 12.1194 42.9616 12.0027 43.645 12.0027C44.3283 12.0027 44.9366 12.1194 45.4699 12.3528C46.0032 12.5805 46.4504 12.9 46.8115 13.3111C47.1782 13.7221 47.4559 14.2082 47.6448 14.7693C47.8336 15.3248 47.9281 15.9331 47.9281 16.5942V16.7693C47.9281 17.4248 47.8336 18.0331 47.6448 18.5942C47.4559 19.1496 47.1782 19.6358 46.8115 20.0524C46.4504 20.4635 46.006 20.783 45.4782 21.0107C44.9504 21.2385 44.3449 21.3523 43.6616 21.3523C42.9784 21.3523 42.3701 21.2385 41.8367 21.0107C41.309 20.783 40.8617 20.4635 40.495 20.0524C40.134 19.6358 39.859 19.1496 39.6701 18.5942C39.4812 18.0331 39.3868 17.4248 39.3868 16.7693ZM41.7867 16.5942V16.7693C41.7867 17.147 41.82 17.4998 41.8867 17.8276C41.9533 18.1553 42.0589 18.4442 42.2033 18.6942C42.3533 18.9386 42.5478 19.1302 42.7867 19.2691C43.0255 19.408 43.3172 19.4774 43.6616 19.4774C43.9949 19.4774 44.281 19.408 44.5199 19.2691C44.7588 19.1302 44.9504 18.9386 45.0949 18.6942C45.2394 18.4442 45.3449 18.1553 45.4115 17.8276C45.4837 17.4998 45.5199 17.147 45.5199 16.7693V16.5942C45.5199 16.2276 45.4837 15.8831 45.4115 15.561C45.3449 15.2332 45.2365 14.9443 45.0865 14.6944C44.9421 14.4388 44.7504 14.2388 44.5116 14.0944C44.2727 13.9499 43.9839 13.8776 43.645 13.8776C43.3061 13.8776 43.0172 13.9499 42.7784 14.0944C42.545 14.2388 42.3533 14.4388 42.2033 14.6944C42.0589 14.9443 41.9533 15.2332 41.8867 15.561C41.82 15.8831 41.7867 16.2276 41.7867 16.5942Z" fill="black"/>
<path d="M126.933 30.7856H0.00500488V56.3846H126.933V30.7856Z" fill="#FCE9E8"/>
<path d="M16.2348 34.4804L18.2486 34.9412C17.5318 37.6376 16.3201 40.317 14.9548 42.0065C14.5964 41.6481 13.7773 40.9825 13.3165 40.6754C14.6135 39.2077 15.6545 36.8526 16.2348 34.4804ZM15.7569 42.0748L17.7366 42.4843C17.2587 44.6517 16.3713 46.8362 15.4156 48.2185C15.0231 47.8943 14.1527 47.3652 13.6749 47.1092C14.6306 45.9146 15.3644 43.9691 15.7569 42.0748ZM16.6102 37.484H23.6073V39.3783H15.8422L16.6102 37.484ZM18.5728 38.3202H20.6037V48.1673C20.6037 49.1572 20.433 49.7203 19.8186 50.0617C19.2213 50.3859 18.3851 50.4712 17.2929 50.4712C17.1905 49.8739 16.8833 48.9694 16.5932 48.4063C17.3099 48.4404 18.0267 48.4233 18.2656 48.4233C18.4875 48.4233 18.5728 48.3721 18.5728 48.1503V38.3202ZM21.201 42.5185L23.0441 41.9041C23.9315 43.6619 24.6654 45.9317 24.9043 47.4847L22.9417 48.1673C22.754 46.6314 22.0372 44.2763 21.201 42.5185ZM23.0612 37.484H23.3342L23.6585 37.4328L25.092 37.6888C24.8872 39.0882 24.58 40.6754 24.3582 41.6993L22.6004 41.3921C22.754 40.4706 22.9417 38.9517 23.0612 37.7571V37.484ZM12.5826 34.4975L14.5111 35.0948C13.4018 38.0131 11.6269 41.0849 9.76675 43.0305C9.57903 42.5355 9.03292 41.4092 8.67453 40.9143C10.2275 39.3613 11.7123 36.9379 12.5826 34.4975ZM10.9272 39.2077L12.8728 37.2622L12.8898 37.2792V50.4371H10.9272V39.2077ZM33.3178 35.2825H40.2466V37.1768H33.3178V35.2825ZM32.7376 41.2215H42.158V43.1499H32.7376V41.2215ZM36.3385 39.2247H38.4035V48.1844C38.4035 49.2084 38.1987 49.7545 37.5331 50.0787C36.8505 50.3859 35.9119 50.4542 34.649 50.4371C34.5466 49.8739 34.2053 48.9865 33.9322 48.4404C34.8026 48.4745 35.69 48.4916 35.9801 48.4745C36.2532 48.4575 36.3385 48.3892 36.3385 48.1503V39.2247ZM39.5128 35.2825H40.0077L40.4344 35.1801L41.7655 36.187C40.7586 37.6717 39.308 39.4807 37.9769 40.6071C37.7038 40.2487 37.1406 39.6855 36.8164 39.4125C37.8233 38.4397 39.0008 36.7502 39.5128 35.7262V35.2825ZM26.2354 37.8253H31.7478V39.7197H26.2354V37.8253ZM28.5223 34.4292L30.4507 34.634C29.8022 38.269 28.8124 42.8427 28.0103 45.9146L26.3378 45.0272C27.0717 42.3308 27.9932 37.8253 28.5223 34.4292ZM27.2253 44.7371L28.3516 43.3035C30.1265 44.4128 32.3792 46.0682 33.369 47.3482L32.1403 49.0036C31.1846 47.7065 29.0172 45.9146 27.2253 44.7371ZM31.0481 37.8253H31.3723L31.7307 37.7741L32.9424 37.9789C32.5499 44.6347 30.8945 48.4063 27.5154 50.5054C27.2423 50.0105 26.6962 49.2766 26.2866 48.8841C29.1879 47.3652 30.7067 43.5936 31.0481 38.2008V37.8253Z" fill="#EA5044"/>
<path d="M126.933 58.5176H0.00500488V84.1166H126.933V58.5176Z" fill="#F4EBFF"/>
<path d="M14.3711 71.3254H11.2546L11.2378 69.6088H13.8545C14.3156 69.6088 14.6933 69.5506 14.9878 69.4339C15.2822 69.3116 15.5016 69.1366 15.6461 68.9089C15.7961 68.6755 15.871 68.3922 15.871 68.0589C15.871 67.6811 15.7988 67.3756 15.6544 67.1422C15.5155 66.909 15.296 66.7395 14.9961 66.634C14.7016 66.5284 14.3211 66.4756 13.8545 66.4756H12.1212V76.6502H9.62128V64.5174H13.8545C14.5599 64.5174 15.1905 64.584 15.746 64.7174C16.3072 64.8507 16.7821 65.0535 17.171 65.3257C17.5598 65.5979 17.8571 65.9423 18.0626 66.359C18.2682 66.7701 18.371 67.2589 18.371 67.8256C18.371 68.3255 18.2571 68.7866 18.0292 69.2088C17.8071 69.6311 17.4543 69.9755 16.9709 70.2422C16.4932 70.5088 15.8683 70.656 15.096 70.6837L14.3711 71.3254ZM14.2628 76.6502H10.5712L11.5462 74.7003H14.2628C14.7016 74.7003 15.06 74.6309 15.3377 74.492C15.6155 74.3475 15.821 74.1532 15.9543 73.9087C16.0877 73.6642 16.1543 73.3837 16.1543 73.067C16.1543 72.7115 16.0932 72.4031 15.9711 72.142C15.8544 71.8809 15.6655 71.6809 15.4044 71.5421C15.1433 71.3976 14.7989 71.3254 14.3711 71.3254H11.9628L11.9796 69.6088H14.9794L15.5544 70.2838C16.2932 70.2727 16.8876 70.4032 17.3376 70.6754C17.7932 70.9421 18.1238 71.2894 18.3293 71.7171C18.5404 72.1448 18.646 72.6031 18.646 73.0921C18.646 73.8698 18.4765 74.5253 18.1376 75.0586C17.7987 75.5864 17.3015 75.9836 16.646 76.2502C15.996 76.5169 15.2016 76.6502 14.2628 76.6502ZM19.9876 72.2338V72.0587C19.9876 71.3976 20.082 70.7893 20.2709 70.2338C20.4598 69.6727 20.7347 69.1866 21.0958 68.7756C21.457 68.3645 21.9013 68.045 22.4291 67.8173C22.9568 67.5839 23.5624 67.4672 24.2458 67.4672C24.929 67.4672 25.5373 67.5839 26.0706 67.8173C26.604 68.045 27.0512 68.3645 27.4122 68.7756C27.7789 69.1866 28.0567 69.6727 28.2456 70.2338C28.4344 70.7893 28.5289 71.3976 28.5289 72.0587V72.2338C28.5289 72.8893 28.4344 73.4976 28.2456 74.0587C28.0567 74.6142 27.7789 75.1003 27.4122 75.5169C27.0512 75.928 26.6067 76.2475 26.079 76.4752C25.5512 76.703 24.9457 76.8168 24.2624 76.8168C23.5791 76.8168 22.9707 76.703 22.4374 76.4752C21.9097 76.2475 21.4625 75.928 21.0958 75.5169C20.7347 75.1003 20.4598 74.6142 20.2709 74.0587C20.082 73.4976 19.9876 72.8893 19.9876 72.2338ZM22.3875 72.0587V72.2338C22.3875 72.6115 22.4208 72.9643 22.4874 73.2921C22.5541 73.6198 22.6597 73.9087 22.8041 74.1587C22.9541 74.4031 23.1485 74.5947 23.3874 74.7336C23.6263 74.8725 23.918 74.9419 24.2624 74.9419C24.5957 74.9419 24.8818 74.8725 25.1207 74.7336C25.3595 74.5947 25.5512 74.4031 25.6956 74.1587C25.8401 73.9087 25.9456 73.6198 26.0123 73.2921C26.0845 72.9643 26.1207 72.6115 26.1207 72.2338V72.0587C26.1207 71.6921 26.0845 71.3476 26.0123 71.0255C25.9456 70.6977 25.8374 70.4088 25.6873 70.1589C25.5429 69.9033 25.3512 69.7033 25.1124 69.5589C24.8735 69.4144 24.5846 69.3421 24.2458 69.3421C23.9069 69.3421 23.6179 69.4144 23.3791 69.5589C23.1457 69.7033 22.9541 69.9033 22.8041 70.1589C22.6597 70.4088 22.5541 70.6977 22.4874 71.0255C22.4208 71.3476 22.3875 71.6921 22.3875 72.0587ZM32.3537 69.5589V76.6502H29.9538V67.6339H32.2037L32.3537 69.5589ZM32.0037 71.8255H31.3537C31.3537 71.1588 31.4399 70.5588 31.6121 70.0255C31.7843 69.4867 32.0259 69.0283 32.3371 68.6505C32.6482 68.2672 33.0176 67.9756 33.4454 67.7756C33.8787 67.5701 34.3619 67.4672 34.8953 67.4672C35.3175 67.4672 35.7037 67.5283 36.0536 67.6506C36.4036 67.7728 36.7035 67.9673 36.9535 68.2339C37.2091 68.5006 37.4035 68.8533 37.5369 69.2922C37.6757 69.731 37.7452 70.2671 37.7452 70.9005V76.6502H35.3286V70.8922C35.3286 70.4922 35.2731 70.181 35.1619 69.9589C35.0509 69.7366 34.8869 69.5811 34.6703 69.4922C34.4592 69.3977 34.1981 69.3505 33.887 69.3505C33.5647 69.3505 33.2842 69.4144 33.0454 69.5421C32.812 69.6699 32.6176 69.8477 32.4621 70.0754C32.3121 70.2977 32.1982 70.5588 32.1204 70.8588C32.0427 71.1588 32.0037 71.4809 32.0037 71.8255ZM39.7035 67.6339H42.1117V77.1919C42.1117 77.8585 41.9895 78.4224 41.745 78.8835C41.5005 79.3445 41.1478 79.6946 40.6867 79.9334C40.2256 80.1723 39.6673 80.2918 39.0118 80.2918C38.8062 80.2918 38.6063 80.2806 38.4118 80.2584C38.2118 80.2362 38.0063 80.2001 37.7952 80.15L37.8035 78.3085C37.9368 78.3307 38.0674 78.3473 38.1952 78.3585C38.3174 78.3752 38.4424 78.3835 38.5701 78.3835C38.8201 78.3835 39.0284 78.3418 39.1951 78.2585C39.3617 78.1752 39.4868 78.0446 39.5702 77.8668C39.659 77.6947 39.7035 77.4696 39.7035 77.1919V67.6339ZM39.5118 65.2841C39.5118 64.934 39.6339 64.6452 39.8784 64.4173C40.1284 64.1896 40.4562 64.0757 40.8617 64.0757C41.2728 64.0757 41.6006 64.1896 41.8451 64.4173C42.0894 64.6452 42.2117 64.934 42.2117 65.2841C42.2117 65.634 42.0894 65.9229 41.8451 66.1506C41.6006 66.3784 41.2728 66.4923 40.8617 66.4923C40.4562 66.4923 40.1284 66.3784 39.8784 66.1506C39.6339 65.9229 39.5118 65.634 39.5118 65.2841ZM43.6366 72.2338V72.0587C43.6366 71.3976 43.7311 70.7893 43.92 70.2338C44.1089 69.6727 44.3838 69.1866 44.7449 68.7756C45.1061 68.3645 45.5504 68.045 46.0782 67.8173C46.6059 67.5839 47.2115 67.4672 47.8947 67.4672C48.5781 67.4672 49.1864 67.5839 49.7197 67.8173C50.2531 68.045 50.7002 68.3645 51.0613 68.7756C51.4279 69.1866 51.7058 69.6727 51.8946 70.2338C52.0835 70.7893 52.178 71.3976 52.178 72.0587V72.2338C52.178 72.8893 52.0835 73.4976 51.8946 74.0587C51.7058 74.6142 51.4279 75.1003 51.0613 75.5169C50.7002 75.928 50.2558 76.2475 49.7281 76.4752C49.2003 76.703 48.5948 76.8168 47.9115 76.8168C47.2281 76.8168 46.6198 76.703 46.0865 76.4752C45.5587 76.2475 45.1116 75.928 44.7449 75.5169C44.3838 75.1003 44.1089 74.6142 43.92 74.0587C43.7311 73.4976 43.6366 72.8893 43.6366 72.2338ZM46.0365 72.0587V72.2338C46.0365 72.6115 46.0699 72.9643 46.1365 73.2921C46.2032 73.6198 46.3088 73.9087 46.4532 74.1587C46.6032 74.4031 46.7976 74.5947 47.0365 74.7336C47.2754 74.8725 47.567 74.9419 47.9115 74.9419C48.2448 74.9419 48.5309 74.8725 48.7698 74.7336C49.0086 74.5947 49.2003 74.4031 49.3447 74.1587C49.4891 73.9087 49.5947 73.6198 49.6614 73.2921C49.7336 72.9643 49.7697 72.6115 49.7697 72.2338V72.0587C49.7697 71.6921 49.7336 71.3476 49.6614 71.0255C49.5947 70.6977 49.4864 70.4088 49.3364 70.1589C49.192 69.9033 49.0003 69.7033 48.7614 69.5589C48.5226 69.4144 48.2336 69.3421 47.8947 69.3421C47.5559 69.3421 47.267 69.4144 47.0281 69.5589C46.7948 69.7033 46.6032 69.9033 46.4532 70.1589C46.3088 70.4088 46.2032 70.6977 46.1365 71.0255C46.0699 71.3476 46.0365 71.6921 46.0365 72.0587ZM58.986 74.492V67.6339H61.386V76.6502H59.1277L58.986 74.492ZM59.2527 72.6421L59.9609 72.6254C59.9609 73.2254 59.8915 73.7837 59.7526 74.3003C59.6138 74.8114 59.4054 75.2558 59.1277 75.6336C58.8499 76.0058 58.4999 76.2975 58.0777 76.5086C57.6555 76.7141 57.1583 76.8168 56.5861 76.8168C56.1472 76.8168 55.7417 76.7558 55.3694 76.6336C55.0028 76.5058 54.6862 76.3086 54.4195 76.0419C54.1584 75.7697 53.9529 75.4226 53.8029 75.0003C53.6585 74.5726 53.5863 74.0587 53.5863 73.4587V67.6339H55.9862V73.4753C55.9862 73.742 56.0167 73.967 56.0778 74.1503C56.1445 74.3336 56.2362 74.4837 56.3528 74.6003C56.4694 74.717 56.6056 74.8003 56.7611 74.8503C56.9222 74.9003 57.0999 74.9253 57.2944 74.9253C57.7889 74.9253 58.1778 74.8253 58.4611 74.6254C58.7499 74.4254 58.9527 74.1532 59.0693 73.8086C59.1916 73.4587 59.2527 73.0698 59.2527 72.6421ZM65.6191 69.6005V76.6502H63.2192V67.6339H65.4774L65.6191 69.6005ZM68.3357 67.5756L68.2939 69.8005C68.1774 69.7838 68.0356 69.77 67.869 69.7589C67.7079 69.7421 67.5606 69.7338 67.4273 69.7338C67.0884 69.7338 66.7941 69.7783 66.544 69.8671C66.2996 69.9506 66.094 70.0755 65.9274 70.2422C65.7663 70.4088 65.6441 70.6115 65.5607 70.8505C65.483 71.0894 65.4386 71.3616 65.4274 71.6671L64.9441 71.5171C64.9441 70.9338 65.0025 70.3977 65.1191 69.9088C65.2357 69.4144 65.4052 68.9839 65.6274 68.6173C65.8552 68.2506 66.133 67.9673 66.4607 67.7673C66.7885 67.5673 67.1634 67.4672 67.5857 67.4672C67.719 67.4672 67.8551 67.4783 67.994 67.5006C68.1329 67.5173 68.2468 67.5422 68.3357 67.5756Z" fill="#9065B0"/>
<path d="M255.995 3.05322H129.067V28.6522H255.995V3.05322Z" fill="#E4ECF3"/>
<path d="M141.303 8.79602C142.566 8.93254 144.153 9.00081 145.962 9.00081C147.634 9.00081 149.597 8.89841 150.894 8.76188V11.0317C149.699 11.1341 147.6 11.2365 145.962 11.2365C144.187 11.2365 142.702 11.1511 141.303 11.0487V8.79602ZM142.737 16.0149C142.583 16.6293 142.446 17.1754 142.446 17.7557C142.446 18.8308 143.504 19.6329 145.962 19.6329C148.249 19.6329 150.433 19.3769 151.952 18.9503L151.969 21.3566C150.467 21.6979 148.42 21.9198 146.03 21.9198C142.139 21.9198 140.16 20.6228 140.16 18.2676C140.16 17.2949 140.381 16.4586 140.501 15.8101L142.737 16.0149ZM164.513 8.52296C164.325 8.74482 164.154 9.03494 163.967 9.32506C163.113 10.5367 161.919 12.7212 161.082 14.2401C161.714 13.8646 162.379 13.711 163.028 13.711C164.308 13.711 165.076 14.5131 165.144 15.9467C165.178 16.6976 165.144 18.0629 165.23 18.7796C165.298 19.4452 165.759 19.7183 166.322 19.7183C167.806 19.7183 168.728 17.7898 169.206 15.6736L171.066 17.1754C170.162 20.1108 168.592 22.0563 165.963 22.0563C164.069 22.0563 163.199 20.9129 163.113 19.6841C163.062 18.7626 163.062 17.3802 163.011 16.6805C162.96 16.0832 162.635 15.7248 162.021 15.7248C160.861 15.7248 159.888 16.9194 159.291 18.3018C158.83 19.2916 158.25 21.203 157.994 22.1075L155.587 21.2883C156.833 17.8751 160.332 10.9122 161.253 9.27386C161.458 8.83015 161.782 8.26697 162.089 7.5502L164.513 8.52296ZM179.36 9.2568C181.459 9.54692 184.872 9.46159 186.699 9.23973V11.4412C184.616 11.646 181.51 11.646 179.377 11.4412L179.36 9.2568ZM180.725 16.544C180.589 17.1242 180.521 17.5338 180.521 17.9775C180.521 18.7455 181.186 19.2063 182.927 19.2063C184.446 19.2063 185.709 19.0697 187.193 18.7455L187.245 21.0494C186.135 21.2713 184.753 21.3907 182.825 21.3907C179.889 21.3907 178.473 20.3326 178.473 18.5919C178.473 17.9093 178.575 17.2437 178.78 16.3733L180.725 16.544ZM176.732 8.11338C176.613 8.47176 176.391 9.34213 176.322 9.64932C176.083 10.7757 175.486 14.1889 175.486 15.8955C175.486 16.2368 175.503 16.6634 175.554 17.0048C175.81 16.4245 176.083 15.8443 176.339 15.264L177.398 16.1003C176.903 17.5338 176.339 19.3769 176.169 20.2814C176.118 20.5374 176.066 20.9129 176.066 21.0835C176.083 21.2713 176.083 21.5614 176.101 21.8003L174.138 21.9198C173.797 20.7593 173.472 18.6772 173.472 16.3563C173.472 13.7793 173.984 10.9122 174.172 9.58105C174.24 9.12027 174.326 8.47176 174.343 7.92565L176.732 8.11338ZM196.511 7.58433C196.341 8.19871 196.238 8.77895 196.102 9.32506C195.829 10.6903 195.317 13.199 194.805 14.7862C196.187 14.0353 197.518 13.7281 199.054 13.7281C201.802 13.7281 203.645 15.1787 203.645 17.3802C203.645 21.203 199.942 22.6024 194.412 22.0051L193.815 19.8036C197.57 20.4009 201.341 19.9572 201.341 17.4314C201.341 16.4245 200.454 15.5542 198.781 15.5542C196.819 15.5542 195.078 16.2709 194.071 17.5679C193.883 17.8069 193.747 18.0117 193.593 18.3018L191.579 17.6021C192.842 15.1104 193.798 10.9634 194.02 9.2056C194.105 8.48883 194.122 8.04511 194.088 7.48193L196.511 7.58433ZM190.555 9.58105C191.665 9.76878 193.03 9.90531 194.088 9.90531C196.273 9.90531 199.515 9.64932 202.314 9.05201L202.365 11.0999C200.198 11.4583 196.58 11.8679 194.105 11.8679C192.808 11.8679 191.579 11.7996 190.573 11.6972L190.555 9.58105ZM212.519 10.7074C213.509 10.8098 214.482 10.861 215.523 10.861C217.605 10.861 219.738 10.6903 221.513 10.3149V12.4311C219.721 12.7041 217.571 12.8407 215.523 12.8577C214.516 12.8577 213.543 12.8236 212.536 12.7553L212.519 10.7074ZM219.022 7.84032C218.97 8.16457 218.936 8.57416 218.919 8.93254C218.885 9.49572 218.851 10.6733 218.851 11.902C218.851 15.0422 219.124 17.2608 219.124 18.882C219.124 20.674 218.237 21.971 215.779 21.971C213.407 21.971 211.939 20.9982 211.939 19.2063C211.939 17.4655 213.407 16.2709 215.745 16.2709C218.953 16.2709 221.018 17.8751 222.349 19.1039L221.189 20.8958C219.226 19.0697 217.503 17.9263 215.574 17.9263C214.601 17.9263 213.936 18.3188 213.936 18.9674C213.936 19.6671 214.619 19.9742 215.54 19.9742C216.581 19.9742 216.939 19.4281 216.939 18.4212C216.939 17.2437 216.718 14.3766 216.718 11.9191C216.718 10.6221 216.701 9.47866 216.683 8.96668C216.683 8.69362 216.632 8.16457 216.581 7.84032H219.022ZM210.693 8.01098C210.557 8.3523 210.352 9.23973 210.284 9.54692C210.028 10.6903 209.465 14.4449 209.465 16.1515C209.465 16.4757 209.482 16.9194 209.533 17.2608C209.772 16.6634 210.062 16.0832 210.301 15.503L211.359 16.3392C210.881 17.7557 210.318 19.4793 210.13 20.418C210.079 20.6569 210.028 21.0323 210.045 21.203C210.045 21.3907 210.045 21.6808 210.062 21.9198L208.133 22.0563C207.792 20.8787 207.451 18.9162 207.451 16.6122C207.451 14.0353 207.963 10.8098 208.168 9.49572C208.236 9.01787 208.304 8.3523 208.321 7.82325L210.693 8.01098Z" fill="#0984CF"/>
<path d="M255.995 30.7856H129.067V56.3846H255.995V30.7856Z" fill="#FFF7D6"/>
<path d="M148.454 34.6338H150.723V46.1192H148.454V34.6338ZM150.075 39.1563H152.822V41.0165H150.075V39.1563ZM140.535 48.3549H151.287V50.1638H140.535V48.3549ZM140.535 44.9246H142.805V49.157H140.535V44.9246ZM142.685 35.6407C145.109 35.6407 146.986 37.3302 146.986 39.6683C146.986 41.9892 145.109 43.6788 142.685 43.6788C140.262 43.6788 138.385 41.9892 138.385 39.6683C138.385 37.3302 140.262 35.6407 142.685 35.6407ZM142.685 37.6203C141.525 37.6203 140.603 38.3712 140.603 39.6683C140.603 40.9482 141.525 41.6991 142.685 41.6991C143.863 41.6991 144.767 40.9482 144.767 39.6683C144.767 38.3712 143.863 37.6203 142.685 37.6203ZM154.903 35.4359H157.156V42.0746H154.903V35.4359ZM154.903 41.6138H156.183C158.914 41.6138 160.808 41.5455 162.924 41.1359L163.18 42.9449C160.996 43.3716 159.016 43.4569 156.183 43.4569H154.903V41.6138ZM164.938 34.6338H167.208V44.1054H164.938V34.6338ZM161.184 36.0332H165.501V37.7569H161.184V36.0332ZM161.184 38.7638H165.501V40.4874H161.184V38.7638ZM161.849 44.3102C165.194 44.3102 167.259 45.4536 167.259 47.3821C167.259 49.3276 165.194 50.454 161.849 50.454C158.504 50.454 156.439 49.3276 156.439 47.3821C156.439 45.4536 158.504 44.3102 161.849 44.3102ZM161.849 46.068C159.801 46.068 158.709 46.4947 158.709 47.3821C158.709 48.2695 159.801 48.6962 161.849 48.6962C163.914 48.6962 165.007 48.2695 165.007 47.3821C165.007 46.4947 163.914 46.068 161.849 46.068ZM179.819 34.6338H182.071V50.4369H179.819V34.6338ZM181.56 40.7946H184.358V42.6889H181.56V40.7946ZM169.613 36.9718H178.812V38.7808H169.613V36.9718ZM174.238 39.6683C176.542 39.6683 178.249 41.2383 178.249 43.4398C178.249 45.6414 176.542 47.2114 174.238 47.2114C171.934 47.2114 170.228 45.6414 170.228 43.4398C170.228 41.2383 171.934 39.6683 174.238 39.6683ZM174.238 41.5114C173.163 41.5114 172.395 42.2282 172.395 43.4398C172.395 44.6515 173.163 45.3683 174.238 45.3683C175.313 45.3683 176.081 44.6515 176.081 43.4398C176.081 42.2282 175.313 41.5114 174.238 41.5114ZM173.095 34.8898H175.365V37.6545H173.095V34.8898ZM191.609 39.9413H194.22V41.7844H191.609V39.9413ZM188.23 35.9991H189.971V38.6614C189.971 42.2452 188.981 45.7438 186.455 47.2968L185.09 45.5902C187.411 44.1566 188.23 41.3407 188.23 38.6614V35.9991ZM188.725 35.9991H190.432V38.559C190.432 41.1359 191.097 43.7641 193.248 45.1635L192.019 46.9384C189.51 45.3854 188.725 41.9722 188.725 38.559V35.9991ZM196.797 34.6338H198.965V50.4369H196.797V34.6338ZM193.589 34.8727H195.705V49.7201H193.589V34.8727ZM204.237 42.6548H206.49V47.092H204.237V42.6548ZM209.971 42.6548H212.241V47.092H209.971V42.6548ZM201.097 46.7677H215.398V48.6108H201.097V46.7677ZM208.23 35.4018C211.627 35.4018 214.135 37.0742 214.135 39.6512C214.135 42.2282 211.627 43.8836 208.23 43.8836C204.817 43.8836 202.326 42.2282 202.326 39.6512C202.326 37.0742 204.817 35.4018 208.23 35.4018ZM208.23 37.1766C206.029 37.1766 204.561 38.0811 204.561 39.6512C204.561 41.2042 206.029 42.1258 208.23 42.1258C210.432 42.1258 211.9 41.2042 211.9 39.6512C211.9 38.0811 210.432 37.1766 208.23 37.1766Z" fill="#F6A200"/>
<path d="M255.995 58.5176H129.067V84.1166H255.995V58.5176Z" fill="#E2F2F1"/>
<path d="M148.566 64.5176V76.6504H146.067V66.4758H141.191V76.6504H138.691V64.5176H148.566ZM153 69.3674V80.117H150.6V67.6342H152.824L153 69.3674ZM158.707 72.0423V72.2173C158.707 72.8728 158.629 73.4811 158.474 74.0422C158.324 74.6033 158.101 75.0922 157.807 75.5088C157.512 75.9199 157.147 76.2421 156.707 76.4754C156.274 76.7032 155.774 76.817 155.207 76.817C154.657 76.817 154.179 76.706 153.774 76.4838C153.369 76.2615 153.027 75.9505 152.749 75.5505C152.477 75.1449 152.257 74.6755 152.091 74.1422C151.924 73.6088 151.796 73.0367 151.708 72.4256V71.9673C151.796 71.3118 151.924 70.7118 152.091 70.1674C152.257 69.6173 152.477 69.1424 152.749 68.7424C153.027 68.3368 153.365 68.023 153.765 67.8008C154.171 67.5786 154.646 67.4674 155.19 67.4674C155.763 67.4674 156.266 67.5758 156.699 67.7924C157.138 68.0091 157.504 68.3202 157.799 68.7257C158.099 69.1313 158.324 69.6146 158.474 70.1757C158.629 70.7368 158.707 71.359 158.707 72.0423ZM156.299 72.2173V72.0423C156.299 71.659 156.266 71.3062 156.199 70.984C156.138 70.6562 156.037 70.3701 155.899 70.1257C155.765 69.8812 155.588 69.6924 155.365 69.5591C155.149 69.4202 154.885 69.3507 154.574 69.3507C154.246 69.3507 153.966 69.4035 153.732 69.5091C153.504 69.6146 153.319 69.7674 153.175 69.9674C153.029 70.1674 152.922 70.4062 152.849 70.6839C152.777 70.9618 152.733 71.2756 152.716 71.6257V72.7839C152.744 73.195 152.821 73.5645 152.949 73.8923C153.076 74.2144 153.274 74.4699 153.54 74.6588C153.807 74.8477 154.157 74.9421 154.591 74.9421C154.908 74.9421 155.174 74.8727 155.391 74.7338C155.607 74.5894 155.782 74.3922 155.916 74.1422C156.054 73.8923 156.151 73.6033 156.207 73.2755C156.269 72.9478 156.299 72.595 156.299 72.2173ZM162.591 73.3006L165.616 67.6342H168.016V76.6504H165.616V70.9757L162.591 76.6504H160.191V67.6342H162.591V73.3006ZM174.357 72.884H171.531L171.515 71.309H173.848C174.159 71.309 174.412 71.2784 174.606 71.2173C174.801 71.1507 174.942 71.0534 175.032 70.9256C175.126 70.7923 175.174 70.6313 175.174 70.4424C175.174 70.2756 175.143 70.134 175.082 70.0173C175.026 69.8952 174.94 69.7951 174.823 69.7174C174.706 69.6396 174.559 69.5841 174.381 69.5508C174.209 69.5118 174.007 69.4924 173.773 69.4924H172.423V76.6504H170.023V67.6342H173.773C174.362 67.6342 174.89 67.6869 175.356 67.7924C175.823 67.8925 176.22 68.0452 176.549 68.2508C176.881 68.4563 177.134 68.7174 177.307 69.0341C177.484 69.3451 177.574 69.7146 177.574 70.1423C177.574 70.4202 177.51 70.6812 177.382 70.9256C177.259 71.1701 177.075 71.3868 176.831 71.5757C176.587 71.7646 176.284 71.9201 175.923 72.0423C175.567 72.159 175.157 72.2312 174.689 72.2589L174.357 72.884ZM174.357 76.6504H170.94L171.765 74.7922H174.357C174.651 74.7922 174.893 74.7561 175.082 74.6838C175.271 74.6116 175.409 74.5061 175.498 74.3672C175.593 74.2228 175.64 74.0505 175.64 73.8505C175.64 73.6561 175.598 73.4867 175.515 73.3422C175.432 73.1978 175.295 73.0867 175.106 73.0089C174.923 72.9256 174.673 72.884 174.357 72.884H172.115L172.132 71.309H174.682L175.264 71.9422C175.898 71.9812 176.421 72.1006 176.831 72.3006C177.243 72.5006 177.546 72.7562 177.74 73.0672C177.939 73.3728 178.04 73.7089 178.04 74.0755C178.04 74.5033 177.96 74.8782 177.799 75.2005C177.636 75.5227 177.398 75.7921 177.082 76.0088C176.77 76.2199 176.387 76.381 175.932 76.4922C175.476 76.5976 174.951 76.6504 174.357 76.6504ZM183.665 76.817C182.964 76.817 182.337 76.706 181.781 76.4838C181.226 76.256 180.753 75.9421 180.365 75.5421C179.981 75.1421 179.687 74.6782 179.482 74.1505C179.276 73.6172 179.173 73.0506 179.173 72.4506V72.1173C179.173 71.434 179.271 70.809 179.465 70.2424C179.659 69.6757 179.937 69.1841 180.298 68.7674C180.665 68.3508 181.109 68.0314 181.631 67.8091C182.154 67.5814 182.742 67.4674 183.398 67.4674C184.036 67.4674 184.604 67.573 185.098 67.7841C185.592 67.9952 186.006 68.2952 186.339 68.684C186.678 69.0729 186.934 69.5396 187.106 70.0841C187.279 70.6229 187.364 71.2229 187.364 71.8839V72.884H180.199V71.284H185.006V71.1007C185.006 70.7674 184.945 70.4701 184.822 70.209C184.706 69.9423 184.528 69.7312 184.289 69.5757C184.05 69.4202 183.745 69.3423 183.373 69.3423C183.056 69.3423 182.784 69.4118 182.556 69.5508C182.329 69.6896 182.142 69.884 181.998 70.134C181.859 70.384 181.754 70.6784 181.681 71.0174C181.615 71.3506 181.581 71.7173 181.581 72.1173V72.4506C181.581 72.8117 181.631 73.145 181.731 73.4506C181.837 73.7562 181.984 74.02 182.173 74.2422C182.367 74.4644 182.601 74.6367 182.873 74.7589C183.151 74.881 183.465 74.9421 183.814 74.9421C184.247 74.9421 184.651 74.8588 185.023 74.6922C185.4 74.52 185.726 74.2616 185.998 73.9172L187.165 75.1838C186.976 75.456 186.717 75.7171 186.389 75.9672C186.067 76.2172 185.679 76.4227 185.222 76.5838C184.767 76.7393 184.247 76.817 183.665 76.817ZM193.222 67.6342V76.6504H190.815V67.6342H193.222ZM196.122 67.6342V69.4924H187.956V67.6342H196.122Z" fill="#2A9E9A"/>
</g>
</g>
</g>
<defs>
<clipPath id="clip0_1_6453">
<rect width="256" height="85.33" fill="white" transform="translate(0 0.919922)"/>
</clipPath>
<clipPath id="clip1_1_6453">
<rect width="256" height="85.33" fill="white" transform="translate(0 0.919922)"/>
</clipPath>
<clipPath id="clip2_1_6453">
<rect width="255.99" height="85.33" fill="white" transform="translate(0.00500488 0.919922)"/>
</clipPath>
</defs>
</svg>
