<svg width="308" height="60" viewBox="0 0 308 60" fill="none" xmlns="http://www.w3.org/2000/svg">
<g clip-path="url(#clip0_1_286)">
<g clip-path="url(#clip1_1_286)">
<path d="M92.734 22.7819V37.5386H96.4135C97.3525 37.5247 98.2795 37.3226 99.139 36.9443C99.9985 36.5659 100.773 36.019 101.418 35.3359C102.741 33.9356 103.464 32.0741 103.434 30.1481C103.463 29.1914 103.302 28.2386 102.96 27.3445C102.619 26.4503 102.104 25.6324 101.446 24.9377C100.799 24.2537 100.018 23.7094 99.1533 23.3383C98.2878 22.9672 97.3555 22.7772 96.4135 22.78H92.7363L92.734 22.7819ZM96.4135 18.155C103.272 18.155 108.459 23.4686 108.459 30.1481C108.459 36.8276 103.272 42.1711 96.4135 42.1711H88.2985C88.2213 42.1701 88.1448 42.1539 88.0743 42.1234C88.003 42.0929 87.9385 42.0487 87.8845 41.9933C87.8305 41.9378 87.7878 41.8724 87.7593 41.8005C87.7308 41.7287 87.7165 41.6519 87.7173 41.5745V18.7761C87.7173 18.4459 87.9783 18.1775 88.2985 18.1775L96.4135 18.155ZM126.135 38.0528C129.25 38.0621 132.063 36.1465 133.262 33.1988C133.849 31.7587 134.006 30.1791 133.713 28.6515C133.421 27.1239 132.692 25.714 131.614 24.5925C130.555 23.4894 129.187 22.7335 127.689 22.4246C126.192 22.1158 124.636 22.2685 123.228 22.8626C120.349 24.0784 118.469 26.9547 118.464 30.1481C118.464 34.501 121.891 38.0321 126.135 38.0528ZM126.138 17.6109C133.356 17.6109 138.873 23.2997 138.873 30.1481C138.873 36.9964 133.356 42.6852 126.135 42.6852C118.917 42.6852 113.446 37.0246 113.446 30.1481C113.446 23.2716 118.966 17.6109 126.138 17.6109ZM156.407 38.0528C160.653 38.0415 164.088 34.5066 164.085 30.1537C164.079 25.797 160.636 22.2697 156.392 22.2678C152.144 22.2678 148.699 25.7933 148.694 30.1481C148.694 32.2457 149.506 34.2571 150.953 35.7393C151.661 36.4698 152.508 37.0509 153.444 37.4483C154.381 37.8456 155.39 38.0511 156.407 38.0528ZM156.405 17.6109C163.601 17.6109 169.119 23.2716 169.119 30.1481C169.119 37.0246 163.578 42.6852 156.405 42.6852C149.234 42.6852 143.669 37.0246 143.669 30.1481C143.669 23.2716 149.187 17.6109 156.405 17.6109ZM185.949 22.7819H180.761V29.133H185.949C186.359 29.1512 186.768 29.0852 187.151 28.939C187.535 28.7928 187.884 28.5695 188.178 28.2831C188.778 27.7014 189.12 26.8946 189.127 26.0466C189.142 25.6163 189.07 25.1875 188.916 24.7857C188.76 24.384 188.526 24.0177 188.226 23.7088C187.932 23.4047 187.577 23.1657 187.185 23.0071C186.793 22.8484 186.372 22.7736 185.949 22.7876V22.7819ZM175.742 18.7761C175.742 18.4459 176.004 18.1775 176.325 18.1775H186.093C190.75 18.1775 194.12 21.6768 194.12 26.071C194.155 29.0429 192.532 31.7729 189.942 33.1032L194.446 41.2705C194.508 41.3644 194.544 41.4737 194.547 41.5863C194.552 41.6989 194.524 41.8104 194.469 41.9084C194.415 42.005 194.334 42.0839 194.236 42.1357C194.138 42.1876 194.028 42.2103 193.917 42.2012H189.964C189.854 42.2027 189.747 42.1733 189.653 42.1161C189.559 42.059 189.483 41.9766 189.435 41.8784L185.093 33.7955H180.742V41.5557C180.744 41.6333 180.729 41.7102 180.701 41.7823C180.672 41.8544 180.63 41.9201 180.576 41.9757C180.522 42.0314 180.457 42.0757 180.386 42.1064C180.315 42.137 180.238 42.1532 180.16 42.1542H176.352C176.274 42.1532 176.198 42.137 176.127 42.1064C176.055 42.0757 175.991 42.0314 175.937 41.9757C175.883 41.9201 175.84 41.8544 175.812 41.7823C175.783 41.7102 175.769 41.6333 175.77 41.5557L175.743 18.778L175.742 18.7761ZM207.201 22.8944V37.6531H210.879C211.818 37.6404 212.744 37.4396 213.603 37.0625C214.464 36.6854 215.239 36.1398 215.884 35.4579C217.208 34.0592 217.932 32.1991 217.905 30.2738C217.935 29.3159 217.775 28.3616 217.435 27.4658C217.094 26.57 216.58 25.7503 215.922 25.0541C215.274 24.3689 214.492 23.8239 213.624 23.4527C212.757 23.0816 211.824 22.8923 210.88 22.8964L207.201 22.8944ZM210.879 18.262C217.736 18.262 222.924 23.5812 222.924 30.2738C222.924 36.9664 217.736 42.2855 210.879 42.2855H202.788C202.71 42.2846 202.634 42.2683 202.562 42.2377C202.491 42.2071 202.427 42.1627 202.373 42.107C202.319 42.0515 202.276 41.9858 202.247 41.9137C202.219 41.8416 202.205 41.7646 202.206 41.687V18.8906C202.206 18.5585 202.467 18.2901 202.788 18.2901L210.879 18.262ZM238.227 24.131L235.38 32.0225H241.068L238.227 24.131ZM233.711 36.4823L231.848 41.7359C231.81 41.8595 231.732 41.9671 231.627 42.0419C231.522 42.1166 231.395 42.1541 231.266 42.1486H227.224C227.121 42.1582 227.018 42.1399 226.924 42.0957C226.831 42.0515 226.752 41.9829 226.693 41.8972C226.635 41.8105 226.599 41.7101 226.59 41.6055C226.581 41.501 226.599 41.396 226.643 41.3006L235.375 18.5247C235.415 18.4046 235.494 18.3011 235.599 18.23C235.704 18.1588 235.829 18.1239 235.956 18.1307H240.478C240.605 18.1235 240.731 18.1582 240.837 18.2294C240.942 18.3005 241.021 18.4043 241.061 18.5247L249.794 41.3006C249.837 41.3961 249.855 41.5013 249.846 41.6057C249.837 41.7103 249.801 41.8106 249.741 41.8972C249.684 41.9825 249.603 42.0507 249.51 42.0947C249.416 42.1385 249.313 42.1565 249.21 42.1467H245.171C245.042 42.1523 244.914 42.1147 244.809 42.04C244.704 41.9652 244.626 41.8576 244.589 41.734L242.726 36.4805H233.711V36.4823ZM254.479 24.6431C254.479 20.8718 257.658 17.6109 262.677 17.6109C265.379 17.5506 267.996 18.5616 269.956 20.4234C270.016 20.4799 270.063 20.548 270.096 20.6234C270.129 20.699 270.145 20.7803 270.145 20.8625C270.145 20.9447 270.129 21.026 270.096 21.1015C270.063 21.177 270.016 21.245 269.956 21.3015L267.718 23.5812C267.664 23.6366 267.6 23.6806 267.529 23.7107C267.458 23.7407 267.382 23.7563 267.305 23.7563C267.228 23.7563 267.152 23.7407 267.081 23.7107C267.01 23.6806 266.945 23.6366 266.892 23.5812C265.838 22.593 264.453 22.0331 263.008 22.0108C261.001 22.0108 259.517 23.2059 259.517 24.585C259.517 29.0429 271.38 26.4706 271.38 35.0489C271.374 39.3962 268.172 42.6852 262.509 42.6852C260.936 42.7013 259.377 42.401 257.923 41.8021C256.469 41.2032 255.15 40.318 254.046 39.1991C253.986 39.1427 253.938 39.0746 253.905 38.9991C253.873 38.9236 253.857 38.8423 253.857 38.7601C253.857 38.6779 253.873 38.5966 253.905 38.5211C253.938 38.4455 253.986 38.3775 254.046 38.321L256.211 36.0995C256.265 36.0415 256.33 35.9951 256.403 35.9635C256.475 35.9318 256.553 35.9154 256.633 35.9154C256.712 35.9154 256.79 35.9318 256.863 35.9635C256.936 35.9951 257.001 36.0415 257.055 36.0995C258.418 37.4503 260.253 38.2175 262.172 38.2385C264.68 38.2385 266.333 36.8651 266.333 35.1446C266.333 30.6847 254.475 33.2589 254.475 24.6788M292.893 18.746V27.7596H282.852V18.746C282.852 18.6687 282.838 18.5919 282.81 18.5201C282.781 18.4482 282.738 18.3827 282.684 18.3272C282.63 18.2719 282.566 18.2276 282.495 18.1971C282.424 18.1666 282.348 18.1504 282.27 18.1494H278.461C278.384 18.1504 278.307 18.1666 278.236 18.1971C278.165 18.2276 278.101 18.2719 278.047 18.3272C277.993 18.3827 277.95 18.4482 277.922 18.5201C277.893 18.5919 277.878 18.6687 277.88 18.746V41.5182C277.88 41.8484 278.142 42.1167 278.461 42.1167H282.27C282.589 42.1167 282.852 41.8484 282.852 41.5182V32.3621H292.886V41.5182C292.886 41.8484 293.148 42.1167 293.468 42.1167H297.276C297.597 42.1167 297.857 41.8484 297.857 41.5182V18.746C297.859 18.6687 297.845 18.5919 297.815 18.5201C297.787 18.4482 297.744 18.3827 297.69 18.3272C297.636 18.2719 297.572 18.2276 297.501 18.1971C297.43 18.1666 297.354 18.1504 297.276 18.1494H293.468C293.312 18.1534 293.165 18.2182 293.057 18.3299C292.95 18.4415 292.891 18.5911 292.893 18.746ZM66.3373 21.1889C63.6955 16.292 58.5264 13.243 52.9052 13.2618H10.3742C10.087 13.2629 9.80643 13.3486 9.56756 13.5081C9.32868 13.6676 9.14201 13.8938 9.03078 14.1587C8.92121 14.4218 8.89271 14.7116 8.94881 14.991C9.00498 15.2705 9.14328 15.5268 9.34601 15.7272L18.611 24.9209C19.429 25.7351 20.5435 26.1911 21.703 26.1911H51.6856C53.8227 26.1686 55.5695 27.8609 55.592 29.968C55.6145 32.075 53.9015 33.8012 51.7644 33.8218H31.0937C30.8063 33.8219 30.5252 33.9067 30.2856 34.0655C30.0461 34.2243 29.8586 34.4501 29.7465 34.7149C29.6359 34.9783 29.6067 35.2688 29.6625 35.549C29.7183 35.8292 29.8567 36.0863 30.0599 36.2872L39.3305 45.4883C40.1536 46.3022 41.265 46.7581 42.4225 46.7567H51.7719C63.9357 46.7567 73.1331 33.9231 66.3373 21.1833" fill="#FF3008"/>
</g>
</g>
<defs>
<clipPath id="clip0_1_286">
<rect width="307.5" height="60" fill="white" transform="translate(0.25)"/>
</clipPath>
<clipPath id="clip1_1_286">
<rect width="307.5" height="60" fill="white" transform="translate(0.25)"/>
</clipPath>
</defs>
</svg>
