<svg width="21" height="20" viewBox="0 0 21 20" fill="none" xmlns="http://www.w3.org/2000/svg">
<path d="M10.1367 5.83366H11.8033V7.50033H10.1367V5.83366ZM10.1367 9.16699H11.8033V14.167H10.1367V9.16699ZM10.97 1.66699C6.36999 1.66699 2.63666 5.40033 2.63666 10.0003C2.63666 14.6003 6.36999 18.3337 10.97 18.3337C15.57 18.3337 19.3033 14.6003 19.3033 10.0003C19.3033 5.40033 15.57 1.66699 10.97 1.66699ZM10.97 16.667C7.29499 16.667 4.30332 13.6753 4.30332 10.0003C4.30332 6.32533 7.29499 3.33366 10.97 3.33366C14.645 3.33366 17.6367 6.32533 17.6367 10.0003C17.6367 13.6753 14.645 16.667 10.97 16.667Z" fill="black" fill-opacity="0.6"/>
</svg>
