<svg width="182" height="60" viewBox="0 0 182 60" fill="none" xmlns="http://www.w3.org/2000/svg">
<g clip-path="url(#clip0_1_250)">
<g clip-path="url(#clip1_1_250)">
<path d="M93.0103 32.3572C93.0103 40.6351 99.8735 46.6901 108.594 46.6901C117.313 46.6901 124.184 40.6351 124.184 32.3572V13.339H115.741V31.3767C115.741 35.8449 112.642 38.8538 108.571 38.8538C104.5 38.8538 101.401 35.8599 101.401 31.3767V13.339H92.9585L93.0103 32.3572ZM146.743 20.9508H156.816V46.0614H165.259V20.9508H175.333V13.324H146.743V20.9508ZM141.286 13.324H132.844V46.0614H141.286V13.324ZM58.9034 20.9508H68.9776V46.0614H77.42V20.9508H87.4865V13.324H58.9034V20.9508ZM14.6098 13.324H6.1673V46.0614H14.6098V13.324ZM54.4576 26.9983C54.4576 18.7203 47.5942 12.6729 38.8673 12.6729C30.1403 12.6729 23.277 18.7203 23.277 26.9983V46.0614H31.7195V28.0236C31.7195 23.5554 34.8181 20.5466 38.8897 20.5466C42.9613 20.5466 46.06 23.5404 46.06 28.0236V46.0614H54.5025L54.4501 26.9983H54.4576Z" fill="#236CFF"/>
</g>
</g>
<defs>
<clipPath id="clip0_1_250">
<rect width="180.75" height="60" fill="white" transform="translate(0.5)"/>
</clipPath>
<clipPath id="clip1_1_250">
<rect width="180.75" height="60" fill="white" transform="translate(0.5)"/>
</clipPath>
</defs>
</svg>
