<svg width="60" height="60" viewBox="0 0 60 60" fill="none" xmlns="http://www.w3.org/2000/svg">
<path d="M30 23.45C31.2 23.45 32.325 23.925 33.175 24.775L41.775 33.375C43.525 35.125 43.525 38 41.775 39.75L33.175 48.35C32.325 49.2 31.2 49.675 30 49.675C28.8 49.675 27.675 49.2 26.825 48.35L18.225 39.75C16.475 38 16.475 35.125 18.225 33.375L26.825 24.775C27.675 23.925 28.8 23.45 30 23.45ZM30 19.225C27.775 19.225 25.525 20.075 23.825 21.775L15.225 30.375C11.825 33.775 11.825 39.325 15.225 42.725L23.825 51.325C25.525 53.025 27.775 53.875 30 53.875C32.225 53.875 34.475 53.025 36.175 51.325L44.775 42.725C48.175 39.325 48.175 33.775 44.775 30.375L36.175 21.775C34.475 20.075 32.225 19.225 30 19.225Z" fill="#F2F2F2"/>
<path d="M30 12.85C31.2 12.85 32.325 13.325 33.175 14.175L41.775 22.775C43.525 24.525 43.525 27.4 41.775 29.15L33.175 37.75C32.325 38.6 31.2 39.075 30 39.075C28.8 39.075 27.675 38.6 26.825 37.75L18.225 29.15C16.475 27.4 16.475 24.525 18.225 22.775L26.825 14.175C27.675 13.325 28.8 12.85 30 12.85ZM30 8.625C27.775 8.625 25.525 9.475 23.825 11.175L15.225 19.775C11.825 23.175 11.825 28.725 15.225 32.125L23.825 40.725C25.525 42.425 27.775 43.275 30 43.275C32.225 43.275 34.475 42.425 36.175 40.725L44.775 32.125C48.175 28.725 48.175 23.175 44.775 19.775L36.175 11.175C34.475 9.475 32.225 8.625 30 8.625Z" fill="#F2F2F2"/>
</svg>
