<svg width="207" height="60" viewBox="0 0 207 60" fill="none" xmlns="http://www.w3.org/2000/svg">
<g clip-path="url(#clip0_1_309)">
<g clip-path="url(#clip1_1_309)">
<path d="M36.6065 15.5059H35.7635V17.1536H36.6065V15.5059Z" fill="white"/>
<path d="M36.6065 19.8193H35.7635V21.469H36.6065V19.8193Z" fill="white"/>
<path d="M27.8675 13.2703C27.6172 13.3755 27.3986 13.5444 27.2336 13.7601V22.5339C27.6392 22.216 28.1463 22.0559 28.6609 22.0834L30.3648 22.3215L32.4306 22.5969C33.0628 22.6203 33.6937 22.5265 34.2919 22.3205V13.3685C33.702 13.6079 33.0659 13.7118 32.4306 13.6725L30.2881 13.3902L28.6609 13.16C28.3914 13.127 28.1179 13.165 27.8675 13.2703Z" fill="white"/>
<path d="M19.9009 13.3855C19.9009 13.3854 19.9009 13.3857 19.9009 13.3855C20.4654 13.6187 21.0758 13.7195 21.6854 13.6802L23.8319 13.3959L25.455 13.1637C25.7246 13.131 25.998 13.1691 26.2484 13.2744C26.4986 13.3796 26.7172 13.5483 26.8824 13.7638V22.5436C26.4733 22.2219 25.9609 22.0603 25.4412 22.0891L23.7384 22.3282L21.6854 22.6017C20.1822 22.6017 19.8694 22.2387 19.8654 22.2357C19.8615 22.2327 19.8969 13.9889 19.9009 13.3855Z" fill="white"/>
<path d="M19.5487 14.2903C19.3145 14.3405 18.8365 14.4418 18.6751 14.4743L18.6771 23.3554C19.7005 23.5023 20.7322 23.5828 21.766 23.5965C23.1378 23.5717 24.5074 23.4751 25.8691 23.3073L26.0659 23.2797V23.8837C26.3711 24.0009 26.6951 24.0619 27.022 24.0637C27.3625 24.0599 27.6997 23.9984 28.0195 23.8818V23.2797L28.2163 23.3073C29.5816 23.4754 30.9548 23.572 32.3302 23.5965C33.3617 23.5824 34.3912 23.5018 35.4123 23.3554V14.4655L34.6351 14.249L34.6036 22.4504C34.5584 22.5006 34.1354 22.9492 32.4296 22.9492L30.2871 22.6669L28.66 22.4367C28.3904 22.4036 28.1168 22.4416 27.8665 22.5469C27.6161 22.6521 27.3976 22.821 27.2326 23.0368L27.1844 23.0111H26.9335L26.8853 23.0387C26.7166 22.8224 26.495 22.6534 26.2418 22.5478C25.9887 22.4424 25.7125 22.4041 25.4402 22.4367L23.8132 22.6688L21.6844 22.9492C20.0032 22.9492 19.6342 22.5213 19.5487 22.3373V14.2903Z" fill="white"/>
<path d="M18.32 15.5068H17.4947V17.1546H18.32V15.5068Z" fill="white"/>
<path d="M18.32 19.8203H17.4947V21.47H18.32V19.8203Z" fill="white"/>
<path d="M196.538 12.7418C196.541 12.648 196.521 12.5549 196.48 12.4703H196.039C195.08 12.4703 194.466 12.5117 192.737 12.5117C192.147 12.5117 191.262 12.4703 191.048 12.4703H190.549C190.49 12.5117 190.47 12.7212 190.47 12.797C190.464 12.9139 190.498 13.0293 190.568 13.1235C191.248 13.2257 191.912 13.4129 192.545 13.6803C192.908 14.27 193.101 14.9485 193.102 15.6409C193.12 15.9262 193.14 16.2154 193.14 17.0034V21.014C193.142 21.2897 193.129 21.5652 193.102 21.8394C192.775 21.4745 192.315 20.7868 191.548 19.9202L185.133 12.8176C185.05 12.7208 184.954 12.6363 184.848 12.5668C184.693 12.5668 184.425 12.549 184.273 12.549C183.042 12.549 180.817 12.491 180.49 12.491C180.446 12.5746 180.42 12.6658 180.411 12.7595C180.424 12.8822 180.443 13.004 180.469 13.1246C181.013 13.212 181.517 13.4668 181.91 13.8535C182.296 14.2148 182.636 14.6213 182.924 15.0644C182.989 15.263 183.016 15.4718 183.004 15.6803C183.004 16.6778 182.946 18.0776 182.946 19.4184V23.316C182.95 23.8043 182.913 24.2921 182.833 24.7739C182.268 25.2863 181.569 25.6274 180.817 25.7576C180.773 25.8673 180.747 25.9837 180.742 26.1019C180.742 26.1599 180.76 26.3528 180.796 26.3735H181.162C181.547 26.3735 182.431 26.3154 183.005 26.3154C183.851 26.3154 184.426 26.3735 185.214 26.3735H186.366C186.442 26.3528 186.464 26.1226 186.464 26.0468C186.463 25.9409 186.443 25.836 186.406 25.7369C185.518 25.6334 184.699 25.2102 184.101 24.5466C183.931 23.765 183.848 22.9669 183.853 22.167C183.853 21.5551 183.832 20.7081 183.832 19.5768C183.832 18.0569 183.853 16.7318 183.87 16.0619C183.987 16.1957 184.12 16.3679 184.217 16.4849L193.087 26.4492C193.18 26.5475 193.528 26.5623 193.624 26.5623C193.702 26.5695 193.781 26.5567 193.854 26.5249C193.969 26.2517 194.028 25.9578 194.026 25.6612C194.026 25.1074 194.005 24.5299 194.005 24.2407V16.2331C194.005 13.8318 195.14 13.1579 196.465 13.1029C196.517 12.9886 196.543 12.8638 196.54 12.7379M174.537 18.8371C174.537 21.74 173.732 24.2928 172.639 25.1939C172.063 25.658 171.341 25.902 170.602 25.8825C170.101 25.9096 169.603 25.805 169.155 25.5793C168.707 25.3535 168.326 25.0145 168.05 24.5958C167.254 23.0557 166.864 21.3383 166.915 19.6054C166.915 16.9365 167.604 14.8451 168.835 13.8269C169.39 13.3456 170.099 13.0796 170.833 13.0773C171.343 13.0741 171.845 13.1926 172.3 13.4229C172.753 13.6532 173.146 13.9887 173.444 14.4014C174.267 15.7271 174.65 17.2788 174.538 18.8351M178.012 19.203C178.066 17.9864 177.774 16.7795 177.169 15.7225C176.565 14.6654 175.672 13.8017 174.596 13.2317C173.485 12.5945 172.228 12.2555 170.947 12.248C169.657 12.263 168.392 12.5969 167.263 13.2198C166.134 13.8428 165.177 14.7353 164.476 15.818C163.751 16.9821 163.366 18.3262 163.366 19.6978C163.366 20.7821 163.614 21.852 164.089 22.8264C164.565 23.8009 165.256 24.6542 166.111 25.3218C167.38 26.2477 168.918 26.733 170.489 26.704C171.487 26.7032 172.477 26.5143 173.406 26.1472C174.427 25.7596 175.342 25.1348 176.074 24.3243C177.351 22.9258 178.044 21.0921 178.012 19.199M161.135 16.787V12.8727C161.135 12.5834 161.022 12.5078 160.732 12.5078C160.155 12.5078 157.124 12.5834 154.053 12.5834C151.669 12.5834 149.692 12.5461 148.619 12.5461H147.194C146.947 12.5461 146.871 12.6012 146.871 12.8727V16.5391C146.963 16.5937 147.07 16.62 147.177 16.6148C147.319 16.6211 147.461 16.6086 147.6 16.5774C148.116 15.24 149.062 14.1122 150.289 13.3715C150.864 13.3134 151.995 13.2957 152.301 13.2957C152.322 13.5053 152.342 14.1811 152.359 14.9848C152.38 16.362 152.38 16.9621 152.38 20.2232C152.38 23.0474 152.359 24.3164 152.322 24.6224C152.246 25.1585 152.342 25.5618 150.037 25.6573C149.989 25.7987 149.968 25.9487 149.98 26.098C149.976 26.2017 149.983 26.3055 150 26.4079H150.747C151.459 26.4079 153.127 26.3291 153.822 26.3291C154.375 26.3291 156.164 26.3872 157.333 26.3872H157.87C157.918 26.2587 157.937 26.1215 157.928 25.9849C157.932 25.8656 157.906 25.7473 157.852 25.6406C157.173 25.6902 156.492 25.5645 155.875 25.2756C155.758 24.8042 155.698 24.3202 155.7 23.8344C155.682 21.7598 155.662 20.9727 155.662 19.5896C155.662 17.8041 155.683 16.5971 155.683 13.274C155.952 13.274 156.568 13.2534 157.141 13.274C158.058 13.4573 158.873 13.9774 159.425 14.732C159.85 15.3861 160.193 16.0902 160.446 16.8283C160.552 16.8565 160.663 16.8681 160.773 16.8627C160.898 16.8614 161.022 16.8357 161.138 16.787M144.589 23.0267C144.595 22.8419 144.588 22.6569 144.569 22.4729C144.482 22.4199 144.38 22.3994 144.28 22.4149C144.138 22.4087 143.995 22.4213 143.857 22.4522C143.41 23.5928 142.684 24.6029 141.745 25.3897C141.289 25.578 140.794 25.65 140.303 25.5992H138.73C138.305 25.6064 137.881 25.5735 137.464 25.5008C137.174 25.4458 136.873 24.9854 136.735 24.6794C136.539 24.3078 136.465 23.8845 136.521 23.4685V19.264H137.233C137.637 19.2761 138.035 19.3684 138.403 19.5355C138.775 19.6951 139.081 19.9796 139.267 20.3402C139.441 20.8555 139.551 21.3905 139.593 21.9329C139.753 21.9909 139.924 22.0166 140.095 22.0086C140.228 22.0159 140.362 21.9833 140.476 21.9152C140.476 21.3957 140.359 19.9959 140.359 19.2257C140.359 18.2665 140.493 16.9414 140.556 16.2498C140.437 16.1948 140.306 16.1689 140.174 16.1741C140.006 16.1633 139.837 16.1829 139.675 16.2321C139.618 16.4968 139.404 17.3054 139.366 17.3634C139.069 17.8444 138.604 18.1994 138.062 18.3609C137.698 18.4542 137.324 18.506 136.948 18.5154H136.542V16.7289C136.542 14.8883 136.579 14.2932 136.597 13.946C136.618 13.7157 136.654 13.4678 136.675 13.2957C137.058 13.2527 137.443 13.2389 137.827 13.2544C138.938 13.2544 139.457 13.275 139.63 13.275C140.07 13.274 140.5 13.4087 140.861 13.6607C141.619 14.3318 142.243 15.1394 142.702 16.0413C142.835 16.0715 142.972 16.0841 143.108 16.0787C143.221 16.0787 143.242 16.0413 143.397 15.9616C143.397 14.792 143.318 13.275 143.28 12.794C143.26 12.5972 143.222 12.5461 142.84 12.5461C142.685 12.5461 141.954 12.5087 141.189 12.5087C140.095 12.5087 139.651 12.5264 137.98 12.5264C137.079 12.5264 135.214 12.5471 134.427 12.5471C133.278 12.5471 132.298 12.5097 131.799 12.5097H131.146C131.087 12.6014 131.053 12.7068 131.047 12.8156C131.05 12.9488 131.083 13.0796 131.146 13.1973C131.618 13.2344 132.088 13.3058 132.55 13.4108C132.754 13.55 132.924 13.7356 133.043 13.9526C133.163 14.1695 133.23 14.4116 133.238 14.6591C133.279 15.0615 133.296 16.1761 133.296 17.0604V21.0131C133.296 21.8217 133.279 22.9904 133.259 23.4724C133.224 24.0995 133.081 24.716 132.839 25.2953C132.283 25.4918 131.698 25.5897 131.108 25.5845C131.048 25.7177 131.014 25.8614 131.01 26.0075C131.013 26.1287 131.047 26.2473 131.108 26.3518H131.741C132.357 26.3518 134.62 26.2937 135.14 26.2937C135.621 26.2937 136.543 26.3312 137.654 26.3312C138.27 26.3312 140.076 26.4482 143.95 26.4482C144.124 26.4636 144.299 26.451 144.469 26.4108C144.523 26.3168 144.55 26.2093 144.545 26.1009C144.586 25.7192 144.586 24.584 144.586 23.0297M128.345 23.7036C128.305 23.5642 128.218 23.4427 128.099 23.359C127.981 23.2754 127.837 23.2345 127.692 23.2432C127.651 23.2432 127.594 23.2609 127.558 23.2609C127.163 23.937 126.599 24.4992 125.923 24.8928C125.245 25.2863 124.478 25.4979 123.695 25.5068C122.872 25.5109 122.065 25.2729 121.376 24.8223C120.686 24.3718 120.145 23.7286 119.818 22.9727C119.425 21.8508 119.225 20.6702 119.228 19.4814C119.189 18.3339 119.385 17.1905 119.803 16.121C120.649 13.8958 121.877 13.2002 123.376 13.2002C123.988 13.2296 124.584 13.4013 125.117 13.7017C125.65 14.0021 126.106 14.423 126.448 14.9306C126.886 15.6534 127.215 16.4371 127.424 17.2562C127.563 17.2893 127.705 17.3078 127.847 17.3113C128.013 17.2943 128.172 17.235 128.308 17.1392C128.291 16.9256 128.098 15.4501 128.098 14.9897C128.098 14.4122 128.25 13.4728 128.25 13.1078C128.023 12.9749 127.766 12.9015 127.503 12.8943C127.252 13.1273 127.033 13.3918 126.85 13.6813C125.643 12.7237 124.127 12.2393 122.588 12.3188C121.698 12.2919 120.811 12.4463 119.983 12.7727C119.155 13.0991 118.401 13.5907 117.768 14.2175C117.075 14.9318 116.536 15.7802 116.182 16.7106C115.83 17.6411 115.67 18.6338 115.715 19.628C115.684 20.7303 115.912 21.8244 116.383 22.8218C116.854 23.8193 117.552 24.6919 118.422 25.3691C119.743 26.2544 121.308 26.7053 122.897 26.6587C123.82 26.722 124.746 26.569 125.6 26.2119C126.454 25.8548 127.213 25.3035 127.816 24.6017C128.035 24.3264 128.216 24.0234 128.356 23.7006M113.406 12.7418C113.407 12.6482 113.387 12.5554 113.348 12.4703H112.904C111.946 12.4703 111.331 12.5117 109.602 12.5117C109.012 12.5117 108.127 12.4703 107.913 12.4703H107.414C107.356 12.5117 107.335 12.7212 107.335 12.797C107.329 12.914 107.363 13.0299 107.434 13.1235C108.114 13.2266 108.778 13.4136 109.412 13.6803C109.773 14.2709 109.964 14.949 109.966 15.6409C109.987 15.9262 110.008 16.2154 110.008 17.0034V21.014C110.011 21.2897 109.997 21.5654 109.966 21.8394C109.642 21.4745 109.179 20.7868 108.412 19.9202L102.004 12.8176C101.92 12.7205 101.823 12.636 101.715 12.5668C101.56 12.5668 101.292 12.549 101.14 12.549C99.9082 12.549 97.683 12.491 97.3567 12.491C97.314 12.5747 97.2885 12.6659 97.281 12.7595C97.2922 12.8822 97.311 13.004 97.3357 13.1246C97.8802 13.212 98.3842 13.4668 98.7772 13.8535C99.165 14.2138 99.507 14.6205 99.7957 15.0644C99.8587 15.2633 99.8842 15.4721 99.8715 15.6803C99.8715 16.6778 99.816 18.0776 99.816 19.4184V23.316C99.8197 23.8044 99.78 24.2922 99.699 24.7739C99.1342 25.2863 98.4352 25.6274 97.683 25.7576C97.6402 25.8678 97.6147 25.9839 97.6072 26.1019C97.6072 26.1599 97.6252 26.3528 97.6627 26.3735H98.028C98.4135 26.3735 99.297 26.3154 99.8715 26.3154C100.717 26.3154 101.292 26.3735 102.079 26.3735H103.228C103.304 26.3528 103.327 26.1226 103.327 26.0468C103.326 25.9409 103.306 25.836 103.269 25.7369C102.382 25.6331 101.565 25.2099 100.968 24.5466C100.8 23.7647 100.717 22.9668 100.72 22.167C100.72 21.5551 100.699 20.7081 100.699 19.5768C100.699 18.0569 100.72 16.7318 100.737 16.0619C100.854 16.1957 100.987 16.3679 101.084 16.4849L109.951 26.4492C110.117 26.5322 110.302 26.5712 110.488 26.5623C110.566 26.5701 110.646 26.5572 110.718 26.5249C110.833 26.2517 110.892 25.9578 110.89 25.6612C110.89 25.1074 110.869 24.5299 110.869 24.2407V16.2331C110.869 13.8318 112.004 13.1579 113.329 13.1029C113.382 12.9887 113.409 12.8639 113.407 12.7379M94.4212 26.0419C94.422 25.9112 94.4025 25.781 94.3635 25.6563C93.8872 25.6244 93.4125 25.5669 92.943 25.4841C92.5957 25.0603 92.37 24.5504 92.2897 24.0086C92.2725 23.0868 92.2522 21.1842 92.2522 19.4027V14.6808C92.2342 14.3045 92.358 13.9351 92.5995 13.6459C93.1125 13.3247 93.7042 13.1521 94.3095 13.1471C94.3455 13.0289 94.3642 12.9059 94.3642 12.7822C94.3627 12.6715 94.3282 12.5638 94.266 12.4723H93.7087C92.9047 12.4723 91.0222 12.5707 90.3645 12.5707C89.9617 12.5707 88.08 12.5156 87.234 12.4949H86.814C86.7412 12.5876 86.706 12.7042 86.7157 12.8216C86.7187 12.944 86.7315 13.066 86.7532 13.1865C87.264 13.1808 87.7717 13.2719 88.2495 13.4551C88.4655 13.6663 88.6342 13.9214 88.7445 14.2032C88.854 14.485 88.9027 14.787 88.8855 15.089C88.9035 15.454 88.92 16.241 88.941 18.0058C88.9612 18.9659 88.9785 20.3107 88.9785 21.4213C88.9785 21.9781 88.941 23.2274 88.92 23.9013C88.902 24.2981 88.812 24.6883 88.656 25.0532C88.4257 25.2422 88.191 25.5894 86.7862 25.6858C86.7487 25.8166 86.7292 25.952 86.7285 26.0882C86.7285 26.2426 86.766 26.3183 86.766 26.4147H87.0922C87.8625 26.4147 89.7817 26.3164 90.7792 26.3164C91.0687 26.3164 93.0637 26.3744 93.696 26.3744H94.3395C94.3882 26.2724 94.4145 26.1609 94.4152 26.0478M79.02 16.0206C79.0327 16.6046 78.8745 17.1795 78.5647 17.6746C78.255 18.1697 77.8065 18.5632 77.2762 18.8066C76.7587 18.9195 76.2307 18.9704 75.702 18.9581C75.4642 18.9635 75.2257 18.951 74.9896 18.9207L74.969 17.2867V13.7531C74.9548 13.6025 74.9965 13.4519 75.0862 13.3301C75.345 13.2363 75.6202 13.1978 75.8947 13.217C77.391 13.217 78.0442 13.3508 78.5812 14.2558C78.8857 14.7931 79.038 15.4032 79.0222 16.0206M84.591 26.0645C84.5887 25.9235 84.555 25.7846 84.4927 25.6583C84.0577 25.6692 83.625 25.5846 83.2267 25.4104C83.1067 25.2577 82.9972 25.097 82.8997 24.9293C82.6672 24.178 82.3912 23.4407 82.0747 22.7208C81.7477 21.8776 81.2655 21.1029 80.6542 20.4366C80.2042 20.1623 79.719 19.9496 79.2127 19.8041C78.9067 19.687 78.6562 19.5906 78.426 19.4942C78.6855 19.4411 78.9487 19.4033 79.2127 19.3811C79.977 19.3871 80.7202 19.1363 81.3247 18.6689C81.7072 18.3777 82.0147 17.9996 82.2217 17.5659C82.4287 17.1323 82.5292 16.6554 82.515 16.1751C82.5232 15.4163 82.2967 14.6735 81.867 14.0482C81.4372 13.4228 80.8252 12.9453 80.1142 12.6809C79.359 12.5149 78.5857 12.4432 77.8132 12.4674C76.3717 12.4674 74.3562 12.6012 73.397 12.6012C73.1078 12.6012 71.4364 12.5638 70.7656 12.5638C70.4763 12.5638 69.7474 12.5264 69.6343 12.5264C69.5811 12.6416 69.5479 12.7651 69.5359 12.8914C69.5383 13.008 69.5507 13.1242 69.5733 13.2386C69.8998 13.276 70.495 13.3517 70.801 13.4108C71.1664 13.6677 71.4466 14.0282 71.6056 14.4457C71.7279 16.0753 71.767 17.7101 71.7227 19.3437C71.7227 21.3003 71.7433 23.5679 71.647 24.2968C71.6437 24.5622 71.5688 24.8219 71.4303 25.0483C71.2918 25.2747 71.0947 25.4597 70.86 25.5835C70.4978 25.6466 70.1327 25.6912 69.766 25.7173C69.7065 25.8361 69.673 25.9662 69.6677 26.099C69.6791 26.2052 69.7046 26.3093 69.7435 26.4089C70.015 26.4089 72.9523 26.3508 73.5652 26.3508C74.7929 26.3508 75.828 26.4089 76.926 26.4089C76.968 26.3177 76.9935 26.2198 77.0017 26.1197C77.0002 25.9821 76.9747 25.8458 76.926 25.7173C76.5397 25.6799 76.062 25.5629 75.8497 25.5206C75.5932 25.3995 75.3787 25.2058 75.2317 24.9635C75.0847 24.7212 75.0127 24.4411 75.024 24.158L75.0105 19.7264C75.1762 19.7117 75.3427 19.7059 75.5092 19.7087C75.8692 19.7132 76.221 19.8193 76.524 20.0146C77.1547 20.3263 77.682 20.8121 78.0442 21.4145C78.6982 22.7052 79.1077 24.1061 79.251 25.5461C79.3095 25.9484 79.461 26.2928 79.8285 26.3331C79.98 26.3537 80.9985 26.3912 81.7275 26.3912H84.4755C84.549 26.2991 84.5887 26.1851 84.5887 26.0675M63.7378 16.1161C63.7543 16.5626 63.6757 17.0077 63.5073 17.4216C63.3389 17.8356 63.0845 18.2091 62.7609 18.5174C62.1718 18.9088 61.468 19.0904 60.763 19.0328C60.4873 19.0386 60.2116 19.0261 59.9376 18.9954C59.7832 18.9787 59.6868 18.9581 59.6868 18.8617L59.7074 13.2377C60.0763 13.1795 60.4486 13.1466 60.822 13.1393C62.1254 13.1393 62.9341 13.4659 63.3157 14.2706C63.5989 14.8436 63.7438 15.475 63.7387 16.1141M67.1749 16.1898C67.1823 15.4966 66.9936 14.8154 66.6304 14.2249C66.2674 13.6343 65.7448 13.1584 65.1229 12.852C64.0137 12.4978 62.8493 12.3485 61.6867 12.4113C60.2111 12.4113 57.9033 12.5244 56.888 12.5244C56.1709 12.5255 55.0977 12.4467 54.4986 12.4467C54.4424 12.5396 54.4087 12.6444 54.4002 12.7527C54.3922 12.8839 54.412 13.0153 54.4582 13.1383C54.8232 13.2515 55.4173 13.3478 55.803 13.4442C56.1074 13.7303 56.2917 14.1213 56.3185 14.5382C56.3765 15.212 56.4169 16.055 56.4169 17.5139C56.4169 21.566 56.3992 23.6987 56.3411 24.159C56.3062 24.4663 56.1849 24.7574 55.9912 24.9986C55.7977 25.2397 55.5397 25.421 55.2472 25.5215C54.8794 25.6068 54.5074 25.6724 54.1326 25.7183C54.108 25.8509 54.0955 25.9856 54.0952 26.1206C54.0907 26.2133 54.1096 26.3057 54.1504 26.3891C54.7661 26.3891 56.5723 26.3134 57.2629 26.3134C58.9726 26.3134 60.7197 26.3891 61.428 26.3891H61.91C61.959 26.2951 61.9792 26.1887 61.9681 26.0832C61.9771 25.9659 61.963 25.8479 61.9267 25.736C61.2769 25.7249 60.6468 25.5109 60.1245 25.1241C59.8575 24.8078 59.7197 24.4024 59.7389 23.9888L59.6809 19.7687C60.8328 19.8444 62.0615 19.8818 62.7304 19.8818C63.4855 19.8824 64.2361 19.7663 64.9556 19.5375C65.6198 19.2701 66.1869 18.8069 66.5814 18.2095C66.9759 17.612 67.1791 16.9086 67.1641 16.1928" fill="black"/>
<path d="M196.844 34.15C196.844 34.0368 196.769 33.9985 196.731 33.9198C195.944 33.9198 194.908 33.9778 194.502 33.9778C193.525 33.9778 192.337 33.8991 191.815 33.8991C191.757 34.0162 191.737 34.0368 191.737 34.1333C191.737 34.2118 191.751 34.2897 191.778 34.3635C192.334 34.4766 193.14 34.6113 193.295 34.8789C193.421 35.1079 193.48 35.3675 193.467 35.6286C193.475 35.8713 193.435 36.1134 193.35 36.3408C193.177 36.8189 192.814 37.5684 192.297 38.625C191.412 40.4105 190.856 41.5211 190.546 41.9697C190.048 41.1237 188.937 38.8985 188.669 38.324L187.591 35.9817C187.54 35.8132 187.515 35.6382 187.515 35.4623C187.507 35.2926 187.532 35.123 187.591 34.9635C187.763 34.6163 188.358 34.5779 189.165 34.4815C189.199 34.389 189.218 34.2912 189.22 34.1923C189.22 34.0585 189.165 34.0939 189.107 34.0034H188.763C187.473 34.0034 187.858 34.0585 185.65 34.0585C184.711 34.0585 183.575 34.0034 183.425 34.0034C183.346 34.1372 183.307 34.1549 183.307 34.2887C183.309 34.3718 183.337 34.4524 183.386 34.5189C184.666 34.8288 185.059 35.055 185.188 35.3059L188.549 41.8969C188.804 42.3535 189.01 42.8355 189.165 43.3351C189.299 44.0955 189.351 44.8683 189.319 45.64C189.352 45.9181 189.313 46.2 189.205 46.4585C189.097 46.7169 188.924 46.9432 188.704 47.1156C188.199 47.2428 187.684 47.3268 187.166 47.3664C187.105 47.4433 187.071 47.5374 187.068 47.635C187.075 47.7143 187.094 47.792 187.126 47.8652C188.11 47.8652 189.124 47.8445 189.698 47.8445C190.1 47.8445 190.716 47.8652 191.848 47.8819C192.501 47.9025 193 47.9232 193.344 47.9232C193.396 47.849 193.431 47.7628 193.442 47.6724C193.443 47.5825 193.416 47.4947 193.363 47.4215C192.787 47.3995 192.219 47.2686 191.691 47.0359C191.518 46.8849 191.383 46.6956 191.295 46.4829C191.208 46.2703 191.172 46.0403 191.189 45.8112L191.038 42.9288C191.031 42.7717 191.056 42.6149 191.113 42.4684C191.167 42.2835 191.236 42.1041 191.324 41.9323L194.281 36.0741C194.589 35.5608 195.009 35.1237 195.509 34.7953C195.907 34.6155 196.327 34.486 196.757 34.4097C196.799 34.332 196.825 34.2467 196.833 34.1589M181.324 38.1144V34.3812C181.324 34.092 181.207 34.0162 180.917 34.0162C180.343 34.0162 177.691 34.092 174.622 34.092C172.241 34.092 170.648 34.0545 169.572 34.0545H168.151C167.903 34.0545 167.825 34.1126 167.825 34.3812V37.8557C167.89 37.9092 167.971 37.9372 168.055 37.9344C168.133 37.9406 168.213 37.9278 168.285 37.897C169.035 36.2247 169.417 35.3393 170.707 34.6881C171.282 34.633 173.297 34.6123 173.603 34.6123C173.624 34.8258 173.644 35.4977 173.662 36.3014C173.682 37.6836 173.682 38.4342 173.682 41.6982C173.682 44.5185 173.662 45.9804 173.624 46.2863C173.548 46.8224 173.645 47.2257 171.34 47.3212C171.291 47.4227 171.271 47.5356 171.282 47.6478C171.278 47.7251 171.285 47.8025 171.302 47.8779H172.049C172.761 47.8779 173.7 47.8022 174.391 47.8022C174.948 47.8022 176.005 47.8602 177.177 47.8602H177.713C177.76 47.7716 177.781 47.671 177.772 47.571C177.776 47.4753 177.748 47.3806 177.693 47.3025C177.013 47.3516 176.332 47.226 175.715 46.9375C175.599 46.466 175.541 45.982 175.543 45.4964C175.525 43.4226 175.506 42.4468 175.506 41.0627C175.506 39.2772 175.526 37.9147 175.526 34.5927C175.795 34.5927 177.215 34.572 177.789 34.5927C178.673 34.7766 179.45 35.3001 179.953 36.0506C180.369 36.6879 180.661 37.3971 180.817 38.142C180.91 38.1729 181.008 38.1856 181.106 38.1794C181.184 38.1771 181.258 38.1506 181.32 38.1036M165.364 47.5868C165.364 47.4941 165.344 47.4024 165.305 47.3182C164.829 47.286 164.355 47.2286 163.885 47.1461C163.538 46.7222 163.312 46.2123 163.231 45.6705C163.215 44.7487 163.195 42.6573 163.195 40.8718V35.9935C163.179 35.6181 163.301 35.25 163.539 34.9586C164.051 34.6365 164.643 34.4625 165.248 34.4559C165.286 34.3786 165.306 34.294 165.307 34.2081C165.307 34.165 165.299 34.1225 165.282 34.083C165.265 34.0434 165.24 34.0077 165.209 33.9778H164.655C163.846 33.9778 162.694 34.0762 162.041 34.0762C161.639 34.0762 160.487 34.0182 159.641 34.0005H159.218C159.184 34.031 159.157 34.0695 159.141 34.1128C159.124 34.1561 159.119 34.2026 159.126 34.2483C159.13 34.333 159.142 34.4171 159.163 34.4992C159.674 34.4934 160.182 34.5845 160.66 34.7678C160.876 34.979 161.044 35.2341 161.155 35.5158C161.264 35.7977 161.312 36.0998 161.296 36.4017C161.314 36.7628 161.33 37.7436 161.351 39.5113C161.371 40.4715 161.388 41.7739 161.388 42.8895C161.388 43.4463 161.351 44.8845 161.33 45.5583C161.312 45.9552 161.223 46.3455 161.065 46.7103C160.831 46.9071 160.601 47.2464 159.202 47.3428C159.164 47.4347 159.145 47.5329 159.143 47.632C159.143 47.7865 159.181 47.7865 159.181 47.88H159.508C160.278 47.88 161.468 47.7875 162.466 47.7875C162.755 47.7875 164.02 47.8425 164.657 47.8425H165.286C165.336 47.7684 165.364 47.6813 165.365 47.5917M155.879 44.0591C155.899 43.3431 155.703 42.6378 155.316 42.0351C154.928 41.4325 154.369 40.9606 153.709 40.681C153.029 40.3491 152.316 40.0918 151.58 39.9137C150.617 39.6605 149.684 39.3063 148.795 38.8572C148.434 38.6436 148.138 38.3359 147.938 37.9669C147.74 37.598 147.644 37.1817 147.663 36.7628C147.738 36.1116 148.061 35.5145 148.566 35.096C149.07 34.6775 149.716 34.47 150.37 34.5169C150.885 34.5151 151.392 34.6362 151.85 34.8701C152.307 35.104 152.702 35.444 153.002 35.8617C153.491 36.5371 153.891 37.2723 154.192 38.0495C154.297 38.0937 154.414 38.1028 154.525 38.0755C154.636 38.0482 154.735 37.986 154.808 37.898C154.723 37.3247 154.672 36.7469 154.654 36.1676C154.674 35.6652 154.732 35.165 154.828 34.6713C154.769 34.5761 154.681 34.5001 154.579 34.4526C154.477 34.4049 154.364 34.3877 154.252 34.4028C153.974 34.6007 153.722 34.832 153.502 35.0914C152.601 34.3005 151.436 33.875 150.238 33.8982C149.728 33.8583 149.215 33.923 148.73 34.0884C148.246 34.2538 147.801 34.5164 147.421 34.8601C147.043 35.2038 146.737 35.6213 146.526 36.087C146.314 36.5527 146.199 37.0569 146.188 37.5684C146.212 38.3267 146.459 39.0612 146.897 39.6805C147.374 40.3158 148.022 40.8015 148.766 41.0804C149.32 41.3106 151.816 42.0641 152.161 42.195C153.698 42.7852 154.276 43.3095 154.276 44.672C154.239 45.3999 153.938 46.0894 153.43 46.6119C153.164 46.9117 152.835 47.1483 152.466 47.3042C152.097 47.4601 151.697 47.5314 151.297 47.513C150.689 47.5176 150.088 47.3934 149.532 47.1486C148.976 46.9037 148.478 46.5438 148.07 46.0925C147.5 45.3034 147.06 44.4279 146.768 43.4994C146.68 43.471 146.59 43.4593 146.498 43.4649C146.368 43.4652 146.241 43.5046 146.134 43.5781C146.134 43.8289 146.209 45.095 146.209 45.4767C146.201 46.0534 146.131 46.6276 145.999 47.1894C146.06 47.301 146.149 47.3948 146.257 47.4618C146.365 47.5287 146.489 47.5663 146.616 47.571C146.888 47.2996 147.215 47.0896 147.575 46.9552C147.74 46.9704 147.898 47.031 148.032 47.1303C148.979 47.7717 150.098 48.1066 151.241 48.0894C153.949 48.0894 155.884 46.7241 155.884 44.0562M138.902 37.4307C138.886 38.0662 138.676 38.6814 138.298 39.1932C137.921 39.705 137.396 40.0887 136.794 40.2924C136.134 40.4052 135.466 40.456 134.796 40.4439C134.566 40.4439 133.911 40.4439 133.624 40.4065L133.606 38.7174V35.0924C133.606 34.8416 133.664 34.7068 133.74 34.6488C134.182 34.5645 134.632 34.5267 135.082 34.5356C136.888 34.5356 137.713 34.7078 138.366 35.6463C138.728 36.1699 138.916 36.7943 138.902 37.4307ZM142.936 47.6055C142.935 47.5018 142.902 47.4009 142.842 47.3163C142.406 47.3271 141.973 47.2425 141.573 47.0684C141.454 46.9146 141.345 46.7536 141.247 46.5864C141.02 45.7737 140.752 44.9734 140.442 44.189C140.116 43.3443 139.634 42.5685 139.021 41.9018C138.592 41.6265 138.127 41.4136 137.639 41.2692C137.332 41.1522 137.081 41.0597 136.851 40.9633C137.111 40.9104 137.374 40.8713 137.639 40.8462C138.374 40.8286 139.086 40.581 139.675 40.1379C140.066 39.8546 140.385 39.4825 140.605 39.0521C140.825 38.6217 140.94 38.1453 140.941 37.6619C140.948 36.9054 140.722 36.1652 140.292 35.5426C139.862 34.92 139.25 34.4456 138.54 34.1844C137.783 34.0202 137.009 33.9498 136.235 33.9749C134.798 33.9749 133.721 34.1087 132.76 34.1087C132.476 34.1087 131.533 34.0713 130.862 34.0713C130.573 34.0713 129.844 34.0339 129.727 34.0339C129.672 34.1677 129.628 34.206 129.628 34.2818C129.632 34.3726 129.646 34.4628 129.67 34.5504C129.994 34.5917 130.588 34.6674 130.897 34.7255C131.263 34.9816 131.544 35.3423 131.702 35.7603C131.8 36.3762 131.819 38.1027 131.819 40.8099C131.819 42.7665 131.837 45.2259 131.741 45.9558C131.74 46.2216 131.665 46.482 131.527 46.7089C131.388 46.9357 131.19 47.1202 130.954 47.2425C130.591 47.3057 130.226 47.3503 129.859 47.3763C129.802 47.4546 129.768 47.5478 129.761 47.6448C129.774 47.7256 129.801 47.8035 129.841 47.875C130.11 47.875 132.317 47.817 132.93 47.817C134.161 47.817 134.467 47.875 135.562 47.875C135.604 47.8124 135.631 47.7405 135.641 47.6655C135.64 47.5638 135.613 47.4641 135.562 47.3763C135.18 47.3389 134.698 47.2218 134.485 47.1874C134.23 47.0651 134.016 46.8706 133.87 46.6279C133.723 46.3852 133.651 46.105 133.663 45.822L133.643 41.0233C133.797 41.0027 134.351 41.0027 134.506 41.0027C135.031 40.9773 135.555 41.0691 136.039 41.2713C136.804 41.5972 137.458 42.1369 137.924 42.8255C138.577 44.1361 138.989 45.5543 139.135 47.0113C139.19 47.4136 139.345 47.7609 139.71 47.7983C140.08 47.8455 140.452 47.8649 140.825 47.8563H142.819C142.855 47.8252 142.884 47.7866 142.903 47.7433C142.923 47.7 142.933 47.653 142.933 47.6055M126.825 44.6887C126.829 44.5029 126.824 44.317 126.807 44.1319C126.721 44.0789 126.618 44.0583 126.518 44.0739C126.433 44.068 126.347 44.0808 126.267 44.1113C125.983 45.2965 125.28 46.3394 124.289 47.0487C123.769 47.245 123.211 47.3181 122.659 47.2622H120.506C120.082 47.2592 119.658 47.2263 119.237 47.1638C118.952 47.1057 118.647 46.6443 118.511 46.3384C118.321 45.9248 118.247 45.4669 118.298 45.0144V40.6407H118.914C119.47 40.6094 120.027 40.7011 120.544 40.9092C120.962 41.0768 121.322 41.3639 121.579 41.7345C121.735 42.252 121.827 42.787 121.85 43.3272C121.94 43.388 122.048 43.4157 122.156 43.4059C122.266 43.4112 122.375 43.3762 122.462 43.3076C122.462 42.7881 122.349 41.3883 122.349 40.618C122.349 39.6589 122.482 38.4892 122.538 37.7976C122.447 37.7395 122.339 37.713 122.232 37.7219C122.127 37.7118 122.021 37.7309 121.926 37.777C121.868 38.0456 121.712 38.8532 121.678 38.9122C121.312 39.4044 120.793 39.7623 120.202 39.9304C119.687 40.0467 119.158 40.0977 118.628 40.0819H118.322V38.202C118.322 36.3585 118.36 35.6118 118.378 35.2646C118.398 35.0343 118.435 34.7865 118.456 34.6113C118.628 34.5936 119.186 34.574 120.07 34.574C121.18 34.574 122.007 34.5946 122.182 34.5946C122.62 34.5945 123.048 34.7277 123.41 34.9764C124.21 35.5773 124.807 36.4092 125.119 37.3599C125.193 37.3872 125.271 37.3989 125.35 37.3944C125.462 37.3944 125.483 37.3599 125.635 37.2812C125.635 36.1116 125.559 34.7874 125.521 34.3064C125.501 34.1097 125.464 34.0556 125.078 34.0556C124.927 34.0556 124.192 34.0182 123.43 34.0182C122.333 34.0182 121.892 34.0389 120.221 34.0389C119.32 34.0389 117.728 34.0566 116.939 34.0566C115.787 34.0566 115.536 34.0191 115.037 34.0191H114.384C114.327 34.0831 114.292 34.164 114.285 34.2493C114.288 34.3472 114.322 34.4415 114.384 34.5179C114.856 34.5547 115.325 34.626 115.787 34.7314C116.056 34.9616 116.304 35.0206 116.476 35.9384C116.513 36.3447 116.534 37.6482 116.534 38.5315V42.4871C116.534 43.2918 116.513 44.6199 116.493 45.0979C116.457 45.7377 116.314 46.3669 116.07 46.9592C115.516 47.156 114.931 47.2539 114.343 47.2484C114.284 47.3414 114.25 47.4482 114.245 47.5583C114.247 47.6549 114.282 47.748 114.343 47.8229H114.976C115.591 47.8229 117.129 47.7678 117.645 47.7678C118.126 47.7678 118.776 47.8052 119.891 47.8052C120.506 47.8052 122.308 47.9223 126.187 47.9223C126.361 47.9362 126.536 47.9223 126.706 47.8809C126.76 47.7883 126.786 47.6821 126.782 47.575C126.819 47.1933 126.819 46.2509 126.819 44.6956M112.618 34.209C112.618 34.1333 112.597 34.0122 112.519 33.9995H111.866C111.406 33.9995 110.676 34.0368 110.35 34.0368C108.794 34.0368 108.238 33.9385 108.007 33.9385H107.663C107.621 34.0368 107.564 34.09 107.564 34.1864C107.564 34.2621 107.605 34.3202 107.605 34.3998C108.055 34.4513 108.499 34.5468 108.93 34.6851C109.235 35.0151 109.407 35.4466 109.412 35.8961C109.33 36.4956 109.175 37.0825 108.948 37.6432L105.859 45.2445L102.061 35.6276C102.079 35.4125 102.145 35.2041 102.253 35.0178C102.363 34.8315 102.512 34.6721 102.691 34.5513C103.103 34.4704 103.52 34.4197 103.939 34.3998C103.981 34.316 104.007 34.2249 104.015 34.1313C104.015 34.0526 103.997 33.9345 103.917 33.9178H103.435C102.845 33.9178 101.944 33.9966 100.925 33.9966C100.484 33.9966 99.6217 33.9552 98.7757 33.9552H98.0265C97.98 34.023 97.9537 34.1027 97.9507 34.1848C97.947 34.267 97.9672 34.3483 98.0085 34.4196C98.5732 34.5633 99.1155 34.782 99.6217 35.0698C100.212 36.204 100.738 37.3706 101.196 38.564L102.785 42.4005C104.109 45.5888 104.896 47.7216 104.993 48.0865C105.091 48.1446 104.993 48.1996 105.165 48.1996C105.337 48.1996 105.319 48.1623 105.362 48.0659L110.315 36.1627C110.48 35.7614 110.714 35.3913 111.004 35.0688C111.449 34.7276 111.979 34.5146 112.537 34.453C112.576 34.3748 112.603 34.2912 112.617 34.2051M95.7997 47.5839C95.8027 47.4909 95.7825 47.3988 95.742 47.3153C95.2657 47.2833 94.7917 47.2258 94.3215 47.1431C93.9757 46.7184 93.75 46.2089 93.6682 45.6675C93.651 44.7458 93.6307 42.6543 93.6307 40.8689V35.9935C93.6127 35.6172 93.7365 35.2478 93.978 34.9586C94.4895 34.6365 95.0797 34.4625 95.6842 34.4559C95.7225 34.3791 95.7427 34.2941 95.742 34.2081C95.742 34.165 95.733 34.1225 95.7165 34.083C95.6992 34.0434 95.6745 34.0077 95.6437 33.9778H95.0857C94.281 33.9778 93.129 34.0762 92.475 34.0762C92.073 34.0762 90.921 34.0182 90.078 34.0005H89.655C89.6182 34.0299 89.5905 34.068 89.5732 34.1115C89.556 34.155 89.55 34.2021 89.556 34.2483C89.5597 34.333 89.5725 34.4171 89.5935 34.4992C90.105 34.4939 90.6127 34.585 91.0897 34.7678C91.3065 34.979 91.4752 35.2341 91.5847 35.5158C91.695 35.7977 91.743 36.0998 91.7265 36.4017C91.7445 36.7628 91.764 37.7436 91.7812 39.5113C91.8022 40.4715 91.8225 41.7739 91.8225 42.8895C91.8225 43.4463 91.7812 44.8845 91.7647 45.5583C91.7467 45.9558 91.6545 46.3465 91.4932 46.7103C91.266 46.9071 91.0357 47.2464 89.6317 47.3428C89.595 47.4347 89.5747 47.5329 89.574 47.632C89.574 47.7865 89.6152 47.7865 89.6152 47.88H89.9392C90.7095 47.88 91.8997 47.7875 92.8972 47.7875C93.186 47.7875 94.4512 47.8425 95.085 47.8425H95.7217C95.7705 47.7682 95.7967 47.6809 95.7975 47.5917M87.1185 34.1736C87.1207 34.1035 87.1005 34.0345 87.0607 33.9768H86.6197C85.6605 33.9768 85.2367 34.0143 83.5102 34.0143C82.9125 34.0143 82.035 33.9768 81.8212 33.9768H81.3247C81.2692 34.0143 81.249 34.149 81.249 34.2277C81.2467 34.268 81.255 34.3082 81.2715 34.3447C81.2887 34.3812 81.315 34.413 81.3472 34.4373C82.0267 34.5399 82.6912 34.7269 83.3242 34.9941C83.6857 35.5832 83.8785 36.2604 83.8815 36.9516C83.8987 37.2409 83.9182 37.5291 83.9182 38.3171V44.0217C83.9212 44.2974 83.9085 44.5728 83.8815 44.8471C83.5545 44.4822 82.9957 43.7739 82.2472 42.8904L74.9135 34.3221C74.8301 34.2255 74.7326 34.1418 74.6243 34.0743C74.4699 34.0743 74.28 34.0536 74.1256 34.0536C72.8978 34.0536 71.8216 33.9985 71.494 33.9985C71.4586 34.0551 71.4396 34.1205 71.439 34.1874C71.4431 34.2718 71.4546 34.3557 71.4734 34.4382C72.0034 34.4954 72.5119 34.6793 72.9559 34.9743C73.3168 35.3105 73.6327 35.6921 73.8953 36.1096C73.9597 36.3068 73.9865 36.5144 73.9741 36.7215C73.9741 37.7229 73.916 39.5418 73.916 40.8905V44.9769C73.9196 45.4654 73.8805 45.9532 73.7989 46.4349C73.2348 46.9485 72.5353 47.2899 71.7833 47.4186C71.7418 47.489 71.7159 47.5674 71.7076 47.6487C71.7076 47.7068 71.7253 47.8209 71.7626 47.8455H72.1276C72.5132 47.8455 73.3966 47.7904 73.975 47.7904C74.8181 47.7904 75.1995 47.8455 75.987 47.8455H77.1427C77.2185 47.8248 77.2358 47.6733 77.2358 47.5947C77.2365 47.5248 77.2162 47.4564 77.178 47.3979C76.293 47.2941 75.4755 46.8726 74.8771 46.2115C74.7067 45.4155 74.6226 44.6036 74.6263 43.7896C74.6263 43.1777 74.6056 42.1763 74.6056 41.045C74.6056 39.528 74.6263 37.4367 74.6469 36.7628C74.7601 36.8966 74.9362 37.11 75.0667 37.2615L84.1687 47.9213C84.267 48.0147 84.3022 48.0344 84.4027 48.0344C84.5032 48.0344 84.4372 48.0344 84.516 47.997C84.591 47.7156 84.624 47.4245 84.6142 47.1333C84.6142 46.5765 84.5932 45.9981 84.5932 45.7089V37.5488C84.5932 35.1514 85.7287 34.4775 87.0525 34.4225C87.102 34.348 87.1282 34.2609 87.1282 34.1716M69.3496 34.2641C69.3461 34.1727 69.3114 34.0851 69.2512 34.0162H68.6973C68.0992 34.0162 67.2935 34.0536 66.603 34.0536C65.8357 34.0536 64.9729 34.0162 64.4122 34.0162H63.7236C63.6745 34.0897 63.6472 34.1757 63.6449 34.2641C63.6475 34.3507 63.6673 34.436 63.7029 34.515C63.7816 34.515 65.1785 34.5356 65.4294 34.8799C65.7589 35.3069 66.0124 35.7874 66.1789 36.3004C66.2894 36.9996 66.3404 37.7067 66.3314 38.4144C66.3314 40.0485 66.3314 41.1423 66.3108 41.7168C66.3029 42.5806 66.1863 43.44 65.9635 44.2746C65.7311 45.0668 65.2266 45.7516 64.5388 46.2084C63.851 46.6651 63.0241 46.8644 62.2037 46.7712C61.4272 46.7752 60.6593 46.6089 59.9539 46.2843C59.4684 46.0649 59.0445 45.729 58.7198 45.3066C58.3951 44.8841 58.1797 44.388 58.0927 43.8624L57.9943 38.1046L57.9776 35.7624C57.9776 35.3216 58.5314 34.9163 58.7243 34.6861C59.2102 34.5832 59.7037 34.5201 60.1999 34.4973C60.2546 34.4174 60.2884 34.3251 60.2982 34.2287C60.2956 34.1796 60.2824 34.1317 60.2592 34.0884C60.2361 34.045 60.2038 34.0073 60.1645 33.9778L59.4355 33.9985C58.7233 34.0162 57.7848 34.0359 57.1897 34.0359C56.2679 34.0359 55.5556 34.0152 54.9811 34.0152H54.1765C54.141 34.0497 54.1137 34.0918 54.0967 34.1382C54.0796 34.1847 54.0733 34.2345 54.0781 34.2838C54.0748 34.3256 54.0802 34.3676 54.094 34.4072C54.1077 34.4468 54.1294 34.4832 54.1578 34.514C54.7697 34.5927 55.172 34.6478 55.4445 34.7107C55.7586 34.9074 55.9954 35.2061 56.1154 35.5567C56.1361 35.8047 56.1734 36.4204 56.1734 37.6226V42.2313C56.1446 43.0935 56.2105 43.9561 56.3702 44.8038C56.5939 45.7808 57.1951 46.6296 58.0426 47.1648C59.098 47.8111 60.3206 48.1317 61.5574 48.0865C62.7078 48.1147 63.8458 47.8435 64.8598 47.2995C65.3371 47.0291 65.7525 46.6619 66.0795 46.2214C66.4064 45.7809 66.6377 45.2769 66.7584 44.7418C66.9623 43.9975 67.0665 43.2294 67.0683 42.4576V38.7765C67.0683 38.0879 67.1056 37.2222 67.1056 36.8779C67.0903 36.1329 67.2908 35.3994 67.6831 34.7658C68.2031 34.6206 68.7369 34.5306 69.2758 34.4973C69.3214 34.4273 69.3475 34.3465 69.3515 34.2631" fill="black"/>
<path d="M22.3792 14.9196C22.3226 14.9205 22.2673 14.9376 22.2198 14.9685C22.1723 14.9994 22.1345 15.0432 22.1107 15.0946L21.543 16.3518C21.5298 16.3612 21.5147 16.3676 21.4988 16.3705C21.4811 16.3705 21.4614 16.3518 21.4476 16.3125C21.4338 16.2732 21.365 16.0921 21.2174 15.7498L21.0354 15.3386C20.9705 15.1871 20.9183 15.0877 20.9016 15.0563C20.8776 15.0146 20.843 14.9799 20.8015 14.9558C20.7599 14.9316 20.7127 14.9188 20.6645 14.9185C20.6565 14.9078 20.6527 14.8945 20.6537 14.8812C20.653 14.8686 20.6553 14.8561 20.6606 14.8448H20.756C20.8623 14.8448 20.9528 14.8497 21.0315 14.8497C21.1102 14.8497 21.2794 14.8408 21.3827 14.8408H21.4447C21.4545 14.8408 21.4584 14.8654 21.4584 14.8733C21.4592 14.8874 21.4568 14.9015 21.4516 14.9146C21.3827 14.9215 21.2282 14.9146 21.2282 15.013C21.2282 15.0417 21.2328 15.0703 21.242 15.0976L21.6139 15.9829L21.9237 15.252C21.9521 15.1904 21.9662 15.1231 21.965 15.0553C21.965 14.9727 21.907 14.9362 21.7516 14.9175C21.7468 14.9066 21.7435 14.895 21.7418 14.8831C21.7428 14.8683 21.7461 14.8537 21.7516 14.8398H21.7958C21.8647 14.8398 21.9336 14.8487 22.091 14.8487C22.1186 14.8487 22.2248 14.8438 22.2769 14.8438H22.3832C22.3905 14.8532 22.3952 14.8644 22.3969 14.8762C22.3949 14.892 22.3889 14.9069 22.3792 14.9196Z" fill="black"/>
<path d="M23.9514 16.3272C23.5008 16.3272 23.2568 16.3155 23.1949 16.3155H22.9814C22.9194 16.3155 22.7748 16.3253 22.6165 16.3253H22.5269C22.5215 16.3154 22.5191 16.3041 22.52 16.2928C22.5184 16.2784 22.5184 16.2639 22.52 16.2495C22.5984 16.2504 22.676 16.2339 22.7473 16.2013C22.784 16.1315 22.8007 16.0528 22.7955 15.9741C22.7955 15.9052 22.7955 15.8295 22.7955 15.7527C22.7955 15.6396 22.7955 15.5019 22.7955 15.3347V15.0986C22.7955 14.9352 22.7129 14.9352 22.5446 14.9166C22.5412 14.9037 22.5389 14.8905 22.5377 14.8773C22.5377 14.8683 22.5377 14.8448 22.5515 14.8398H22.6342C22.6892 14.8398 22.8368 14.8398 23.1191 14.8398C23.3769 14.8398 23.6287 14.8448 23.6828 14.8448H23.8373C23.8717 14.8448 23.8855 14.8448 23.8855 14.8792L23.9061 15.2166C23.8855 15.2265 23.8815 15.2304 23.8648 15.2304C23.8534 15.2323 23.8418 15.2323 23.8304 15.2304C23.7788 15.1271 23.702 15.0385 23.6071 14.9727C23.5677 14.9485 23.5224 14.9356 23.4762 14.9352C23.4556 14.9352 23.4044 14.9352 23.2795 14.9352C23.1811 14.9352 23.1251 14.9352 23.1113 14.9402C23.0975 14.9451 23.0975 14.9402 23.0906 14.9973C23.0906 15.0336 23.0837 15.0956 23.0837 15.2924V15.4891H23.1349C23.1914 15.49 23.2478 15.4845 23.3031 15.4724C23.3643 15.4554 23.4178 15.4179 23.4546 15.3661C23.4704 15.3261 23.4819 15.2846 23.489 15.2422C23.5039 15.2346 23.5205 15.2312 23.5373 15.2324C23.5507 15.2319 23.5639 15.236 23.5746 15.2442C23.5746 15.3042 23.5608 15.4183 23.5608 15.5619C23.5608 15.6337 23.5677 15.7921 23.5677 15.857C23.562 15.8617 23.5554 15.8652 23.5483 15.8672C23.5412 15.8692 23.5337 15.8698 23.5264 15.8688C23.5125 15.8689 23.4986 15.8673 23.4851 15.8639C23.4713 15.737 23.4506 15.6504 23.3444 15.6062C23.2922 15.5841 23.2358 15.5734 23.1791 15.5747C23.1463 15.5753 23.1134 15.5776 23.0808 15.5816V15.975C23.0768 16.0342 23.0839 16.0935 23.1014 16.1502C23.1122 16.1757 23.1457 16.2279 23.191 16.2328C23.2364 16.2403 23.2826 16.2436 23.3287 16.2426H23.5421C23.599 16.2423 23.6552 16.2306 23.7074 16.2082C23.8111 16.1232 23.8925 16.0141 23.9445 15.8904C23.9584 15.8841 23.9735 15.8811 23.9888 15.8816C24.0041 15.8823 24.0191 15.886 24.033 15.8925V16.2859C24.0311 16.3224 24.0026 16.3272 23.9514 16.3272Z" fill="black"/>
<path d="M25.741 15.313C25.7312 15.313 25.7174 15.313 25.6997 15.3081C25.6726 15.2302 25.6355 15.1562 25.5896 15.0877C25.5575 15.0444 25.5161 15.0088 25.4684 14.9838C25.4207 14.9587 25.3679 14.9448 25.3141 14.9431C25.2797 14.9431 25.197 14.9431 25.1695 14.9431V15.5983C25.1695 15.6967 25.1695 15.8236 25.1695 16.0488C25.1695 16.223 25.2482 16.223 25.4272 16.2456C25.4356 16.2585 25.4403 16.2735 25.441 16.2889C25.441 16.3017 25.4375 16.3142 25.4312 16.3253H25.3652C25.2668 16.3253 25.0553 16.3184 24.9905 16.3184C24.9461 16.3184 24.719 16.3282 24.6117 16.3282C24.6067 16.3231 24.6028 16.3169 24.6005 16.3101C24.5981 16.3033 24.5972 16.296 24.5979 16.2889C24.5987 16.2752 24.6024 16.2618 24.6087 16.2495C24.8459 16.2318 24.8704 16.1876 24.8773 16.1118C24.8842 16.0636 24.8842 15.8679 24.8842 15.6681V15.1222C24.8856 15.0618 24.881 15.0015 24.8704 14.9421C24.7934 14.9396 24.7163 14.9448 24.6402 14.9579C24.5037 15.025 24.3981 15.1419 24.3451 15.2845C24.3331 15.2886 24.3204 15.2902 24.3077 15.2894C24.3011 15.2897 24.2946 15.2885 24.2886 15.2857C24.2826 15.283 24.2774 15.2788 24.2733 15.2736V14.892C24.2733 14.8575 24.2733 14.8487 24.3176 14.8487H24.4789C24.53 14.8487 24.7475 14.8487 25.019 14.8487C25.377 14.8487 25.6417 14.8398 25.7076 14.8398C25.742 14.8398 25.7656 14.8398 25.7794 14.8516C25.7812 14.87 25.7812 14.8884 25.7794 14.9067V15.2884C25.7761 15.2958 25.7707 15.3021 25.7639 15.3065C25.7571 15.3108 25.7491 15.3132 25.741 15.313Z" fill="black"/>
<path d="M22.3077 17.6372C22.294 17.6372 22.2832 17.6372 22.2635 17.6323C22.2394 17.5532 22.2021 17.4787 22.1533 17.4119C22.1216 17.3682 22.0803 17.3324 22.0325 17.3073C21.9848 17.2823 21.9318 17.2685 21.8779 17.2673C21.8435 17.2673 21.7608 17.2673 21.7332 17.2673V17.9225C21.7332 18.0209 21.7332 18.1478 21.7332 18.373C21.7332 18.5471 21.8159 18.5471 21.9949 18.5698C22.0023 18.5829 22.0058 18.598 22.0048 18.6131C22.0059 18.6256 22.0035 18.6382 21.9979 18.6494H21.9369C21.8306 18.6494 21.6241 18.6425 21.5621 18.6425C21.5178 18.6425 21.2906 18.6534 21.1804 18.6534C21.173 18.6417 21.1695 18.6278 21.1706 18.614C21.1714 18.6007 21.1737 18.5875 21.1775 18.5747C21.4145 18.557 21.4391 18.5127 21.449 18.437C21.449 18.3887 21.449 18.193 21.449 17.9933V17.4503C21.4514 17.3897 21.4481 17.3291 21.4391 17.2693C21.3608 17.2667 21.2823 17.2719 21.205 17.285C21.0682 17.3518 20.9624 17.4688 20.9099 17.6116C20.8964 17.6156 20.8825 17.6172 20.8685 17.6165C20.862 17.6165 20.8556 17.6152 20.8496 17.6124C20.8436 17.6097 20.8384 17.6057 20.8341 17.6008V17.2191C20.8341 17.1847 20.841 17.1758 20.8784 17.1758H21.0397C21.0948 17.1758 21.3113 17.1758 21.5828 17.1758C21.9369 17.1758 22.2054 17.167 22.2713 17.167C22.3088 17.167 22.3333 17.167 22.3442 17.1788C22.355 17.1906 22.3442 17.2132 22.3442 17.2339V17.6156C22.3403 17.6219 22.335 17.6271 22.3286 17.6309C22.3223 17.6347 22.3151 17.6368 22.3077 17.6372Z" fill="black"/>
<path d="M24.0026 18.6563C23.555 18.6563 23.3081 18.6445 23.2491 18.6445H23.0326C22.9746 18.6445 22.8261 18.6553 22.6716 18.6553H22.5821C22.5757 18.6457 22.5724 18.6344 22.5723 18.6228C22.5712 18.6081 22.5736 18.5933 22.5791 18.5796C22.6564 18.5813 22.7329 18.5648 22.8025 18.5314C22.83 18.5019 22.8438 18.4389 22.8507 18.3042C22.8507 18.2353 22.8575 18.1596 22.8575 18.0818C22.8575 17.9687 22.8575 17.831 22.8575 17.6637C22.8575 17.5486 22.8575 17.4798 22.8575 17.4315C22.8575 17.2683 22.7779 17.2683 22.6096 17.2496C22.6038 17.2372 22.6005 17.2239 22.5998 17.2102C22.5998 17.2014 22.6067 17.1777 22.6165 17.1729H22.6962C22.7542 17.1729 22.8988 17.1729 23.1812 17.1729C23.4429 17.1729 23.6898 17.1777 23.7488 17.1777H23.9003C23.9377 17.1777 23.9515 17.1777 23.9515 17.2122L23.9682 17.5496C23.9564 17.5588 23.9418 17.5637 23.9269 17.5634C23.9155 17.5649 23.9038 17.5649 23.8924 17.5634C23.8431 17.4585 23.7658 17.3694 23.6691 17.3057C23.6312 17.2814 23.5872 17.2684 23.5422 17.2683C23.5216 17.2683 23.4704 17.2683 23.3395 17.2683C23.2412 17.2683 23.1851 17.2683 23.1743 17.2732C23.1635 17.2781 23.1566 17.2732 23.1497 17.3302C23.1497 17.3667 23.1497 17.4286 23.1497 17.6253V17.8221H23.1979C23.2545 17.8233 23.311 17.8173 23.3662 17.8044C23.4281 17.7874 23.4826 17.75 23.5206 17.6982C23.535 17.658 23.5452 17.6165 23.551 17.5742C23.5661 17.5671 23.5826 17.5633 23.5993 17.5634C23.614 17.5623 23.6287 17.5665 23.6406 17.5752C23.6406 17.6352 23.6239 17.7493 23.6239 17.8929C23.6239 17.9648 23.6337 18.1231 23.6337 18.1881C23.6219 18.1971 23.6071 18.2013 23.5924 18.1998C23.5775 18.1999 23.5627 18.1983 23.5481 18.195C23.5343 18.0681 23.5166 17.9815 23.4074 17.9372C23.3565 17.9155 23.3015 17.9047 23.2461 17.9058C23.2132 17.9064 23.1804 17.9087 23.1478 17.9126V18.3061C23.145 18.365 23.1506 18.4239 23.1645 18.4812C23.1782 18.5068 23.2126 18.5589 23.254 18.5638C23.2995 18.5716 23.3455 18.5753 23.3917 18.5747H23.6081C23.662 18.5772 23.7159 18.5688 23.7665 18.5501C23.8728 18.4666 23.9558 18.3572 24.0075 18.2323C24.0213 18.2256 24.0365 18.2226 24.0518 18.2235C24.0661 18.2238 24.0802 18.2272 24.0931 18.2333V18.6268C24.0862 18.6514 24.0616 18.6563 24.0026 18.6563Z" fill="black"/>
<path d="M25.0523 18.6914C24.9326 18.6864 24.8152 18.6559 24.7081 18.602C24.6905 18.5948 24.6719 18.5908 24.653 18.5901C24.6126 18.6011 24.575 18.6206 24.5428 18.6472C24.5258 18.6479 24.5088 18.6443 24.4937 18.6365C24.4785 18.6287 24.4656 18.6172 24.4562 18.6029C24.4562 18.5714 24.4838 18.479 24.4838 18.4209C24.4838 18.3865 24.4739 18.2242 24.47 18.1799C24.4777 18.1701 24.4876 18.1622 24.4988 18.157C24.5101 18.1517 24.5225 18.1491 24.5349 18.1494C24.5431 18.1485 24.5513 18.1485 24.5595 18.1494C24.591 18.2094 24.653 18.3718 24.6972 18.4367C24.7386 18.4841 24.7893 18.5225 24.8462 18.5494C24.9031 18.5762 24.9649 18.5912 25.0277 18.5931C25.0707 18.5975 25.1141 18.5935 25.1554 18.5812C25.1968 18.5688 25.2353 18.5485 25.2688 18.5213C25.2963 18.5001 25.3182 18.4726 25.3326 18.4411C25.347 18.4095 25.3535 18.3749 25.3514 18.3403C25.3545 18.2921 25.3398 18.2445 25.3101 18.2065C25.2695 18.1565 25.2161 18.1184 25.1557 18.0963C25.0907 18.0648 24.8606 18.0088 24.7769 17.9635C24.6981 17.9305 24.6275 17.8804 24.5703 17.8169C24.5132 17.7384 24.4829 17.6435 24.4838 17.5464C24.4845 17.4884 24.4972 17.4312 24.521 17.3783C24.5447 17.3255 24.5792 17.278 24.6221 17.239C24.665 17.2 24.7154 17.1701 24.7703 17.1515C24.8252 17.1328 24.8834 17.1256 24.9412 17.1303C25.067 17.1213 25.1921 17.156 25.2953 17.2286C25.3222 17.1988 25.3508 17.1705 25.3809 17.144C25.3964 17.1425 25.412 17.1455 25.4259 17.1524C25.4399 17.1593 25.4516 17.1701 25.4597 17.1834C25.4479 17.2505 25.44 17.3181 25.436 17.3861C25.436 17.4254 25.4597 17.5828 25.4597 17.6064C25.442 17.6174 25.4222 17.6243 25.4016 17.627C25.3922 17.626 25.3829 17.6237 25.374 17.6202C25.3327 17.5484 25.2953 17.4234 25.2501 17.3624C25.2155 17.3183 25.1702 17.2835 25.1187 17.2613C25.0672 17.2392 25.0109 17.2303 24.955 17.2355C24.9227 17.2328 24.8902 17.2367 24.8594 17.2466C24.8285 17.2567 24.8 17.2727 24.7755 17.2939C24.751 17.315 24.7309 17.3408 24.7164 17.3699C24.7019 17.3989 24.6935 17.4305 24.6914 17.4628C24.6958 17.5136 24.7155 17.5619 24.7481 17.6013C24.7805 17.6406 24.8243 17.6692 24.8733 17.6831C24.9353 17.7077 25.011 17.7362 25.0967 17.7629C25.1776 17.7881 25.2567 17.8187 25.3337 17.8543C25.4098 17.8871 25.474 17.9423 25.5176 18.0127C25.5612 18.083 25.5822 18.1652 25.5776 18.2478C25.573 18.3117 25.5556 18.374 25.5265 18.431C25.4974 18.4881 25.4573 18.5387 25.4083 18.5801C25.3594 18.6214 25.3027 18.6526 25.2416 18.6717C25.1804 18.6908 25.1161 18.6975 25.0523 18.6914Z" fill="black"/>
<path d="M22.9073 20.9894C22.4567 20.9894 22.2127 20.9775 22.1507 20.9775H21.9373C21.8753 20.9775 21.7307 20.9884 21.5723 20.9884H21.4828C21.4773 20.9785 21.4748 20.9672 21.4759 20.9559C21.4743 20.9415 21.4743 20.927 21.4759 20.9126C21.5543 20.9135 21.6319 20.897 21.7031 20.8644C21.74 20.7946 21.7567 20.7159 21.7514 20.6372C21.7514 20.5683 21.7514 20.4926 21.7514 20.4149C21.7514 20.3017 21.7514 20.164 21.7514 19.9967V19.7646C21.7514 19.6013 21.6687 19.6013 21.5005 19.5826C21.497 19.5698 21.4946 19.5566 21.4936 19.5433C21.4936 19.5344 21.4936 19.5108 21.5074 19.5059H21.59C21.6451 19.5059 21.7927 19.5059 22.075 19.5059C22.3328 19.5059 22.5836 19.5108 22.6387 19.5108H22.7931C22.8275 19.5108 22.8413 19.5108 22.8413 19.5452L22.862 19.8827C22.8413 19.8935 22.8383 19.8964 22.8206 19.8964C22.8093 19.8984 22.7976 19.8984 22.7862 19.8964C22.7346 19.7931 22.6578 19.7045 22.5629 19.6387C22.5236 19.6145 22.4783 19.6016 22.4321 19.6013C22.4114 19.6013 22.3603 19.6013 22.2353 19.6013C22.1369 19.6013 22.0809 19.6013 22.0671 19.6062C22.0534 19.6112 22.0534 19.6062 22.0465 19.6633C22.0465 19.6997 22.0396 19.7616 22.0396 19.9584V20.1551H22.0907C22.1473 20.1561 22.2037 20.1505 22.259 20.1384C22.3202 20.1215 22.3736 20.084 22.4105 20.0321C22.4262 19.9922 22.4378 19.9506 22.4449 19.9082C22.4597 19.9003 22.4763 19.8965 22.4931 19.8974C22.5065 19.897 22.5197 19.9011 22.5305 19.9092C22.5305 19.9692 22.5167 20.0833 22.5167 20.2269C22.5167 20.2997 22.5236 20.4572 22.5236 20.522C22.5179 20.5268 22.5113 20.5302 22.5041 20.5322C22.497 20.5343 22.4896 20.5349 22.4822 20.5339C22.4684 20.534 22.4545 20.5323 22.4409 20.5289C22.4272 20.402 22.4065 20.3155 22.3003 20.2712C22.2479 20.2496 22.1916 20.2391 22.135 20.2407C22.1021 20.2413 22.0693 20.2436 22.0367 20.2476V20.6411C22.0327 20.7002 22.0397 20.7596 22.0573 20.8162C22.0681 20.8418 22.1015 20.8939 22.1468 20.8988C22.1923 20.9063 22.2384 20.9096 22.2845 20.9087H22.498C22.5529 20.9111 22.6077 20.9027 22.6593 20.8841C22.7631 20.7992 22.8446 20.69 22.8964 20.5664C22.9103 20.56 22.9254 20.557 22.9407 20.5575C22.956 20.5581 22.9711 20.5618 22.985 20.5683V20.9618C22.9859 20.9834 22.9613 20.9894 22.9073 20.9894Z" fill="black"/>
<path d="M25.0729 19.5748C24.9214 19.5797 24.7905 19.6623 24.7905 19.9033V20.6687C24.7905 20.6982 24.8043 20.9146 24.8043 20.9972C24.786 21.0105 24.7647 21.019 24.7423 21.0218C24.7279 21.0172 24.7149 21.0087 24.7049 20.9972L23.6563 19.8689L23.6671 20.0991V20.5152C23.6671 20.5477 23.674 20.6254 23.6809 20.6834C23.6797 20.714 23.6859 20.7444 23.6991 20.772C23.7123 20.7996 23.732 20.8236 23.7566 20.8418C23.815 20.8812 23.8831 20.9037 23.9533 20.9068C23.9595 20.9172 23.9629 20.929 23.9632 20.9412C23.962 20.9546 23.9572 20.9675 23.9495 20.9785H23.8363C23.738 20.9785 23.6642 20.9785 23.5648 20.9785C23.4999 20.9785 23.4064 20.9854 23.3415 20.9854H23.2933C23.2917 20.974 23.2917 20.9624 23.2933 20.951C23.2931 20.9382 23.2955 20.9255 23.3002 20.9137C23.3885 20.9104 23.4726 20.8754 23.5372 20.8153C23.5564 20.7576 23.5648 20.6969 23.5619 20.6362V20.1031C23.5619 20.0175 23.5619 19.9741 23.555 19.8895C23.5569 19.8292 23.5378 19.7701 23.5009 19.7224C23.4791 19.6942 23.4548 19.6681 23.4281 19.6446C23.3752 19.6133 23.3187 19.5886 23.2598 19.5709C23.2547 19.56 23.2514 19.5484 23.25 19.5364C23.2503 19.5234 23.2537 19.5106 23.2598 19.499H23.2972C23.3287 19.499 23.494 19.5079 23.614 19.5079H23.6858C23.7023 19.5149 23.7173 19.5249 23.7301 19.5374L24.5072 20.3873C24.5653 20.4523 24.641 20.5388 24.6823 20.5939V19.9781C24.683 19.9213 24.6807 19.8645 24.6755 19.8079C24.6716 19.7521 24.6565 19.6975 24.6311 19.6476C24.6076 19.6102 24.463 19.5895 24.3872 19.5738C24.3819 19.5597 24.3796 19.5446 24.3803 19.5295C24.3789 19.5187 24.3789 19.5079 24.3803 19.4971H24.4246C24.4964 19.4971 24.6134 19.5079 24.6863 19.5079C24.8653 19.5079 24.9204 19.503 25.0099 19.503H25.0679C25.0733 19.5143 25.0757 19.5268 25.0748 19.5394C25.0769 19.5511 25.0763 19.5633 25.0729 19.5748Z" fill="black"/>
<path d="M29.9747 14.9146C29.8272 14.9195 29.6924 15.0021 29.6924 15.2431V16.0084C29.6924 16.038 29.7022 16.2544 29.7022 16.337C29.6853 16.35 29.6653 16.3585 29.6442 16.3616C29.6344 16.3616 29.6235 16.3528 29.6029 16.337L28.5542 15.2087L28.568 15.4389V15.855C28.568 15.8875 28.5748 15.9652 28.5778 16.0232C28.5781 16.0535 28.5851 16.0834 28.5982 16.1107C28.6113 16.1381 28.6302 16.1623 28.6536 16.1816C28.7124 16.22 28.7802 16.2424 28.8503 16.2466C28.8565 16.257 28.8598 16.2688 28.8601 16.281C28.859 16.2939 28.8557 16.3066 28.8503 16.3183H28.7332C28.6398 16.3183 28.565 16.3183 28.4617 16.3183C28.3968 16.3183 28.3073 16.3252 28.2414 16.3252H28.1932C28.1896 16.3141 28.1873 16.3025 28.1863 16.2908C28.1862 16.2775 28.1899 16.2646 28.1971 16.2534C28.2844 16.2496 28.3675 16.2148 28.4312 16.1551C28.452 16.0978 28.4604 16.0368 28.4558 15.976V15.4428C28.4558 15.3572 28.4558 15.3139 28.4558 15.2293C28.4557 15.1716 28.4379 15.1153 28.4047 15.068C28.3816 15.0401 28.3562 15.0142 28.3289 14.9903C28.2763 14.9584 28.2198 14.9335 28.1607 14.9165C28.1578 14.9052 28.1554 14.8937 28.1539 14.8821C28.1547 14.8694 28.157 14.8569 28.1607 14.8447H28.202C28.2295 14.8447 28.3909 14.8536 28.5148 14.8536H28.5867C28.6039 14.8615 28.6201 14.8714 28.6348 14.8831L29.412 15.733C29.47 15.798 29.5458 15.8845 29.5871 15.9396V15.3277C29.5871 15.2708 29.5834 15.214 29.5763 15.1576C29.5741 15.1014 29.559 15.0465 29.5321 14.9972C29.5084 14.9598 29.3638 14.9392 29.291 14.9234C29.2849 14.9095 29.2816 14.8944 29.2812 14.8792C29.2807 14.8679 29.283 14.8567 29.2881 14.8467H29.3323C29.4041 14.8467 29.5212 14.8565 29.594 14.8565C29.7691 14.8565 29.8282 14.8516 29.9176 14.8516H29.9728C29.9791 14.8627 29.9828 14.8752 29.9836 14.888C29.982 14.8972 29.979 14.9062 29.9747 14.9146Z" fill="black"/>
<path d="M31.5193 16.1396C31.4513 16.2094 31.3703 16.265 31.2806 16.3033C31.191 16.3417 31.0948 16.3619 30.9973 16.363C30.8999 16.3639 30.8032 16.3457 30.7128 16.3092C30.6224 16.2727 30.5402 16.2188 30.4707 16.1504C30.3965 16.0767 30.3383 15.9883 30.2999 15.891C30.2614 15.7936 30.2436 15.6894 30.2474 15.5848C30.2445 15.4807 30.2627 15.3772 30.3011 15.2804C30.3395 15.1837 30.3973 15.0958 30.4707 15.0221C30.6093 14.8834 30.797 14.8049 30.9931 14.8037C31.1317 14.8048 31.2675 14.8429 31.3866 14.9139C31.4986 14.9835 31.5909 15.0806 31.6548 15.196C31.7186 15.3113 31.752 15.4411 31.7516 15.573C31.7498 15.7846 31.6666 15.9875 31.5193 16.1396ZM31.2784 15.0575C31.2465 15.0085 31.2027 14.9685 31.151 14.9411C31.0994 14.9137 31.0417 14.8999 30.9833 14.9011C30.9276 14.9005 30.8728 14.9146 30.8244 14.9422C30.776 14.9696 30.7358 15.0094 30.7078 15.0575C30.6061 15.2126 30.5578 15.3967 30.5701 15.5818C30.5599 15.7648 30.6056 15.9467 30.701 16.1032C30.731 16.1544 30.7741 16.1966 30.826 16.2253C30.878 16.2541 30.9367 16.2683 30.9961 16.2665C31.064 16.2687 31.1311 16.2506 31.1887 16.2145C31.2463 16.1784 31.292 16.126 31.3197 16.0639C31.3927 15.9162 31.4266 15.7522 31.418 15.5878C31.4324 15.4 31.3847 15.2126 31.2823 15.0546L31.2784 15.0575Z" fill="black"/>
<path d="M33.6316 14.9196C33.5755 14.9213 33.5211 14.9386 33.4744 14.9695C33.4276 15.0004 33.3904 15.0438 33.3669 15.0946L32.8033 16.3518C32.7901 16.3612 32.7749 16.3676 32.759 16.3705C32.7412 16.3705 32.7177 16.3518 32.7078 16.3125C32.698 16.2732 32.6252 16.0921 32.4737 15.7498L32.2947 15.3386C32.2297 15.1871 32.1776 15.0877 32.1609 15.0563C32.1364 15.015 32.1019 14.9805 32.0603 14.9565C32.0188 14.9323 31.9718 14.9193 31.9238 14.9185C31.9188 14.9138 31.915 14.9079 31.9126 14.9014C31.9102 14.895 31.9093 14.8881 31.91 14.8812C31.909 14.8681 31.9129 14.8551 31.9208 14.8448H32.0133C32.1117 14.8448 32.2101 14.8497 32.2848 14.8497C32.3596 14.8497 32.5327 14.8408 32.6389 14.8408H32.697C32.7108 14.8408 32.7137 14.8654 32.7137 14.8733C32.7144 14.8874 32.7121 14.9015 32.7068 14.9146C32.635 14.9215 32.4835 14.9146 32.4835 15.013C32.4818 15.0419 32.4865 15.0708 32.4973 15.0976L32.8652 15.9829L33.178 15.252C33.2037 15.1896 33.2164 15.1227 33.2155 15.0553C33.2155 14.9727 33.1574 14.9362 33.0019 14.9175C32.998 14.9065 32.9956 14.8949 32.995 14.8831C32.9952 14.8684 32.9975 14.8539 33.0019 14.8398H33.0463C33.1151 14.8398 33.184 14.8487 33.3413 14.8487C33.3659 14.8487 33.4751 14.8438 33.5272 14.8438H33.6335C33.6412 14.8545 33.6454 14.8674 33.6454 14.8806C33.6454 14.8939 33.6412 14.9068 33.6335 14.9175L33.6316 14.9196Z" fill="black"/>
<path d="M29.4901 17.6372C29.4763 17.6372 29.4664 17.6372 29.4458 17.6323C29.4215 17.5532 29.3843 17.4788 29.3356 17.4119C29.3039 17.3683 29.2625 17.3325 29.2147 17.3075C29.167 17.2823 29.1141 17.2686 29.0602 17.2673C29.0257 17.2673 28.9431 17.2673 28.9156 17.2673V17.9225C28.9156 18.0209 28.9156 18.1478 28.9156 18.373C28.9156 18.5471 28.9982 18.5471 29.1772 18.5698C29.185 18.5828 29.1888 18.5978 29.188 18.6131C29.1892 18.6256 29.1868 18.6382 29.1811 18.6494H29.1182C29.0119 18.6494 28.8054 18.6425 28.7434 18.6425C28.6991 18.6425 28.4719 18.6534 28.3617 18.6534C28.3539 18.6418 28.3501 18.628 28.3509 18.614C28.3519 18.6007 28.3542 18.5876 28.3578 18.5747C28.5949 18.557 28.6195 18.5127 28.6293 18.437C28.6293 18.3887 28.6293 18.193 28.6293 17.9933V17.4503C28.6316 17.3897 28.6279 17.3291 28.6185 17.2693C28.5401 17.2667 28.4617 17.2719 28.3843 17.285C28.2475 17.3518 28.1418 17.4688 28.0892 17.6116C28.0759 17.6156 28.0619 17.6172 28.0479 17.6165C28.0414 17.6165 28.0349 17.6152 28.029 17.6124C28.023 17.6097 28.0177 17.6057 28.0135 17.6008V17.2191C28.0135 17.1847 28.0204 17.1758 28.0577 17.1758H28.2191C28.2742 17.1758 28.4906 17.1758 28.7621 17.1758C29.1163 17.1758 29.3848 17.167 29.4507 17.167C29.4881 17.167 29.5127 17.167 29.5225 17.1788C29.5324 17.1906 29.5225 17.2132 29.5225 17.2339V17.6156C29.5191 17.6213 29.5144 17.6263 29.5087 17.63C29.5031 17.6338 29.4967 17.6363 29.4901 17.6372Z" fill="black"/>
<path d="M31.2715 18.6542H31.1544C31.0786 18.6542 30.9931 18.6444 30.9036 18.6444C30.7629 18.6444 30.5839 18.6542 30.5101 18.6542C30.502 18.6435 30.4982 18.6302 30.4993 18.6168C30.4999 18.6051 30.5023 18.5935 30.5062 18.5824C30.6508 18.5755 30.7088 18.5509 30.7088 18.4929C30.7072 18.425 30.6922 18.3581 30.6645 18.2961C30.6202 18.1879 30.5956 18.1377 30.5848 18.1102C30.5779 18.0993 30.575 18.0945 30.5435 18.0945H30.0763C30.0253 18.1827 29.9881 18.2783 29.9661 18.3777C29.9586 18.406 29.9549 18.4351 29.9552 18.4644C29.9552 18.5125 29.9995 18.5627 30.1648 18.5706C30.1721 18.5831 30.1755 18.5974 30.1746 18.6119C30.1762 18.6233 30.1762 18.6349 30.1746 18.6463H30.1333C30.0231 18.6463 29.9926 18.6394 29.8756 18.6394C29.7998 18.6394 29.6178 18.6463 29.5558 18.6463C29.5519 18.6363 29.5495 18.6256 29.5489 18.6148C29.5485 18.6021 29.5509 18.5893 29.5558 18.5775C29.6383 18.5705 29.7149 18.5317 29.7693 18.4692C29.8433 18.3461 29.9065 18.2167 29.9582 18.0826C30.0408 17.8859 30.1402 17.634 30.1855 17.5288C30.2474 17.4 30.268 17.3567 30.2838 17.3124C30.3153 17.2475 30.3487 17.1816 30.3625 17.1579C30.37 17.1489 30.3796 17.1415 30.3903 17.1365C30.4009 17.1315 30.4126 17.1289 30.4245 17.1289C30.4363 17.1289 30.448 17.1315 30.4587 17.1365C30.4694 17.1415 30.4789 17.1489 30.4864 17.1579C30.5001 17.1814 30.5116 17.2062 30.5209 17.2317C30.6064 17.4363 30.6754 17.6183 30.7825 17.8731C30.8377 18.002 30.8652 18.0826 30.9232 18.2174C30.9646 18.302 30.9882 18.365 31.0294 18.4427C31.0846 18.5548 31.1741 18.5558 31.2636 18.5784C31.2636 18.5883 31.2774 18.5991 31.2774 18.6129C31.2774 18.6267 31.2823 18.6404 31.2715 18.6542ZM30.332 17.4737C30.3005 17.5308 30.2464 17.6596 30.2257 17.7128C30.1461 17.9095 30.1195 17.9705 30.1057 17.998H30.5494C30.511 17.9134 30.397 17.64 30.333 17.4767L30.332 17.4737Z" fill="black"/>
<path d="M33.5691 18.6574L32.9671 18.6505H32.8018C32.7958 18.6389 32.7921 18.6262 32.791 18.6131C32.7907 18.6062 32.7917 18.5994 32.7941 18.593C32.7964 18.5866 32.8001 18.5807 32.8048 18.5757C32.8543 18.5759 32.9037 18.5714 32.9523 18.562C33.0143 18.5344 33.0389 18.4744 33.0389 18.3849V17.3146L32.7221 18.0032C32.6877 18.0789 32.6464 18.1616 32.6119 18.2442C32.5621 18.3542 32.5185 18.4668 32.4811 18.5816C32.4775 18.591 32.4706 18.5989 32.4619 18.6039C32.4531 18.6089 32.4429 18.6107 32.4329 18.6092C32.4123 18.6092 32.3985 18.6023 32.3887 18.5678C32.3473 18.4784 32.3198 18.4203 32.306 18.3819L31.8142 17.2919H31.8034V17.5703L31.8142 18.2669C31.8142 18.4784 31.9243 18.5786 32.0926 18.5786C32.0991 18.59 32.1037 18.6023 32.1063 18.6151C32.1055 18.6278 32.1019 18.6404 32.0955 18.6515C32.0847 18.6515 32.0512 18.6515 32.0197 18.6515C31.9882 18.6515 31.8889 18.6416 31.7305 18.6416C31.6863 18.6416 31.5928 18.6416 31.521 18.6416H31.4226C31.4186 18.6299 31.4163 18.6176 31.4158 18.6053C31.417 18.5942 31.4193 18.5834 31.4226 18.5728C31.4981 18.5585 31.5711 18.5329 31.639 18.497C31.6705 18.4675 31.6971 18.4046 31.6971 18.258V17.4946C31.6971 17.3726 31.6804 17.3264 31.6213 17.285C31.5581 17.2621 31.4918 17.2489 31.4246 17.2457C31.4183 17.2328 31.415 17.2187 31.4148 17.2044C31.4152 17.1908 31.4186 17.1773 31.4246 17.165C31.4836 17.165 31.5859 17.17 31.6892 17.17H32.0503C32.0641 17.1792 32.0749 17.1922 32.0817 17.2073L32.5254 18.2137L32.605 18.017C32.674 17.8556 32.7733 17.6126 32.9149 17.35L33.0045 17.1779L33.5681 17.169C33.5761 17.1796 33.5808 17.1922 33.5819 17.2054C33.5818 17.2186 33.578 17.2315 33.5711 17.2427C33.5091 17.2536 33.4029 17.2536 33.3508 17.3411C33.3331 17.3687 33.3232 17.3963 33.3232 17.5182V18.2354C33.3232 18.5108 33.3921 18.5384 33.4216 18.559C33.4708 18.5732 33.5218 18.5801 33.5731 18.5797C33.5794 18.5911 33.5828 18.6039 33.5829 18.617C33.579 18.6436 33.5721 18.6436 33.5691 18.6574Z" fill="black"/>
<path d="M29.4554 19.9712C29.4417 19.9712 29.4308 19.9712 29.4112 19.9662C29.3869 19.8872 29.3497 19.8127 29.301 19.7459C29.2693 19.7022 29.228 19.6664 29.1802 19.6413C29.1324 19.6163 29.0795 19.6025 29.0255 19.6013C28.9911 19.6013 28.9084 19.6013 28.8809 19.6013V20.2565C28.8809 20.3548 28.8809 20.4817 28.8809 20.707C28.8809 20.8811 28.9636 20.8811 29.1426 20.9037C29.15 20.9169 29.1535 20.932 29.1524 20.9471C29.1535 20.9596 29.1512 20.9722 29.1456 20.9834H29.0806C28.9744 20.9834 28.7678 20.9765 28.7058 20.9765C28.6615 20.9765 28.4343 20.9873 28.3241 20.9873C28.3167 20.9756 28.3132 20.9618 28.3143 20.948C28.3152 20.9347 28.3175 20.9215 28.3212 20.9087C28.5583 20.891 28.5829 20.8467 28.5927 20.771C28.5927 20.7227 28.5927 20.527 28.5927 20.3273V19.7843C28.5952 19.7241 28.5919 19.6638 28.5829 19.6043C28.5045 19.6016 28.426 19.6069 28.3487 19.62C28.2119 19.6867 28.1062 19.8038 28.0536 19.9466C28.0402 19.9505 28.0262 19.9522 28.0123 19.9515C28.0057 19.9515 27.9993 19.9501 27.9934 19.9474C27.9874 19.9447 27.9821 19.9407 27.9778 19.9358V19.5541C27.9778 19.5197 27.9847 19.5108 28.0222 19.5108H28.1835C28.2385 19.5108 28.455 19.5108 28.7265 19.5108C29.0806 19.5108 29.3492 19.502 29.4151 19.502C29.4525 19.502 29.4771 19.502 29.4869 19.5137C29.4967 19.5255 29.4869 19.5482 29.4869 19.5688V19.9505C29.4835 19.956 29.4788 19.9607 29.4734 19.9643C29.468 19.9679 29.4619 19.9702 29.4554 19.9712Z" fill="black"/>
<path d="M31.302 19.5816C31.2459 19.5833 31.1915 19.6005 31.1447 19.6315C31.098 19.6624 31.0608 19.7058 31.0373 19.7567L30.4727 21.0139C30.4595 21.0233 30.4444 21.0297 30.4284 21.0326C30.4117 21.0326 30.3871 21.0139 30.3773 20.9746C30.3674 20.9352 30.2946 20.7542 30.1432 20.4119L29.9641 20.0007C29.8992 19.8492 29.8471 19.7498 29.8304 19.7183C29.8059 19.677 29.7713 19.6427 29.7298 19.6185C29.6882 19.5944 29.6412 19.5814 29.5932 19.5806C29.5883 19.5758 29.5844 19.57 29.582 19.5635C29.5796 19.5571 29.5787 19.5501 29.5795 19.5432C29.5784 19.5302 29.5823 19.5173 29.5903 19.5068H29.6828C29.7812 19.5068 29.8795 19.5118 29.9543 19.5118C30.029 19.5118 30.2022 19.5029 30.3084 19.5029H30.3665C30.3803 19.5029 30.3842 19.5265 30.3842 19.5353C30.3848 19.5495 30.3825 19.5635 30.3773 19.5767C30.3045 19.5836 30.154 19.5767 30.154 19.6751C30.1523 19.7039 30.157 19.7328 30.1677 19.7597L30.5357 20.645L30.8485 19.9141C30.8743 19.8518 30.887 19.7848 30.8858 19.7174C30.8858 19.6347 30.8279 19.5993 30.6724 19.5797C30.6685 19.5686 30.6662 19.5569 30.6655 19.5452C30.6657 19.5305 30.668 19.516 30.6724 19.502H30.7166C30.7856 19.502 30.8544 19.5108 31.0118 19.5108C31.0364 19.5108 31.1456 19.5059 31.1977 19.5059H31.304C31.3106 19.5155 31.3143 19.5267 31.3148 19.5383C31.316 19.5539 31.3115 19.5692 31.302 19.5816Z" fill="black"/>
<path d="M33.6001 20.9874L33.002 20.9806H32.8339C32.8287 20.9688 32.8264 20.956 32.827 20.9431C32.826 20.9365 32.8264 20.9299 32.828 20.9234C32.8297 20.917 32.8327 20.911 32.8368 20.9058C32.8876 20.9059 32.9383 20.9014 32.9883 20.892C33.0463 20.8645 33.0709 20.8045 33.0709 20.7149V19.8463C33.0709 19.8463 33.0709 19.6899 33.0709 19.6495H33.064L32.7512 20.3381C32.7138 20.4139 32.6755 20.4965 32.638 20.5792C32.5692 20.7405 32.5279 20.8526 32.5072 20.9166C32.5003 20.9441 32.4757 20.9441 32.459 20.9441C32.4423 20.9441 32.4286 20.9372 32.4148 20.9028C32.3774 20.8133 32.3488 20.7553 32.3351 20.7169L31.8393 19.6249H31.8295V19.9033L31.8393 20.5998C31.8393 20.8113 31.9495 20.9116 32.1216 20.9116C32.1272 20.923 32.1305 20.9354 32.1314 20.9481C32.1323 20.9606 32.1299 20.9731 32.1246 20.9845C32.1108 20.9845 32.0803 20.9845 32.0458 20.9845C32.0114 20.9845 31.9189 20.9746 31.7606 20.9746C31.7124 20.9746 31.6199 20.9746 31.5511 20.9746H31.4527C31.4462 20.9636 31.4428 20.951 31.4428 20.9383C31.4439 20.9269 31.4473 20.9158 31.4527 20.9058C31.528 20.8909 31.6009 20.8654 31.6691 20.83C31.7158 20.7596 31.7353 20.6747 31.7242 20.5909V20.2398V19.8266C31.7242 19.7046 31.7104 19.6584 31.6484 19.6171C31.5852 19.5941 31.5189 19.5808 31.4517 19.5777C31.4428 19.5658 31.4379 19.5513 31.4379 19.5364C31.4385 19.5222 31.4433 19.5085 31.4517 19.4971C31.5068 19.4971 31.613 19.502 31.7134 19.502H32.0783C32.0908 19.5116 32.1004 19.5245 32.1058 19.5394L32.5495 20.5457L32.6322 20.349C32.7234 20.1212 32.8268 19.8986 32.942 19.682C32.9696 19.624 33.0109 19.5492 33.0316 19.5098L33.5923 19.501C33.5992 19.5128 33.61 19.5236 33.61 19.5374C33.6088 19.5508 33.604 19.5637 33.5962 19.5748C33.5382 19.5846 33.4309 19.5846 33.3798 19.6732C33.3631 19.7007 33.3493 19.7282 33.3493 19.8502V20.5674C33.3493 20.8428 33.4182 20.8703 33.4477 20.891C33.4955 20.9053 33.5453 20.9123 33.5953 20.9116C33.6042 20.9221 33.6091 20.9353 33.609 20.9491C33.6139 20.9716 33.607 20.9737 33.6001 20.9874Z" fill="black"/>
<path d="M47.8471 11.6746L47.7851 10.9682L47.1112 11.1728C45.4735 11.6711 43.7707 11.9237 42.0588 11.9225C39.1414 11.9306 36.2709 11.1892 33.7224 9.76927C31.1738 8.34937 29.0328 6.29861 27.5045 3.81355L27.0166 3L26.5247 3.81355C24.997 6.29914 22.8563 8.3505 20.308 9.771C17.7595 11.1914 14.8889 11.9333 11.9714 11.9254C10.2629 11.9276 8.56357 11.6763 6.92883 11.1797L6.253 10.9751L6.19103 11.6785C5.76307 16.5435 6.0551 21.4451 7.05769 26.2249C8.1168 31.2626 9.94147 36.1083 12.4682 40.5933C13.7947 42.956 15.3058 45.2101 16.9875 47.3348C19.7905 50.8768 23.0413 54.04 26.6585 56.7452L27.0009 57L27.3432 56.7452C30.9673 54.0519 34.226 50.8992 37.0378 47.3663C38.7204 45.246 40.2313 42.995 41.5561 40.6346C43.9682 36.3454 45.739 31.7259 46.8122 26.9234L46.9529 26.2289C47.9609 21.4472 48.2622 16.5436 47.8471 11.6746ZM35.7629 15.5062H36.606V17.1539H35.7629V15.5062ZM35.7629 19.8199H36.606V21.4696H35.7629V19.8199ZM27.233 13.7611C27.3981 13.5454 27.6166 13.3766 27.867 13.2713C28.1173 13.166 28.3909 13.128 28.6604 13.161L30.2875 13.3912L32.4301 13.6735C33.0654 13.7128 33.7015 13.6088 34.2913 13.3695V22.3215C33.6932 22.5275 33.0622 22.6213 32.4301 22.5979L30.3643 22.3225L28.6604 22.0844C28.1458 22.0569 27.6386 22.217 27.233 22.535V13.7611ZM19.8993 13.3862C20.4641 13.6197 21.0749 13.7207 21.6847 13.6814L23.8312 13.3971L25.4545 13.1649C25.724 13.1321 25.9975 13.1703 26.2477 13.2755C26.4981 13.3808 26.7166 13.5494 26.8818 13.765V22.5448C26.4727 22.223 25.9603 22.0615 25.4407 22.0903L23.7378 22.3294L21.6847 22.6028C20.1817 22.6028 19.8688 22.2398 19.8649 22.2369C19.861 22.2339 19.8964 13.9863 19.9003 13.3862H19.8993ZM18.6745 14.4752C18.8359 14.4427 19.314 14.3414 19.5481 14.2913V22.3382C19.6337 22.5221 20.0026 22.9501 21.6838 22.9501L23.8126 22.6697L25.4397 22.4375C25.712 22.405 25.9881 22.4433 26.2413 22.5487C26.4945 22.6543 26.7161 22.8233 26.8848 23.0396L26.9329 23.012H27.1838L27.232 23.0376C27.397 22.8219 27.6155 22.653 27.8659 22.5478C28.1163 22.4425 28.3898 22.4045 28.6594 22.4375L30.2865 22.6678L32.4291 22.9501C34.1349 22.9501 34.5579 22.5015 34.6031 22.4513L34.6346 14.2499L35.4118 14.4664V23.3563C34.3906 23.5028 33.3612 23.5833 32.3297 23.5974C30.9543 23.5729 29.5811 23.4763 28.2157 23.3081L28.019 23.2806V23.8826C27.6992 23.9993 27.3619 24.0608 27.0215 24.0647C26.6945 24.0629 26.3706 24.0018 26.0653 23.8847V23.2806L25.8686 23.3081C24.5068 23.476 23.1373 23.5726 21.7654 23.5974C20.7317 23.5837 19.6999 23.5032 18.6765 23.3563L18.6745 14.4752ZM17.4941 15.5072H18.3194V17.1549H17.4941V15.5072ZM17.4941 19.8209H18.3194V21.4706H17.4941V19.8209ZM27.0009 55.5303C23.602 52.9525 20.5388 49.9597 17.8827 46.6217C17.8718 46.6078 17.862 46.5901 17.8512 46.5773L26.9998 37.6756L36.1702 46.5941C36.1564 46.6078 36.1456 46.6285 36.1328 46.6452C33.4726 49.9759 30.4065 52.9611 27.0058 55.5313L27.0009 55.5303ZM45.6917 26.6676C44.6518 31.3102 42.9461 35.7779 40.6275 39.9323L27.0097 26.8299L13.4027 39.9047C10.9903 35.5915 9.2388 30.9408 8.20672 26.1079H45.8068L45.6917 26.6676Z" fill="black"/>
<path d="M17.8829 46.6219C20.5391 49.9599 23.6023 52.9527 27.0011 55.5305L27.0061 55.5315C30.4068 52.9613 33.4729 49.9762 36.1331 46.6454C36.1459 46.6287 36.1567 46.6081 36.1705 46.5943L27.0002 37.6758L17.8515 46.5775C17.8623 46.5904 17.8721 46.6081 17.8829 46.6219Z" fill="#E87722"/>
<path d="M40.6278 39.9328C42.9464 35.7784 44.6521 31.3107 45.692 26.6681L45.8071 26.1084H8.20694C9.23909 30.9413 10.9906 35.5921 13.403 39.9052L27.01 26.8304L40.6278 39.9328Z" fill="#E87722"/>
</g>
</g>
<defs>
<clipPath id="clip0_1_309">
<rect width="206.25" height="60" fill="white"/>
</clipPath>
<clipPath id="clip1_1_309">
<rect width="206.25" height="60" fill="white"/>
</clipPath>
</defs>
</svg>
