<svg width="33" height="32" viewBox="0 0 33 32" fill="none" xmlns="http://www.w3.org/2000/svg">
<path d="M27.9768 22.8046C27.6026 23.0002 27.2168 23.1726 26.8215 23.3208C25.5632 23.7916 24.2302 24.0315 22.8866 24.0289C17.7001 24.0289 13.1821 20.4612 13.1821 15.883C13.1888 15.2689 13.3592 14.6678 13.6758 14.1416C13.9923 13.6154 14.4436 13.1832 14.983 12.8896C10.2918 13.0869 9.08618 17.9754 9.08618 20.8394C9.08618 28.937 16.5492 29.758 18.1572 29.758C19.0241 29.758 20.3317 29.5059 21.1165 29.2582L21.2601 29.21C24.28 28.166 26.8545 26.1249 28.5598 23.4228C28.6121 23.3405 28.6354 23.2431 28.6261 23.1461C28.6168 23.049 28.5755 22.9579 28.5086 22.887C28.4418 22.8161 28.3532 22.7695 28.2568 22.7546C28.1605 22.7396 28.062 22.7572 27.9768 22.8046Z" fill="url(#paint0_linear_1_126)"/>
<path opacity="0.35" d="M27.9768 22.8046C27.6026 23.0002 27.2168 23.1726 26.8215 23.3208C25.5632 23.7916 24.2302 24.0315 22.8866 24.0289C17.7001 24.0289 13.1821 20.4612 13.1821 15.883C13.1888 15.2689 13.3592 14.6678 13.6758 14.1416C13.9923 13.6154 14.4436 13.1832 14.983 12.8896C10.2918 13.0869 9.08618 17.9754 9.08618 20.8394C9.08618 28.937 16.5492 29.758 18.1572 29.758C19.0241 29.758 20.3317 29.5059 21.1165 29.2582L21.2601 29.21C24.28 28.166 26.8545 26.1249 28.5598 23.4228C28.6121 23.3405 28.6354 23.2431 28.6261 23.1461C28.6168 23.049 28.5755 22.9579 28.5086 22.887C28.4418 22.8161 28.3532 22.7695 28.2568 22.7546C28.1605 22.7396 28.062 22.7572 27.9768 22.8046Z" fill="url(#paint1_radial_1_126)"/>
<path d="M14.2388 28.381C13.2612 27.7742 12.414 26.9791 11.7464 26.042C10.9855 24.9995 10.4619 23.8032 10.2123 22.5369C9.96271 21.2706 9.99317 19.9651 10.3016 18.7118C10.61 17.4586 11.1888 16.288 11.9976 15.2822C12.8063 14.2763 13.8253 13.4596 14.983 12.8892C15.325 12.7282 15.9092 12.4366 16.6864 12.4508C17.2338 12.4548 17.773 12.5856 18.2615 12.8328C18.75 13.08 19.1746 13.437 19.5021 13.8757C19.9447 14.4667 20.1888 15.1827 20.1992 15.921C20.1992 15.898 22.8802 7.19629 11.4307 7.19629C6.61903 7.19629 2.66225 11.7625 2.66225 15.7686C2.64327 17.8878 3.0967 19.9846 3.98958 21.9066C5.4488 25.02 8.00057 27.4892 11.1603 28.8452C14.3201 30.2012 17.8678 30.3496 21.1298 29.2622C19.9876 29.6223 18.781 29.7304 17.593 29.579C16.405 29.4276 15.264 29.0204 14.2487 28.3854L14.2388 28.381Z" fill="url(#paint2_linear_1_126)"/>
<path opacity="0.41" d="M14.2388 28.381C13.2612 27.7742 12.414 26.9791 11.7464 26.042C10.9855 24.9995 10.4619 23.8032 10.2123 22.5369C9.96271 21.2706 9.99317 19.9651 10.3016 18.7118C10.61 17.4586 11.1888 16.288 11.9976 15.2822C12.8063 14.2763 13.8253 13.4596 14.983 12.8892C15.325 12.7282 15.9092 12.4366 16.6864 12.4508C17.2338 12.4548 17.773 12.5856 18.2615 12.8328C18.75 13.08 19.1746 13.437 19.5021 13.8757C19.9447 14.4667 20.1888 15.1827 20.1992 15.921C20.1992 15.898 22.8802 7.19629 11.4307 7.19629C6.61903 7.19629 2.66225 11.7625 2.66225 15.7686C2.64327 17.8878 3.0967 19.9846 3.98958 21.9066C5.4488 25.02 8.00057 27.4892 11.1603 28.8452C14.3201 30.2012 17.8678 30.3496 21.1298 29.2622C19.9876 29.6223 18.781 29.7304 17.593 29.579C16.405 29.4276 15.264 29.0204 14.2487 28.3854L14.2388 28.381Z" fill="url(#paint3_radial_1_126)"/>
<path d="M19.3462 18.2359C19.2574 18.3509 18.9846 18.5099 18.9846 18.8563C18.9846 19.1423 19.1709 19.4174 19.5019 19.6487C21.078 20.7447 24.0494 20.6001 24.0571 20.6001C25.225 20.5973 26.3708 20.2812 27.3749 19.6849C28.3879 19.0934 29.2286 18.2473 29.8136 17.2306C30.3987 16.2139 30.7078 15.0619 30.7102 13.8889C30.7387 11.4326 29.8334 9.79947 29.4672 9.07607C27.1447 4.53293 22.1313 1.91992 16.6795 1.91992C12.9926 1.91956 9.45371 3.37055 6.82824 5.95909C4.20278 8.5476 2.70181 12.0656 2.64996 15.7522C2.70258 11.7472 6.68347 8.51273 11.4184 8.51273C11.802 8.51273 13.9898 8.55 16.0219 9.61647C17.8128 10.5569 18.7511 11.6924 19.4032 12.8181C20.0806 13.9875 20.2012 15.4651 20.2012 16.0536C20.2012 16.6422 19.9008 17.5147 19.3462 18.2359Z" fill="url(#paint4_radial_1_126)"/>
<path d="M19.3462 18.2359C19.2574 18.3509 18.9846 18.5099 18.9846 18.8563C18.9846 19.1423 19.1709 19.4174 19.5019 19.6487C21.078 20.7447 24.0494 20.6001 24.0571 20.6001C25.225 20.5973 26.3708 20.2812 27.3749 19.6849C28.3879 19.0934 29.2286 18.2473 29.8136 17.2306C30.3987 16.2139 30.7078 15.0619 30.7102 13.8889C30.7387 11.4326 29.8334 9.79947 29.4672 9.07607C27.1447 4.53293 22.1313 1.91992 16.6795 1.91992C12.9926 1.91956 9.45371 3.37055 6.82824 5.95909C4.20278 8.5476 2.70181 12.0656 2.64996 15.7522C2.70258 11.7472 6.68347 8.51273 11.4184 8.51273C11.802 8.51273 13.9898 8.55 16.0219 9.61647C17.8128 10.5569 18.7511 11.6924 19.4032 12.8181C20.0806 13.9875 20.2012 15.4651 20.2012 16.0536C20.2012 16.6422 19.9008 17.5147 19.3462 18.2359Z" fill="url(#paint5_radial_1_126)"/>
<defs>
<linearGradient id="paint0_linear_1_126" x1="9.08618" y1="21.326" x2="28.6333" y2="21.326" gradientUnits="userSpaceOnUse">
<stop stop-color="#0C59A4"/>
<stop offset="1" stop-color="#114A8B"/>
</linearGradient>
<radialGradient id="paint1_radial_1_126" cx="0" cy="0" r="1" gradientUnits="userSpaceOnUse" gradientTransform="translate(19.8824 21.48) scale(10.4542 9.93153)">
<stop offset="0.72" stop-opacity="0"/>
<stop offset="0.95" stop-opacity="0.53"/>
<stop offset="1"/>
</radialGradient>
<linearGradient id="paint2_linear_1_126" x1="19.3914" y1="12.8465" x2="7.18241" y2="26.145" gradientUnits="userSpaceOnUse">
<stop stop-color="#1B9DE2"/>
<stop offset="0.16" stop-color="#1595DF"/>
<stop offset="0.67" stop-color="#0680D7"/>
<stop offset="1" stop-color="#0078D4"/>
</linearGradient>
<radialGradient id="paint3_radial_1_126" cx="0" cy="0" r="1" gradientUnits="userSpaceOnUse" gradientTransform="translate(10.3878 23.7324) rotate(-81.3844) scale(15.7203 12.7005)">
<stop offset="0.76" stop-opacity="0"/>
<stop offset="0.95" stop-opacity="0.5"/>
<stop offset="1"/>
</radialGradient>
<radialGradient id="paint4_radial_1_126" cx="0" cy="0" r="1" gradientUnits="userSpaceOnUse" gradientTransform="translate(5.48465 7.11273) rotate(92.2906) scale(22.2053 47.2927)">
<stop stop-color="#35C1F1"/>
<stop offset="0.11" stop-color="#34C1ED"/>
<stop offset="0.23" stop-color="#2FC2DF"/>
<stop offset="0.31" stop-color="#2BC3D2"/>
<stop offset="0.67" stop-color="#36C752"/>
</radialGradient>
<radialGradient id="paint5_radial_1_126" cx="0" cy="0" r="1" gradientUnits="userSpaceOnUse" gradientTransform="translate(28.9633 10.4041) rotate(73.7398) scale(10.6691 8.67607)">
<stop stop-color="#66EB6E"/>
<stop offset="1" stop-color="#66EB6E" stop-opacity="0"/>
</radialGradient>
</defs>
</svg>
