<svg width="24" height="25" viewBox="0 0 24 25" fill="none" xmlns="http://www.w3.org/2000/svg">
<path d="M11.5001 8.56021C17.5751 8.56021 22.5001 13.5562 22.5001 19.7192C22.5001 20.1022 22.4586 20.6167 22.3761 21.2632C22.3696 21.3144 22.3474 21.3623 22.3126 21.4004C22.2778 21.4384 22.232 21.4648 22.1817 21.4759C22.1313 21.4869 22.0787 21.4821 22.0312 21.4622C21.9836 21.4422 21.9434 21.4079 21.9161 21.3642C21.6961 21.0142 21.5101 20.7417 21.3586 20.5462C19.5271 18.1892 16.5096 16.8787 12.5261 16.8787H11.5001V21.3662C11.5001 21.6472 11.2701 21.8752 10.9856 21.8752C10.8496 21.8752 10.7186 21.8217 10.6221 21.7262L2.22606 13.4152C2.15446 13.3447 2.0976 13.2606 2.05879 13.1679C2.01999 13.0752 2 12.9757 2 12.8752C2 12.7747 2.01999 12.6752 2.05879 12.5825C2.0976 12.4898 2.15446 12.4057 2.22606 12.3352L10.6221 4.0242C10.719 3.9286 10.8497 3.875 10.9858 3.875C11.122 3.875 11.2526 3.9286 11.3496 4.0242C11.4461 4.1197 11.5001 4.2492 11.5001 4.3842V8.56021ZM11.5001 10.5602H9.50006V7.94921L4.52356 12.8752L9.50006 17.8012V14.8787H12.5261C15.4286 14.8787 17.9671 15.5102 20.0121 16.7357C18.7951 13.1392 15.4401 10.5602 11.5001 10.5602Z" fill="#2080F1"/>
</svg>
