<svg width="71" height="71" viewBox="0 0 71 71" fill="none" xmlns="http://www.w3.org/2000/svg">
<path d="M17.7992 17.3864C19.0069 16.3088 20.8747 16.3975 21.9711 17.5844L25.5299 21.4369C26.6263 22.6239 26.536 24.4596 25.3284 25.5372L16.6236 33.3039C15.416 34.3815 13.5481 34.2928 12.4517 33.1059L8.893 29.2533C7.79659 28.0664 7.88681 26.2307 9.0945 25.1531L17.7992 17.3864Z" fill="#9065B0"/>
<path d="M11.666 24.9341C12.307 24.3622 13.2983 24.4093 13.8802 25.0392C14.4621 25.6692 14.4142 26.6435 13.7733 27.2154L12.4341 28.4103C11.7931 28.9822 10.8018 28.9351 10.2199 28.3051C9.63796 27.6752 9.68585 26.7009 10.3268 26.129L11.666 24.9341Z" fill="white"/>
<path d="M62.047 27.6097C63.1434 28.7967 63.0532 30.6324 61.8455 31.71L57.9256 35.2075C56.7179 36.285 54.8501 36.1964 53.7536 35.0095L45.8511 26.4544C44.7546 25.2675 44.8449 23.4317 46.0526 22.3542L49.9725 18.8566C51.1802 17.7791 53.048 17.8677 54.1444 19.0547L62.047 27.6097Z" fill="#9065B0"/>
<path d="M60.6061 28.4226C61.1881 29.0527 61.1402 30.0271 60.4991 30.5991C59.8581 31.1711 58.8666 31.1241 58.2846 30.494L57.0686 29.1776C56.4866 28.5476 56.5345 27.5731 57.1755 27.0011C57.8166 26.4291 58.8081 26.4762 59.3901 27.1062L60.6061 28.4226Z" fill="white"/>
<path d="M30.1197 28.9888L28.0339 26.7308C27.6685 26.3352 27.0459 26.3056 26.6433 26.6648L17.9697 34.4038C17.5672 34.763 17.5371 35.3749 17.9026 35.7705L19.9884 38.0285C20.2607 38.292 20.7702 39.1403 20.6296 40.4258C20.454 42.0327 22.2855 43.6162 24.1443 45.6284L30.937 52.9819C31.8687 53.9905 33.2042 54.1766 34.1365 53.3448C35.0688 52.5129 35.3188 51.5043 34.0872 50.1711C35.2781 51.4603 36.7131 53.0137 38.4348 51.4776C40.0272 50.0567 39.3988 49.3765 38.9471 48.8875C40.0272 50.0567 41.0892 50.6022 42.3808 49.4498C43.4141 48.5278 43.2251 47.7011 43.0014 47.403C43.5054 47.9486 44.901 48.6942 46.451 47.3112C47.929 45.9924 46.9129 44.888 46.4192 44.3535C46.0604 43.965 42.2731 39.9602 39.9149 37.4667C39.4879 37.0151 38.9019 36.7412 38.276 36.7003L35.4762 36.517C34.8094 36.4734 34.1531 36.6981 33.6583 37.1396L31.6527 38.9291C30.393 40.0531 27.868 39.758 26.4753 38.2503C25.0007 36.654 25.7845 34.2467 26.4434 33.5687C26.5317 33.4778 26.6359 33.4041 26.7305 33.3197L30.0526 30.3556C30.4551 29.9964 30.4852 29.3845 30.1197 28.9888Z" fill="#9065B0"/>
<path d="M52.2497 36.1553L44.5557 27.826C44.1902 27.4304 43.5676 27.4008 43.1651 27.76L41.376 29.3563C41.3475 29.3817 41.3215 29.4092 41.2963 29.4379C41.0101 29.7636 40.3014 30.3329 39.4632 30.3081C38.5864 30.2822 35.0146 30.2735 33.3383 30.2723C33.0519 30.2784 32.3081 30.4431 31.6235 31.0539L27.6161 34.6295C26.969 35.2068 27.0366 36.2692 27.7187 37.0076C28.4009 37.7461 29.601 38.0973 30.2689 37.5013L33.6425 34.4913C33.8064 34.345 34.0258 34.2783 34.2461 34.3003C35.4016 34.4152 38.6346 34.6517 40.505 34.7835C40.6945 34.7969 40.8701 34.8813 40.9978 35.0196L47.7013 42.2765C48.0672 42.6726 48.7281 42.5564 48.926 42.058C49.1403 41.5183 49.35 40.9742 49.4227 40.7375C49.5427 40.3468 50.0344 39.6012 50.3048 39.2206C50.3352 39.1778 50.3706 39.1388 50.4099 39.1037L52.1826 37.522C52.5851 37.1628 52.6152 36.5509 52.2497 36.1553Z" fill="#9065B0"/>
<path d="M62.047 27.6082C63.1434 28.7952 63.0531 30.6309 61.8455 31.7084L57.9255 35.206C56.7178 36.2835 54.85 36.1949 53.7536 35.0079L45.851 26.4529C44.7546 25.266 44.8448 23.4302 46.0525 22.3527L49.9724 18.8551C51.1801 17.7776 53.048 17.8662 54.1444 19.0532L62.047 27.6082Z" fill="black"/>
<path d="M60.6061 28.4211C61.1881 29.0512 61.1402 30.0256 60.4991 30.5976C59.858 31.1696 58.8665 31.1225 58.2845 30.4925L57.0685 29.1761C56.4865 28.5461 56.5344 27.5716 57.1755 26.9996C57.8166 26.4276 58.8081 26.4747 59.3901 27.1047L60.6061 28.4211Z" fill="white"/>
<path d="M49.9724 18.8551L46.0525 22.3527C44.8448 23.4302 44.7546 25.266 45.851 26.4529L49.8023 30.7304L58.0957 23.3307L54.1444 19.0532C53.048 17.8662 51.1801 17.7776 49.9724 18.8551Z" fill="black"/>
<path d="M49.9724 18.8551L46.0525 22.3527C44.8448 23.4302 44.7546 25.266 45.851 26.4529L49.8023 30.7304L58.0957 23.3307L54.1444 19.0532C53.048 17.8662 51.1801 17.7776 49.9724 18.8551Z" fill="white" fill-opacity="0.2"/>
<path d="M60.6059 28.4211C61.1879 29.0512 61.14 30.0256 60.499 30.5976C59.8579 31.1696 58.8664 31.1226 58.2844 30.4925L57.0684 29.1761C56.4864 28.5461 56.5343 27.5716 57.1754 26.9996C57.8165 26.4276 58.808 26.4747 59.39 27.1047L60.6059 28.4211Z" fill="#F2C31E"/>
<path d="M17.7992 17.3864C19.0069 16.3088 20.8747 16.3975 21.9711 17.5844L25.5299 21.4369C26.6263 22.6239 26.536 24.4596 25.3284 25.5372L16.6236 33.3039C15.416 34.3815 13.5481 34.2928 12.4517 33.1059L8.893 29.2533C7.79659 28.0664 7.88681 26.2307 9.0945 25.1531L17.7992 17.3864Z" fill="#FBD849"/>
<path d="M8.893 29.2531L12.4517 33.1057C13.5481 34.2926 15.416 34.3812 16.6236 33.3037L20.976 29.4203L13.4468 21.2695L9.0945 25.1529C7.88681 26.2305 7.79659 28.0662 8.893 29.2531Z" fill="#F2C31E"/>
<path d="M11.6658 24.9332C12.3068 24.3612 13.2981 24.4083 13.8801 25.0383C14.462 25.6682 14.4141 26.6425 13.7731 27.2144L12.4339 28.4093C11.793 28.9812 10.8016 28.9341 10.2197 28.3042C9.63781 27.6742 9.68569 26.6999 10.3267 26.128L11.6658 24.9332Z" fill="white"/>
</svg>
