<svg width="71" height="71" viewBox="0 0 71 71" fill="none" xmlns="http://www.w3.org/2000/svg">
<path d="M34.4797 10.8196C34.8661 10.581 35.3541 10.581 35.7404 10.8196L58.6091 24.9443C59.6373 25.5794 59.1873 27.1645 57.9787 27.1645H12.2414C11.0328 27.1645 10.5828 25.5794 11.611 24.9443L34.4797 10.8196Z" fill="#9065B0"/>
<path d="M34.4797 10.8196C34.8661 10.581 35.3541 10.581 35.7404 10.8196L58.6091 24.9443C59.6373 25.5794 59.1873 27.1645 57.9787 27.1645H12.2414C11.0328 27.1645 10.5828 25.5794 11.611 24.9443L34.4797 10.8196Z" fill="white" fill-opacity="0.2"/>
<path d="M58.6091 24.9443L35.7404 10.8196C35.5472 10.7003 35.3286 10.6406 35.11 10.6406V27.1645H57.9787C59.1872 27.1645 59.6373 25.5794 58.6091 24.9443Z" fill="#9065B0"/>
<path d="M58.6091 24.9443L35.7404 10.8196C35.5472 10.7003 35.3286 10.6406 35.11 10.6406V27.1645H57.9787C59.1872 27.1645 59.6373 25.5794 58.6091 24.9443Z" fill="black" fill-opacity="0.2"/>
<path d="M32.6862 20.2875C32.6862 19.5225 33.3063 18.9023 34.0713 18.9023H35.1102H36.1491C36.9141 18.9023 37.5342 19.5225 37.5342 20.2875C37.5342 21.0524 36.9141 21.6726 36.1491 21.6726H35.1102H34.0713C33.3063 21.6726 32.6862 21.0524 32.6862 20.2875Z" fill="#FACE1C"/>
<path d="M32.6862 20.2875C32.6862 19.5225 33.3063 18.9023 34.0713 18.9023H35.1102H36.1491C36.9141 18.9023 37.5342 19.5225 37.5342 20.2875C37.5342 21.0524 36.9141 21.6726 36.1491 21.6726H35.1102H34.0713C33.3063 21.6726 32.6862 21.0524 32.6862 20.2875Z" fill="black" fill-opacity="0.2"/>
<path d="M32.6862 20.2875C32.6862 21.0524 33.3063 21.6726 34.0713 21.6726H35.1102V18.9023H34.0713C33.3063 18.9023 32.6862 19.5225 32.6862 20.2875Z" fill="#FACE1C"/>
<path d="M14.2448 29.3246C14.2448 28.6621 14.7818 28.125 15.4443 28.125H35.11H54.7757C55.4382 28.125 55.9753 28.6621 55.9753 29.3246V32.2073C55.9753 32.8698 55.4382 33.4068 54.7757 33.4068H35.11H15.4443C14.7818 33.4068 14.2448 32.8698 14.2448 32.2073V29.3246Z" fill="#9065B0"/>
<path d="M14.2448 29.3246C14.2448 28.6621 14.7818 28.125 15.4443 28.125H35.11H54.7757C55.4382 28.125 55.9753 28.6621 55.9753 29.3246V32.2073C55.9753 32.8698 55.4382 33.4068 54.7757 33.4068H35.11H15.4443C14.7818 33.4068 14.2448 32.8698 14.2448 32.2073V29.3246Z" fill="black" fill-opacity="0.2"/>
<path d="M14.2448 29.3246V32.2073C14.2448 32.8698 14.7818 33.4068 15.4443 33.4068H35.11V28.125H15.4443C14.7818 28.125 14.2448 28.6621 14.2448 29.3246Z" fill="#9065B0"/>
<path d="M14.2448 29.3246V32.2073C14.2448 32.8698 14.7818 33.4068 15.4443 33.4068H35.11V28.125H15.4443C14.7818 28.125 14.2448 28.6621 14.2448 29.3246Z" fill="white" fill-opacity="0.2"/>
<path d="M11.2223 54.9652C11.2223 54.3027 11.7594 53.7656 12.4219 53.7656H35.1107H57.7994C58.4619 53.7656 58.999 54.3027 58.999 54.9652V58.6592C58.999 59.3217 58.4619 59.8588 57.7994 59.8588H35.1107H12.4219C11.7594 59.8588 11.2223 59.3217 11.2223 58.6592V54.9652Z" fill="#9065B0"/>
<path d="M11.2223 54.9652C11.2223 54.3027 11.7594 53.7656 12.4219 53.7656H35.1107H57.7994C58.4619 53.7656 58.999 54.3027 58.999 54.9652V58.6592C58.999 59.3217 58.4619 59.8588 57.7994 59.8588H35.1107H12.4219C11.7594 59.8588 11.2223 59.3217 11.2223 58.6592V54.9652Z" fill="black" fill-opacity="0.2"/>
<path d="M11.2223 54.9652V58.6592C11.2223 59.3217 11.7594 59.8588 12.4219 59.8588H35.1107V53.7656H12.4219C11.7594 53.7656 11.2223 54.3027 11.2223 54.9652Z" fill="#9065B0"/>
<path d="M11.2223 54.9652V58.6592C11.2223 59.3217 11.7594 59.8588 12.4219 59.8588H35.1107V53.7656H12.4219C11.7594 53.7656 11.2223 54.3027 11.2223 54.9652Z" fill="white" fill-opacity="0.2"/>
<path d="M39.0517 34.3652C38.3892 34.3652 37.8522 34.9023 37.8522 35.5648V51.6066C37.8522 52.2691 38.3892 52.8061 39.0517 52.8061H41.8244C42.4869 52.8061 43.024 52.2691 43.024 51.6066V35.5648C43.024 34.9023 42.4869 34.3652 41.8244 34.3652H39.0517Z" fill="#9065B0"/>
<path d="M39.0517 34.3652C38.3892 34.3652 37.8522 34.9023 37.8522 35.5648V51.6066C37.8522 52.2691 38.3892 52.8061 39.0517 52.8061H41.8244C42.4869 52.8061 43.024 52.2691 43.024 51.6066V35.5648C43.024 34.9023 42.4869 34.3652 41.8244 34.3652H39.0517Z" fill="black" fill-opacity="0.2"/>
<path d="M49.7087 34.3652C49.0462 34.3652 48.5092 34.9023 48.5092 35.5648V51.6066C48.5092 52.2691 49.0462 52.8061 49.7087 52.8061H52.4814C53.1439 52.8061 53.681 52.2691 53.681 51.6066V35.5648C53.681 34.9023 53.1439 34.3652 52.4814 34.3652H49.7087Z" fill="#9065B0"/>
<path d="M49.7087 34.3652C49.0462 34.3652 48.5092 34.9023 48.5092 35.5648V51.6066C48.5092 52.2691 49.0462 52.8061 49.7087 52.8061H52.4814C53.1439 52.8061 53.681 52.2691 53.681 51.6066V35.5648C53.681 34.9023 53.1439 34.3652 52.4814 34.3652H49.7087Z" fill="black" fill-opacity="0.2"/>
<path d="M17.7383 34.3652C17.0758 34.3652 16.5387 34.9023 16.5387 35.5648V51.6066C16.5387 52.2691 17.0758 52.8061 17.7383 52.8061H20.511C21.1735 52.8061 21.7105 52.2691 21.7105 51.6066V35.5648C21.7105 34.9023 21.1735 34.3652 20.511 34.3652H17.7383Z" fill="#9065B0"/>
<path d="M17.7383 34.3652C17.0758 34.3652 16.5387 34.9023 16.5387 35.5648V51.6066C16.5387 52.2691 17.0758 52.8061 17.7383 52.8061H20.511C21.1735 52.8061 21.7105 52.2691 21.7105 51.6066V35.5648C21.7105 34.9023 21.1735 34.3652 20.511 34.3652H17.7383Z" fill="white" fill-opacity="0.2"/>
<path d="M28.3951 34.3652C27.7326 34.3652 27.1956 34.9023 27.1956 35.5648V51.6066C27.1956 52.2691 27.7326 52.8061 28.3951 52.8061H31.1678C31.8303 52.8061 32.3674 52.2691 32.3674 51.6066V35.5648C32.3674 34.9023 31.8303 34.3652 31.1678 34.3652H28.3951Z" fill="#9065B0"/>
<path d="M28.3951 34.3652C27.7326 34.3652 27.1956 34.9023 27.1956 35.5648V51.6066C27.1956 52.2691 27.7326 52.8061 28.3951 52.8061H31.1678C31.8303 52.8061 32.3674 52.2691 32.3674 51.6066V35.5648C32.3674 34.9023 31.8303 34.3652 31.1678 34.3652H28.3951Z" fill="white" fill-opacity="0.2"/>
</svg>
