<svg width="33" height="32" viewBox="0 0 33 32" fill="none" xmlns="http://www.w3.org/2000/svg">
<path d="M16.2077 1.92244C16.2077 1.92244 24.4944 1.54946 28.8863 9.87721H15.5033C15.5033 9.87721 12.976 9.79414 10.8212 12.8604C10.2 14.1451 9.53716 15.471 10.2828 18.0809C9.20549 16.2582 4.56494 8.17868 4.56494 8.17868C4.56494 8.17868 7.83835 2.2537 16.2077 1.92244Z" fill="#DA4537"/>
<path d="M4.56494 8.17871C4.56494 8.17871 9.20549 16.2582 10.2828 18.0809C9.86209 16.6082 9.88976 15.5444 10.1054 14.6661L4.56494 8.17871Z" fill="#B63729"/>
<path d="M28.4547 23.0669C28.4547 23.0669 24.6335 30.4287 15.2251 30.0671C16.3859 28.0582 21.9181 18.4781 21.9181 18.4781C21.9181 18.4781 23.2538 16.3311 21.677 12.9322C21.332 12.4243 20.9844 11.906 20.4906 11.4277C19.8364 10.794 18.9258 10.2306 17.4251 9.8546C19.543 9.8338 28.8597 9.856 28.8597 9.856C28.8597 9.856 32.3531 15.6537 28.4547 23.0669Z" fill="#FFCD3F"/>
<path d="M4.02009 23.1227C4.02009 23.1227 -0.444894 16.1315 4.57329 8.16504L11.2622 19.7568C11.2622 19.7568 12.4536 21.9869 16.186 22.3208C16.8588 22.2717 17.5442 22.226 18.2793 21.9855C19.0993 21.7172 19.9812 21.2064 20.9766 20.178C19.9361 22.0222 15.2576 30.0798 15.2576 30.0798C15.2576 30.0798 8.49022 30.206 4.02009 23.1227Z" fill="#0A9E58"/>
<path d="M9.90347 16.1156C9.90347 12.6532 12.7105 9.8457 16.1737 9.8457C19.6365 9.8457 22.4433 12.6532 22.4433 16.1156C22.4433 19.579 19.6365 22.386 16.1737 22.386C12.7105 22.386 9.90347 19.5791 9.90347 16.1156Z" fill="white"/>
<path d="M11.2563 16.1156C11.2563 13.4006 13.4577 11.1992 16.173 11.1992C18.8875 11.1992 21.0893 13.4006 21.0893 16.1156C21.0893 18.831 18.8876 21.0323 16.173 21.0323C13.4577 21.0323 11.2563 18.831 11.2563 16.1156Z" fill="#577FC0"/>
<path d="M28.8595 9.856C28.8595 9.856 19.5428 9.8338 17.425 9.8546C18.9256 10.2306 19.8363 10.794 20.4905 11.4277L28.8595 9.856Z" fill="#E5A630"/>
<path d="M15.2576 30.0794C15.2576 30.0794 19.9361 22.0218 20.9766 20.1777C19.9812 21.2061 19.0993 21.7169 18.2794 21.9851L15.2576 30.0794Z" fill="#109155"/>
</svg>
