<svg width="24" height="25" viewBox="0 0 24 25" fill="none" xmlns="http://www.w3.org/2000/svg">
<path d="M15 3.375H5C3.9 3.375 3.01 4.275 3.01 5.375L3 19.375C3 20.475 3.89 21.375 4.99 21.375H19C20.1 21.375 21 20.475 21 19.375V9.375L15 3.375ZM5 19.375V5.375H14V10.375H19V19.375H5ZM9 8.375C9 8.925 8.55 9.375 8 9.375C7.45 9.375 7 8.925 7 8.375C7 7.825 7.45 7.375 8 7.375C8.55 7.375 9 7.825 9 8.375ZM9 12.375C9 12.925 8.55 13.375 8 13.375C7.45 13.375 7 12.925 7 12.375C7 11.825 7.45 11.375 8 11.375C8.55 11.375 9 11.825 9 12.375ZM9 16.375C9 16.925 8.55 17.375 8 17.375C7.45 17.375 7 16.925 7 16.375C7 15.825 7.45 15.375 8 15.375C8.55 15.375 9 15.825 9 16.375Z" fill="#DB4437"/>
</svg>
