<svg width="70" height="71" viewBox="0 0 70 71" fill="none" xmlns="http://www.w3.org/2000/svg">
<path fill-rule="evenodd" clip-rule="evenodd" d="M34.9364 21.4824C31.796 21.4824 29.021 23.0466 27.348 25.4385C29.4938 26.6329 31.2191 28.4916 32.2462 30.7365H37.7488C38.7592 28.5201 40.4499 26.6792 42.554 25.4805C40.8842 23.065 38.0951 21.4824 34.9364 21.4824ZM21.7394 25.1221C16.6285 25.1221 12.4854 29.2652 12.4854 34.3761H30.9934C30.9934 29.2652 26.8502 25.1221 21.7394 25.1221ZM48.2618 25.1221C43.151 25.1221 39.0078 29.2652 39.0078 34.3761H57.5159C57.5159 29.2652 53.3727 25.1221 48.2618 25.1221Z" fill="#9065B0"/>
<path fill-rule="evenodd" clip-rule="evenodd" d="M34.9364 21.4824C31.796 21.4824 29.021 23.0466 27.348 25.4385C29.4938 26.6329 31.2191 28.4916 32.2462 30.7365H37.7488C38.7592 28.5201 40.4499 26.6792 42.554 25.4805C40.8842 23.065 38.0951 21.4824 34.9364 21.4824ZM21.7394 25.1221C16.6285 25.1221 12.4854 29.2652 12.4854 34.3761H30.9934C30.9934 29.2652 26.8502 25.1221 21.7394 25.1221ZM48.2618 25.1221C43.151 25.1221 39.0078 29.2652 39.0078 34.3761H57.5159C57.5159 29.2652 53.3727 25.1221 48.2618 25.1221Z" fill="black" fill-opacity="0.2"/>
<path fill-rule="evenodd" clip-rule="evenodd" d="M34.9364 20.351C37.6858 20.351 39.9146 18.1222 39.9146 15.3728C39.9146 12.6234 37.6858 10.3945 34.9364 10.3945C32.1869 10.3945 29.9581 12.6234 29.9581 15.3728C29.9581 18.1222 32.1869 20.351 34.9364 20.351ZM26.7173 19.0105C26.7173 21.7599 24.4884 23.9887 21.739 23.9887C18.9896 23.9887 16.7607 21.7599 16.7607 19.0105C16.7607 16.2611 18.9896 14.0322 21.739 14.0322C24.4884 14.0322 26.7173 16.2611 26.7173 19.0105ZM53.2397 19.0105C53.2397 21.7599 51.0109 23.9887 48.2615 23.9887C45.512 23.9887 43.2832 21.7599 43.2832 19.0105C43.2832 16.2611 45.512 14.0322 48.2615 14.0322C51.0109 14.0322 53.2397 16.2611 53.2397 19.0105Z" fill="#9065B0"/>
<path d="M46.4234 35.8398C46.4234 42.1487 41.3091 47.263 35.0003 47.263C28.6915 47.263 23.5771 42.1487 23.5771 35.8398H35.0003H46.4234Z" fill="#FACE1C"/>
<path d="M46.4234 35.8398C46.4234 42.1487 41.3091 47.263 35.0003 47.263C28.6915 47.263 23.5771 42.1487 23.5771 35.8398H35.0003H46.4234Z" fill="white" fill-opacity="0.2"/>
<path d="M35 47.263C41.3088 47.263 46.4231 42.1487 46.4231 35.8398H35V47.263Z" fill="#F2C31E"/>
<path d="M20.8574 36.9355C20.8115 36.3332 20.3262 35.8418 19.7222 35.8418H11.8281C11.2241 35.8418 10.7344 36.3315 10.7344 36.9355V38.8574C10.7344 39.4614 11.2241 39.9511 11.8281 39.9511H14.3149C14.8333 39.9511 15.2774 40.316 15.4051 40.8185C15.8897 42.7258 16.6456 44.5252 17.6291 46.1726C17.8951 46.6183 17.8394 47.1911 17.4724 47.5581L15.7096 49.3207C15.2824 49.7479 15.2824 50.4404 15.7095 50.8675L19.974 55.1322C20.4012 55.5593 21.0937 55.5593 21.5208 55.1322L23.288 53.3651C23.6547 52.9985 24.2267 52.9425 24.6722 53.2078C26.319 54.1883 28.1169 54.9415 30.0226 55.4239C30.5256 55.5512 30.891 55.9955 30.891 56.5144V59.013C30.891 59.6171 31.3807 60.1068 31.9847 60.1068H35.0002H38.0157C38.6198 60.1068 39.1095 59.6171 39.1095 59.013V56.5148C39.1095 55.9959 39.4749 55.5516 39.9779 55.4243C41.8837 54.9418 43.6817 54.1884 45.3286 53.2078C45.7741 52.9425 46.3462 52.9986 46.7128 53.3652L48.4798 55.1322C48.907 55.5593 49.5995 55.5593 50.0266 55.1322L54.2911 50.8675C54.7182 50.4404 54.7182 49.7479 54.2911 49.3207L52.5284 47.558C52.1614 47.191 52.1057 46.6183 52.3718 46.1726C53.3554 44.5251 54.1113 42.7261 54.596 40.8186C54.7236 40.3161 55.1677 39.9511 55.6862 39.9511H58.1721C58.7762 39.9511 59.2659 39.4614 59.2659 38.8574V36.9355C59.2659 36.3315 58.7762 35.8418 58.1721 35.8418H50.2788C49.6747 35.8418 49.1894 36.3332 49.1435 36.9355C48.5848 44.2581 42.4662 50.0258 35.0005 50.0258C27.5347 50.0258 21.4161 44.2581 20.8574 36.9355Z" fill="#666666"/>
<path d="M39.1092 59.013V56.5148C39.1092 55.9959 39.4747 55.5516 39.9776 55.4243C41.8835 54.9418 43.6815 54.1884 45.3284 53.2078C45.7739 52.9425 46.346 52.9986 46.7126 53.3652L48.4796 55.1322C48.9067 55.5593 49.5993 55.5593 50.0264 55.1322L54.2909 50.8675C54.718 50.4404 54.718 49.7479 54.2909 49.3207L52.5282 47.558C52.1612 47.191 52.1055 46.6183 52.3715 46.1726C53.3552 44.5251 54.1111 42.7261 54.5957 40.8186C54.7234 40.3161 55.1675 39.9511 55.686 39.9511H58.1719C58.776 39.9511 59.2657 39.4614 59.2657 38.8574V36.9355C59.2657 36.3315 58.776 35.8418 58.1719 35.8418H50.2785C49.6745 35.8418 49.1892 36.3332 49.1432 36.9355C48.5846 44.2581 42.466 50.0258 35.0002 50.0258L35 60.1068H38.0155C38.6195 60.1068 39.1092 59.6171 39.1092 59.013Z" fill="black"/>
</svg>
