<svg width="24" height="25" viewBox="0 0 24 25" fill="none" xmlns="http://www.w3.org/2000/svg">
<path d="M10.5 4.875C10.78 4.875 11 5.095 11 5.375V7.375H17V13.375H19C19.28 13.375 19.5 13.595 19.5 13.875C19.5 14.155 19.28 14.375 19 14.375H17V20.375H14.88C14.2 18.625 12.49 17.375 10.5 17.375C8.51 17.375 6.8 18.625 6.12 20.375H4V18.255C5.75 17.575 7 15.865 7 13.875C7 11.885 5.76 10.175 4.01 9.495L4 7.375H10V5.375C10 5.095 10.22 4.875 10.5 4.875ZM10.5 2.875C9.12 2.875 8 3.995 8 5.375H4C2.9 5.375 2.01 6.275 2.01 7.375V11.175H2.3C3.79 11.175 5 12.385 5 13.875C5 15.365 3.79 16.575 2.3 16.575H2V20.375C2 21.475 2.9 22.375 4 22.375H7.8V22.075C7.8 20.585 9.01 19.375 10.5 19.375C11.99 19.375 13.2 20.585 13.2 22.075V22.375H17C18.1 22.375 19 21.475 19 20.375V16.375C20.38 16.375 21.5 15.255 21.5 13.875C21.5 12.495 20.38 11.375 19 11.375V7.375C19 6.275 18.1 5.375 17 5.375H13C13 3.995 11.88 2.875 10.5 2.875Z" fill="#9065B0"/>
</svg>
