<svg width="71" height="71" viewBox="0 0 71 71" fill="none" xmlns="http://www.w3.org/2000/svg">
<path d="M35.4703 34.2076C41.9781 34.2076 47.2538 28.932 47.2538 22.4241C47.2538 15.9163 41.9781 10.6406 35.4703 10.6406C28.9625 10.6406 23.6868 15.9163 23.6868 22.4241C23.6868 28.932 28.9625 34.2076 35.4703 34.2076Z" fill="#A784C0"/>
<path d="M35.4703 34.2076C41.9781 34.2076 47.2538 28.932 47.2538 22.4241C47.2538 15.9163 41.9781 10.6406 35.4703 10.6406C28.9625 10.6406 23.6868 15.9163 23.6868 22.4241C23.6868 28.932 28.9625 34.2076 35.4703 34.2076Z" fill="white" fill-opacity="0.2"/>
<path d="M45.7799 59.859H55.653C58.6733 59.859 61.1824 57.3827 60.5462 54.4302C59.8415 51.1595 58.5131 48.1207 56.6917 45.4443C56.6775 45.4232 56.6631 45.402 56.6486 45.3808C53.9836 41.49 50.2742 38.3707 45.9245 36.4271C45.9132 36.422 45.9019 36.4171 45.8906 36.4121L41.8964 43.0602L37.9418 49.5722L37.1601 39.7469L39.242 36.8661H31.6982L33.7799 39.7466L32.9981 49.5722L29.0358 43.0474L25.0492 36.4121C25.038 36.4171 25.0267 36.4221 25.0155 36.4271C20.6658 38.3708 16.9564 41.49 14.2914 45.3808C14.2804 45.3968 14.2695 45.4128 14.2587 45.4288C12.4319 48.1089 11.0997 51.1531 10.3936 54.4302C9.75747 57.3827 12.2665 59.859 15.2868 59.859H25.16C25.1737 59.859 25.1874 59.859 25.2012 59.859H45.7388C45.7525 59.859 45.7662 59.859 45.7799 59.859Z" fill="black"/>
<path d="M49.734 50.6953H44.7724C44.0428 50.6953 43.4514 51.2867 43.4514 52.0163C43.4514 52.7458 44.0428 53.3372 44.7724 53.3372H49.734C50.4636 53.3372 51.055 52.7458 51.055 52.0163C51.055 51.2867 50.4636 50.6953 49.734 50.6953Z" fill="white"/>
<path d="M33.7799 39.7466L31.6982 36.8661H35.4701L35.47 59.859H25.2012H25.16H15.2868C12.2665 59.859 9.75747 57.3827 10.3936 54.4302C11.0997 51.1531 12.4319 48.1089 14.2587 45.4288L14.2914 45.3808C16.9564 41.49 20.6658 38.3708 25.0155 36.4271L25.0492 36.4121L29.0358 43.0474L32.9981 49.5722L33.7799 39.7466Z" fill="black"/>
<path d="M33.7799 39.7466L31.6982 36.8661H35.4701L35.47 59.859H25.2012H25.16H15.2868C12.2665 59.859 9.75747 57.3827 10.3936 54.4302C11.0997 51.1531 12.4319 48.1089 14.2587 45.4288L14.2914 45.3808C16.9564 41.49 20.6658 38.3708 25.0155 36.4271L25.0492 36.4121L29.0358 43.0474L32.9981 49.5722L33.7799 39.7466Z" fill="white" fill-opacity="0.2"/>
</svg>
