<svg width="24" height="25" viewBox="0 0 24 25" fill="none" xmlns="http://www.w3.org/2000/svg">
<path d="M12.87 15.695L10.33 13.185L10.36 13.155C12.1 11.215 13.34 8.985 14.07 6.625H17V4.625H10V2.625H8V4.625H1V6.615H12.17C11.5 8.545 10.44 10.375 9 11.975C8.07 10.945 7.3 9.815 6.69 8.625H4.69C5.42 10.255 6.42 11.795 7.67 13.185L2.58 18.205L4 19.625L9 14.625L12.11 17.735L12.87 15.695ZM18.5 10.625H16.5L12 22.625H14L15.12 19.625H19.87L21 22.625H23L18.5 10.625ZM15.88 17.625L17.5 13.295L19.12 17.625H15.88Z" fill="#202124"/>
</svg>
