<svg width="24" height="25" viewBox="0 0 24 25" fill="none" xmlns="http://www.w3.org/2000/svg">
<path d="M15.5 14.875H14.71L14.43 14.605C15.41 13.465 16 11.985 16 10.375C16 6.785 13.09 3.875 9.5 3.875C5.91 3.875 3 6.785 3 10.375C3 13.965 5.91 16.875 9.5 16.875C11.11 16.875 12.59 16.285 13.73 15.305L14 15.585V16.375L19 21.365L20.49 19.875L15.5 14.875ZM9.5 14.875C7.01 14.875 5 12.865 5 10.375C5 7.885 7.01 5.875 9.5 5.875C11.99 5.875 14 7.885 14 10.375C14 12.865 11.99 14.875 9.5 14.875Z" fill="#FAA700"/>
</svg>
