<svg width="71" height="71" viewBox="0 0 71 71" fill="none" xmlns="http://www.w3.org/2000/svg">
<path d="M59.9103 10.1602H42.7783C41.0665 10.1602 39.6788 11.5478 39.6788 13.2596V24.5849V31.6058L43.8534 27.6844H59.9103C61.6221 27.6844 63.0097 26.2967 63.0097 24.5849V13.2596C63.0097 11.5478 61.6221 10.1602 59.9103 10.1602Z" fill="#9065B0"/>
<path fill-rule="evenodd" clip-rule="evenodd" d="M43.5312 14.6328H58.5851V16.6601H43.5312V14.6328ZM43.5739 20.3163H54.766V22.3435H43.5739V20.3163Z" fill="white"/>
<path d="M16.6715 30.0921C16.6715 25.0871 20.8665 20.9986 26.0804 20.9986C31.2942 20.9986 35.4892 25.0871 35.4892 30.0921C35.4892 30.4094 35.7464 30.6666 36.0637 30.6666C36.381 30.6666 36.6382 30.4094 36.6382 30.0921C36.6382 24.4181 31.8938 19.8496 26.0804 19.8496C20.267 19.8496 15.5226 24.4181 15.5226 30.0921C15.5226 30.4094 15.7798 30.6666 16.0971 30.6666C16.4143 30.6666 16.6715 30.4094 16.6715 30.0921Z" fill="black"/>
<path d="M14.545 30.7492C14.545 29.3085 15.7129 28.1406 17.1536 28.1406H18.9708V33.3578H17.1536C15.7129 33.3578 14.545 32.1899 14.545 30.7492Z" fill="#FACE1C"/>
<path d="M37.4425 30.7474C37.4425 29.3077 36.2754 28.1406 34.8358 28.1406H33.8049V33.3541H34.8358C36.2754 33.3541 37.4425 32.187 37.4425 30.7474Z" fill="#FACE1C"/>
<path d="M26.0801 40.5382C30.9341 40.5382 34.869 36.3795 34.869 31.2496C34.869 26.1196 30.9341 21.9609 26.0801 21.9609C21.2261 21.9609 17.2912 26.1196 17.2912 31.2496C17.2912 36.3795 21.2261 40.5382 26.0801 40.5382Z" fill="#9065B0"/>
<path d="M26.0801 40.5382C30.9341 40.5382 34.869 36.3795 34.869 31.2496C34.869 26.1196 30.9341 21.9609 26.0801 21.9609C21.2261 21.9609 17.2912 26.1196 17.2912 31.2496C17.2912 36.3795 21.2261 40.5382 26.0801 40.5382Z" fill="white" fill-opacity="0.2"/>
<path d="M28.5697 37.7506C29.5879 37.7098 30.6437 37.5766 31.6413 37.2983C33.7845 36.7004 35.7399 35.4016 36.3675 32.8535C35.9184 33.1899 35.3441 33.2979 35.0604 33.3513L35.0522 33.3528C34.388 34.904 33.009 35.7812 31.3474 36.2447C30.4524 36.4944 29.4932 36.6172 28.5567 36.6565C28.3471 36.2177 27.8991 35.9145 27.3803 35.9145H25.4956C24.7759 35.9145 24.1925 36.4979 24.1925 37.2176C24.1925 37.9373 24.7759 38.5207 25.4956 38.5207H27.3803C27.9101 38.5207 28.366 38.2046 28.5697 37.7506Z" fill="black"/>
<path d="M26.0803 42.0078C17.8322 42.0078 10.8564 47.4555 8.55472 54.9491C7.66791 57.8362 10.1981 60.3385 13.2184 60.3385H38.9423C41.9626 60.3385 44.4927 57.8362 43.6059 54.9491C41.3042 47.4555 34.3285 42.0078 26.0803 42.0078Z" fill="#7601D3"/>
<path d="M38.9423 60.3385H13.2184C10.1981 60.3385 7.66791 57.8363 8.5547 54.9491C10.3439 49.124 14.9575 44.5352 20.7976 42.7805C22.4704 42.2779 24.2438 42.0078 26.0803 42.0078C27.9168 42.0078 29.6902 42.2779 31.363 42.7805C37.2032 44.5352 41.8168 49.124 43.6059 54.9491C44.4927 57.8363 41.9626 60.3385 38.9423 60.3385Z" fill="black"/>
<path d="M38.9423 60.3385H13.2184C10.1981 60.3385 7.66791 57.8363 8.5547 54.9491C10.3439 49.124 14.9575 44.5352 20.7976 42.7805C22.4704 42.2779 24.2438 42.0078 26.0803 42.0078C27.9168 42.0078 29.6902 42.2779 31.363 42.7805C37.2032 44.5352 41.8168 49.124 43.6059 54.9491C44.4927 57.8363 41.9626 60.3385 38.9423 60.3385Z" fill="white" fill-opacity="0.2"/>
<path d="M20.798 42.7805C22.4708 42.2779 24.2442 42.0078 26.0807 42.0078C27.9172 42.0078 29.6906 42.2779 31.3634 42.7805L26.0807 49.9702L20.798 42.7805Z" fill="white"/>
<path d="M43.8952 56.001C42.2847 49.3595 37.0569 44.1317 30.4154 42.5212C28.0672 41.9517 26.0802 43.9643 26.0802 46.3805V55.9612V60.3362H30.4552H40.0359C42.4521 60.3362 44.4646 58.3492 43.8952 56.001Z" fill="black"/>
<path d="M31.3629 42.7805C29.6901 42.2779 27.9167 42.0078 26.0802 42.0078V49.9702L31.3629 42.7805Z" fill="white"/>
<path d="M31.3629 42.7805C29.6901 42.2779 27.9167 42.0078 26.0802 42.0078V49.9702L31.3629 42.7805Z" fill="black" fill-opacity="0.2"/>
</svg>
