<svg width="155" height="60" viewBox="0 0 155 60" fill="none" xmlns="http://www.w3.org/2000/svg">
<g clip-path="url(#clip0_1_268)">
<g clip-path="url(#clip1_1_268)">
<path d="M13.8925 40.9773C14.4951 42.5764 15.3293 43.9436 16.3954 45.079C17.4614 46.2147 18.7244 47.0836 20.1843 47.6862C21.6443 48.2888 23.2318 48.59 24.9466 48.59C26.6153 48.59 28.1794 48.2771 29.6395 47.6513C31.0996 47.0255 32.374 46.145 33.4632 45.0095C34.5523 43.874 35.3983 42.5184 36.0008 40.9425C36.6034 39.3666 36.9046 37.6055 36.9046 35.6587V5.625H44.2045V54.2908H36.9741V49.7717C35.3519 51.4865 33.4399 52.8075 31.2385 53.7346C29.0368 54.6615 26.6616 55.125 24.1124 55.125C21.5168 55.125 19.0951 54.673 16.8472 53.7693C14.5994 52.8655 12.6526 51.5794 11.0074 49.9109C9.3621 48.2422 8.06424 46.2379 7.11417 43.8972C6.16394 41.5566 5.6889 38.9496 5.6889 36.0758V5.625H12.9887V35.6587C12.9887 37.6055 13.2899 39.3781 13.8925 40.9773ZM56.7874 5.625V23.3532C58.4095 21.731 60.2868 20.445 62.4187 19.4948C64.5508 18.5445 66.8682 18.0695 69.3709 18.0695C71.9665 18.0695 74.3996 18.5561 76.671 19.5294C78.942 20.5027 80.9115 21.8237 82.5802 23.4923C84.249 25.1609 85.5697 27.1306 86.5432 29.4017C87.516 31.6728 88.0027 34.0829 88.0027 36.6321C88.0027 39.1811 87.516 41.5797 86.5432 43.8274C85.5697 46.0754 84.249 48.0338 82.5802 49.702C80.9115 51.3707 78.942 52.6917 76.671 53.665C74.3996 54.6382 71.9664 55.1249 69.3709 55.1249C66.868 55.1249 64.5392 54.6498 62.384 53.6996C60.2288 52.7495 58.34 51.4633 56.7178 49.8411V54.2906H49.7656V5.625H56.7874ZM57.5869 41.4291C58.2125 42.9123 59.0816 44.2101 60.194 45.3224C61.3064 46.4348 62.6041 47.3155 64.0873 47.9644C65.5705 48.6132 67.1695 48.9376 68.8843 48.9376C70.553 48.9376 72.1287 48.6132 73.6118 47.9644C75.0949 47.3155 76.3807 46.435 77.4705 45.3224C78.5595 44.2103 79.4287 42.9123 80.0775 41.4291C80.7262 39.946 81.051 38.347 81.051 36.6321C81.051 34.9172 80.7262 33.3065 80.0775 31.8001C79.4287 30.2938 78.5595 28.9846 77.4705 27.8722C76.3815 26.76 75.0951 25.8908 73.6118 25.2652C72.1285 24.6395 70.5529 24.3265 68.8843 24.3265C67.2159 24.3265 65.64 24.6394 64.1569 25.2652C62.6738 25.891 61.3761 26.76 60.2635 27.8722C59.1514 28.9846 58.2706 30.2938 57.6217 31.8001C56.9729 33.3065 56.6485 34.9172 56.6485 36.6321C56.6483 38.347 56.9612 39.946 57.5869 41.4291ZM91.965 29.4713C92.892 27.2466 94.167 25.2884 95.7885 23.5967C97.4107 21.905 99.3345 20.5725 101.559 19.5992C103.784 18.6259 106.194 18.1394 108.79 18.1394C111.339 18.1394 113.702 18.6028 115.881 19.5297C118.059 20.4567 119.936 21.7429 121.512 23.3883C123.088 25.0335 124.316 26.9803 125.197 29.2281C126.077 31.4761 126.518 33.9209 126.518 36.5629V38.8571H97.6657C97.8975 40.2939 98.361 41.6264 99.0562 42.8545C99.7515 44.0827 100.621 45.1487 101.663 46.0526C102.706 46.9565 103.889 47.6633 105.209 48.173C106.53 48.6828 107.932 48.9378 109.415 48.9378C113.633 48.9378 117.04 47.1997 119.636 43.7235L124.71 47.4776C122.949 49.8415 120.771 51.6955 118.175 53.0395C115.579 54.3835 112.66 55.0556 109.415 55.0556C106.774 55.0556 104.305 54.592 102.011 53.6651C99.717 52.7383 97.7242 51.4404 96.0322 49.7717C94.341 48.1031 93.0082 46.1449 92.0347 43.8972C91.0612 41.6494 90.5745 39.2043 90.5745 36.5626C90.5745 34.0598 91.038 31.6961 91.965 29.4713ZM101.733 26.725C99.7635 28.3705 98.454 30.5605 97.8052 33.295H119.426C118.824 30.5605 117.538 28.3705 115.568 26.725C113.598 25.0798 111.293 24.2571 108.65 24.2571C106.009 24.2571 103.702 25.0798 101.733 26.725ZM139.657 27.5246C138.174 29.1467 137.432 31.3482 137.432 34.1292V54.2909H130.411V18.8344H137.362V23.2143C138.243 21.7775 139.391 20.6419 140.804 19.8076C142.217 18.9733 143.898 18.556 145.844 18.556H148.278V25.0912H145.357C143.041 25.0914 141.14 25.9024 139.657 27.5246Z" fill="#010202"/>
</g>
</g>
<defs>
<clipPath id="clip0_1_268">
<rect width="153.75" height="60" fill="white" transform="translate(0.75)"/>
</clipPath>
<clipPath id="clip1_1_268">
<rect width="153.75" height="60" fill="white" transform="translate(0.75)"/>
</clipPath>
</defs>
</svg>
