<svg width="197" height="60" viewBox="0 0 197 60" fill="none" xmlns="http://www.w3.org/2000/svg">
<g clip-path="url(#clip0_1_345)">
<g clip-path="url(#clip1_1_345)">
<path d="M51.0795 16.8059L45.5128 9.57715C44.6991 10.0856 43.417 10.5852 42.1258 10.5852C40.8347 10.5852 39.9063 10.4658 38.8185 10.2492C37.47 9.97952 35.94 9.67885 33.5127 9.67885C31.0852 9.67885 29.5553 9.98395 28.2069 10.2492C27.1147 10.4658 26.1906 10.5852 24.8997 10.5852C23.6084 10.5852 22.3263 10.0856 21.5126 9.57715L15.9372 16.8059C16.6269 17.4692 17.8825 18.9635 17.8825 21.0857C17.8825 22.5317 17.6703 23.8402 17.4271 25.3568C17.0956 27.3949 16.7241 29.7073 16.7241 33.147C16.7241 39.045 20.4869 44.1295 26.54 46.4108C30.9218 48.06 32.7522 49.2758 33.5082 49.9435C34.2645 49.2716 36.095 48.06 40.4767 46.4108C46.5341 44.1295 50.2925 39.0495 50.2925 33.147C50.2925 29.7073 49.9166 27.3949 49.5894 25.3568C49.3417 23.8402 49.1339 22.5317 49.1339 21.0857C49.1339 18.9635 50.3898 17.4647 51.0795 16.8059Z" fill="white"/>
<path d="M45.5134 9.57915L51.0801 16.808C50.3903 17.4712 49.1347 18.9656 49.1347 21.0879C49.1347 22.5335 49.347 23.8423 49.5902 25.3588C49.9217 27.397 50.2931 29.7094 50.2931 33.1491C50.2931 39.0472 46.5304 44.1316 40.4773 46.4129C36.0955 48.0621 34.265 49.2779 33.5091 49.9456C32.7528 49.2735 30.9223 48.0621 26.5406 46.4129C20.4832 44.1316 16.7247 39.0516 16.7247 33.1491C16.7247 29.7094 17.1006 27.397 17.4279 25.3588C17.6755 23.8423 17.8833 22.5335 17.8833 21.0879C17.8833 18.97 16.6275 17.4712 15.9378 16.808L21.5045 9.57915C22.3182 10.0876 23.6003 10.5872 24.8915 10.5872C26.1825 10.5872 27.111 10.4678 28.1988 10.2512C29.5473 9.98152 31.077 9.68085 33.5046 9.68085C35.9319 9.68085 37.4619 9.98595 38.8104 10.2512C39.9026 10.4678 40.8267 10.5872 42.1176 10.5872C43.4176 10.5872 44.6955 10.0876 45.5134 9.57915ZM45.615 9L45.2791 9.20775C44.5497 9.66323 43.338 10.1495 42.1221 10.1495C40.809 10.1495 39.9157 10.0257 38.8989 9.82238C37.5281 9.55268 35.9807 9.24315 33.5091 9.24315C31.0374 9.24315 29.4853 9.55268 28.1191 9.82238C27.1021 10.0257 26.209 10.1495 24.8958 10.1495C23.6799 10.1495 22.4684 9.66323 21.7388 9.20775L21.4028 9L21.1641 9.31387L15.5973 16.5427L15.3586 16.8522L15.637 17.1219C16.3137 17.7719 17.4499 19.1513 17.4499 21.0879C17.4499 22.4983 17.2422 23.7893 16.9989 25.288C16.6674 27.344 16.2871 29.6739 16.2871 33.1491C16.2871 39.2328 20.1559 44.4719 26.3859 46.8198C30.834 48.4954 32.5761 49.7024 33.2217 50.2728L33.5091 50.5292L33.7964 50.2728C34.4376 49.7024 36.1796 48.4954 40.632 46.8198C46.8619 44.4719 50.7309 39.2373 50.7309 33.1491C50.7309 29.6739 50.3551 27.344 50.0189 25.288C49.7759 23.7893 49.5679 22.4939 49.5679 21.0879C49.5679 19.1513 50.7044 17.7719 51.3808 17.1219L51.6594 16.8522L51.4207 16.5427L45.8583 9.31387L45.615 9Z" fill="#000F46"/>
<path d="M48.0069 21.0118C48.0069 19.102 48.8338 17.6296 49.6076 16.6702L45.1948 10.9447C44.3637 11.3868 43.3291 11.6388 42.1263 11.6388C40.7248 11.6388 39.6946 11.5018 38.5979 11.2807C37.298 11.0242 35.8213 10.7324 33.5043 10.7324C31.1874 10.7324 29.7107 11.0242 28.4108 11.2807C27.3141 11.4973 26.2839 11.6388 24.8824 11.6388C23.6796 11.6388 22.645 11.3868 21.8139 10.9447L17.4011 16.6702C18.1749 17.6296 19.0018 19.102 19.0018 21.0118C19.0018 22.5463 18.7851 23.8991 18.5285 25.4643C18.2059 27.4626 17.8388 29.7263 17.8388 33.0733C17.8388 38.4894 21.3185 43.167 26.9251 45.2805C30.4049 46.5891 32.3857 47.6635 33.5043 48.4415C34.623 47.6635 36.6038 46.5891 40.0836 45.2805C45.6902 43.1714 49.1697 38.4937 49.1697 33.0733C49.1697 29.7219 48.8028 27.4581 48.48 25.4643C48.2236 23.8991 48.0069 22.5463 48.0069 21.0118Z" fill="#000F46"/>
<path d="M20.7879 12.6866C18.5993 12.1869 17.5868 11.873 17.5868 11.873C17.5868 13.1906 18.2632 13.8449 18.2632 13.8449C18.2632 13.8449 18.4092 14.3312 18.8247 15.0563" fill="#000F46"/>
<path d="M48.0343 19.5217C49.0204 18.969 49.2812 18.7436 49.6261 17.7488C49.6261 17.7488 50.4044 17.0723 50.7314 16.524C51.6247 15.5779 51.8987 14.4151 51.9076 14.4062C52.6018 13.5839 52.8272 12.4476 52.8272 12.4476C53.5259 11.3511 53.6144 10.374 53.6144 10.374C53.6144 10.374 52.0004 10.9134 48.5605 12.0099C48.0608 12.1691 46.217 12.8057 46.217 12.8057" fill="#000F46"/>
<path d="M21.9641 24.0761L22.3046 24.9384L23.211 24.6731L22.769 25.4734L23.5425 26.0702L22.614 26.1498L22.6583 27.0916L21.9818 26.4814L21.2523 27.0916L21.3185 26.1939L20.4344 25.995L21.2213 25.4424L20.788 24.6332L21.6193 24.9294L21.9641 24.0761ZM26.9472 26.3045L26.1158 26.0304L26.5448 26.8263L25.7579 27.37L26.6687 27.5691L26.5802 28.4797L27.301 27.8696L27.9995 28.4797L27.9422 27.5381L28.8749 27.4585L28.1145 26.8749L28.5435 26.0657L27.637 26.3089L27.3054 25.4689L26.9472 26.3045ZM20.6333 31.7382L19.8019 31.4642L20.2221 32.2511L19.4483 32.7951L20.3325 32.9939L20.2574 33.9003L20.987 33.2812L21.6634 33.9003L21.6193 32.9498L22.5478 32.8701L21.7829 32.2732L22.2161 31.4862L21.3054 31.7382L20.9737 30.885L20.6333 31.7382ZM26.9782 32.0699L26.1823 32.083L26.8455 32.5828L26.6023 33.3918L27.2744 32.9054L27.9509 33.3918L27.6989 32.5828L28.3622 32.0743H27.5442L27.2789 31.2872L26.9782 32.0699ZM26.9117 37.6497L26.0807 37.362L26.5007 38.1579L25.7137 38.7018L26.6112 38.9007L26.5448 39.807L27.2655 39.1882L27.9509 39.8205L27.8846 38.892L28.8263 38.7814L28.0614 38.1844L28.4948 37.3975L27.5972 37.6539L27.2655 36.7918L26.9117 37.6497ZM35.012 39.8115C35.5161 39.5596 35.6488 39.3164 35.8124 39.0025L35.8256 38.976C35.861 38.9052 35.892 38.8344 35.923 38.7594C35.976 38.6311 36.0378 38.4896 36.1484 38.3171C36.1484 38.3128 36.1484 38.3084 36.1484 38.3084C33.4248 35.2133 31.5058 31.5879 30.8426 30.3235C30.8381 30.3146 30.825 30.3191 30.825 30.3279C30.7851 31.4243 30.8073 33.7057 31.5767 35.2133C32.0098 36.0579 32.0807 36.1418 33.239 37.5656L33.4203 37.791L33.5485 37.9457C33.553 37.9546 33.5485 37.9635 33.5398 37.959C33.3938 37.8884 33.164 37.7379 33.164 37.7379C32.8235 37.5435 32.0232 36.9156 31.3201 35.8988C31.3156 35.8899 31.3025 35.8944 31.3025 35.9031C31.267 37.4019 32.0363 38.8124 32.5493 39.365C33.0445 39.9 33.752 39.9796 34.1321 39.9796C34.4726 39.9796 34.7999 39.9132 35.012 39.8115ZM39.9686 40.7576C40.6496 40.7179 41.4896 40.4526 41.7904 40.0193C41.8832 39.9045 42.0334 39.7453 42.3827 39.5463C42.595 39.4357 42.7985 39.365 42.9797 39.303C43.5148 39.1218 43.8683 39.0025 43.8639 38.0253C40.0968 35.7704 38.567 33.5024 38.6687 33.489C38.6687 33.489 39.3232 34.1522 40.2738 34.9215C41.1049 35.5936 42.8603 37.0616 44.3945 37.7468C44.5006 37.7999 44.399 39.2324 43.5324 39.6214C43.4573 39.6568 43.3467 39.701 43.2141 39.7496C42.7631 39.9177 42.0822 40.1697 42.1529 40.6294C42.175 40.6693 42.321 40.7268 42.626 40.7268C43.3025 40.7268 44.1823 40.4571 44.5184 39.8601C44.6511 39.6214 44.7483 39.4047 44.8368 39.2148C45.1108 38.6178 45.2789 38.2509 46.0571 38.0828C45.7298 37.7334 44.0099 35.8988 43.2141 35.0454C42.3741 34.1435 41.7639 33.1266 41.6975 33.0159C41.6975 33.0115 41.5604 32.7951 41.357 32.658C40.5036 31.9947 39.5795 31.8135 38.7616 31.6544C37.8641 31.4952 37.4173 31.3271 37.1123 31.0353C36.5993 30.5578 36.6834 29.793 36.7189 29.5056C36.7189 29.4878 36.7233 29.4702 36.7233 29.4525C36.6745 29.5056 36.5949 29.6338 36.5597 29.6868C36.4271 29.9035 36.2235 30.2261 35.8478 30.2261C35.8079 30.2261 35.7638 30.2219 35.7194 30.213C35.4234 30.1599 35.2154 30.0139 35.0519 29.4392C35.0076 29.289 34.9235 29.2404 34.8884 29.2359C34.8398 29.2359 34.8175 29.2535 34.8043 29.2668C34.6716 29.4082 34.7027 29.9256 34.7513 30.1554C34.7644 30.2571 34.7336 30.3146 34.7071 30.3456C34.6717 30.3897 34.6142 30.4118 34.5479 30.4118C34.4684 30.4118 34.3974 30.3765 34.3665 30.3235C34.2693 30.182 34.1765 30.0273 34.0969 29.8725C34.0349 30.1068 33.9155 30.3588 33.6415 30.3632C33.4424 30.3632 33.2656 30.204 33.0755 30.0362C32.8632 29.846 32.6865 29.7 32.5359 29.7C32.4873 29.7 32.4432 29.7134 32.3946 29.7444C32.3151 29.7974 32.231 29.8239 32.1469 29.8239C32.0409 29.8239 31.9481 29.7796 31.8772 29.6955C31.6208 29.364 31.9481 28.9352 32.0763 28.7936C31.9922 28.7363 31.8065 28.6788 31.5767 28.6788C31.4041 28.6788 30.9885 28.714 30.8073 29.0237C30.7498 29.2138 30.8603 29.4303 30.9486 29.6073C31.2803 30.3366 33.8978 35.0145 36.5862 37.9811C36.7586 38.1802 36.7764 38.357 36.6479 38.5293C36.2855 39.0378 36.1617 39.4401 36.281 39.723C36.4315 40.0812 36.9133 40.1608 36.9177 40.1608C37.0504 40.1874 37.1743 40.1963 37.2804 40.1963C37.8111 40.1963 37.9833 39.9087 38.1824 39.5772C38.4388 39.1173 38.6907 39.0201 38.8588 39.0201C38.9518 39.0201 39.018 39.0467 39.0445 39.0598L39.0534 39.0643C39.1152 39.0953 39.1948 39.1882 39.2213 39.3075C39.2436 39.4005 39.2478 39.5507 39.1286 39.7188L39.1241 39.723C39.0135 39.8469 38.8147 39.9397 38.6421 40.0238C38.4698 40.1078 38.2752 40.2006 38.2841 40.2714C38.3106 40.3686 38.9783 40.7489 39.8759 40.7489C39.911 40.7576 39.9376 40.7576 39.9686 40.7576ZM35.3349 32.2025C35.8079 32.8923 37.0724 34.7316 39.2391 37.1987C39.2391 37.1987 39.3894 37.4019 39.1727 37.813L39.0755 37.959L39.0048 37.8043C39.0048 37.8043 38.9384 37.6539 38.7969 37.4947C36.1484 34.4574 35.012 31.8488 35.0255 31.8401C35.0255 31.8443 35.0828 31.84 35.3349 32.2025ZM41.8477 32.4544C41.9583 32.3748 42.0158 32.1627 42.0158 31.8135C42.0158 31.6233 42.0158 31.4421 42.1308 31.2917C42.2414 31.1459 42.3917 31.0618 42.5729 31.0442C42.3783 30.9292 42.1484 30.801 41.8876 30.6594C41.2375 30.3057 40.2782 29.784 39.1152 28.9263C39.3939 29.3021 39.7519 29.6779 40.1588 30.0317L40.3048 30.1599C40.2959 30.1731 40.1367 30.12 40.1367 30.12C40.1233 30.1158 39.8138 30.0096 39.6192 29.8857C39.615 29.8812 39.6061 29.877 39.5972 29.8725C39.0314 29.5497 38.4919 29.0281 38.0718 28.3914C38.0674 28.3825 37.5147 27.4806 36.8426 25.9551C36.6437 25.4999 35.5647 23.6695 35.1491 23.2803C34.4991 23.1477 33.668 23.139 33.4292 23.139C33.3011 23.139 33.1904 23.1432 33.1196 23.1477C32.6244 23.1786 32.253 23.2627 32.0584 23.3378C31.2095 25.6899 30.9355 27.3435 30.8603 28.3206L30.8514 28.4001C31.0682 28.3029 31.3114 28.2499 31.5588 28.2499C32.0143 28.2499 32.4211 28.4267 32.5052 28.6654C32.5714 28.8821 32.4742 28.9971 32.3768 29.1077C32.3195 29.1783 32.2575 29.2446 32.231 29.3464C32.3282 29.2977 32.4298 29.2711 32.5359 29.2711C32.8677 29.2711 33.1505 29.5232 33.3584 29.7089L33.3628 29.7134C33.5264 29.8636 33.5971 29.9078 33.6281 29.9256C33.6591 29.877 33.7387 29.6868 33.7828 29.0281C33.7828 29.0237 33.7828 29.0192 33.7828 29.0192C33.4379 26.9855 34.4991 25.5485 34.4991 25.5485C34.4991 25.5485 33.8093 27.8829 34.3223 29.311C34.4108 28.9572 34.6186 28.8424 34.7909 28.8159C34.8175 28.8114 34.844 28.8069 34.8705 28.8069C35.0917 28.8069 35.3614 28.9662 35.4631 29.3199C35.5869 29.7531 35.6708 29.7664 35.7948 29.793C35.8125 29.7974 35.83 29.7974 35.8434 29.7974C35.9671 29.7974 36.0467 29.6955 36.197 29.4568C36.3209 29.2579 36.4757 29.0058 36.7541 29.0058C36.785 29.0058 36.8205 29.0103 36.856 29.0192C36.9929 29.0502 37.1786 29.1915 37.1433 29.4568C36.962 30.8628 37.5899 30.9867 38.8412 31.2299C39.5309 31.3668 40.3844 31.5304 41.2023 32.03C41.1093 31.84 40.9546 31.6675 40.844 31.5483C40.7955 31.4952 40.76 31.4553 40.7335 31.4199L40.6762 31.3403L40.7734 31.3492C40.7823 31.3492 41.6047 31.4288 41.7947 32.4678C41.7947 32.4678 41.7947 32.4678 41.7991 32.4678C41.808 32.481 41.8256 32.4723 41.8477 32.4544ZM42.7321 31.4332C42.6879 31.4332 42.6436 31.4377 42.595 31.4508C42.4313 31.4907 42.4182 31.6189 42.4137 31.8532C42.4093 32.0257 42.4048 32.2335 42.2945 32.4279C42.7851 32.3218 43.0946 32.0699 43.0903 31.7691C43.0859 31.6586 43.0373 31.5614 42.9577 31.4994C42.9002 31.4553 42.8206 31.4332 42.7321 31.4332ZM36.9001 25.0576C36.909 25.071 36.9266 25.071 36.9398 25.0576C37.2936 24.6332 37.0504 23.7312 36.9752 23.3909C37.4748 23.6916 38.1602 23.9038 38.536 23.9391C38.5804 23.5104 38.4698 23.0725 38.2841 22.5596C38.8457 22.9664 39.6812 23.2096 39.9641 23.1963C40.0261 22.7453 39.6946 21.8964 39.6723 21.7771C39.8846 21.8612 40.3844 22.1441 40.8044 22.1927C40.9149 21.9186 40.9857 21.4719 40.9458 21.0388C40.9458 21.0388 40.1677 21.189 39.7785 21.189C39.6723 21.189 39.5751 21.1846 39.491 21.1759C39.2744 21.1581 38.8764 21.0829 38.483 20.9989C38.2576 20.9503 38.0275 20.9106 37.8287 20.8752C37.749 20.8618 37.6694 20.8487 37.5988 20.8311C37.3776 20.7912 37.1919 20.7646 36.9046 20.7381C36.7985 20.7291 36.5949 20.7204 36.5021 20.7204C36.4977 20.7204 36.4977 20.7204 36.4977 20.7249C36.3606 21.5781 35.861 22.3342 35.5913 22.7453C35.5516 22.8072 35.5161 22.8603 35.4896 22.9002V22.9044C36.0158 23.643 36.7675 24.8499 36.9001 25.0576ZM27.5618 19.7212C27.3672 19.5488 27.2966 19.3454 27.3585 19.1464C27.0002 19.1022 26.3812 18.9873 25.886 18.7131C25.6694 18.7618 24.9709 18.9033 24.0954 18.9033C23.9008 18.9033 23.6975 18.8988 23.4808 18.8856C23.4984 18.8988 23.516 18.9077 23.5338 18.921C23.7195 19.0404 23.9052 19.1641 24.091 19.1995C24.1661 19.1862 24.3428 19.173 24.7894 19.142C24.8558 19.1376 24.9265 19.1332 24.9929 19.1332C25.4615 19.1332 25.9745 19.2968 26.5582 19.6372C26.6068 19.6549 27.0843 19.845 27.3363 19.9732C27.3762 19.9202 27.4557 19.8318 27.5618 19.7212ZM47.9804 19.0624C48.3783 18.9564 48.8294 18.5496 49.0814 18.0897C48.5774 18.386 48.1616 18.5054 47.6798 18.5054C47.5869 18.5054 47.4853 18.501 47.3747 18.4921C47.304 18.6071 47.2245 18.8237 46.8352 19.0138C47.2289 19.173 47.7815 19.1155 47.9804 19.0624ZM41.6003 19.1597C41.8035 19.1376 41.9848 19.1155 42.1439 19.0978C43.1786 18.9784 43.3378 18.9607 43.497 18.8591C43.5191 18.8458 43.5545 18.8104 43.5944 18.7662C43.7225 18.638 43.9127 18.4479 44.1292 18.4214C44.1602 18.417 44.1912 18.4125 44.2177 18.4081C44.2442 18.4037 44.2752 18.3993 44.3018 18.3948C44.3945 18.3816 44.4741 18.3639 44.545 18.3108C44.7262 18.1826 44.8943 18.0633 45.0622 18.0544C45.0666 18.0544 45.0711 18.0544 45.0711 18.0544C45.2037 18.0544 45.2612 18.1826 45.2744 18.2268C45.3098 18.2931 45.3054 18.4523 45.2965 18.5673C45.3408 18.5584 45.3983 18.5407 45.4515 18.5186C45.4646 18.5142 45.4822 18.5054 45.5045 18.4965C45.5707 18.47 45.6637 18.4302 45.7475 18.4037C45.805 18.386 45.8494 18.3771 45.8935 18.3771C45.9907 18.3771 46.0482 18.4258 46.1057 18.4877C46.1985 18.585 46.2515 18.722 46.2649 18.8237C46.5478 18.7441 46.8044 18.554 46.9148 18.417C46.4903 18.2976 45.9421 18.0367 45.6106 17.6256C45.4691 17.4486 45.416 17.2762 45.4026 17.148C43.8905 17.7228 41.3084 18.2976 40.4681 18.4744C40.4947 18.5717 40.4947 18.669 40.4681 18.7618C40.4461 18.8414 40.4064 18.9165 40.3445 18.9873C40.4374 19.0668 40.6407 19.2658 40.6407 19.2658C40.6407 19.2658 41.4763 19.173 41.6003 19.1597ZM28.1321 18.7043C28.0969 18.638 28.0703 18.5496 28.0659 18.47C27.0754 17.8731 25.9436 17.6919 25.3024 17.6343C25.4881 17.8996 25.7137 18.1074 25.9966 18.2843C26.6465 18.6867 27.6769 18.7485 27.8182 18.7574C27.8757 18.7441 27.9995 18.722 28.1321 18.7043ZM25.3953 18.3727C25.1521 18.1649 24.962 17.9262 24.7939 17.6299C24.48 17.6653 24.1706 17.6874 23.8653 17.6874C22.9058 17.6874 21.9686 17.4973 21.0091 17.1082C21.4866 17.5946 22.318 18.249 23.0253 18.3993C23.3657 18.4523 23.724 18.4788 24.091 18.4788C24.6215 18.4788 25.0812 18.4258 25.3953 18.3727ZM45.531 16.6395C45.5441 16.6175 45.6193 16.5202 45.7433 16.4274C45.8095 16.3743 45.8801 16.3301 45.9555 16.2991L46.0217 16.2726C46.2914 16.1532 46.5744 16.0338 46.738 15.9101L46.7866 15.8747C46.9106 15.7863 47.0253 15.6978 47.1138 15.5298C46.6584 15.5077 46.2649 15.3927 46.0041 15.2911C43.2406 15.8924 40.6053 16.9358 39.7652 17.2851C39.9509 17.4575 39.9907 17.6874 39.889 17.9837C40.013 17.9925 40.1233 18.0279 40.2207 18.0942C40.6673 17.9969 43.9745 17.2939 45.531 16.6395ZM49.0637 17.5857C49.3954 17.3426 49.8374 17.0154 50.2133 16.5202C49.2583 16.9181 48.511 17.0022 47.4984 17.0109C47.4719 17.0109 47.4498 17.0109 47.4278 17.0109C46.7025 17.0109 46.1853 16.896 45.9332 16.8252C45.9067 16.8518 45.8891 16.8739 45.8801 16.8828C45.867 16.9048 45.7564 17.0994 45.9597 17.347C46.3004 17.767 46.9547 18.0102 47.3127 18.05C47.4233 18.0633 47.5427 18.072 47.671 18.072C47.9717 18.0765 48.4448 18.0279 49.0637 17.5857ZM24.5906 17.2232C24.4889 16.9889 24.4093 16.7501 24.3297 16.5158L24.3164 16.4848C24.122 15.9145 23.6266 15.7553 23.5736 15.7421C21.2169 15.2469 19.5411 14.4732 18.701 13.8807C18.9974 14.566 19.2936 15.1806 19.7711 15.7023C20.3459 16.3345 21.1197 16.7634 22.1984 17.0508H22.2074C22.5389 17.1348 22.8662 17.1922 23.18 17.2188C23.4233 17.2409 23.6665 17.2497 23.9008 17.2497C24.2015 17.2586 24.4359 17.2409 24.5906 17.2232ZM39.1595 17.0552C39.1727 17.0552 39.1816 17.0552 39.1948 17.0552C39.5441 16.9005 42.2679 15.7332 45.3453 14.9993C44.7042 14.734 44.1027 14.6102 43.466 14.6102C42.9842 14.6102 42.4757 14.681 41.9186 14.8313C40.1367 15.3044 39.018 16.0118 38.4743 16.4318C38.567 16.4538 38.6466 16.4937 38.7217 16.5512C38.9074 16.6926 39.0048 16.8739 39.0048 17.0685C39.0579 17.0596 39.1109 17.0552 39.1595 17.0552ZM47.5427 16.5732C48.1616 16.5732 49.086 16.5025 49.9436 16.1798C50.7573 15.8614 51.186 15.0037 51.3409 14.6102C50.1513 15.2469 49.0505 15.4281 47.5738 15.5254C47.4454 15.9233 47.2155 16.0914 47.0343 16.224L46.9902 16.2594C46.8662 16.3522 46.6983 16.4406 46.5391 16.5158C46.7469 16.5379 47.0963 16.5732 47.5427 16.5732ZM28.707 20.5126C29.2376 20.0439 29.4764 19.9113 30.1572 19.6195C30.5772 19.0713 31.1564 18.7441 31.7624 18.7043C31.0592 18.1473 30.5951 17.5769 30.5906 16.6971C30.5861 15.8217 30.0776 14.9241 29.6135 14.5925C28.8707 14.0266 27.8801 13.9779 26.5051 13.9161C25.5766 13.8719 24.5241 13.8232 23.2817 13.6066C23.2641 13.6021 21.1284 13.1733 20.5316 13.0362C20.5139 13.0318 18.9488 12.7134 18.104 12.4526C18.2191 12.8284 18.5463 13.2131 19.0769 13.6021C19.1432 13.6464 20.7128 14.703 23.578 15.3087L23.609 15.3176C23.609 15.3176 23.8123 15.3618 23.8832 15.3751C26.3194 15.8437 26.8322 15.9897 26.881 16.0029C27.6325 16.2151 28.2471 16.4892 28.477 16.7148C28.5831 16.812 28.707 16.9623 28.7157 16.9712L28.8218 17.0994L28.3532 16.9225C27.8006 16.7148 27.3627 16.5644 26.7704 16.4185C26.7526 16.4141 26.3415 16.2947 24.5154 15.9366C24.6037 16.0648 24.6791 16.2063 24.7277 16.3566L24.7408 16.3875C24.8338 16.6572 24.9265 16.9358 25.0505 17.1966C25.5057 17.2143 26.9427 17.3293 28.2074 18.0588C28.3753 17.851 28.6406 17.8068 28.8397 17.8068C28.8484 17.8068 28.8617 17.8068 28.8707 17.8068C28.8617 17.6343 28.9148 17.4752 29.0254 17.347C29.1932 17.1525 29.4454 17.1303 29.6178 17.1303C29.6576 17.1303 29.6973 17.1303 29.7283 17.1348C29.7769 17.0508 29.9009 16.9623 29.976 16.9137C30.0866 16.8429 30.3119 16.7899 30.3253 16.7899L30.449 16.7634L30.2854 16.9668C30.0732 17.2674 30.1262 17.4973 30.1262 17.5017L30.1441 17.5636L29.9274 17.5371C29.8788 17.5327 29.83 17.5282 29.7727 17.5282C29.5691 17.5282 29.4013 17.568 29.3482 17.6299C29.2287 17.767 29.3259 17.9571 29.3259 17.9616L29.4896 18.2843L29.41 18.2754C29.3525 18.271 29.2907 18.2622 29.2331 18.2577C29.105 18.2445 28.9724 18.2268 28.8573 18.2268C28.6805 18.2268 28.5744 18.2622 28.53 18.3373L28.5258 18.3506C28.4814 18.4302 28.4239 18.5407 28.8263 18.9254L28.8927 18.9917L28.7998 19.005C28.7953 19.005 28.2161 19.0801 27.9332 19.1818C27.8581 19.2084 27.8138 19.2481 27.8051 19.2924C27.8006 19.3188 27.8051 19.4073 28.0039 19.5222L28.2117 19.6461C28.2117 19.6461 27.7476 19.8715 27.7386 20.1722L28.707 20.5126ZM24.3253 14.3272C24.3208 14.3272 24.3253 14.3229 24.3253 14.3229C24.5551 14.3229 25.6296 14.5129 26.2485 14.5793C26.5669 14.619 28.1896 14.8224 28.6671 15.1098C29.1402 15.3883 29.3702 15.8835 29.5205 16.2814L29.6001 16.4981C29.6001 16.4981 29.5339 16.4981 29.2728 16.224C29.0961 16.0029 28.8352 15.6713 28.4462 15.4768C27.323 14.9374 25.4881 14.955 24.3253 14.3272ZM47.2862 15.1054C47.3216 15.1054 47.357 15.1054 47.3923 15.1054C48.2811 15.07 50.0452 14.8534 51.0092 14.2786C51.8095 13.8498 52.0483 13.2352 52.2516 12.6825C52.2429 12.687 52.2164 12.6958 52.2164 12.6958C52.0041 12.7842 51.7609 12.8859 51.3717 13.0185L51.1817 13.0804C50.6777 13.2528 49.917 13.4828 49.1522 13.6905C47.8698 14.0398 46.7291 14.5704 46.1147 14.8843C46.3755 14.9772 46.8044 15.1054 47.2862 15.1054ZM34.9459 16.6528C35.2553 16.3831 35.2464 16.1709 35.2154 16.0383C35.0519 15.6315 34.7423 15.3795 34.2958 15.2955L32.2399 15.0126C32.2354 15.017 32.222 15.0391 32.2176 15.0479C32.2354 15.0567 32.2575 15.07 32.2796 15.0789C32.5094 15.1938 32.987 15.4326 33.1595 15.9366C33.2126 16.0869 33.3053 16.0957 33.8448 16.1267L34.0084 16.1355C34.1366 16.1444 34.1942 16.1488 34.2914 16.1577C34.5214 16.1842 34.6937 16.3743 34.7291 16.4097C34.7601 16.4451 34.8574 16.5688 34.8794 16.7103L34.9459 16.6528ZM40.1057 19.4073C40.1411 19.3985 40.1764 19.3896 40.2074 19.3808C39.9731 19.1199 39.6857 18.9387 39.6857 18.9387L39.8448 18.8591C39.9731 18.7928 40.0526 18.7176 40.0703 18.6424C40.0792 18.6071 40.0703 18.5761 40.0481 18.5274C39.9907 18.4125 39.8759 18.355 39.7122 18.355C39.6458 18.355 39.584 18.3639 39.5441 18.3727L39.1727 18.4302L39.3187 18.1561C39.5706 17.6609 39.4335 17.568 39.3718 17.5239C39.2833 17.4619 39.1905 17.431 39.0887 17.431C38.9783 17.431 38.8853 17.4663 38.8058 17.4973C38.7837 17.5062 38.7616 17.515 38.7438 17.5194L38.3636 17.6565C38.3636 17.6565 38.5007 17.3603 38.5094 17.3426C38.5979 17.1525 38.6156 17.0198 38.4564 16.8916C38.3902 16.8429 38.3193 16.8165 38.2442 16.8165C38.169 16.8165 38.0894 16.8429 38.0099 16.896L37.6518 17.1392L37.6694 17.0375C37.7314 16.6661 37.3643 16.1488 37.3643 16.1488C37.3643 16.1488 37.5723 16.1665 37.8552 16.3212C37.8728 16.3301 37.8861 16.3389 37.8993 16.3434C38.4078 15.8703 39.5795 15.0126 41.808 14.4201C42.4048 14.2609 42.9488 14.1858 43.466 14.1858C44.1956 14.1858 44.8809 14.3361 45.6238 14.6589C46.0438 14.4333 47.4367 13.7171 49.0461 13.2794C49.886 13.0495 50.7042 12.7754 51.0181 12.6693L51.5574 12.4747C52.0703 12.2713 52.6895 11.922 52.9857 10.998L46.5391 13.1556C45.5752 13.5402 43.8419 13.6817 42.3076 13.8099C41.5648 13.8719 40.8661 13.9293 40.3489 14.0089C37.4969 14.5041 37.2008 15.8791 37.0417 16.6219C37.0328 16.6705 37.0238 16.7148 37.0107 16.7545C36.8825 17.4399 36.6038 17.9792 36.1883 18.3594C36.2855 18.355 36.4005 18.355 36.4535 18.355C36.7541 18.3639 36.9663 18.4434 37.1919 18.5407C37.2715 18.5761 37.3556 18.6114 37.4396 18.6513C37.5058 18.6822 37.5765 18.7131 37.6474 18.7441C37.9658 18.8856 38.3947 19.0138 39.0666 19.2039L39.1196 19.2172C39.2877 19.2658 39.4204 19.3012 39.5354 19.341C39.6416 19.3764 39.8138 19.4471 39.858 19.4648C39.942 19.4471 40.0261 19.4294 40.1057 19.4073ZM35.0961 15.1806C35.2553 15.0966 35.2685 14.8578 35.2464 14.7782C35.1802 14.5483 35.0076 14.3759 34.7378 14.2653C34.592 14.2123 34.4019 14.1902 34.1765 14.1902C33.4778 14.1902 32.5847 14.4555 32.3857 14.7119L34.3665 14.9374C34.4684 14.9506 34.7336 15.0081 35.0076 15.2027C35.0431 15.1983 35.0696 15.1894 35.0961 15.1806ZM23.3437 19.6284C23.2331 19.5178 23.0608 19.4559 22.9237 19.4427C22.6406 19.425 22.3267 19.5399 22.0569 19.7919C22.667 19.8273 22.76 20.097 23.0873 19.8406L23.3437 19.6284ZM23.5118 19.7964L23.3038 20.0307C23.0563 20.3313 23.3038 20.4242 23.3261 20.9944C23.5691 20.7515 23.6841 20.4552 23.6752 20.1943C23.6665 20.0616 23.6135 19.8981 23.5118 19.7964ZM22.738 20.4993L22.5654 20.7602C22.3666 21.0963 22.6274 21.1494 22.7291 21.7107C22.9324 21.4323 23.0077 21.1271 22.9547 20.8662C22.9324 20.7381 22.8528 20.5833 22.738 20.4993ZM22.1808 21.4057L22.0482 21.6799C21.8978 22.029 22.1543 22.0513 22.3267 22.5774C22.4903 22.2856 22.5212 21.9759 22.4372 21.733C22.3976 21.6135 22.3046 21.4764 22.1808 21.4057ZM22.4948 20.3402C22.3621 20.265 22.1764 20.2518 22.0393 20.2783C21.7651 20.3358 21.4911 20.5392 21.3054 20.8531C21.9022 20.7204 22.0658 20.9503 22.3091 20.6143L22.4948 20.3402ZM21.8935 21.2731C21.743 21.2245 21.5573 21.2466 21.4247 21.3041C21.1594 21.4189 20.9251 21.6755 20.8013 22.029C21.3716 21.7771 21.5838 21.9759 21.7608 21.5914L21.8935 21.2731ZM21.6899 22.122C21.5883 22.1971 21.5176 22.3297 21.4911 22.4403C21.4425 22.6657 21.4998 22.9354 21.6723 23.1831C21.774 22.6922 21.9996 22.6481 21.8315 22.3518L21.6899 22.122ZM25.9612 21.0033L25.8905 21.3306C25.8154 21.7417 26.0983 21.6975 26.4122 22.2237C26.5138 21.8699 26.4697 21.5339 26.3239 21.2952C26.2485 21.1759 26.1116 21.0475 25.9612 21.0033ZM25.7357 20.9371C25.5986 20.8972 25.4261 20.9238 25.3068 20.9769C25.0681 21.0874 24.8603 21.3306 24.7586 21.6576C25.2714 21.4102 25.4705 21.587 25.6252 21.2289L25.7357 20.9371ZM25.4705 21.9452C25.3378 21.8832 25.1653 21.8832 25.0415 21.9229C24.7894 21.9983 24.5507 22.206 24.3959 22.5154C24.9399 22.3473 25.1122 22.5509 25.3158 22.2192L25.4705 21.9452ZM24.9265 22.8603C24.8072 22.7852 24.6392 22.7631 24.5154 22.7852C24.2633 22.8249 24.0025 22.9974 23.8167 23.2758C24.365 23.1831 24.5021 23.4042 24.7408 23.108L24.9265 22.8603ZM25.7137 22.06L25.5545 22.3563C25.3688 22.7321 25.6517 22.7676 25.8109 23.3554C26.0055 23.0415 26.0586 22.71 25.979 22.4358C25.9391 22.3032 25.8419 22.1441 25.7137 22.06ZM25.1477 23.0019L24.931 23.2671C24.6701 23.6031 24.9443 23.7003 24.9885 24.3193C25.2449 24.0451 25.3644 23.7181 25.3423 23.4308C25.329 23.2892 25.2627 23.1124 25.1477 23.0019ZM24.5154 23.6251L24.2412 23.6031C23.9008 23.5899 23.967 23.8153 23.578 24.1292C23.8742 24.1691 24.144 24.0939 24.3208 23.9479C24.4138 23.8773 24.4976 23.7491 24.5154 23.6251ZM35.2907 21.0255C35.348 21.587 35.3969 22.0689 35.1623 22.5023V22.5066C35.1227 22.6084 35.0519 22.7676 35.0165 22.8338C34.3533 22.7187 33.6236 22.71 33.4159 22.71C33.2876 22.71 33.1771 22.7145 33.0975 22.7187C32.7836 22.7366 32.4918 22.7807 32.2486 22.8427C32.2796 22.741 32.3326 22.5861 32.4298 22.458L32.4829 22.3828L32.3901 22.3872C32.346 22.3917 32.3016 22.3917 32.2575 22.3917C31.8905 22.3917 31.6739 22.3032 31.5058 22.0866C31.391 21.9273 31.36 21.7285 31.4261 21.556C31.4792 21.4057 31.5987 21.2555 31.7093 21.1095C31.8065 20.9813 32.0187 20.6453 32.0894 20.4993C32.1338 20.4109 32.1779 20.3181 32.2176 20.2164C32.3105 20.3402 32.4476 20.4242 32.6378 20.4684C32.7482 20.4949 32.8456 20.5082 32.9428 20.5082C33.1285 20.5082 33.3231 20.464 33.5663 20.3623C33.2435 20.6497 32.3371 20.8311 32.3371 20.8311C32.315 20.8575 32.3282 20.8928 32.3591 20.9061C32.3681 20.9106 32.3768 20.9106 32.3812 20.9148C32.5007 20.9458 32.6156 20.9592 32.7395 20.9592C33.1196 20.9592 33.4689 20.8088 33.8492 20.6276C34.4639 20.3049 35.2154 19.2791 35.2464 19.2348C35.2907 19.173 35.3525 19.1199 35.4145 19.0845C35.1447 19.5621 35.2022 20.0838 35.2598 20.632C35.2642 20.7646 35.2774 20.8928 35.2907 21.0255ZM34.7468 21.6269C34.5965 21.9098 34.4373 22.1574 33.8847 22.1795C33.2036 22.2105 33.0313 21.7241 33.0313 21.7241C33.071 21.9363 33.2346 22.564 33.8889 22.5375C34.7247 22.5023 34.7468 21.6269 34.7468 21.6269ZM35.6708 21.786L35.7107 21.733C35.7593 21.671 35.799 21.5959 35.8035 21.5825C36.0512 21.1271 36.0908 20.769 36.1087 20.6143L36.1131 20.5922C36.1131 20.5922 36.1484 20.3092 36.2589 20.3092C36.9708 20.3092 37.8287 20.4507 38.5007 20.5833C38.6776 20.6187 38.8633 20.6541 39.0401 20.6895C39.2701 20.747 39.522 20.7735 39.7874 20.7735C40.1677 20.7735 40.5788 20.716 41.0032 20.601L42.7454 20.0882C42.8161 20.0705 42.8868 20.0572 42.9577 20.0396C43.2096 19.9821 43.4528 19.9202 43.7357 19.9202C43.8153 19.9158 43.9568 19.9379 44.032 19.9379C44.6422 19.9379 45.354 19.6328 45.5618 19.4736C45.7785 19.3056 45.8183 19.1597 45.8494 18.9873C45.8625 18.9077 45.8581 18.8591 45.836 18.8325C45.8228 18.8193 45.805 18.8104 45.783 18.8104C45.7299 18.8104 45.6413 18.8458 45.5266 18.89C45.3674 18.9519 44.6157 19.1597 44.4565 19.1685C44.4875 19.1155 44.598 19.0094 44.7042 18.9298C44.8455 18.8237 44.9781 18.722 44.996 18.5319C44.996 18.4965 44.9694 18.4833 44.9474 18.4833C44.934 18.4833 44.9119 18.4965 44.8985 18.501C44.8412 18.5319 44.7882 18.5717 44.7351 18.6114C44.6067 18.7043 44.4741 18.8016 44.2973 18.8016C44.2973 18.8016 44.2884 18.8016 44.2841 18.8016C44.2797 18.8016 44.2797 18.8016 44.2797 18.8016C44.0895 18.8193 43.979 18.9298 43.8639 19.0448C43.7402 19.1685 43.612 19.2968 43.3733 19.3277L40.875 19.6549C40.6849 19.677 40.4992 19.7168 40.3223 19.7566C40.1498 19.7964 39.9686 19.8362 39.7918 19.8582C39.4424 19.7212 39.0445 19.6107 38.66 19.5045C38.1293 19.3542 37.6295 19.2172 37.2715 19.0227C37.2229 18.9961 36.763 18.753 36.3075 18.753C36.2015 18.753 36.0998 18.7662 36.0113 18.7928H36.0071H36.0026C35.9496 18.8281 35.4675 19.173 35.5295 20.1192C35.556 20.5038 35.5826 20.778 35.6091 20.9989C35.6222 21.1271 35.6356 21.2332 35.6443 21.3393C35.6443 21.3616 35.6577 21.5604 35.6532 21.7152L35.6708 21.786ZM32.0364 19.0581C32.0143 19.0581 31.9922 19.0581 31.9701 19.0581C31.413 19.0581 30.9 19.3542 30.4401 19.9335C29.8434 20.1855 29.3834 20.4906 28.8397 20.9061C28.7601 20.8972 28.11 20.6541 27.4823 20.4198C27.1019 20.2783 26.7084 20.1279 26.4077 20.0219C25.9832 19.7256 25.466 19.5444 25.1477 19.5001C25.0901 19.4913 25.0239 19.4869 24.9443 19.4869C24.6082 19.4869 24.1926 19.5576 24.0644 19.6195C24.0466 19.6239 24.0158 19.6416 24.0113 19.677C24.0113 19.6947 24.0158 19.7124 24.029 19.7256C24.0466 19.7433 24.0731 19.7522 24.122 19.7522C24.1706 19.7522 24.2368 19.7433 24.3164 19.7301C24.4225 19.7168 24.5551 19.6947 24.6878 19.6947C25.0681 19.6947 25.2848 19.845 25.3775 20.1678C25.2404 20.1943 25.1919 20.2341 25.1433 20.2783C25.0902 20.3269 25.0415 20.3712 24.8648 20.3977L24.8204 20.4065H24.8159C24.7852 20.4153 24.7629 20.433 24.7629 20.4552C24.7586 20.4861 24.7852 20.5126 24.7939 20.517C24.8338 20.548 24.8955 20.5656 24.9709 20.5656C25.046 20.5656 25.13 20.548 25.1963 20.517C25.2669 20.4817 25.351 20.4729 25.4395 20.464C25.5632 20.4507 25.7048 20.4153 25.8595 20.3313C26.3194 20.5259 26.7615 20.8132 27.1815 21.1935C27.4646 21.4499 27.7872 21.7461 28.4108 22.0734C28.4504 22.091 28.508 22.1086 28.5744 22.1086C28.6805 22.1086 28.7998 22.0644 28.9369 21.9717C29.3216 21.7461 31.3114 20.5966 31.5102 20.4949H31.5146L31.5191 20.4906C31.7579 20.2606 31.895 19.7787 31.9126 19.7212C31.9215 19.6902 31.9302 19.6505 31.9436 19.6107C31.9922 19.4382 32.0584 19.2039 32.0673 19.0801L32.0718 19.0581H32.0364ZM36.2369 15.9941C36.0866 16.14 35.945 16.1842 35.8389 16.1842C35.7194 16.1842 35.6091 16.1532 35.5161 16.1134C35.5117 16.1621 35.525 16.224 35.5427 16.2682C35.5868 16.3831 35.7018 16.4495 35.8079 16.4495C36.0467 16.4495 36.2369 16.2328 36.2369 15.9941ZM35.472 15.7111C35.6664 15.8349 35.8345 15.8658 35.976 15.804C36.1617 15.72 36.2414 15.5033 36.2458 15.4768C36.2723 15.3044 36.197 15.2778 36.0953 15.2469C36.0071 15.2159 35.9009 15.1806 35.892 15.0258C35.892 14.9683 35.8744 14.933 35.8434 14.9153C35.7903 14.8799 35.6929 14.9064 35.6443 14.9286C35.6133 15.269 35.4365 15.4281 35.3084 15.5033L35.472 15.7111ZM33.522 13.9691C33.522 13.9691 33.2876 13.863 33.0313 13.8409C32.7174 13.8144 32.5094 13.8807 32.3901 13.9382C32.1955 14.031 32.1028 14.2742 32.2044 14.4245C32.5052 14.1813 32.987 14.0398 33.522 13.9691ZM35.4455 18.5673C35.3393 18.5319 35.2729 18.5142 35.1757 18.4744C34.4726 18.1959 34.7423 17.5106 34.6451 16.9668C34.6317 16.8562 34.601 16.7457 34.4594 16.7899C34.393 16.8076 34.1411 17.0817 33.7431 16.9402C33.8979 16.8916 34.0394 16.8429 34.1367 16.7678C34.2693 16.6661 34.3134 16.5335 34.2472 16.4406C34.2073 16.3743 34.1145 16.3611 34.0394 16.3831C33.973 16.4052 33.8978 16.5114 33.9199 16.6175C33.9199 16.6175 33.7607 16.6352 33.5929 16.476C33.522 16.4097 33.4027 16.3875 33.2656 16.392C33.071 16.4052 32.9473 16.3566 32.8766 16.14C32.7926 15.7774 32.4078 15.4856 32.0983 15.322C32.0187 15.5254 31.9436 15.6625 31.9481 15.9057C31.9701 16.0692 32.2619 16.0383 32.3681 16.056C32.6686 16.1311 32.1734 16.3434 32.1779 16.4892C32.1469 16.4451 32.1248 16.3566 32.169 16.3168C32.2441 16.2107 32.0849 16.2195 32.0453 16.1665C32.0363 16.4538 31.811 16.8562 31.8286 16.9579C31.833 16.9845 32.085 17.0022 32.085 17.0022C32.1514 17.064 32.1072 17.1834 32.1159 17.2674C32.1159 17.2718 32.1248 17.2762 32.1293 17.2762C32.1469 17.2851 32.2354 17.2939 32.2619 17.2939C32.284 17.2983 32.3061 17.316 32.3061 17.3382C32.3061 17.3646 32.2885 17.3823 32.2619 17.3823C32.2619 17.3823 32.2266 17.3823 32.1868 17.3735C32.2044 17.4486 32.2 17.5282 32.3061 17.5725C32.3591 17.6476 32.284 17.8554 32.4211 17.8908C32.8013 17.9792 33.2966 17.5503 33.7077 17.2629C33.6459 17.5062 33.3053 17.767 33.2215 18.0102C33.2215 18.0102 33.2081 18.3993 33.1241 18.6513C33.0224 18.9564 32.6951 18.8988 32.4521 19.0227C32.4521 19.0404 32.4476 19.0624 32.4432 19.089C32.4387 19.1244 32.4298 19.1641 32.4298 19.2084V19.2305C32.4298 19.2393 32.4256 19.2525 32.4256 19.2702C32.4077 19.4294 32.3591 19.8582 32.6333 20.0042C32.7216 20.0484 32.8235 20.0705 32.9428 20.0705C33.217 20.0705 33.5619 19.9511 33.9333 19.7256C34.3313 19.4869 34.539 19.3012 34.7644 19.1022C34.928 18.9475 35.1227 18.7751 35.4455 18.5673ZM41.264 20.9592C41.7019 21.6621 42.3741 21.6445 42.8382 21.5118C42.3076 21.3351 42.1175 21.2421 41.7195 20.8311C41.7239 20.8311 41.472 20.9106 41.264 20.9592ZM31.7755 22.8072C31.6253 22.7631 31.5457 22.7277 31.4174 22.6392C31.0106 22.3652 30.7674 21.7771 31.0592 21.2686C31.0637 21.2555 31.0813 21.2245 31.1344 21.1404C30.9134 21.2775 28.9855 22.4094 28.9855 22.4094C28.9855 22.4094 28.9944 22.5509 29.1845 22.6215C29.5781 22.7453 30.0511 22.6349 30.3164 22.5819C30.1307 22.7807 29.9009 23.1876 30.0246 23.643C30.4136 23.5455 30.5993 23.4794 30.8912 23.0371C30.8825 23.4483 30.8559 24.1292 31.2184 24.4653C31.2803 24.2839 31.4971 23.6164 31.7755 22.8072ZM42.1353 20.7204C42.3341 20.9193 42.6349 21.189 43.3247 21.3085C43.6916 21.3658 44.3018 21.2862 44.5494 21.22C43.8639 21.0564 43.4838 20.7515 43.1035 20.433C42.9842 20.4552 42.5198 20.5745 42.1353 20.7204ZM43.643 20.3004C43.9214 20.5259 44.2708 20.8088 44.8544 20.9592C45.5486 21.1271 46.4771 20.716 46.5303 20.663C45.92 20.632 45.4601 20.4198 44.987 20.1192C44.4123 20.4153 43.8596 20.212 43.643 20.3004ZM45.4469 19.8936C45.7564 20.0616 46.0041 20.1589 46.2914 20.2341C47.0519 20.464 47.525 19.9113 47.7416 19.593C47.7506 19.5798 47.7506 19.5532 47.7284 19.5532C46.7424 19.5488 46.6628 19.4604 46.2781 19.2968C46.2208 19.425 46.0217 19.7389 45.4469 19.8936Z" fill="white"/>
<path d="M33.5088 44.8059C41.2157 44.8059 42.5421 51 50.4478 51C55.2362 51 55.3292 48.9663 55.3292 48.9663L54.5199 44.8103C55.568 43.5591 59.8568 43.7049 59.8568 43.7049L56.1382 38.8857C52.6805 39.1068 49.8419 39.9999 49.8419 41.4986V45.9642C45.1817 45.9642 42.0688 39.7965 33.5132 39.7965C24.9575 39.7965 21.8404 45.9642 17.1844 45.9642V41.4986C17.1844 40.0044 14.3415 39.1111 10.8882 38.8857L7.16974 43.7049C7.16974 43.7049 11.463 43.5546 12.5065 44.8103L11.6974 48.9663C11.6974 48.9663 11.7902 51 16.5787 51C24.4757 51 25.8066 44.8059 33.5088 44.8059Z" fill="#000F46"/>
<path d="M51.9497 43.3699C53.7892 43.8783 53.9617 44.2056 54.0059 44.3913C54.0413 44.5812 53.9969 44.7582 53.8643 44.9261C53.3957 45.5231 51.9807 45.9254 50.2519 45.9564V42.5165C50.5967 42.8703 51.1583 43.1531 51.9497 43.3699ZM50.2563 41.4775C50.2563 42.3221 51.1362 42.7111 52.0648 42.9675C53.8291 43.4539 54.2888 43.8164 54.4259 44.3204C55.2527 43.6838 56.7074 43.414 58.9934 43.3257L55.8939 39.2935C54.7443 39.4083 53.4752 39.5853 52.5822 39.8506C51.1937 40.2617 50.2563 40.8452 50.2563 41.4775ZM54.1695 45.2268C53.4884 46.0403 51.711 46.3544 50.2563 46.3808H49.8363C47.7316 46.3808 45.9896 45.2402 43.9733 43.9225C41.3956 42.2381 38.4818 40.3325 33.9277 40.222H33.0875C28.5289 40.3325 25.6196 42.2381 23.0418 43.9225C21.0256 45.2402 19.2836 46.3808 17.1788 46.3808H16.7588C15.3042 46.3544 13.5267 46.0403 12.8457 45.2268L12.1162 48.9761C12.1781 49.2236 12.6865 50.5809 16.5687 50.5809C20.4154 50.5809 22.6042 49.0954 24.9209 47.5258C27.1142 46.036 29.3823 44.5016 33.0875 44.3913H33.9277C37.6329 44.5016 39.9012 46.036 42.0942 47.5258C44.4112 49.0954 46.5998 50.5809 50.4465 50.5809C54.3287 50.5809 54.8414 49.2193 54.899 48.9761L54.1695 45.2268ZM15.0654 43.3699C13.226 43.8783 13.0537 44.2056 13.0093 44.3913C12.9741 44.5812 13.0182 44.7582 13.1509 44.9261C13.6195 45.5231 15.0344 45.9254 16.7633 45.9564V42.5165C16.4184 42.8703 15.8613 43.1531 15.0654 43.3699ZM14.4374 39.8461C13.5443 39.5808 12.2754 39.404 11.1258 39.2891L8.0263 43.3213C10.3122 43.4097 11.7625 43.6838 12.5937 44.3159C12.7264 43.8164 13.1863 43.4539 14.9549 42.963C15.8789 42.7067 16.7633 42.3176 16.7633 41.4732C16.7588 40.8452 15.8214 40.2617 14.4374 39.8461Z" fill="white"/>
<path d="M53.6839 48.7075C53.6839 48.7075 53.79 49.1805 53.7722 49.2071C53.7722 49.2071 53.7147 49.2293 53.6926 49.216C53.675 49.1763 53.6618 49.1674 53.5644 49.1849C53.5644 49.1849 52.1009 49.5122 52.0743 49.4946C52.0743 49.4946 52.0567 49.4371 52.0743 49.4105C52.176 49.3751 52.176 49.3531 52.1673 49.3045L51.7649 47.4961C51.756 47.4475 51.7472 47.4297 51.6057 47.4254C51.6057 47.4254 51.5924 47.3679 51.6102 47.3414L53.0294 47.0276C53.1224 47.0052 53.1311 46.9877 53.1489 46.9256C53.1489 46.9256 53.202 46.9036 53.2284 46.9214C53.2284 46.9214 53.3391 47.4076 53.3212 47.4341C53.3212 47.4341 53.2637 47.4475 53.2372 47.4341C53.2196 47.4032 53.2064 47.39 53.1134 47.4121C53.1134 47.4121 52.26 47.6022 52.2556 47.5802C52.2556 47.5846 52.3485 48.0133 52.3485 48.0797C52.3485 48.0842 52.3485 48.0887 52.3441 48.0887C52.3485 48.0887 52.8615 47.9736 52.8615 47.9736C52.9587 47.9516 52.9632 47.9426 52.9808 47.8807C52.9808 47.8807 53.0427 47.8586 53.0649 47.8675C53.0649 47.8675 53.1843 48.3539 53.1665 48.3804C53.1665 48.3804 53.1045 48.4025 53.0825 48.398C53.0693 48.3671 53.0427 48.345 52.9455 48.3626C52.9455 48.3626 52.4901 48.4643 52.4457 48.4732C52.4592 48.5351 52.5519 48.9462 52.5476 49.0082C52.5476 49.0127 52.5431 49.0171 52.5431 49.0171C52.5474 49.0171 53.4716 48.8136 53.4716 48.8136C53.5688 48.7915 53.5734 48.7826 53.591 48.7164C53.591 48.7164 53.6485 48.6899 53.675 48.703L53.6839 48.7075ZM44.6948 47.4872C44.6948 47.4872 44.7478 47.5137 44.7567 47.5447C44.7567 47.5447 44.4649 47.9912 44.4339 47.9957C44.4339 47.9957 44.3853 47.9692 44.3764 47.9426C44.3943 47.903 44.3942 47.8764 44.3102 47.8234C44.3102 47.8234 43.103 47.0318 43.0988 47.001C43.0988 47.001 43.1295 46.9479 43.1561 46.9391C43.2357 46.9787 43.2579 46.97 43.2845 46.9256L44.2968 45.3828C44.3278 45.3385 44.3322 45.3164 44.2526 45.2237C44.2526 45.2237 44.2792 45.1706 44.3102 45.1661C44.3102 45.1661 44.8849 45.542 44.8894 45.5727C44.8894 45.5727 44.8673 45.6258 44.8363 45.6347C44.7347 45.5816 44.7125 45.5906 44.6816 45.6347C44.6816 45.6347 43.7886 46.9965 43.762 46.9965L44.5224 47.4961C44.602 47.5447 44.6196 47.5447 44.6948 47.4872ZM30.0109 43.6937C30.0109 43.6937 29.9799 43.7468 29.9579 43.7513C29.9313 43.7381 29.9137 43.7291 29.8959 43.7336C29.7766 43.8176 29.7367 44.0916 29.2548 44.2332C28.68 44.41 28.145 44.0916 27.9549 43.4639C27.7205 42.699 28.1274 42.1995 28.6359 42.0403C29.0648 41.9208 29.2416 42.1021 29.2947 42.0446C29.3346 42.0004 29.3566 41.965 29.3832 41.9694L29.4318 41.9739L29.4184 42.0359C29.4184 42.0359 29.2991 42.593 29.277 42.6106L29.2284 42.6017C29.2284 42.6017 29.2195 42.5354 29.1665 42.4779C29.0869 42.3938 28.9056 42.3674 28.7596 42.4117C28.5783 42.4648 28.1759 42.6194 28.3926 43.3223C28.5077 43.6585 28.7375 43.9546 29.1752 43.8398C29.3036 43.7999 29.4228 43.7071 29.4759 43.6055C29.4759 43.6055 29.529 43.4949 29.467 43.3622C29.467 43.3622 29.4935 43.3179 29.52 43.3179L30.0109 43.6937ZM17.1576 47.6464C16.9851 47.4651 16.7419 47.3635 16.4677 47.3546C16.1892 47.3501 15.946 47.4386 15.7647 47.6111C15.5526 47.81 15.433 48.1151 15.4243 48.4643C15.4065 49.1453 15.8044 49.6094 16.4146 49.6272C16.6933 49.6315 16.9365 49.5476 17.1177 49.3706C17.33 49.1718 17.4492 48.8666 17.4582 48.5131C17.4627 48.1682 17.3565 47.8541 17.1576 47.6464ZM16.994 48.5042C16.9896 48.7739 16.9187 48.9817 16.7905 49.1054C16.6977 49.1984 16.5696 49.2425 16.4191 49.238C16.0611 49.2293 15.8709 48.9596 15.8798 48.4821C15.8841 48.2079 15.9593 48.0046 16.0875 47.8807C16.1803 47.7923 16.3043 47.748 16.4545 47.7525C16.6048 47.7569 16.7287 47.8055 16.817 47.8985C16.941 48.0266 17.0027 48.2345 16.994 48.5042ZM50.4915 47.4607L49.5806 47.4562C49.5585 47.4785 49.554 47.5358 49.554 47.5358C49.6425 47.5668 49.656 47.5889 49.6515 47.6464L49.647 49.4946C49.647 49.5519 49.6381 49.5653 49.563 49.5785L49.5453 49.658C49.5674 49.6803 50.3985 49.6845 50.3985 49.6845C50.7612 49.6845 51.0397 49.5918 51.2254 49.4061C51.4155 49.2204 51.5085 48.9418 51.5085 48.5748C51.513 47.8851 51.1326 47.4651 50.4915 47.4607ZM51.0531 48.5793C51.0486 49.1232 50.8761 49.2956 50.3279 49.2956H50.0891C50.1112 49.2911 50.1156 47.978 50.1201 47.8586C50.1555 47.8586 50.3368 47.8631 50.3368 47.8631C50.8806 47.8631 51.0576 48.0398 51.0576 48.5748V48.5793H51.0531ZM35.9624 41.4123C35.9624 41.4123 36.1437 41.5184 36.1702 41.5274C36.1967 41.5363 36.2277 41.5184 36.2542 41.4964L36.3204 41.5494C36.3204 41.5494 35.9446 42.0314 35.9135 42.0359C35.9135 42.0359 35.8605 42.0049 35.8474 41.9828C35.8474 41.9828 35.8562 41.9253 35.8608 41.9119C35.8828 41.8058 35.6793 41.66 35.3743 41.6246C35.2593 41.6069 35.171 41.6246 35.109 41.6732C35.047 41.7175 35.0339 41.7706 35.0295 41.8236C35.0116 41.9915 35.2283 42.0711 35.4804 42.1596C35.8474 42.2922 36.3028 42.4514 36.2409 42.9775C36.2188 43.1456 36.1303 43.2958 35.9932 43.4064C35.8518 43.517 35.5953 43.6406 35.1666 43.5789C35.1666 43.5789 34.7463 43.5036 34.4369 43.2958C34.4369 43.2958 34.428 43.2871 34.3441 43.3444L34.2866 43.3003L34.2998 43.2827C34.2998 43.2827 34.6181 42.7918 34.6491 42.7831L34.7066 42.8138C34.7066 42.8138 34.7022 42.8537 34.7022 42.8669C34.6845 43.0261 35.0604 43.1545 35.2372 43.1765C35.445 43.2031 35.591 43.181 35.6748 43.1146C35.7147 43.0791 35.7544 43.0174 35.7677 42.9333C35.7943 42.7521 35.5556 42.668 35.2902 42.5708C34.9364 42.4424 34.4988 42.2878 34.5563 41.8236C34.596 41.5184 34.8569 41.1869 35.4584 41.2621C35.6483 41.2841 35.8164 41.3372 35.9624 41.4123ZM39.5969 42.5089C39.5659 42.5221 39.5439 42.5751 39.5439 42.5751C39.6145 42.6371 39.6101 42.6504 39.6056 42.6591L39.4863 42.7962L38.204 44.0961C38.204 44.0961 38.1686 44.1315 38.1289 44.136C38.1068 44.1402 38.0758 44.1447 38.0493 44.1447L38.0183 44.2156L38.5888 44.4809L38.6198 44.41C38.6109 44.4055 38.6019 44.3968 38.593 44.3834C38.5843 44.3703 38.5843 44.357 38.5888 44.3393C38.5975 44.3259 38.6198 44.2907 38.6198 44.2907C38.6198 44.2907 38.8717 44.021 38.8806 44.0033C38.8983 44.0165 39.5439 44.3128 39.5439 44.3172C39.5394 44.3482 39.495 44.6973 39.495 44.6973C39.495 44.6973 39.4863 44.7372 39.4819 44.7504C39.473 44.7638 39.4643 44.7727 39.4464 44.7769C39.4288 44.7769 39.4155 44.7769 39.4068 44.7727L39.3758 44.8433L39.9462 45.1086L39.977 45.038C39.9594 45.0157 39.9418 44.9936 39.9329 44.9715C39.9108 44.9405 39.9195 44.8875 39.9195 44.8875L40.0789 43.0704L40.101 42.9023C40.1054 42.8892 40.1186 42.8627 40.1805 42.8847C40.2071 42.8714 40.2336 42.8183 40.2336 42.8183C40.2336 42.7874 39.5969 42.5089 39.5969 42.5089ZM39.5924 43.9724C39.5924 43.9724 39.1812 43.7822 39.1149 43.7513C39.1502 43.7116 39.6321 43.181 39.6986 43.1101C39.6986 43.1101 39.5969 43.9503 39.5924 43.9724ZM46.322 46.3951C46.291 46.404 46.2689 46.4571 46.2689 46.4571C46.3353 46.5235 46.3309 46.5367 46.3264 46.5411L46.2026 46.6738C46.2026 46.6738 44.8762 47.925 44.8762 47.9294C44.8762 47.9294 44.8408 47.9647 44.8009 47.9692C44.7744 47.9736 44.748 47.9736 44.7215 47.9736L44.6861 48.0398L45.2476 48.323L45.2829 48.2565C45.2742 48.252 45.2652 48.2433 45.2563 48.23C45.2476 48.2168 45.2476 48.2034 45.2563 48.1859C45.2652 48.1724 45.2918 48.1417 45.2918 48.1417C45.2918 48.1417 45.5526 47.8807 45.566 47.8631C45.5836 47.8764 46.2159 48.1947 46.2203 48.199C46.2159 48.23 46.1583 48.5793 46.1583 48.5793C46.1583 48.5793 46.1496 48.6192 46.1407 48.6323C46.1318 48.6457 46.1231 48.6544 46.1052 48.6544C46.0877 48.6544 46.0742 48.6544 46.0655 48.65L46.0302 48.7164L46.5917 48.9993L46.6271 48.9331C46.6093 48.9065 46.5962 48.8845 46.5828 48.8622C46.5652 48.8314 46.5696 48.7784 46.5696 48.7784L46.7906 46.9655L46.8216 46.7975C46.826 46.7843 46.8394 46.7578 46.9011 46.7843C46.9277 46.7754 46.9542 46.7179 46.9542 46.7179C46.9455 46.6958 46.322 46.3951 46.322 46.3951ZM46.2645 47.8586C46.2645 47.8586 45.8621 47.6553 45.7958 47.6198C45.8312 47.5802 46.3353 47.0672 46.4016 46.9965C46.3971 47.001 46.2689 47.8365 46.2645 47.8586ZM34.1364 42.9422C34.1364 42.9422 34.154 43.4285 34.1319 43.4505C34.1319 43.4505 34.0699 43.4639 34.0479 43.4463C34.0389 43.4064 34.0257 43.3932 33.9284 43.3932C33.9284 43.3932 32.4296 43.4418 32.4074 43.4198C32.4074 43.4198 32.403 43.3578 32.4207 43.3357C32.5268 43.3179 32.5312 43.3003 32.5312 43.2472L32.4737 41.3948C32.4737 41.3462 32.4692 41.324 32.3279 41.2931C32.3279 41.2931 32.3279 41.2355 32.35 41.2135L33.8046 41.1692C33.9018 41.1649 33.9152 41.147 33.9417 41.0896C33.9417 41.0896 33.9993 41.0809 34.0213 41.1029C34.0213 41.1029 34.0389 41.6025 34.0169 41.6246C34.0169 41.6246 33.9594 41.629 33.9372 41.6114C33.9284 41.576 33.9152 41.5628 33.8178 41.567C33.8178 41.567 32.9468 41.5936 32.9425 41.5715C32.9425 41.576 32.9557 42.0138 32.9425 42.08C32.9425 42.0845 32.9381 42.0889 32.9381 42.0889C32.9423 42.0889 33.4686 42.0711 33.4686 42.0711C33.5658 42.0668 33.5747 42.0624 33.6013 42.0004C33.6013 42.0004 33.6675 41.9873 33.6852 42.0004C33.6852 42.0004 33.7116 42.5 33.6896 42.5221C33.6896 42.5221 33.6234 42.5309 33.6057 42.5221C33.5969 42.4868 33.579 42.4603 33.4773 42.4648C33.4773 42.4648 33.0087 42.4779 32.9688 42.4779C32.9733 42.5399 32.9867 42.9599 32.9733 43.0261C32.9733 43.0305 32.9688 43.0305 32.9688 43.0305C32.9733 43.0305 33.9197 42.9995 33.9197 42.9995C34.0169 42.9953 34.0258 42.9864 34.0523 42.9289C34.0523 42.9289 34.1141 42.9113 34.1364 42.9333V42.9422ZM18.8288 47.1689C18.8288 47.1689 19.0278 47.2132 19.0588 47.2132C19.0854 47.2132 19.1119 47.1867 19.125 47.1557L19.2046 47.1822C19.2046 47.1822 19.0058 47.7438 18.9792 47.7614C18.9792 47.7614 18.9173 47.748 18.8997 47.7304C18.8997 47.7304 18.8907 47.6729 18.8907 47.6597C18.8776 47.5581 18.6433 47.4827 18.3515 47.5403C18.2409 47.5623 18.1656 47.6067 18.1214 47.6642C18.0773 47.7215 18.0817 47.779 18.0948 47.8276C18.1303 47.9912 18.3515 47.9957 18.6168 48.0002C18.9969 48.0091 19.47 48.0178 19.5716 48.5218C19.6026 48.6809 19.5674 48.8535 19.4744 48.9948C19.3772 49.1408 19.1781 49.3355 18.7625 49.4061C18.7625 49.4061 18.3513 49.4636 18.0021 49.3706C18.0021 49.3706 17.9888 49.3662 17.9313 49.4416L17.865 49.4192L17.8695 49.3972C17.8695 49.3972 18.0108 48.8446 18.0374 48.827L18.0993 48.8401C18.0993 48.8401 18.1083 48.88 18.1125 48.8932C18.1434 49.0479 18.5327 49.0479 18.705 49.0127C18.9041 48.9728 19.0323 48.9065 19.0941 48.818C19.1206 48.7739 19.1385 48.703 19.125 48.6192C19.0943 48.4422 18.8511 48.4377 18.5679 48.429C18.201 48.4202 17.75 48.4112 17.6572 47.9603C17.5998 47.6642 17.7369 47.2794 18.3205 47.1644C18.5017 47.1468 18.6741 47.1423 18.8288 47.1689ZM23.604 46.7312C23.604 46.7312 23.8693 47.1379 23.8651 47.1689C23.8651 47.1689 23.8207 47.2132 23.7942 47.2088C23.7632 47.1778 23.7456 47.1733 23.666 47.2264C23.666 47.2264 22.4102 48.0443 22.3794 48.0398C22.3794 48.0398 22.344 47.9912 22.3484 47.9603C22.4325 47.8895 22.4236 47.872 22.3971 47.8276L21.3845 46.2758C21.3579 46.2317 21.3404 46.2183 21.2077 46.2625C21.2077 46.2625 21.1767 46.2139 21.1811 46.1829L22.3971 45.3915C22.4766 45.3385 22.4811 45.3164 22.4722 45.2544C22.4722 45.2544 22.5163 45.2147 22.5473 45.2237C22.5473 45.2237 22.8216 45.6392 22.8126 45.6701C22.8126 45.6701 22.764 45.7054 22.7375 45.7011C22.7109 45.6746 22.6933 45.6701 22.6093 45.7232C22.6093 45.7232 21.8799 46.2007 21.8665 46.1829C21.8665 46.1873 22.1052 46.5542 22.1273 46.6163C22.1273 46.6207 22.1273 46.6252 22.1273 46.6252C22.1318 46.6252 22.5738 46.3378 22.5738 46.3378C22.6579 46.2848 22.6579 46.2758 22.649 46.2094C22.649 46.2094 22.6978 46.1653 22.7199 46.1653C22.7199 46.1653 23.0028 46.5766 22.9941 46.6073C22.9941 46.6073 22.9408 46.6517 22.9232 46.6517C22.8966 46.6252 22.8657 46.6163 22.7861 46.6693C22.7861 46.6693 22.3926 46.9214 22.3572 46.9479C22.3926 47.001 22.6224 47.3546 22.6447 47.4121C22.6447 47.4165 22.6447 47.421 22.6447 47.421C22.649 47.421 23.4406 46.9036 23.4406 46.9036C23.5245 46.8506 23.5245 46.8374 23.5202 46.7709C23.5202 46.7709 23.5644 46.7268 23.5953 46.7312H23.604ZM25.4213 43.5435C25.4125 43.5745 25.439 43.6231 25.439 43.6231C25.532 43.6055 25.5407 43.6186 25.5407 43.6231L25.5806 43.7999L25.8369 45.6082C25.8369 45.6082 25.8459 45.6612 25.8282 45.6923C25.8149 45.7143 25.8017 45.7364 25.7839 45.7629L25.8193 45.8293L26.3764 45.533L26.341 45.4667C26.3323 45.4711 26.319 45.4711 26.3058 45.4711C26.2879 45.4711 26.2748 45.4624 26.2704 45.449C26.2614 45.4358 26.2527 45.3959 26.2527 45.3959C26.2527 45.3959 26.1907 45.0335 26.1819 45.0114C26.1996 45.007 26.8319 44.6753 26.8319 44.6708C26.8539 44.6973 27.1061 44.9405 27.1061 44.9405C27.1061 44.9405 27.1324 44.9715 27.1413 44.9849C27.1502 44.9981 27.1502 45.0157 27.1413 45.029C27.1324 45.0422 27.1237 45.0511 27.1148 45.0556L27.1503 45.1217L27.7073 44.8257L27.6719 44.7593C27.6409 44.7593 27.6144 44.7593 27.5923 44.7548C27.5571 44.7504 27.5172 44.7152 27.5172 44.7152L26.1687 43.486L26.0492 43.3667C26.0405 43.3533 26.0271 43.3268 26.0847 43.2914C26.0935 43.2606 26.0625 43.2075 26.0625 43.2075C26.0271 43.2118 25.4213 43.5435 25.4213 43.5435ZM26.5842 44.441C26.5842 44.441 26.1863 44.6487 26.1201 44.6886C26.1111 44.6356 25.9785 43.928 25.9609 43.8353C25.9609 43.8353 26.5666 44.4233 26.5842 44.441ZM38.151 43.959C38.151 43.959 38.0979 43.9856 38.0758 43.9769C38.0624 43.9503 38.0537 43.9325 38.0317 43.928C37.8857 43.9325 37.7 44.136 37.2225 43.99C36.6477 43.8219 36.3735 43.2606 36.5592 42.6281C36.7848 41.8589 37.4037 41.6689 37.9122 41.8192C38.3367 41.9563 38.3853 42.2037 38.4604 42.1861C38.5179 42.173 38.5578 42.1551 38.5755 42.173L38.6154 42.2037L38.5709 42.2481C38.5709 42.2481 38.1643 42.6504 38.1378 42.6504L38.1023 42.6194C38.1023 42.6194 38.1333 42.562 38.12 42.4823C38.0979 42.3674 37.9608 42.2481 37.815 42.2037C37.6338 42.1507 37.2137 42.0535 37.0057 42.7652C36.9174 43.1101 36.9482 43.4815 37.3727 43.6319C37.5011 43.6672 37.6514 43.6585 37.753 43.601C37.753 43.601 37.8591 43.539 37.8812 43.3932C37.8812 43.3932 37.9298 43.3709 37.9476 43.3843L38.151 43.959ZM14.6771 47.0806L13.6866 46.8905C13.66 46.908 13.6645 46.9655 13.6645 46.9655C13.7574 47.0186 13.7617 47.0407 13.7485 47.0937L13.3947 48.911C13.386 48.9641 13.3682 48.9861 13.2886 48.9817C13.2621 48.9993 13.2576 49.0702 13.2576 49.0702C13.2621 49.0744 13.9209 49.1984 13.9209 49.1984L13.9342 49.1232C13.8591 49.0833 13.8457 49.0613 13.8457 49.0258C13.8457 49.0171 13.8457 49.0082 13.8502 48.9993C13.8502 48.9993 13.9917 48.2831 13.9917 48.2744C13.9917 48.2964 14.4249 48.3804 14.4249 48.3804C14.982 48.4908 15.2473 48.1903 15.3093 47.8764C15.3757 47.5623 15.2386 47.1867 14.6771 47.0806ZM14.4294 47.978C14.4294 47.978 14.0713 47.9072 14.0669 47.9072C14.0889 47.8409 14.1554 47.4431 14.1685 47.3811C14.2084 47.39 14.5311 47.452 14.5311 47.452C14.8008 47.5093 14.8982 47.5978 14.8628 47.7923C14.8229 47.9867 14.7081 48.0311 14.4294 47.978ZM25.6247 45.8115C25.5451 45.8249 25.5141 45.8115 25.386 45.7364L24.7537 45.3783C25.0059 45.1042 24.9704 44.7992 24.8244 44.5781C24.6476 44.3084 24.294 44.136 23.812 44.4454L22.9674 44.9936C22.9631 45.0245 23.0073 45.0644 23.0073 45.0644C23.1089 45.038 23.1265 45.0511 23.1575 45.0953L24.1656 46.6472C24.1966 46.6913 24.201 46.7224 24.1346 46.7709C24.1304 46.802 24.1745 46.855 24.1745 46.855C24.1834 46.855 24.7406 46.4881 24.7406 46.4881L24.6918 46.4085C24.6121 46.4306 24.5856 46.4261 24.5591 46.3996C24.5548 46.3909 24.5459 46.3864 24.5415 46.3775C24.5415 46.3775 24.1611 45.7939 24.1569 45.785C24.1569 45.785 24.2762 45.7098 24.3778 45.6437C24.4839 45.7143 25.112 46.0725 25.1207 46.0768C25.1385 46.0901 25.0941 46.1343 25.0809 46.1432C25.0765 46.1564 25.1295 46.2272 25.1295 46.2272C25.1427 46.2317 25.6733 45.8779 25.6733 45.8779C25.6646 45.8645 25.6247 45.8115 25.6247 45.8115ZM23.6573 45.0201C23.6925 44.9981 23.9667 44.8168 23.9667 44.8168C24.201 44.6708 24.3292 44.6666 24.4398 44.83C24.546 44.9981 24.4973 45.113 24.2585 45.2633C24.2585 45.2633 23.9534 45.4624 23.9489 45.4667C23.9181 45.4094 23.6881 45.0731 23.6573 45.0201ZM32.1023 43.4108C32.0227 43.3932 32.0007 43.3667 31.9077 43.2472L31.4611 42.6725C31.7973 42.5178 31.8813 42.2216 31.837 41.965C31.7795 41.6511 31.5186 41.3506 30.9571 41.4522L29.9668 41.6335C29.9489 41.66 29.9755 41.7131 29.9755 41.7131C30.0816 41.7307 30.0906 41.7485 30.1037 41.8016L30.4354 43.6231C30.4443 43.6761 30.4398 43.7027 30.3603 43.7247C30.3425 43.7513 30.3603 43.8176 30.3603 43.8176C30.3689 43.8219 31.0235 43.6982 31.0235 43.6982L31.0057 43.6055C30.9219 43.5921 30.8998 43.5789 30.8864 43.5479C30.882 43.539 30.882 43.5301 30.8775 43.5214C30.8775 43.5214 30.7538 42.8361 30.7493 42.8273C30.7493 42.8273 30.8864 42.8051 31.0101 42.7831C31.081 42.8892 31.5231 43.4639 31.5275 43.4684C31.5408 43.486 31.4832 43.508 31.4656 43.5125C31.4567 43.5214 31.479 43.6055 31.479 43.6055C31.4876 43.6142 32.1156 43.4949 32.1156 43.4949C32.1199 43.4728 32.1023 43.4108 32.1023 43.4108ZM30.5901 41.9208C30.63 41.9119 30.9528 41.8546 30.9528 41.8546C31.2224 41.8103 31.3463 41.8546 31.3815 42.049C31.417 42.2436 31.324 42.3321 31.0456 42.3807C31.0456 42.3807 30.6873 42.4469 30.6831 42.4469C30.6831 42.3807 30.6035 41.9828 30.5901 41.9208ZM21.2253 48.4377C21.2474 48.4908 21.2652 48.4997 21.3579 48.4908L21.3934 48.5617L21.3714 48.5704C21.3714 48.5704 20.8584 48.8049 20.8098 48.8225C20.8098 48.8225 20.7744 48.7605 20.7788 48.7429C20.7919 48.734 20.8185 48.703 20.8185 48.6809C20.8185 48.6678 20.8143 48.65 20.8008 48.6279C20.8008 48.6279 20.1465 47.2132 20.12 47.1336L19.669 47.3459C19.5981 47.3811 19.5805 47.3989 19.5805 47.4607C19.5805 47.4696 19.5805 47.4827 19.5849 47.4961C19.5849 47.4961 19.5363 47.5358 19.5054 47.5226C19.5054 47.5226 19.2797 47.0407 19.2887 47.0097C19.2887 47.0097 19.3328 46.9787 19.3593 46.9832C19.3859 47.0186 19.4037 47.0276 19.492 46.9832L20.7744 46.3996C20.8584 46.3599 20.876 46.3554 20.876 46.2848C20.876 46.2848 20.9114 46.2582 20.9424 46.2493C20.9424 46.2493 21.1857 46.7444 21.1767 46.7709C21.1767 46.7709 21.1281 46.8064 21.1016 46.7975C21.0661 46.7444 21.0441 46.7092 20.9601 46.7489C20.9601 46.7489 20.5576 46.9391 20.54 46.9391C20.5534 46.9522 21.2253 48.4377 21.2253 48.4377ZM47.781 49.4017C47.2284 49.247 47.0251 48.8932 47.1664 48.3581L47.4892 47.1822C47.5026 47.1292 47.4761 47.0849 47.4052 47.054C47.4052 47.0231 47.4231 46.97 47.4231 46.97C47.4231 46.97 47.874 47.0893 48.0729 47.1512C48.0729 47.1512 48.0597 47.2132 48.0377 47.2308C47.9667 47.2219 47.9492 47.2484 47.9358 47.3015L47.6129 48.4865C47.5778 48.6192 47.5866 48.7385 47.6397 48.8314C47.6883 48.9197 47.7722 48.9817 47.8917 49.0171C48.0109 49.0479 48.117 49.0347 48.2055 48.9906C48.2985 48.9375 48.3692 48.8401 48.4089 48.7075L48.7495 47.5271C48.7626 47.474 48.7626 47.4431 48.7009 47.4121C48.6875 47.3855 48.7096 47.3236 48.7096 47.3236C48.9087 47.3766 49.3596 47.505 49.3596 47.505C49.3596 47.505 49.3507 47.5623 49.3331 47.5846C49.2578 47.5757 49.2092 47.6022 49.196 47.6508L48.8556 48.8225C48.692 49.3619 48.3293 49.5563 47.781 49.4017ZM41.0382 45.785C41.0295 45.7763 41.0161 45.7718 41.0074 45.7629C41.0074 45.7629 41.2769 44.3217 41.3478 44.0785C41.3521 44.0651 41.3521 44.0519 41.3565 44.0386C41.2638 44.189 40.5651 45.2899 40.5651 45.2899C40.5564 45.2987 40.5519 45.3119 40.5519 45.3253C40.5519 45.3429 40.5651 45.3695 40.605 45.4136L40.5651 45.48C40.5651 45.48 40.0831 45.1748 40.0521 45.1528C40.0521 45.1528 40.0831 45.0953 40.101 45.091C40.1406 45.113 40.1848 45.091 40.2071 45.06L41.2239 43.455C41.2417 43.424 41.246 43.4019 41.1974 43.3402C41.1974 43.3402 41.2152 43.2827 41.2504 43.2737C41.2504 43.2737 41.9005 43.6805 41.9005 43.6892C41.9005 43.6892 41.8695 43.7381 41.8474 43.7468C41.8033 43.7381 41.781 43.7689 41.7723 43.7777C41.75 43.8132 41.5202 45.029 41.5157 45.038C41.5246 45.0335 42.5238 44.3039 42.5504 44.2729C42.5592 44.2642 42.5724 44.2287 42.5459 44.1933C42.5459 44.1668 42.5769 44.1182 42.5769 44.1182C42.5858 44.1137 43.2269 44.5295 43.2269 44.5295C43.2356 44.5604 43.1915 44.6046 43.1915 44.6046C43.1164 44.587 43.0943 44.6001 43.0765 44.6311L42.0597 46.2359C42.0376 46.2714 42.0418 46.32 42.0773 46.3465C42.0817 46.3643 42.0418 46.4174 42.0418 46.4174C42.0066 46.3996 41.5246 46.0901 41.5246 46.0901L41.5688 46.0237C41.6263 46.0415 41.6573 46.0415 41.6706 46.0326C41.6838 46.0282 41.6882 46.0195 41.6969 46.0061C41.6969 46.0061 42.3957 44.9053 42.4929 44.7548C42.4842 44.7638 42.4707 44.7727 42.4576 44.7814C42.2719 44.9495 41.0781 45.8072 41.0781 45.8072C41.0603 45.7983 41.0471 45.7894 41.0382 45.785Z" fill="#000F46"/>
<path d="M66.1906 27.3744H185.403V28.0546H66.1906V27.3744ZM81.091 12.1298H80.7633L79.6323 12.0972C79.567 12.0972 79.3615 12.0972 79.3615 12.2773C79.3615 12.3675 79.4358 12.4332 79.534 12.4332L79.903 12.4658C80.206 12.5315 80.296 12.6542 80.3208 13.0315L80.3455 15.4573V15.6949L75.583 15.6705L75.5995 15.449L75.6243 13.0233C75.649 12.6381 75.7308 12.4984 75.9768 12.4576L76.2393 12.4249C76.3375 12.4249 76.4193 12.3592 76.4193 12.2691C76.4193 12.1543 76.3293 12.0889 76.1493 12.0889L75.2309 12.1133H74.8949L73.772 12.0807C73.5917 12.0807 73.5015 12.1381 73.5015 12.2608C73.5015 12.3509 73.5753 12.4166 73.6737 12.4166L74.0343 12.4493C74.3457 12.515 74.4359 12.6381 74.4523 13.015L74.4769 15.449V17.4326C74.4769 18.49 74.4769 19.3996 74.4195 19.867C74.3703 20.203 74.3211 20.3832 74.1573 20.4158L73.8376 20.4571C73.7147 20.4571 73.6572 20.5307 73.6572 20.6125C73.6572 20.7848 73.854 20.7848 73.9278 20.7848L74.8458 20.7601H75.1654L76.4193 20.7931C76.657 20.7931 76.6817 20.67 76.6817 20.6208C76.6817 20.5472 76.624 20.465 76.5093 20.465L76.0098 20.4241C75.7473 20.3832 75.682 20.2112 75.6408 19.8748C75.583 19.4079 75.583 18.4979 75.583 17.4409V16.2607L80.3538 16.2772L80.329 17.4409C80.329 18.4979 80.329 19.4079 80.2713 19.8748C80.2308 20.203 80.173 20.3914 80.0095 20.4241L79.6893 20.465C79.567 20.465 79.5093 20.5472 79.5093 20.6208C79.5093 20.7931 79.7058 20.7931 79.78 20.7931L80.7063 20.7683H81.0175L82.2798 20.8013C82.5258 20.8013 82.5498 20.6782 82.5498 20.629C82.5498 20.5555 82.4927 20.4733 82.3697 20.4733L81.8695 20.4323C81.5995 20.3914 81.5335 20.2191 81.5013 19.8832C81.4435 19.4161 81.4435 18.5062 81.4435 17.4491V15.4655L81.4683 13.0394C81.493 12.6543 81.5748 12.515 81.8125 12.4741L82.075 12.4414C82.1815 12.4414 82.255 12.3757 82.255 12.2857C82.255 12.1051 82.0585 12.1051 81.9842 12.1051L81.091 12.1298ZM88.3203 12.0724C88.0908 12.1216 87.853 12.1298 87.853 12.1298L85.2715 12.1381L85.1155 12.1298L83.9928 12.1051C83.9268 12.1051 83.722 12.1051 83.722 12.2773C83.722 12.3675 83.7963 12.4249 83.8945 12.4332L84.2545 12.4658C84.55 12.4906 84.6483 12.6542 84.673 13.0315L84.6978 15.4573V17.4409C84.6978 18.4979 84.6978 19.4079 84.64 19.8748C84.5912 20.2112 84.5417 20.3914 84.3775 20.4241C84.3288 20.4323 84.058 20.465 84.058 20.465C83.9268 20.4733 83.8863 20.539 83.8863 20.6208C83.8863 20.7931 84.0828 20.7931 84.148 20.7931L85.066 20.7683L85.681 20.7766L88.0413 20.8258C88.4845 20.8258 88.6398 20.8258 88.7298 20.4733C88.7875 20.2357 88.8775 19.4571 88.8775 19.3587C88.8775 19.2769 88.8775 19.1046 88.7215 19.1046C88.5828 19.1046 88.558 19.2604 88.5415 19.3422C88.4673 19.7765 88.345 19.9815 88.0825 20.0881C87.8043 20.203 87.3198 20.203 87.0333 20.203C85.9435 20.203 85.837 20.0637 85.8123 19.3587V17.9326V17.4326V16.4408C85.8123 16.4491 87.4105 16.5065 87.4105 16.5065C87.796 16.5474 87.9025 16.7032 87.9183 16.8342C87.943 16.9656 87.9595 17.1867 87.9595 17.1867C87.976 17.3098 88.0248 17.3752 88.1238 17.3752C88.2873 17.3752 88.2873 17.1702 88.2873 17.0801L88.3285 16.3672L88.4185 15.7279C88.4185 15.5639 88.3038 15.5474 88.279 15.5557C88.222 15.5557 88.132 15.6705 88.0495 15.7197C87.8695 15.8263 87.8695 15.8346 87.5658 15.859L85.7793 15.8837L85.7957 12.7444C85.927 12.72 87.1315 12.7282 87.3123 12.7526C87.9265 12.8183 87.9925 12.9576 88.0413 13.0886L88.099 13.4576C88.099 13.6626 88.222 13.687 88.279 13.687C88.3368 13.687 88.4103 13.6543 88.4433 13.4902L88.4845 12.9166L88.4928 12.7365L88.558 12.3509L88.5828 12.2034C88.5828 12.0315 88.4845 12.015 88.4508 12.015C88.4185 12.015 88.4185 12.0559 88.3203 12.0724ZM103.598 12.5968L103.59 19.0636C103.59 20.0716 103.508 20.3832 103.311 20.4158C103.114 20.4489 102.876 20.4815 102.876 20.4815C102.746 20.4898 102.696 20.5555 102.696 20.6373C102.696 20.8092 102.885 20.8092 102.966 20.8092L103.869 20.7848H104.221L105.254 20.8092C105.336 20.8092 105.54 20.8092 105.54 20.6373C105.54 20.5633 105.507 20.498 105.36 20.4815C105.36 20.4815 105.032 20.4489 104.819 20.4158C104.606 20.3832 104.466 20.1373 104.441 19.1864C104.441 19.1864 104.319 14.4411 104.303 14.015C104.581 14.3263 107.089 17.0801 107.089 17.0801C108.311 18.3996 109.917 20.0307 110.04 20.1455C110.688 20.7848 110.794 20.8915 110.924 20.8915C111.097 20.8915 111.113 20.7601 111.113 20.0062L111.13 13.4002C111.13 12.6952 111.187 12.5398 111.482 12.4741L111.737 12.4414C111.884 12.4249 111.95 12.3509 111.95 12.2773C111.95 12.1133 111.753 12.1133 111.663 12.1133L110.909 12.1381H110.466L109.532 12.1133C109.425 12.1133 109.221 12.1133 109.221 12.2773C109.221 12.384 109.261 12.4332 109.4 12.4414L109.934 12.4984C110.204 12.5398 110.294 12.72 110.302 13.4902C110.302 13.4902 110.4 17.9409 110.425 18.9979C110.204 18.7603 109.581 18.0884 109.581 18.0884L107.868 16.2197L104.18 12.2447C104.024 12.0641 103.917 11.9658 103.819 11.9658C103.614 11.9497 103.598 12.2034 103.598 12.5968ZM114.679 12.1298H114.327L113.359 12.1051C113.294 12.1051 113.097 12.1051 113.097 12.2857C113.097 12.3757 113.154 12.4332 113.269 12.4414L113.597 12.4823C113.769 12.5067 113.892 12.6382 113.917 13.0394L113.941 15.4655V17.4491C113.941 18.5062 113.941 19.4161 113.884 19.8832C113.834 20.2273 113.785 20.3997 113.622 20.4323L113.302 20.4733C113.154 20.4898 113.122 20.5555 113.122 20.629C113.122 20.8013 113.327 20.8013 113.392 20.8013L114.318 20.7766H114.63L115.892 20.8092C116.138 20.8092 116.154 20.6865 116.154 20.6373C116.154 20.5633 116.105 20.4898 115.982 20.4815L115.491 20.4406C115.22 20.3997 115.154 20.2273 115.122 19.8914C115.064 19.4244 115.064 18.5145 115.064 17.4574V15.4738L115.089 13.0477C115.113 12.6625 115.195 12.5233 115.433 12.4823L115.704 12.4493C115.818 12.4414 115.883 12.384 115.883 12.2939C115.883 12.1133 115.679 12.1133 115.613 12.1133L114.679 12.1298ZM125.072 12.1298H124.645L123.801 12.1051C123.687 12.1051 123.465 12.1051 123.465 12.2773C123.465 12.3348 123.49 12.4166 123.678 12.4332L124.08 12.4741C124.17 12.4906 124.187 12.5807 124.17 12.6543L124.071 13.0559C123.843 13.8019 122.449 17.4574 121.744 19.1128C121.605 18.736 119.654 13.5394 119.654 13.5394C119.49 13.1216 119.351 12.7609 119.351 12.6381C119.351 12.5807 119.367 12.5067 119.449 12.4906L119.842 12.4414C120.039 12.4249 120.039 12.3265 120.039 12.2773C120.039 12.1133 119.793 12.1133 119.646 12.1133L118.827 12.1381H118.318L117.277 12.1133C117.121 12.1133 116.9 12.1133 116.9 12.2773C116.9 12.3757 116.949 12.4332 117.081 12.4414L117.482 12.4823C117.818 12.5398 117.99 12.679 118.236 13.3018L121.022 20.2848C121.236 20.8092 121.293 20.9733 121.481 20.9733C121.621 20.9733 121.671 20.8584 121.834 20.4898L122.031 20.0637L123.424 16.7933L124.088 15.1788L124.752 13.5803C125.047 12.8348 125.211 12.646 125.342 12.5559C125.53 12.4332 125.76 12.4332 125.834 12.4332C126.022 12.4332 126.055 12.3265 126.055 12.2691C126.055 12.1625 125.965 12.1051 125.776 12.1051L125.072 12.1298ZM142.267 14.0642C142.267 14.8345 142.521 15.5557 143.767 16.5801L144.275 16.9983C145.275 17.8177 145.545 18.2359 145.545 18.9653C145.545 19.6621 145.021 20.3749 144.021 20.3749C143.611 20.3749 142.636 20.2683 142.431 19.293L142.398 18.8914C142.398 18.826 142.398 18.6785 142.234 18.6785C142.087 18.6785 142.071 18.8422 142.054 18.9327L142.046 19.0471L141.997 20.1455C141.997 20.4489 142.004 20.5472 142.217 20.6538C142.652 20.8666 143.16 20.965 143.767 20.965C144.456 20.965 145.062 20.7931 145.521 20.4733C146.258 19.9489 146.521 19.1293 146.521 18.531C146.521 17.6458 146.242 16.9165 144.841 15.8098L144.529 15.5639C143.447 14.6788 143.185 14.318 143.185 13.7362C143.185 13.0067 143.709 12.515 144.488 12.515C145.422 12.515 145.734 12.9001 145.824 13.0724C145.881 13.1869 145.956 13.4741 145.964 13.6051C145.972 13.687 145.988 13.8345 146.136 13.8345C146.3 13.8345 146.3 13.6051 146.3 13.4902L146.34 12.384V12.3018C146.34 12.1543 146.201 12.1381 146.144 12.1381C146.086 12.1381 145.767 12.0807 145.767 12.0807C145.447 11.9989 145.103 11.9658 144.702 11.9658C143.242 11.9497 142.267 12.8018 142.267 14.0642ZM166.462 12.1298H165.987L165.421 12.1051C165.192 12.1051 165.15 12.2034 165.15 12.2608C165.15 12.3757 165.265 12.4166 165.371 12.4493C165.429 12.4741 165.503 12.4823 165.503 12.6873C165.503 12.8509 165.446 13.0315 165.323 13.2199C165.134 13.5394 163.864 15.7197 163.52 16.3999C163.143 15.7771 161.692 13.2774 161.528 12.9741C161.446 12.8183 161.397 12.6952 161.397 12.5724C161.397 12.5233 161.429 12.4823 161.495 12.4414L161.553 12.4166C161.626 12.384 161.708 12.3592 161.708 12.2608C161.708 12.1543 161.626 12.0972 161.478 12.0972L160.684 12.1216H160.266L159.413 12.0972C159.192 12.0972 159.176 12.2365 159.176 12.2608C159.176 12.3592 159.257 12.4249 159.372 12.4249C159.455 12.4249 159.651 12.4823 159.807 12.589C160.028 12.7365 160.307 13.0394 160.545 13.4002C160.954 13.9985 162.454 16.4739 162.528 16.6375C162.675 16.9656 162.782 17.2033 162.782 17.7851V18.7521L162.749 19.8748C162.733 20.0964 162.675 20.3749 162.471 20.4158L162.151 20.4571C162.003 20.4733 161.97 20.5307 161.97 20.6125C161.97 20.7848 162.167 20.7848 162.233 20.7848L163.159 20.7601H163.47L164.724 20.7848C164.962 20.7848 164.987 20.6617 164.987 20.6125C164.987 20.539 164.929 20.4571 164.815 20.4571L164.315 20.4158C164.069 20.3832 163.954 20.2191 163.929 19.8748L163.896 18.7521V17.7851C163.896 17.4244 163.896 17.0801 164.061 16.6867C164.249 16.228 165.822 13.5803 166.2 13.1216C166.454 12.8101 166.569 12.6873 166.782 12.5641C166.937 12.4658 167.134 12.4166 167.257 12.4166C167.429 12.4166 167.487 12.3183 167.487 12.2365C167.487 12.1625 167.429 12.0807 167.257 12.0807L166.462 12.1298ZM170.618 16.4408C170.618 14.7035 171.847 11.9414 175.15 11.9414C177.854 11.9414 179.666 13.6787 179.666 16.2607C179.666 18.9818 177.74 20.965 175.084 20.965C172.011 20.965 170.618 18.6211 170.618 16.4408ZM171.863 16.1296C171.863 18.6211 173.314 20.3666 175.388 20.3666C175.896 20.3666 178.42 20.1865 178.42 16.5801C178.42 13.777 176.682 12.4984 175.076 12.4984C173.093 12.5068 171.863 13.8919 171.863 16.1296ZM185.141 12.1216C185.1 12.1216 185.009 12.1298 185.009 12.1298L182.239 12.1381L182.092 12.1298L180.969 12.1051C180.903 12.1051 180.699 12.1051 180.699 12.2857C180.699 12.3757 180.756 12.4332 180.879 12.4414L181.24 12.4741C181.542 12.515 181.641 12.6625 181.658 13.0394L181.683 15.4738V17.4574C181.683 18.5145 181.682 19.4244 181.625 19.8914C181.576 20.2273 181.527 20.4079 181.362 20.4406L181.043 20.4815C180.896 20.498 180.871 20.5555 180.871 20.6373C180.871 20.8092 181.076 20.8092 181.133 20.8092L182.051 20.7848H182.371L183.624 20.8175C183.862 20.8175 183.895 20.6947 183.895 20.6455C183.895 20.5716 183.854 20.498 183.715 20.4898L183.223 20.4489C182.952 20.4158 182.887 20.2356 182.854 19.9079C182.797 19.4405 182.797 18.5227 182.797 17.4735V16.5148C183.215 16.4983 184.231 16.5065 184.485 16.5309C184.788 16.5722 184.961 16.7524 185.001 16.8834C185.043 17.0148 185.059 17.1702 185.059 17.2685C185.059 17.3752 185.124 17.4409 185.223 17.4409C185.387 17.4409 185.387 17.2441 185.387 17.1376L185.436 16.3916L185.526 15.7523C185.543 15.5965 185.42 15.5804 185.387 15.5804C185.305 15.5804 185.256 15.6457 185.215 15.7032C185.116 15.8346 185.018 15.8755 184.739 15.8916L184.239 15.8998L182.797 15.9082L182.805 12.7774C182.821 12.7365 184.55 12.7691 184.55 12.7691C184.952 12.7774 185.207 12.941 185.247 13.0807C185.28 13.1869 185.337 13.4741 185.337 13.4741C185.379 13.6952 185.477 13.6952 185.501 13.6952C185.559 13.6952 185.649 13.6787 185.673 13.5067C185.673 13.5067 185.706 12.8919 185.731 12.7526C185.739 12.679 185.796 12.3675 185.796 12.3675L185.821 12.22C185.837 12.0972 185.756 12.0232 185.666 12.0315C185.567 12.0232 185.329 12.1051 185.141 12.1216ZM101.303 12.1298H100.95L99.9092 12.1051C99.844 12.1051 99.6475 12.1051 99.6475 12.2773C99.6475 12.3675 99.721 12.4332 99.8193 12.4332L100.18 12.4658C100.516 12.5067 100.581 12.679 100.598 13.0315L100.623 15.4655V16.8751C100.623 18.2277 100.434 19.031 99.9918 19.5881C99.5898 20.0716 98.9342 20.3666 98.2862 20.3666C97.6472 20.3666 97.1717 20.2683 96.6392 19.7686C96.2372 19.3831 95.8195 18.7603 95.8195 17.0474V15.4655L95.8443 13.0315C95.869 12.6381 95.9508 12.4984 96.1885 12.4658L96.4593 12.4332C96.5733 12.4249 96.6392 12.3675 96.6392 12.2773C96.6392 12.1051 96.4428 12.1051 96.3685 12.1051L95.5323 12.1298H95.0163L93.9513 12.1051C93.8853 12.1051 93.6805 12.1051 93.6805 12.2773C93.6805 12.3675 93.754 12.4332 93.8605 12.4332L94.2213 12.4658C94.516 12.4984 94.615 12.6542 94.6397 13.0315L94.6638 15.4655V17.1131C94.6638 18.9405 95.2045 19.6947 95.6725 20.1455C96.4345 20.8666 97.492 20.9733 98.0567 20.9733C98.6635 20.9733 99.5732 20.8831 100.442 20.1129C101.384 19.2686 101.507 17.8342 101.507 16.6784V15.4655L101.532 13.0315C101.557 12.646 101.639 12.515 101.877 12.4658L102.139 12.4332C102.254 12.4249 102.319 12.3675 102.319 12.2773C102.319 12.1051 102.122 12.1051 102.057 12.1051L101.303 12.1298ZM65.4447 12.1955C65.4284 12.2365 65.1825 13.2853 65.1825 13.4249C65.1825 13.5642 65.2563 13.6134 65.3301 13.6134C65.4447 13.6134 65.4939 13.5151 65.5185 13.441L65.6988 13.1051C65.8546 12.8675 66.1005 12.7935 66.7808 12.7856C66.7808 12.7856 68.0265 12.7691 68.3626 12.7609V17.4491C68.3626 18.5062 68.3626 19.4161 68.3052 19.8832C68.256 20.2191 68.2068 20.3997 68.043 20.4323C67.7806 20.4733 67.7233 20.4733 67.7233 20.4733C67.6003 20.4733 67.5512 20.5472 67.5512 20.629C67.5512 20.8013 67.7479 20.8013 67.8135 20.8013L68.7395 20.7766H69.051L70.305 20.8092C70.5428 20.8092 70.5674 20.6865 70.5674 20.6373C70.5674 20.5633 70.5099 20.4815 70.3953 20.4815L69.9035 20.4406C69.633 20.3997 69.5674 20.2273 69.5346 19.8997C69.4773 19.4323 69.4773 18.5145 69.4773 17.4574V12.7691C69.633 12.7691 70.8132 12.7935 70.8132 12.7935C71.8951 12.8183 72.0836 13.0807 72.1164 13.3427L72.1246 13.4659C72.1328 13.5724 72.1492 13.7362 72.3049 13.7362C72.3295 13.7362 72.4689 13.7278 72.4689 13.5067L72.477 13.146L72.5016 12.2691C72.5016 12.2034 72.5016 12.0397 72.3623 12.0397L72.2229 12.0641C72.0672 12.0972 71.7639 12.1543 71.2394 12.1543H67.0102C67.0102 12.1543 66.2152 12.1133 66.1332 12.0972C66.0513 12.0807 65.7726 12.0067 65.7726 12.0067L65.6333 11.9658H65.6251C65.5267 11.9575 65.4858 12.0807 65.4447 12.1955ZM131.424 12.0724C131.194 12.1216 130.956 12.1298 130.956 12.1298L128.375 12.1381L128.219 12.1298L127.096 12.1051C127.031 12.1051 126.825 12.1051 126.825 12.2773C126.825 12.3675 126.899 12.4249 126.998 12.4332L127.358 12.4658C127.653 12.4906 127.752 12.6542 127.776 13.0315L127.801 15.4573V17.4409C127.801 18.4979 127.801 19.4079 127.743 19.8748C127.694 20.2112 127.645 20.3914 127.481 20.4241C127.432 20.4323 127.161 20.465 127.161 20.465C127.031 20.4733 126.989 20.539 126.989 20.6208C126.989 20.7931 127.186 20.7931 127.251 20.7931L128.17 20.7683L128.784 20.7766L131.145 20.8258C131.587 20.8258 131.743 20.8258 131.833 20.4733C131.891 20.2357 131.981 19.4571 131.981 19.3587C131.981 19.2769 131.981 19.1046 131.825 19.1046C131.686 19.1046 131.661 19.2604 131.645 19.3422C131.571 19.7765 131.448 19.9815 131.186 20.0881C130.907 20.203 130.424 20.203 130.137 20.203C129.047 20.203 128.94 20.0637 128.916 19.3587V17.9326V17.4326V16.4408C128.916 16.4491 130.514 16.5065 130.514 16.5065C130.898 16.5474 131.006 16.7032 131.022 16.8342C131.046 16.9656 131.063 17.1867 131.063 17.1867C131.079 17.3098 131.129 17.3752 131.227 17.3752C131.391 17.3752 131.391 17.1702 131.391 17.0801L131.432 16.3672L131.522 15.7279C131.522 15.5639 131.407 15.5474 131.382 15.5557C131.325 15.5557 131.235 15.6705 131.153 15.7197C130.973 15.8263 130.973 15.8346 130.67 15.859L128.882 15.8837L128.899 12.7444C129.03 12.72 130.236 12.7282 130.416 12.7526C131.031 12.8183 131.096 12.9576 131.145 13.0886L131.202 13.4576C131.202 13.6626 131.325 13.687 131.382 13.687C131.44 13.687 131.513 13.6543 131.547 13.4902L131.587 12.9166L131.595 12.7365L131.661 12.3509L131.686 12.2034C131.686 12.0315 131.587 12.015 131.555 12.015C131.522 12.015 131.522 12.0559 131.424 12.0724ZM149.053 12.1298H148.701L147.734 12.1051C147.668 12.1051 147.471 12.1051 147.471 12.2857C147.471 12.3757 147.529 12.4332 147.644 12.4414L147.972 12.4823C148.144 12.5067 148.266 12.6382 148.291 13.0394L148.316 15.4655V17.4491C148.316 18.5062 148.316 19.4161 148.258 19.8832C148.209 20.2273 148.16 20.3997 147.996 20.4323L147.676 20.4733C147.529 20.4898 147.496 20.5555 147.496 20.629C147.496 20.8013 147.701 20.8013 147.767 20.8013L148.692 20.7766H149.004L150.267 20.8092C150.512 20.8092 150.528 20.6865 150.528 20.6373C150.528 20.5633 150.479 20.4898 150.356 20.4815L149.865 20.4406C149.595 20.3997 149.528 20.2273 149.496 19.8914C149.438 19.4244 149.438 18.5145 149.438 17.4574V15.4738L149.463 13.0477C149.488 12.6625 149.57 12.5233 149.808 12.4823L150.078 12.4493C150.193 12.4414 150.258 12.384 150.258 12.2939C150.258 12.1133 150.053 12.1133 149.987 12.1133L149.053 12.1298ZM151.274 12.1955C151.258 12.2365 151.012 13.2853 151.012 13.4249C151.012 13.5642 151.086 13.6134 151.16 13.6134C151.274 13.6134 151.324 13.5151 151.348 13.441L151.529 13.1051C151.685 12.8675 151.93 12.7935 152.61 12.7856C152.61 12.7856 153.856 12.7691 154.193 12.7609V17.4491C154.193 18.5062 154.193 19.4161 154.135 19.8832C154.085 20.2191 154.037 20.3997 153.873 20.4323C153.61 20.4733 153.553 20.4733 153.553 20.4733C153.43 20.4733 153.381 20.5472 153.381 20.629C153.381 20.8013 153.578 20.8013 153.643 20.8013L154.569 20.7766H154.881L156.134 20.8092C156.372 20.8092 156.397 20.6865 156.397 20.6373C156.397 20.5633 156.34 20.4815 156.225 20.4815L155.733 20.4406C155.463 20.3997 155.397 20.2273 155.364 19.8997C155.307 19.4323 155.307 18.5145 155.307 17.4574V12.7691C155.463 12.7691 156.643 12.7935 156.643 12.7935C157.725 12.8183 157.914 13.0807 157.946 13.3427L157.954 13.4659C157.962 13.5724 157.979 13.7362 158.135 13.7362C158.16 13.7362 158.298 13.7278 158.298 13.5067L158.307 13.146L158.331 12.2691C158.331 12.2034 158.331 12.0397 158.192 12.0397L158.053 12.0641C157.897 12.0972 157.593 12.1543 157.069 12.1543H152.84C152.84 12.1543 152.045 12.1133 151.963 12.0972C151.881 12.0807 151.602 12.0067 151.602 12.0067L151.463 11.9658H151.455C151.348 11.9575 151.308 12.0807 151.274 12.1955ZM141.3 20.629C141.3 20.8013 141.087 20.8013 140.939 20.8013H140.513C139.882 20.8013 139.579 20.7439 139.267 20.5798C138.808 20.334 138.432 19.8422 137.866 19.0963C137.866 19.0963 136.513 17.2033 136.464 17.1949C136.464 17.1949 135.021 17.1702 135.021 17.1784V17.4491C135.021 18.5062 135.021 19.4161 135.079 19.8914C135.112 20.2273 135.177 20.3997 135.448 20.4323L135.94 20.4733C136.087 20.4815 136.12 20.5555 136.12 20.629C136.12 20.6782 136.095 20.8013 135.849 20.8013L134.595 20.7683C134.595 20.7683 134.464 20.7683 134.415 20.7683L133.398 20.8013C133.333 20.8013 133.128 20.8013 133.128 20.629C133.128 20.5472 133.161 20.4898 133.3 20.4733L133.62 20.4323C133.785 20.3997 133.833 20.2112 133.883 19.8832C133.94 19.4161 133.94 18.5062 133.94 17.4491V15.4655L133.915 13.0315C133.89 12.6542 133.792 12.4984 133.497 12.4658L133.137 12.4332C133.03 12.4249 132.956 12.3675 132.956 12.2773C132.956 12.1051 133.153 12.1051 133.227 12.1051L134.349 12.1298L134.874 12.1216L135.833 12.0972C136.529 12.0972 137.316 12.1543 137.948 12.6051C138.251 12.8266 138.758 13.4084 138.758 14.2117C138.758 15.1378 138.332 15.9655 137.424 16.8259C137.489 16.9082 137.644 17.1049 137.644 17.1049C138.44 18.1293 139.128 19.0228 139.726 19.6455C140.3 20.2522 140.759 20.3832 141.054 20.4323L141.111 20.4406C141.218 20.465 141.3 20.5472 141.3 20.629ZM137.652 14.8097C137.652 13.4494 136.956 12.6381 135.784 12.6381C135.432 12.6381 135.144 12.679 135.054 12.7034C135.03 12.7117 135.021 12.7282 135.021 12.7609V16.4491C135.021 16.4739 135.021 16.49 135.062 16.5148C135.194 16.5966 135.669 16.6784 136.202 16.6784C136.439 16.6784 136.751 16.654 136.997 16.4818C137.415 16.195 137.652 15.5722 137.652 14.8097ZM78.55 34.7591C78.55 34.7591 74.2884 43.7174 73.895 44.5286C73.8212 44.3728 69.2232 34.8818 69.2232 34.8818C69.0101 34.4475 68.8953 34.3248 68.7232 34.3248C68.6085 34.3248 68.4609 34.4066 68.3872 34.8082L66.6824 46.0531C66.5922 46.6841 66.4365 47.299 66.0103 47.3808L65.5022 47.43C65.371 47.4382 65.1825 47.43 65.1825 47.594C65.1825 47.8317 65.4366 47.8317 65.535 47.8317L66.5922 47.799L67.2397 47.7742L67.7889 47.7907L69.051 47.8234C69.2724 47.8234 69.51 47.8069 69.51 47.5858C69.51 47.4792 69.4199 47.4465 69.2067 47.4217L68.4937 47.3317C68.1659 47.2581 68.0102 47.0857 68.0102 46.8234L68.0593 46.0204C68.0593 46.0204 68.8461 40.0126 68.9445 39.2424C69.0838 39.4717 69.7806 40.9552 69.7806 40.9552L70.7313 42.9959C70.9362 43.4715 72.2721 46.0696 72.7147 46.9138L72.7639 47.0122C73.0262 47.5039 73.1819 47.799 73.354 47.799C73.5426 47.799 73.6327 47.6267 74.0343 46.8072L77.7962 38.98C77.7962 39.0457 78.8208 46.5531 78.8208 46.5531C78.8455 46.7089 78.8538 46.8316 78.8538 46.93C78.8538 47.1349 78.8125 47.2333 78.7638 47.2498C78.649 47.299 78.5425 47.3643 78.5425 47.4792C78.5425 47.635 78.7225 47.6842 79.0833 47.7085C79.7635 47.7577 82.1403 47.8151 82.591 47.8151C82.9105 47.8151 83.083 47.7333 83.083 47.5775C83.083 47.4135 82.87 47.4135 82.7635 47.4135C82.5258 47.4135 82.198 47.3974 81.706 47.2415C81.1975 47.0857 81.0423 46.5696 80.8945 45.5369L79.321 34.8818C79.2633 34.4967 79.1485 34.3082 78.9685 34.3082C78.7878 34.3165 78.6895 34.4802 78.55 34.7591ZM98.6553 34.726L97.7455 34.7508L96.8687 34.7343L95.3853 34.7017C95.1805 34.7017 94.9675 34.7182 94.9675 34.8984C94.9675 35.095 95.1393 35.0785 95.3035 35.095L95.8608 35.1442C96.418 35.1934 96.541 35.5459 96.565 36.0868C96.598 36.6361 96.598 37.1113 96.598 39.742V42.7748C96.598 44.3567 96.598 45.7171 96.508 46.4382C96.4345 46.9957 96.3363 47.2907 96.0408 47.3482L95.4265 47.4135C95.2623 47.43 95.1063 47.43 95.1063 47.594C95.1063 47.8069 95.4018 47.8069 95.4918 47.8069L96.6805 47.7742L97.6637 47.7577L100.352 47.8234L102.68 47.8561C103.59 47.8561 103.696 47.766 103.811 47.3564C103.95 46.8481 104.073 45.5613 104.073 45.3646C104.073 45.2005 104.073 45.0286 103.893 45.0286C103.688 45.0286 103.671 45.217 103.655 45.3237C103.623 45.6431 103.417 46.1188 103.221 46.3316C102.819 46.7663 102.204 46.7989 101.237 46.7989C99.8598 46.7989 99.4502 46.668 99.1803 46.4299C98.836 46.1349 98.836 44.9302 98.836 42.7582V39.7258C98.836 37.0948 98.836 36.6195 98.869 36.0703C98.9013 35.4393 99.0573 35.2017 99.475 35.1277L100.139 35.0785C100.319 35.0785 100.491 35.0542 100.491 34.8818C100.491 34.7099 100.295 34.6852 100.09 34.6852L98.6553 34.726ZM109.646 46.8072C110.106 46.9957 110.498 47.0122 110.892 47.0122C111.236 47.0122 112.933 46.9056 112.933 44.8484C112.933 44.1761 112.769 42.4959 111.277 41.447C110.917 41.1846 110.523 41.078 109.868 41.0454L109.13 41.0288C109.098 41.0288 109.073 41.0371 109.073 41.1111V45.2005C109.073 46.3237 109.122 46.594 109.646 46.8072ZM109.753 35.4885L109.196 35.5211C109.105 35.5459 109.073 35.5868 109.073 35.7753V40.0371C109.073 40.1602 109.105 40.1767 109.163 40.1846L109.966 40.2337C110.474 40.2337 110.876 40.1767 111.179 39.9143C111.63 39.5453 111.867 38.9225 111.867 38.1192C111.867 37.103 111.293 35.4885 109.753 35.4885ZM110.048 34.6934C113.499 34.6934 113.761 36.7096 113.761 37.3245C113.761 38.6523 113.072 39.4882 112.04 40.3243C113.548 40.8652 115.138 42.1107 115.138 44.0616C115.138 45.9547 113.703 47.8643 110.49 47.8643L109.95 47.8399L109.277 47.8069L107.991 47.7577L107.007 47.7742L105.818 47.8069C105.72 47.8069 105.434 47.8069 105.434 47.594C105.434 47.43 105.581 47.4217 105.753 47.4135L106.368 47.3482C106.688 47.2825 106.77 46.8973 106.836 46.4382C106.917 45.7171 106.917 44.3484 106.917 42.7748V39.742C106.917 37.1113 106.917 36.6439 106.884 36.0868C106.851 35.5459 106.786 35.2017 106.171 35.1442L105.507 35.095C105.311 35.0785 105.171 35.095 105.171 34.8984C105.171 34.7182 105.392 34.7017 105.589 34.7017L107.27 34.7343L107.934 34.7508L109.179 34.7182L110.048 34.6934ZM119.367 40.7255C119.367 44.4877 121.523 47.1184 124.621 47.1184C125.809 47.1184 128.58 46.5775 128.58 41.5863C128.58 37.9225 126.522 35.3736 123.572 35.3736C121.998 35.3653 119.367 36.0621 119.367 40.7255ZM116.908 41.2586C116.908 37.9799 119.154 34.4557 124.071 34.4557C128.399 34.4557 131.079 36.9472 131.079 40.947C131.079 45.1352 128.129 48.061 123.899 48.061C119.097 48.061 116.908 44.5369 116.908 41.2586ZM143.882 34.7343L141.398 34.7017C141.201 34.7017 140.997 34.7182 140.997 34.8984C140.997 35.095 141.537 35.1033 141.939 35.1442C142.431 35.1934 142.62 35.5459 142.652 36.0868C142.686 36.6361 142.686 37.1113 142.686 39.742V41.8978C142.686 43.7418 142.611 45.2336 141.702 46.1431C140.874 46.9709 139.784 47.0614 139.349 47.0614C138.751 47.0614 137.972 46.9792 137.218 46.3646C136.529 45.7989 135.891 44.8976 135.891 42.1516V39.7342C135.891 37.103 135.89 36.6361 135.924 36.0786C135.964 35.4475 136.112 35.2099 136.529 35.136L137.021 35.0868C137.161 35.0703 137.341 35.0868 137.341 34.8901C137.341 34.7099 137.12 34.6934 136.923 34.6934L135.661 34.726L134.8 34.7508L133.883 34.726L132.284 34.6934C132.079 34.6934 131.866 34.7099 131.866 34.8901C131.866 35.0868 132.047 35.0785 132.202 35.0868C132.202 35.0868 132.358 35.095 132.866 35.136C133.374 35.1769 133.546 35.5376 133.571 36.0786C133.604 36.6278 133.604 37.103 133.604 39.7342V42.25C133.604 44.4385 134.095 45.8973 135.152 46.8481C136.481 48.0528 138.251 48.0528 139.005 48.0528C140.013 48.0528 141.324 47.9135 142.62 46.7989C144.07 45.553 144.275 43.5533 144.275 41.578V39.7342C144.275 37.103 144.275 36.6361 144.308 36.0786C144.341 35.4475 144.497 35.2099 144.915 35.136L145.406 35.0868C145.611 35.0703 145.758 35.0624 145.758 34.8901C145.758 34.7099 145.553 34.6934 145.357 34.6934L143.882 34.7343ZM151.086 41.3731C151.406 41.4797 151.889 41.5454 152.381 41.5454C153.069 41.5454 153.282 41.4714 153.578 41.2586C153.954 40.9879 154.578 40.2912 154.578 38.7093C154.578 36.2505 152.946 35.5951 151.979 35.5951C151.512 35.5951 151.233 35.6194 151.078 35.6604C150.98 35.6851 150.955 35.7343 150.955 35.8571V41.1028C150.963 41.283 150.996 41.3322 151.086 41.3731ZM152.315 34.7017C153.356 34.7017 154.545 34.7917 155.512 35.4475C155.922 35.7261 156.701 36.5869 156.701 37.8406C156.701 39.2585 156.02 40.4143 154.438 41.7091C154.479 41.7665 155.02 42.4388 155.02 42.4388C156.282 44.0286 157.282 45.2827 158.16 46.2088C159.094 47.1758 159.765 47.3151 160.044 47.3725L160.086 47.3808C160.282 47.4217 160.332 47.5283 160.332 47.6023C160.332 47.8151 160.077 47.8151 159.963 47.8151H158.782C157.839 47.8151 157.381 47.7333 156.913 47.4792C156.184 47.094 155.545 46.3155 154.537 44.9302L153.66 43.6926L152.832 42.5533C152.758 42.4632 152.675 42.4467 152.553 42.4467L151.053 42.4141C150.98 42.4141 150.955 42.4388 150.955 42.5124V42.75C150.955 44.3401 150.955 45.7171 151.037 46.4382C151.094 46.9792 151.208 47.2907 151.676 47.3482L152.512 47.4135C152.733 47.4135 152.758 47.5366 152.758 47.594C152.758 47.8069 152.463 47.8069 152.373 47.8069L150.398 47.766L149.84 47.7498L149.144 47.766L147.742 47.799C147.644 47.799 147.357 47.799 147.357 47.5858C147.357 47.4217 147.521 47.4217 147.676 47.4056L148.291 47.3399C148.619 47.2742 148.692 46.8891 148.758 46.4299C148.84 45.7088 148.84 44.3401 148.84 42.7665V39.7342C148.84 37.103 148.84 36.6278 148.808 36.0786C148.775 35.5294 148.66 35.2017 148.095 35.136L147.431 35.0868C147.324 35.0868 147.095 35.0868 147.095 34.8901C147.095 34.7099 147.315 34.6934 147.513 34.6934L149.184 34.726L149.873 34.7425L151.143 34.7182L152.315 34.7017ZM163.101 35.0293L162.946 45.2419C162.929 46.725 162.855 47.2089 162.438 47.3399C162.183 47.4135 161.979 47.4217 161.807 47.4217C161.717 47.4217 161.487 47.4217 161.487 47.6023C161.487 47.8151 161.732 47.8151 161.905 47.8151L163.347 47.7742H164.118L165.667 47.8069C165.806 47.8069 166.11 47.8069 166.11 47.594C166.11 47.4135 165.872 47.4135 165.774 47.4135C165.519 47.4135 165.298 47.3974 165.003 47.2907C164.634 47.1597 164.463 46.6023 164.429 45.4138C164.429 45.4138 164.241 38.4064 164.241 38.2506C164.339 38.3324 164.593 38.611 164.593 38.611C165.323 39.406 166.831 41.0619 168.322 42.5533L170.61 44.8402L173.412 47.6185C173.609 47.8151 173.822 48.0118 174.027 48.0118C174.264 48.0118 174.289 47.725 174.289 47.4382L174.478 36.5538C174.494 35.5868 174.527 35.2099 174.969 35.1277L175.478 35.0785C175.748 35.0624 175.83 35.0132 175.83 34.8818C175.83 34.6852 175.568 34.6852 175.388 34.6852L174.125 34.726L173.814 34.7425L173.207 34.726L171.839 34.6934C171.634 34.6934 171.347 34.6934 171.347 34.8901C171.347 35.0624 171.519 35.0868 171.666 35.0868C171.904 35.0868 172.199 35.0868 172.453 35.1851C172.814 35.341 172.994 35.6033 173.011 36.7013C173.011 36.7013 173.175 43.9959 173.183 44.455L173.142 44.4058C173.142 44.3893 171.929 43.1272 171.929 43.1272L169.371 40.4797C166.749 37.8733 164.052 34.9719 164.028 34.9475L163.864 34.7752C163.658 34.5541 163.528 34.4066 163.356 34.4066C163.126 34.4066 163.101 34.7591 163.101 35.0293ZM184.239 34.7343C184.002 34.7509 181.133 34.7508 179.937 34.7508L179.059 34.726L178.854 34.7182L177.453 34.7017C177.248 34.7017 177.027 34.7182 177.027 34.8984C177.027 35.095 177.24 35.095 177.363 35.095L178.027 35.1442C178.633 35.2178 178.707 35.5459 178.74 36.0868C178.772 36.6361 178.773 37.1113 178.773 39.742V42.7748C178.773 44.3567 178.773 45.7253 178.683 46.4464C178.617 46.9056 178.543 47.2907 178.215 47.3564L177.6 47.4217C177.412 47.4382 177.281 47.4382 177.281 47.6023C177.281 47.8151 177.567 47.8151 177.666 47.8151L178.854 47.7825L179.838 47.766L181.633 47.8151L182.132 47.8317L184.617 47.8726C185.264 47.8726 185.46 47.8726 185.591 47.389C185.681 47.0366 185.821 45.8729 185.821 45.463C185.821 45.291 185.821 45.1105 185.641 45.1105C185.477 45.1105 185.436 45.2336 185.411 45.4055C185.288 46.1188 185.083 46.4547 184.657 46.6514C184.215 46.8564 183.485 46.8564 183.051 46.8564C181.264 46.8564 181.059 46.5696 181.026 45.4464V43.4876V42.7748V41.414C181.026 41.283 181.059 41.283 181.084 41.283C181.469 41.283 183.198 41.2995 183.526 41.3322C184.076 41.3896 184.362 41.5863 184.452 41.9714L184.51 42.4306L184.518 42.5863C184.518 42.7091 184.584 42.7831 184.715 42.7831C184.911 42.7831 184.911 42.545 184.911 42.4141L184.944 41.8566L184.977 41.2586L185.091 40.1846L185.116 39.9961C185.116 39.8817 185.059 39.816 184.952 39.816C184.854 39.816 184.781 39.8978 184.665 40.0292C184.502 40.2176 184.247 40.2668 183.846 40.2994C183.592 40.3243 182.616 40.3321 181.092 40.3321C181.035 40.3321 181.018 40.316 181.018 40.1846V35.8244C181.018 35.6935 181.059 35.6935 181.092 35.6935C181.428 35.6935 183.24 35.7261 183.534 35.7587C184.403 35.8654 184.542 36.0703 184.657 36.3571C184.755 36.5869 184.755 36.9229 184.755 36.9637C184.755 37.0456 184.755 37.2505 184.952 37.2505C185.124 37.2505 185.157 37.0786 185.165 37.0294L185.231 36.2426L185.255 35.8901L185.37 34.9393L185.395 34.7674C185.411 34.6116 185.346 34.5706 185.247 34.5706C185.108 34.5624 184.559 34.726 184.239 34.7343ZM91.5085 34.7343C91.2708 34.7509 88.402 34.7508 87.2058 34.7508L86.329 34.726L86.1235 34.7182L84.7218 34.7017C84.517 34.7017 84.2957 34.7182 84.2957 34.8984C84.2957 35.095 84.5088 35.095 84.6318 35.095L85.2955 35.1442C85.9023 35.2178 85.9758 35.5459 86.0088 36.0868C86.0418 36.6361 86.0418 37.1113 86.0418 39.742V42.7748C86.0418 44.3567 86.0417 45.7253 85.9517 46.4464C85.8857 46.9056 85.8123 47.2907 85.4845 47.3564L84.8695 47.4217C84.6812 47.4382 84.55 47.4382 84.55 47.6023C84.55 47.8151 84.8365 47.8151 84.9348 47.8151L86.1235 47.7825L87.1075 47.766L88.9023 47.8151L89.4018 47.8317L91.8858 47.8726C92.533 47.8726 92.7295 47.8726 92.8608 47.389C92.9508 47.0366 93.0903 45.8729 93.0903 45.463C93.0903 45.291 93.0903 45.1105 92.9102 45.1105C92.746 45.1105 92.7048 45.2336 92.68 45.4055C92.5578 46.1188 92.3523 46.4547 91.9263 46.6514C91.4838 46.8564 90.7548 46.8564 90.3198 46.8564C88.5333 46.8564 88.3285 46.5696 88.2955 45.4464V43.4876V42.7748V41.414C88.2955 41.283 88.3285 41.283 88.3525 41.283C88.738 41.283 90.4675 41.2995 90.7952 41.3322C91.345 41.3896 91.6315 41.5863 91.7215 41.9714L91.7793 42.4306L91.7875 42.5863C91.7875 42.7091 91.8527 42.7831 91.984 42.7831C92.1805 42.7831 92.1805 42.545 92.1805 42.4141L92.2135 41.8566L92.2458 41.2586L92.3605 40.1846L92.3853 39.9961C92.3853 39.8817 92.3283 39.816 92.2218 39.816C92.1235 39.816 92.0493 39.8978 91.9345 40.0292C91.771 40.2176 91.5168 40.2668 91.1148 40.2994C90.8605 40.3243 89.8855 40.3321 88.3608 40.3321C88.3038 40.3321 88.2873 40.316 88.2873 40.1846V35.8244C88.2873 35.6935 88.3285 35.6935 88.3608 35.6935C88.6968 35.6935 90.5088 35.7261 90.8035 35.7587C91.672 35.8654 91.8115 36.0703 91.9263 36.3571C92.0245 36.5869 92.0245 36.9229 92.0245 36.9637C92.0245 37.0456 92.0245 37.2505 92.2218 37.2505C92.3935 37.2505 92.4265 37.0786 92.4348 37.0294L92.5 36.2426L92.5247 35.8901L92.6395 34.9393L92.6643 34.7674C92.68 34.6116 92.6148 34.5706 92.5165 34.5706C92.377 34.5624 91.828 34.726 91.5085 34.7343Z" fill="#010F46"/>
</g>
</g>
<defs>
<clipPath id="clip0_1_345">
<rect width="196.5" height="60" fill="white" transform="translate(0.25)"/>
</clipPath>
<clipPath id="clip1_1_345">
<rect width="196.5" height="60" fill="white" transform="translate(0.25)"/>
</clipPath>
</defs>
</svg>
