<svg width="170" height="60" viewBox="0 0 170 60" fill="none" xmlns="http://www.w3.org/2000/svg">
<g clip-path="url('#clip0_1_214')">
<g clip-path="url('#clip1_1_214')">
<path d="M26.968 40.0791C24.6347 37.1511 23.2622 34.5845 22.8047 32.3885C22.3472 30.6043 22.5302 29.186 23.308 28.1338C24.1315 26.8985 25.3667 26.3038 26.968 26.3038C28.5692 26.3038 29.8045 26.8985 30.628 28.1338C31.4057 29.186 31.5887 30.6043 31.1312 32.3885C30.628 34.6303 29.2555 37.1923 26.968 40.0791ZM43.5386 42.0464C43.2184 44.1966 41.7544 45.9809 39.7414 46.8501C35.8526 48.5429 32.005 45.8436 28.711 42.1836C34.1599 35.3623 35.1664 30.0553 32.8285 26.6195C31.456 24.6522 29.4888 23.6915 26.968 23.6915C21.8897 23.6915 19.0944 27.992 20.1924 32.9833C20.8329 35.6825 22.5256 38.7524 25.2249 42.1836C23.5321 44.0594 21.9309 45.3861 20.5126 46.2096C19.4146 46.8044 18.3624 47.1704 17.3559 47.2619C12.7351 47.9481 9.11631 43.4646 10.7633 38.8393C10.9921 38.2445 11.4496 37.1465 12.2273 35.4538L12.2731 35.3623C14.7893 29.8677 17.8591 23.6457 21.3819 16.7329L21.4734 16.5041L22.4799 14.5826C23.2576 13.1644 23.5779 12.5239 24.8131 11.7461C25.4079 11.3801 26.1399 11.1971 26.9634 11.1971C28.6104 11.1971 29.8914 12.1579 30.4404 12.9356C30.7149 13.3474 31.0351 13.8964 31.4469 14.5826L32.4076 16.4584L32.5449 16.7329C36.0676 23.6457 39.1375 29.8677 41.6537 35.3623L41.6995 35.408L42.6145 37.5125L43.1635 38.8393C43.5844 39.8961 43.6759 40.9484 43.5386 42.0464ZM45.6431 37.9243C45.3229 36.9178 44.7739 35.7283 44.0876 34.31V34.2643C40.8394 27.3515 37.8153 21.1295 34.933 15.5434L34.75 15.2689C32.6913 11.0599 31.2273 8.53906 26.968 8.53906C22.759 8.53906 20.9701 11.4671 19.1401 15.2689L19.0029 15.5434C16.1206 21.1295 13.0966 27.3515 9.84831 34.2643V34.3558L8.88756 36.4603C8.52156 37.3295 8.33856 37.787 8.29281 37.9243C5.95958 44.3339 10.7633 49.9611 16.5781 49.9611C16.6239 49.9611 16.8069 49.9611 17.0356 49.9154H17.6761C20.6956 49.5494 23.8112 47.6279 26.968 44.192C30.1247 47.6233 33.2403 49.5494 36.2598 49.9154H36.9003C37.129 49.9611 37.312 49.9611 37.3578 49.9611C43.1726 49.9657 47.9764 44.3339 45.6431 37.9243Z" fill="#FF385C"></path>
<path d="M69.7467 41.4184C68.6937 41.4347 67.6502 41.216 66.6923 40.7782C65.7344 40.3405 64.8862 39.6947 64.2092 38.8878C62.7041 37.1536 61.907 34.9163 61.9764 32.621C61.9521 30.2769 62.777 28.0033 64.2986 26.2202C65.0072 25.4006 65.8853 24.7445 66.8722 24.2973C67.859 23.8502 68.9312 23.6225 70.0147 23.63C71.0363 23.6022 72.0484 23.8333 72.9568 24.3017C73.8651 24.7703 74.6402 25.4609 75.21 26.3094L75.3435 24.1361H79.452V40.9868H75.3435L75.195 38.5306C74.6103 39.4394 73.8026 40.1834 72.8489 40.6916C71.8952 41.1997 70.8272 41.4551 69.7467 41.4333V41.4184ZM70.8185 37.3993C71.5918 37.3979 72.3494 37.1814 73.0067 36.7741C73.6319 36.3275 74.1231 35.7321 74.525 35.0324C74.8972 34.3179 75.0758 33.4694 75.0758 32.5316C75.0758 31.5938 74.8972 30.7454 74.525 30.016C74.1678 29.3015 73.6319 28.721 73.0067 28.2743C72.349 27.8686 71.5913 27.6538 70.8185 27.6538C70.0457 27.6538 69.2881 27.8686 68.6303 28.2743C68.0051 28.721 67.5139 29.3164 67.112 30.016C66.74 30.8014 66.5564 31.6628 66.5761 32.5316C66.5225 33.356 66.6836 34.1802 67.0437 34.9238C67.4037 35.6673 67.9504 36.3048 68.6303 36.7741C69.3002 37.176 70.0147 37.3993 70.8185 37.3993ZM86.478 19.5662C86.478 20.0575 86.3888 20.504 86.1803 20.8613C85.9425 21.2352 85.6118 21.5413 85.2203 21.7499C84.8295 21.9585 84.3908 22.0626 83.9475 22.0521C83.5013 22.0521 83.0543 21.9777 82.638 21.7544C82.254 21.5414 81.9315 21.234 81.6998 20.8613C81.4823 20.4653 81.3743 20.0181 81.387 19.5662C81.387 19.075 81.477 18.6284 81.6998 18.2712C81.9233 17.8693 82.236 17.6013 82.638 17.378C83.04 17.1548 83.4863 17.0654 83.9325 17.0654C84.3795 17.0654 84.8258 17.1548 85.2278 17.3632C85.6298 17.6013 85.9425 17.9139 86.166 18.2563C86.3445 18.6284 86.478 19.0304 86.478 19.5662ZM81.6998 40.9272V24.0766H86.166V40.9272H81.6998ZM98.0888 28.4976V28.5423C97.866 28.453 97.5975 28.4084 97.3747 28.3637C97.1063 28.319 96.8835 28.319 96.6158 28.319C95.3648 28.319 94.4273 28.6763 93.7868 29.4354C93.132 30.1946 92.8193 31.2812 92.8193 32.6657V40.9272H88.3538V24.0766H92.4623L92.5965 26.622C93.0428 25.7289 93.579 25.0591 94.338 24.5678C95.0925 24.0729 95.9813 23.8234 96.8835 23.8533C97.1963 23.8533 97.5083 23.8979 97.7768 23.9426C97.9253 23.9873 97.9995 23.9873 98.0888 24.032V28.4976ZM99.8753 40.9272V17.1548H104.341V26.235C104.981 25.4163 105.681 24.7911 106.574 24.2999C107.998 23.6061 109.613 23.4095 111.162 23.7414C112.711 24.0733 114.104 24.9145 115.118 26.1308C116.621 27.8606 117.419 30.0924 117.351 32.3828C117.376 34.7268 116.551 37.0005 115.029 38.7836C114.314 39.5875 113.466 40.2722 112.499 40.7188C111.501 41.1653 110.474 41.3738 109.313 41.3738C108.291 41.4016 107.279 41.1705 106.371 40.7021C105.463 40.2335 104.687 39.5429 104.118 38.6943L103.984 40.8825L99.8753 40.9272ZM108.509 37.3993C109.283 37.3979 110.04 37.1814 110.697 36.7741C111.323 36.3275 111.814 35.7321 112.216 35.0324C112.573 34.3179 112.751 33.4694 112.751 32.5316C112.751 31.5938 112.573 30.7454 112.216 30.016C111.814 29.3015 111.323 28.721 110.697 28.2743C110.039 27.8686 109.282 27.6538 108.509 27.6538C107.736 27.6538 106.979 27.8686 106.321 28.2743C105.696 28.721 105.205 29.3164 104.803 30.016C104.426 30.8002 104.237 31.6616 104.252 32.5316C104.252 33.4694 104.445 34.3179 104.803 35.0324C105.16 35.747 105.696 36.3275 106.321 36.7741C106.991 37.176 107.705 37.3993 108.509 37.3993ZM119.048 40.9272V24.0766H123.172L123.305 26.2648C123.822 25.4237 124.554 24.736 125.425 24.2727C126.297 23.8095 127.277 23.5876 128.262 23.63C129.394 23.5892 130.511 23.8916 131.467 24.4973C132.424 25.103 133.175 25.9838 133.622 27.0239C134.127 28.0958 134.396 29.4056 134.396 30.8794V40.9718H129.929V31.445C129.929 30.2839 129.646 29.361 129.111 28.6763C128.575 28.0064 127.861 27.6491 126.923 27.6491C126.253 27.6491 125.672 27.798 125.136 28.0958C124.645 28.4084 124.244 28.8102 123.931 29.3908C123.618 29.9267 123.484 30.6114 123.484 31.2812V40.9272H119.048ZM136.613 40.9272V17.1548H141.094V26.235C141.719 25.4163 142.433 24.7911 143.327 24.2999C144.751 23.6061 146.366 23.4095 147.915 23.7414C149.464 24.0733 150.856 24.9145 151.871 26.1308C153.374 27.8606 154.171 30.0924 154.104 32.3828C154.128 34.7268 153.303 37.0005 151.782 38.7836C151.073 39.6032 150.195 40.2593 149.208 40.7065C148.221 41.1536 147.149 41.3813 146.066 41.3738C145.044 41.4016 144.032 41.1705 143.123 40.7021C142.215 40.2335 141.44 39.5429 140.87 38.6943L140.722 40.8825L136.628 40.9272H136.613ZM145.292 37.3993C146.065 37.3979 146.822 37.1814 147.48 36.7741C148.105 36.3275 148.596 35.7321 148.998 35.0324C149.37 34.3179 149.549 33.4694 149.549 32.5316C149.549 31.5938 149.37 30.7454 148.998 30.016C148.641 29.3015 148.105 28.721 147.48 28.2743C146.822 27.8686 146.065 27.6538 145.292 27.6538C144.519 27.6538 143.761 27.8686 143.103 28.2743C142.478 28.721 141.987 29.3164 141.585 30.016C141.191 30.794 141.007 31.6608 141.049 32.5316C140.995 33.356 141.157 34.1802 141.517 34.9238C141.877 35.6673 142.424 36.3048 143.103 36.7741C143.774 37.176 144.443 37.3993 145.292 37.3993Z" fill="#FF385C"></path>
</g>
</g>
<defs>
<clipPath id="clip0_1_214">
<rect width="169.5" height="60" fill="white"></rect>
</clipPath>
<clipPath id="clip1_1_214">
<rect width="169.5" height="60" fill="white"></rect>
</clipPath>
</defs>
</svg>
