<svg width="173" height="60" viewBox="0 0 173 60" fill="none" xmlns="http://www.w3.org/2000/svg">
<g clip-path="url('#clip0_1_276')">
<g clip-path="url('#clip1_1_276')">
<path fill-rule="evenodd" clip-rule="evenodd" d="M103.945 49.0115C95.2438 55.4455 82.5875 58.8734 71.671 58.8734C56.3776 58.8734 42.6663 53.2305 32.2246 43.8432C31.4335 43.1049 32.119 42.1029 33.121 42.683C44.3538 49.2224 58.2233 53.125 72.5675 53.125C82.2185 53.125 92.8708 51.121 102.68 46.9547C104.156 46.3746 105.37 47.9567 103.945 49.0115Z" fill="#FF9900"></path>
<path fill-rule="evenodd" clip-rule="evenodd" d="M107.584 44.8456C106.477 43.4217 100.201 44.1601 97.406 44.5292C96.5623 44.6347 96.404 43.8964 97.1953 43.369C102.205 39.8356 110.38 40.8903 111.328 42.0506C112.278 43.2107 111.065 51.4378 106.372 55.3404C105.633 55.9205 104.947 55.604 105.264 54.813C106.318 52.1761 108.692 46.3223 107.584 44.8456Z" fill="#FF9900"></path>
<path fill-rule="evenodd" clip-rule="evenodd" d="M97.5642 18.5833V15.1553C97.5642 14.628 97.9332 14.3116 98.408 14.3116H113.701C114.176 14.3116 114.598 14.6807 114.598 15.1553V18.0559C114.598 18.5305 114.176 19.1634 113.438 20.2181L105.528 31.504C108.48 31.4512 111.592 31.8731 114.229 33.3497C114.809 33.6661 114.967 34.1935 115.02 34.6682V38.3071C115.02 38.8344 114.492 39.4145 113.913 39.0981C109.219 36.6195 102.943 36.3558 97.775 39.1509C97.2477 39.4145 96.668 38.8872 96.668 38.3598V34.8791C96.668 34.3517 96.668 33.4025 97.2477 32.5587L106.424 19.4271H98.4612C97.9865 19.4271 97.5642 19.0579 97.5642 18.5833ZM41.8225 39.8365H37.1817C36.7599 39.7837 36.3907 39.4672 36.338 39.0454V15.2081C36.338 14.7334 36.7599 14.3643 37.2345 14.3643H41.5588C42.0335 14.3643 42.3498 14.7334 42.4026 15.1553V18.2668H42.5081C43.6155 15.2608 45.7777 13.8369 48.6255 13.8369C51.5259 13.8369 53.3717 15.2608 54.6373 18.2668C55.7448 15.2608 58.3289 13.8369 61.0711 13.8369C63.0224 13.8369 65.1318 14.628 66.4502 16.4738C67.9268 18.4778 67.6104 21.3784 67.6104 23.9625V39.0454C67.6104 39.52 67.1885 39.8892 66.7139 39.8892H62.1258C61.6512 39.8365 61.2821 39.4672 61.2821 39.0454V26.3884C61.2821 25.3864 61.3875 22.855 61.1766 21.9057C60.8075 20.3236 59.8055 19.849 58.4343 19.849C57.3269 19.849 56.1139 20.5873 55.6393 21.8002C55.1647 23.0132 55.2174 25.0172 55.2174 26.3884V39.0454C55.2174 39.52 54.7956 39.8892 54.3209 39.8892H49.6802C49.2055 39.8365 48.8364 39.4672 48.8364 39.0454V26.3884C48.8364 23.7515 49.2582 19.7962 45.9886 19.7962C42.6663 19.7962 42.7718 23.5933 42.7718 26.3884V39.0454C42.719 39.4672 42.3498 39.8365 41.8225 39.8365ZM127.782 13.8369C134.691 13.8369 138.435 19.7435 138.435 27.2849C138.435 34.5627 134.321 40.3638 127.782 40.3638C121.032 40.3638 117.34 34.4572 117.34 27.074C117.288 19.6381 121.032 13.8369 127.782 13.8369ZM127.782 18.7415C124.354 18.7415 124.143 23.4351 124.143 26.3357C124.143 29.2363 124.09 35.4592 127.729 35.4592C131.316 35.4592 131.526 30.4492 131.526 27.3904C131.526 25.3864 131.421 22.9605 130.841 21.0619C130.314 19.3744 129.258 18.7415 127.782 18.7415ZM147.347 39.8365H142.706C142.232 39.7837 141.862 39.4145 141.862 38.9926V15.1026C141.915 14.6807 142.284 14.3116 142.759 14.3116H147.084C147.505 14.3116 147.822 14.628 147.927 14.9971V18.636H148.033C149.351 15.3663 151.144 13.8369 154.361 13.8369C156.417 13.8369 158.475 14.5753 159.792 16.632C161.006 18.5305 161.006 21.7475 161.006 24.0679V39.0981C160.953 39.52 160.584 39.8365 160.109 39.8365H155.469C155.046 39.7837 154.677 39.4672 154.625 39.0981V26.1247C154.625 23.4878 154.941 19.6908 151.724 19.6908C150.617 19.6908 149.562 20.4291 149.034 21.5893C148.401 23.0659 148.296 24.4899 148.296 26.1247V38.9926C148.244 39.4673 147.822 39.8365 147.347 39.8365ZM85.3827 28.4452C85.3827 30.2383 85.4352 31.7676 84.539 33.4025C83.8002 34.7209 82.64 35.512 81.3215 35.512C79.529 35.512 78.4737 34.1408 78.4737 32.1368C78.4737 28.1815 82.007 27.4432 85.3827 27.4432V28.4452ZM90.0762 39.7837C89.7597 40.0473 89.3375 40.1001 88.9685 39.8892C87.4392 38.6235 87.1227 37.9906 86.279 36.7777C83.7477 39.3618 81.902 40.1529 78.632 40.1529C74.7297 40.1529 71.6711 37.7269 71.6711 32.9278C71.6711 29.1307 73.7277 26.5993 76.628 25.3336C79.1592 24.2262 82.6932 24.0152 85.3827 23.6988V23.1187C85.3827 22.0112 85.4877 20.6928 84.8022 19.7435C84.2225 18.8997 83.1672 18.5305 82.2185 18.5305C80.4252 18.5305 78.8435 19.4271 78.4737 21.3256C78.3687 21.7475 78.1047 22.1694 77.6832 22.1694L73.2004 21.6948C72.8313 21.5893 72.4094 21.3256 72.5148 20.7455C73.5696 15.2608 78.4737 13.626 82.904 13.626C85.1712 13.626 88.1247 14.206 89.918 15.9464C92.1852 18.0559 91.9745 20.9038 91.9745 23.9625V31.1875C91.9745 33.3497 92.8707 34.299 93.7145 35.512C94.031 35.9339 94.0835 36.4612 93.7145 36.7249C92.7125 37.516 91.025 38.9926 90.0762 39.7837ZM24.4724 28.4452C24.4724 30.2383 24.5251 31.7676 23.6286 33.4025C22.8903 34.7209 21.7301 35.512 20.4117 35.512C18.6187 35.512 17.564 34.1408 17.564 32.1368C17.564 28.1815 21.0973 27.4432 24.4724 27.4432V28.4452ZM29.1132 39.7837C28.7967 40.0473 28.3749 40.1001 28.0057 39.8892C26.4763 38.6235 26.16 37.9906 25.3161 36.7777C22.7848 39.3618 20.9391 40.1529 17.6694 40.1529C13.767 40.1529 10.7083 37.7269 10.7083 32.9278C10.7083 29.1307 12.765 26.5993 15.6655 25.3336C18.1968 24.2262 21.7301 24.0152 24.4197 23.6988V23.1187C24.4197 22.0112 24.5251 20.6928 23.8395 19.7435C23.2595 18.8997 22.2048 18.5305 21.2555 18.5305C19.4625 18.5305 17.8804 19.4271 17.5113 21.3256C17.4057 21.7475 17.1421 22.1694 16.7202 22.1694L12.2376 21.6948C11.8685 21.5893 11.4466 21.3256 11.5521 20.7455C12.6068 15.2608 17.5113 13.626 21.9411 13.626C24.2087 13.626 27.1619 14.206 28.9549 15.9464C31.2226 18.0559 31.0116 20.9038 31.0116 23.9625V31.1875C31.0116 33.3497 31.9082 34.299 32.7519 35.512C33.0684 35.9339 33.1211 36.4612 32.7519 36.7249C31.7499 37.516 30.0624 38.9926 29.1132 39.7837Z" fill="black"></path>
</g>
</g>
<defs>
<clipPath id="clip0_1_276">
<rect width="171.75" height="60" fill="white" transform="translate(0.5)"></rect>
</clipPath>
<clipPath id="clip1_1_276">
<rect width="171.75" height="60" fill="white" transform="translate(0.5)"></rect>
</clipPath>
</defs>
</svg>
