<svg width="225" height="60" viewBox="0 0 225 60" fill="none" xmlns="http://www.w3.org/2000/svg">
<g clip-path="url('#clip0_1_295')">
<g clip-path="url('#clip1_1_295')">
<path d="M192.052 46.2387H197.9V33.8216C197.9 30.8617 199.271 27.1076 203.603 27.1076C206.563 27.1076 207.935 28.5515 207.935 31.8724V46.1665H213.782V30.212C213.782 23.2093 209.09 21.4766 204.974 21.4766C201.654 21.4766 199.343 22.7761 198.044 24.4365H197.972V11.2253H192.124V46.2387H192.052ZM190.247 28.3349C188.732 24.7253 185.916 21.4766 179.996 21.4766C172.199 21.4766 167.651 26.8911 167.651 34.1103C167.651 41.3296 172.199 46.744 179.563 46.744C186.132 46.744 188.876 42.8456 190.536 39.3082L185.555 36.7093C184.616 38.8751 183.173 41.4018 179.708 41.4018C175.664 41.4018 173.788 37.8644 173.788 34.1103C173.788 30.3563 175.881 26.8189 180.068 26.8189C182.378 26.8189 184.4 28.3349 185.194 30.7173C185.122 30.7173 190.247 28.3349 190.247 28.3349ZM147.798 31.0061C148.448 28.4071 150.686 26.2413 154.079 26.2413C157.977 26.2413 159.566 29.7066 159.566 31.0061H147.798ZM165.702 35.5542C165.702 26.8911 162.164 21.5489 154.079 21.5489C146.21 21.5489 141.734 26.9633 141.734 34.1825C141.734 41.4018 146.282 46.8162 154.079 46.8162C160.649 46.8162 164.186 43.6397 165.991 40.8965L161.081 38.0087C160.504 38.8028 158.699 41.474 154.079 41.474C150.902 41.474 147.943 39.1638 147.798 35.5542H165.702ZM130.4 16.7841V40.6799C130.4 44.3617 131.988 46.5275 136.825 46.5275C138.63 46.5275 140.074 46.2387 141.446 45.9499V41.1852C140.579 41.2574 139.712 41.474 138.846 41.474C136.608 41.474 136.247 40.3911 136.247 38.5141V26.2413H141.446V22.0542H136.247V10.9365C136.175 10.9365 130.4 16.7841 130.4 16.7841ZM120.654 46.2387H126.501V11.2253H120.654V46.2387ZM110.619 37.5755C110.619 40.6799 107.154 42.0515 104.411 42.0515C102.317 42.0515 100.657 40.8242 100.657 39.0194C100.657 36.7093 102.461 36.1317 104.699 35.6986L107.876 35.0489C108.959 34.8323 109.897 34.5435 110.619 34.1825C110.619 34.1103 110.619 37.5755 110.619 37.5755ZM116.467 29.4178C116.467 22.5596 111.269 21.4766 106.071 21.4766C100.801 21.4766 95.7473 23.6424 95.7473 29.3456L101.595 29.5622C101.595 26.9633 102.678 25.9526 106.071 25.9526C108.598 25.9526 110.691 26.6023 110.691 28.9847V29.7066C109.175 30.212 106.504 30.7173 104.411 31.1504L101.956 31.6558C98.346 32.3777 94.5923 34.4713 94.5923 39.236C94.5923 43.9285 98.202 46.8162 102.822 46.8162C105.854 46.8162 108.453 45.8777 110.691 44.0729C110.691 44.7227 110.908 45.6611 111.269 46.2387H117.405C117.044 45.7334 116.467 44.6504 116.467 42.1959C116.467 42.1237 116.467 29.4178 116.467 29.4178ZM93.654 22.0542C92.0655 14.9071 86.7953 11.3697 80.0093 11.3697C69.8302 11.3697 63.9104 19.5996 63.9104 29.2013C63.9104 38.8028 69.1083 47.0328 80.0093 47.0328C86.7953 47.0328 91.3433 43.712 94.0148 36.9258L88.167 34.2547C86.94 38.2253 84.4133 41.113 79.9373 41.113C73.151 41.113 70.3355 35.121 70.3355 29.2013C70.3355 23.2814 73.151 17.2895 79.9373 17.2895C83.8358 17.2895 86.94 19.8884 87.4455 23.6424L93.654 22.0542Z" fill="#F37421"></path>
<path d="M29.8354 56.7793C44.787 56.7793 56.9076 44.691 56.9076 29.7793C56.9076 14.8676 44.787 2.7793 29.8354 2.7793C14.8839 2.7793 2.76324 14.8676 2.76324 29.7793C2.76324 44.691 14.8839 56.7793 29.8354 56.7793Z" fill="white"></path>
<path d="M54.6697 30.429L51.4932 30.5734C51.6376 30.1403 51.7819 29.9958 52.0707 29.7071L54.4531 27.6857L52.2873 27.7579C51.9986 27.7579 51.7098 27.7579 51.5653 28.1189L51.4932 27.1082C51.7098 27.3969 51.9263 27.3969 52.2151 27.3969L54.4531 27.3248C54.7418 27.3248 55.0306 27.3247 55.175 27.036V27.8301C55.1028 27.8301 55.1028 27.9023 55.0306 27.9023L54.8862 27.9745L52.3595 30.1403L54.5253 30.0681C54.814 30.0681 55.1028 30.0681 55.2472 29.7793L55.3194 30.79C55.2472 30.429 55.0306 30.429 54.6697 30.429ZM55.175 33.9665C54.9584 35.1216 53.9477 35.8434 52.937 35.6991C51.782 35.5547 51.1322 34.4718 51.2766 33.3168C51.421 32.2338 52.3595 31.3675 53.5146 31.5841C54.5975 31.7285 55.3915 32.7392 55.175 33.9665ZM54.0199 38.0814C54.0199 37.7927 53.5867 37.6483 53.3702 37.5761L51.0601 36.782L50.7712 37.5039C50.6269 37.8648 50.6269 38.2258 50.7712 38.5868L50.1215 38.0814L50.9156 35.9157C50.9156 36.2044 51.3488 36.3488 51.5653 36.421L53.5867 37.143C53.8033 37.2151 54.2365 37.4317 54.3809 37.143L54.0199 38.0814ZM52.2151 42.413C51.6376 43.4237 50.4103 43.7124 49.544 43.2071C48.5333 42.6296 48.2445 41.4023 48.8221 40.3916C49.3996 39.3809 50.5547 39.0199 51.5653 39.5253C52.5039 40.1028 52.7926 41.4023 52.2151 42.413ZM48.9664 46.8889C48.7498 47.1055 48.5333 47.3221 48.3167 47.4665L47.8114 47.0333C48.1723 47.0333 48.5333 46.7445 48.7498 46.4558C49.3274 45.8061 49.3274 44.8675 48.6055 44.29C47.8836 43.7124 46.945 43.7847 46.3675 44.5065C46.2232 44.7231 46.0787 44.9397 45.9343 45.1563L46.5841 45.6617C46.8007 45.8061 47.0173 46.0226 47.2338 45.8782L46.6563 46.5279C46.6563 46.4558 46.5841 46.3836 46.5119 46.3836L45.5012 45.5172C45.429 45.4451 45.3568 45.3729 45.2846 45.3729C45.5012 44.9397 45.7178 44.5788 46.0066 44.2178C46.945 43.1349 48.1001 42.9906 48.9664 43.7124C49.9049 44.5788 49.9049 45.8061 48.9664 46.8889ZM47.1616 48.6216C47.0173 48.7659 46.8729 48.8381 46.7284 48.7659L45.1402 48.2606L45.2846 49.4879C45.2846 49.6323 45.3568 49.921 45.7178 49.8488L44.9236 50.4985L44.6349 48.044L44.0574 47.3221C43.8408 47.0333 43.6964 46.9611 43.4076 46.9611L44.2739 46.2392C44.1295 46.5279 44.4183 46.8168 44.5627 46.9611L45.068 47.6109L46.7284 48.1884C47.0173 48.2606 47.2338 48.3327 47.5226 48.2606L47.1616 48.6216ZM42.9022 12.3809C43.1911 12.4531 43.4076 12.1643 43.6242 11.9478L44.9959 10.2873C45.1402 10.0707 45.429 9.78199 45.2846 9.49324L46.6563 10.6483C46.7284 10.7205 46.8007 10.7927 46.8729 10.7927L46.4397 11.298C46.4397 11.0092 46.2953 10.8648 46.0787 10.7205C45.9343 10.5761 45.79 10.5039 45.5734 10.3595L44.9236 11.1537L45.429 11.5868C45.5012 11.659 45.5734 11.7312 45.6456 11.7312L45.2846 12.1643C45.3568 11.9478 45.1402 11.8034 44.9959 11.7312L44.7071 11.4424L44.0574 12.2365C43.9129 12.4531 43.6242 12.7419 43.7686 12.9585L42.9022 12.3809ZM40.6643 11.0814C39.7258 10.5039 39.2926 9.34879 39.8702 8.33809C40.3756 7.39962 41.675 7.11085 42.6857 7.68836C43.6964 8.26594 43.9852 9.49316 43.4798 10.3595C42.9022 11.4424 41.675 11.659 40.6643 11.0814ZM48.4611 12.3087C48.4611 12.3809 48.5333 12.4531 48.6055 12.5253L48.6777 12.5975L50.0494 14.1857C50.1215 14.2579 50.1937 14.3301 50.2659 14.3301L49.6162 14.6189C49.6884 14.4023 49.6162 14.2579 49.4718 14.1135L49.1108 13.7526L47.1616 15.413C46.945 15.6296 46.7284 15.774 46.8007 16.1349L46.0787 15.2686C46.3675 15.413 46.6563 15.1242 46.8007 14.9799L48.7498 13.3194L48.4611 12.9585C48.3167 12.7419 48.1001 12.5975 47.8836 12.5975L48.4611 12.3087ZM50.6269 15.1242L51.6376 16.6403C51.7098 16.7124 51.7098 16.7847 51.782 16.8568L51.2766 17.2178C51.3488 16.929 51.2766 16.7847 51.1322 16.5681C51.06 16.4237 50.9156 16.2071 50.7712 16.1349L49.9049 16.7124L50.2659 17.29C50.3381 17.3622 50.3381 17.4344 50.4103 17.5065L49.9049 17.8675C49.9771 17.7231 49.8328 17.5065 49.7605 17.3622L49.544 17.0012L48.3889 17.7231L48.7498 18.3729C48.8942 18.7338 49.2552 18.9504 49.6162 19.0948L48.8221 19.3114L47.5226 17.0734C47.7391 17.29 48.1001 17.0012 48.3167 16.8568L50.1215 15.7017C50.3381 15.5574 50.6991 15.413 50.6269 15.1242ZM53.4424 19.8889C53.5868 20.1777 53.659 20.5386 53.7311 20.8996L53.1536 21.1884C53.2258 20.8274 53.1536 20.4665 53.0093 20.1055C52.7205 19.3836 51.9263 19.0948 51.2044 19.4558C50.4103 19.8168 49.9771 20.6109 50.3381 21.405C50.4825 21.7659 50.8435 22.1269 51.1322 22.3434H50.4103C50.1937 22.1269 50.0494 21.9103 49.9049 21.6216C49.3274 20.3943 49.6884 19.3114 50.8435 18.8782C51.9263 18.3729 53.0093 18.8782 53.4424 19.8889ZM54.2365 22.1269L54.5253 23.1376C54.3809 22.921 53.9477 22.9932 53.7311 23.0654L53.0814 23.2098L53.5867 25.2312L54.2365 25.0868C54.5253 25.0146 54.8863 24.9424 54.9584 24.6537L55.2472 25.7365C55.1028 25.4478 54.6697 25.5921 54.4531 25.6643L52.3595 26.1696C52.1429 26.2419 51.7098 26.3141 51.6376 26.6028L51.3488 25.5199C51.4932 25.8087 51.9263 25.6643 52.1429 25.5921L53.1536 25.3755L52.576 23.3541L51.5653 23.5707C51.3488 23.643 50.9156 23.7151 50.8435 24.0039L50.6269 22.9932C50.7712 23.2098 51.2044 23.1376 51.421 23.0654L53.5146 22.56C53.8033 22.4879 54.1643 22.4157 54.2365 22.1269ZM37.8488 6.31673C37.7044 6.10015 37.4878 5.95576 37.2712 5.88358C37.0547 5.81138 36.9103 5.81138 36.6937 5.73919L36.4049 6.74989L37.0547 6.96646C37.1269 6.96646 37.1991 7.03865 37.2712 7.03865L37.1269 7.61621C37.0547 7.39962 36.8381 7.39962 36.6937 7.32742L36.2605 7.18304L35.8996 8.48254L36.5494 8.77129C36.9103 8.91566 37.2712 8.91566 37.6322 8.77129L37.1991 9.42101L34.9611 8.77129C35.2498 8.77129 35.3221 8.33809 35.3942 8.12156L35.9718 6.10015C36.044 5.88358 36.1884 5.45042 35.9718 5.30603L37.7044 5.667C37.7766 5.667 37.921 5.73919 37.9932 5.73919L37.8488 6.31673ZM33.6616 25.3755C32.5787 26.3141 31.1349 26.9638 29.9798 27.8301C29.8354 27.4692 29.8354 26.675 29.9076 26.3141C30.3408 22.8488 32.6509 20.3221 32.5787 16.5681C32.6509 15.052 32.29 13.6082 31.6402 12.3809C31.7846 12.3087 31.7846 12.4531 31.8568 12.4531C33.0841 14.4023 34.4557 16.3515 35.1055 18.5172C35.8996 20.8274 35.5387 23.643 33.6616 25.3755ZM30.4852 8.12156V7.76059C30.2686 8.12156 29.7632 8.26594 29.4022 8.26594C29.0413 8.26594 28.6081 8.19371 28.3915 7.90496C28.0306 7.54399 28.0306 7.18304 28.0306 6.74989V5.23384C28.0306 4.94507 28.0306 4.58411 27.7418 4.43972H28.8247C28.536 4.58411 28.6081 4.94507 28.6081 5.23384V6.74989C28.6081 7.47181 28.9691 7.83274 29.5467 7.83274C29.8354 7.83274 30.1964 7.68836 30.3408 7.39962C30.4852 7.25523 30.4852 7.11085 30.4852 6.89427V5.16165C30.4852 4.87288 30.4852 4.51192 30.1964 4.36753H31.2793C30.9905 4.51192 31.0627 4.87288 31.0627 5.16165V7.32742C31.0627 7.61621 31.0627 7.97719 31.3515 8.12156H30.4852ZM26.659 5.23384C26.5146 5.08945 26.298 5.08945 26.1536 5.08945L25.6483 5.16165L26.0814 7.68836C26.1536 7.97719 26.1536 8.19371 26.5146 8.33809L25.4317 8.55469C25.7205 8.41031 25.576 7.97719 25.5039 7.76059L25.0707 5.30603L24.5653 5.37823C24.3488 5.45042 24.06 5.52261 23.9156 5.73919L23.9878 5.01727C24.06 5.01727 24.1322 5.01727 24.2044 5.01727H24.3488L26.4424 4.6563C26.5146 4.6563 26.659 4.58411 26.659 4.58411V5.23384ZM23.1215 9.27664C23.3381 9.06004 23.1937 8.69906 23.1215 8.41031L22.4718 6.38892C22.3996 6.17234 22.3274 5.73919 22.0387 5.73919L23.0494 5.45042C22.8328 5.667 22.9771 6.02796 23.0494 6.24454L23.6991 8.26594C23.7712 8.48254 23.8435 8.91566 24.1322 8.91566L23.1215 9.27664ZM20.9557 10.0707C21.1723 9.85414 20.9557 9.49316 20.8836 9.27664L19.8729 6.96646L19.4397 7.11085C19.2232 7.18304 19.0066 7.32742 18.9343 7.61621L18.8622 6.89427C18.9343 6.89427 19.0066 6.89427 19.0787 6.82207L19.2231 6.74989L21.1723 5.95576C21.2445 5.88358 21.3167 5.88358 21.3889 5.81138L21.4611 6.53331C21.3167 6.38892 21.1001 6.46111 20.9557 6.53331L20.5226 6.74989L21.5333 9.13226C21.6777 9.42101 21.7498 9.63761 22.1108 9.70976L20.9557 10.0707ZM20.4504 30.7178C20.2338 30.79 20.2338 31.0788 20.2338 31.2954V32.8114C20.2338 33.0279 20.2338 33.3168 20.4504 33.3889H19.5841C19.8007 33.3168 19.8007 33.0279 19.8007 32.8114V31.2954C19.8007 31.0788 19.8007 30.79 19.5841 30.7178H20.4504ZM18.5012 11.5146C18.2125 11.659 17.8515 11.8034 17.5627 11.8755L17.0573 11.3702C17.4905 11.4424 17.9959 11.3702 18.3568 11.1537C18.6456 11.0092 18.9343 10.5761 18.7178 10.2151C18.2846 9.49324 16.6964 10.5761 16.0467 9.56539C15.6857 8.98789 16.1911 8.33809 16.7686 7.97719C16.9852 7.83274 17.2739 7.68836 17.5627 7.61621L17.9236 8.19371C17.6349 8.12156 17.2739 8.19371 16.9852 8.33809C16.6964 8.48254 16.4076 8.84344 16.6242 9.13226C17.0574 9.78199 18.7178 8.77129 19.2231 9.63761C19.5119 10.2873 19.2231 11.0814 18.5012 11.5146ZM18.2125 32.9558C17.7793 33.2445 17.3461 33.3889 16.8408 33.4611L17.0573 33.2445C17.7793 33.1002 18.429 32.5226 18.429 31.8729C18.429 31.4397 18.2125 31.0065 17.6349 31.0065C17.2739 31.0065 16.9852 31.2954 16.9852 31.5841C16.9852 31.9451 17.2739 32.2338 17.6349 32.2338C17.7793 32.2338 17.9959 32.1616 18.1402 32.0895L17.8515 32.3782C17.7071 32.4504 17.6349 32.4504 17.4905 32.4504C16.9852 32.4504 16.552 32.0895 16.552 31.5841C16.552 31.0065 17.0574 30.5734 17.7071 30.5734C18.429 30.5734 18.8622 31.0788 18.8622 31.6563C18.8622 32.2338 18.5734 32.667 18.2125 32.9558ZM15.9745 12.5975L12.8702 12.0199L14.314 13.6803C14.5306 13.8969 14.675 14.1135 15.036 14.0413L14.314 14.691C14.4584 14.3301 14.2418 14.1857 14.0974 13.9692L12.5814 12.2365C12.3649 12.0199 12.2205 11.8034 11.8595 11.8755L12.5092 11.298C12.5814 11.3702 12.5814 11.3702 12.6536 11.3702H12.798L16.0467 11.9478L14.6028 10.3595C14.3863 10.143 14.2418 9.92636 13.8809 9.99851L14.6028 9.34879C14.4584 9.63761 14.675 9.85414 14.8194 10.0707L16.9129 12.4531C16.6242 12.7419 16.4076 12.6696 15.9745 12.5975ZM15.7579 48.7659C14.9638 49.7044 13.8809 49.7044 12.9424 48.9825C12.6536 48.7659 12.437 48.4772 12.2205 48.1884L12.6536 47.683C12.7258 48.044 12.9424 48.3327 13.2311 48.6216C13.8087 49.1269 14.6028 49.0547 15.1081 48.405C15.6857 47.7552 15.6857 46.8168 15.036 46.2392C14.7472 45.9504 14.314 45.8061 13.8809 45.7338L14.5306 45.4451C14.8194 45.5172 15.036 45.6616 15.3247 45.8782C16.4076 46.7445 16.552 47.8996 15.7579 48.7659ZM10.4156 46.167L9.83812 45.4451L11.3542 42.7017C11.4985 42.413 11.7151 42.1242 11.6429 41.7633L12.3649 42.7017C12.076 42.5574 12.076 42.6296 11.8595 42.9906L11.4263 43.7124L12.2926 44.7954L13.0867 44.5065C13.3756 44.4344 13.5921 44.3622 13.4477 44.0734L14.0974 44.8675C13.7365 44.7231 13.4477 44.8675 13.159 44.9397L10.7044 45.6617C10.56 45.8061 10.2712 45.8782 10.4156 46.167ZM8.32207 43.2793L7.81672 42.3408C8.03332 42.5574 8.39422 42.2686 8.61082 42.1964L10.7766 40.9692L10.4156 40.2472C10.2712 39.8862 9.9825 39.6696 9.62152 39.5253L10.4156 39.3809L11.5707 41.4023C11.3542 41.1857 10.9932 41.4023 10.7766 41.5467L8.89957 42.5574C8.61082 42.8461 8.24985 42.9906 8.32207 43.2793ZM6.80602 40.3916L6.37287 39.3809C6.58944 39.5975 6.9504 39.3809 7.16698 39.3087L9.11617 38.4424C9.33277 38.3702 9.7659 38.2258 9.7659 37.9371L10.1991 38.9478C9.9825 38.7312 9.62152 38.9478 9.40492 39.0199L7.45576 39.8862C7.16698 39.9585 6.73383 40.1028 6.80602 40.3916ZM5.79533 38.0092L5.28998 36.2766C5.28998 36.2044 5.21778 36.06 5.21778 36.06L5.86752 35.8434C5.72313 36.06 5.79533 36.2766 5.86752 36.5654C5.93971 36.782 6.01191 36.9264 6.08409 37.143L7.09479 36.8541L6.87822 36.2044C6.87822 36.1323 6.80602 36.06 6.80602 35.9879L7.38356 35.8434C7.23918 35.9879 7.31137 36.2044 7.38356 36.3488V36.7098L8.39422 36.421C8.61082 36.3488 9.04402 36.2766 9.04402 35.9879L9.33277 36.9985C9.1884 36.782 8.7552 36.9264 8.53867 36.9985L6.51725 37.5761C6.22848 37.6483 5.86752 37.7205 5.79533 38.0092ZM6.22848 30.9344C7.38356 30.79 8.32207 31.6563 8.46645 32.7392C8.61082 33.8221 7.9611 34.905 6.80602 35.0493C5.72313 35.1937 4.71244 34.3996 4.56805 33.1723C4.42367 32.0172 5.21778 31.0788 6.22848 30.9344ZM4.49586 29.9958L4.56805 28.6242C4.56805 27.8301 5.00121 27.4692 5.50656 27.4692C6.01191 27.4692 6.37287 27.9745 6.44506 28.4076L7.52797 27.6135C7.81672 27.3969 8.10547 27.036 8.32207 26.7472C8.24985 26.4585 8.03332 26.3862 7.67235 26.3141L5.50656 25.8809C5.21778 25.8087 5.00121 25.7365 4.71244 26.0253L4.92902 25.2312C5.00121 25.2312 5.00121 25.2312 5.0734 25.159H5.21778L8.24985 23.7151L6.15629 23.2098C5.86752 23.1376 5.65094 23.0654 5.36217 23.3541L5.57875 22.4157C5.65094 22.7044 5.86752 22.7766 6.22848 22.8488L9.33277 23.5707C9.11617 23.9317 8.89957 24.0761 8.53867 24.2205L5.65094 25.5199L7.81672 26.0253C8.10547 26.0975 8.32207 26.1696 8.53867 25.8809L8.32207 26.8916V27.3969C8.32207 27.6857 8.24985 27.9023 8.03332 28.0467L7.09479 28.6242L6.30067 29.1296C6.22848 28.6964 6.08409 28.1189 5.50656 28.1189C5.0734 28.1189 4.85682 28.4076 4.85682 28.8408C4.85682 28.9852 4.85682 29.1296 4.85682 29.2017L7.38356 29.3461C7.67235 29.3461 8.03332 29.4183 8.1777 29.1296L8.10547 30.2124C8.03332 29.9237 7.60012 29.9237 7.31137 29.9237L5.1456 29.8515C5.00121 29.7793 4.56805 29.7071 4.49586 29.9958ZM6.37287 20.2499C6.37287 20.5386 6.80602 20.683 7.0226 20.7552L8.9718 21.5493C9.1884 21.6216 9.54937 21.8381 9.7659 21.6216L9.40492 22.6323C9.40492 22.3434 8.9718 22.1991 8.7552 22.1269L6.73383 21.3327C6.51725 21.2606 6.08409 21.044 5.93971 21.2606L6.37287 20.2499ZM7.81672 17.29L10.921 17.651C11.2819 17.7231 11.5707 17.7954 11.8595 17.5788L11.2819 18.5895C11.2819 18.3007 11.2098 18.3007 10.7766 18.2285L9.91027 18.0841L9.1884 19.3114L9.7659 19.9611C9.9825 20.2499 10.1269 20.3221 10.3435 20.1777L9.9825 21.1162C9.9825 20.7552 9.7659 20.5386 9.54937 20.2499L7.9611 18.3007C7.81672 18.1563 7.67235 17.9397 7.45576 18.0841L7.81672 17.29ZM12.7258 31.2954V32.8114C12.7258 33.0279 12.7258 33.3168 12.9424 33.3889H12.076C12.2926 33.3168 12.2926 33.0279 12.2926 32.8114V31.2954C12.2926 31.0788 12.2926 30.79 12.076 30.7178H12.9424C12.7258 30.79 12.7258 31.0788 12.7258 31.2954ZM16.1188 32.667C16.1188 33.1002 15.6135 33.4611 14.8915 33.4611C14.2418 33.4611 13.7365 33.1723 13.7365 32.7392C13.7365 32.3782 14.0253 32.1616 14.3863 32.0172C14.0974 31.8729 13.8087 31.7285 13.8087 31.3675C13.8087 30.9344 14.2418 30.6456 14.8915 30.6456C15.3247 30.6456 15.9022 30.8622 15.9022 31.2954C15.9022 31.5841 15.6135 31.8007 15.3247 31.8729C15.7579 32.0895 16.1188 32.2338 16.1188 32.667ZM11.1376 12.7419C11.0653 13.0306 11.3542 13.3194 11.5707 13.4638L13.159 14.8354C13.3756 14.9799 13.6643 15.2686 13.8809 15.1242L13.159 15.9183C13.3033 15.6296 12.9424 15.413 12.7258 15.1964L11.1376 13.8248C10.921 13.6803 10.6322 13.3194 10.4156 13.4638L11.1376 12.7419ZM32.3622 4.51192C32.4343 4.58411 32.5066 4.58411 32.5787 4.58411H32.7232L34.8167 4.87288C34.8889 4.87288 35.0333 4.87288 35.1055 4.87288L34.8167 5.52261C34.7445 5.30603 34.528 5.23384 34.3836 5.23384L33.806 5.16165L33.445 7.68836C33.3729 7.97719 33.3729 8.19371 33.6616 8.41031L32.5787 8.26594C32.8675 8.19371 32.8675 7.76059 32.9397 7.54399L33.3007 5.01727L32.7953 4.94507C32.5787 4.94507 32.29 4.94507 32.0734 5.08945L32.3622 4.51192ZM29.8354 2.7793C14.8915 2.7793 2.76324 14.9076 2.76324 29.8515C2.76324 41.5467 10.1269 51.4371 20.5226 55.2633L20.5948 51.6537L20.8114 47.4665C21.1001 43.7124 21.5333 40.0306 22.4718 36.5654C22.7605 35.6269 22.9771 34.3996 24.06 34.0386C25.5039 33.7499 27.1643 33.9665 28.6804 33.9665C28.6804 33.1723 28.8969 32.1616 28.6081 31.4397L28.2472 31.151L21.028 28.3354C20.8836 28.2633 20.7391 28.191 20.7391 27.9745V27.8301H29.6911C29.5467 27.6857 29.3301 27.3969 29.1857 27.1803L28.2472 26.2419L25.3595 23.7151C24.1322 22.7044 23.5547 21.3327 23.8435 19.7445C24.3488 16.7847 27.3809 14.9076 28.4638 12.1643C28.3915 12.7419 28.3194 13.175 28.175 13.6082C27.7418 15.8461 26.5146 16.8568 26.2258 19.0948C26.2258 19.3836 26.0814 20.3943 26.298 20.5386C26.3702 19.2392 26.8756 18.0841 27.3809 17.0012C28.4638 15.1964 29.8354 13.8248 30.052 11.659C30.052 11.298 30.052 10.6483 29.9076 10.2151H29.9798C31.4236 12.5253 32.1456 15.413 31.4236 18.3007C30.9183 21.044 29.2579 23.7873 29.6188 26.7472C29.6911 27.1803 29.7632 27.6135 29.9076 27.9023H39.2926C39.3649 28.0467 39.2926 28.2633 39.076 28.3354L31.568 31.2231C31.2793 31.3675 31.0627 31.6563 31.0627 31.9451C31.1349 32.0895 30.9905 32.2338 31.0627 32.3061C31.4236 32.1617 31.8568 32.1616 32.1456 32.3782C32.2178 32.2338 32.1456 32.0172 32.1456 31.8729C32.1456 31.5119 32.4343 31.2954 32.7232 31.151C33.0841 31.0788 33.5894 30.8622 33.8782 31.2231C34.167 31.5841 34.167 32.0172 34.4557 32.3061C34.4557 31.9451 34.4557 31.5119 34.8167 31.2954C35.1777 31.151 35.7552 30.9344 36.1162 31.2954C36.8381 32.667 37.2712 34.4718 37.7044 35.9157C37.9932 35.2659 38.5707 34.9772 39.1483 35.1216C39.437 35.1937 39.7258 35.2659 39.8702 35.5547C39.7258 37.6483 40.159 39.5253 40.5199 41.4745C40.5921 42.4852 41.314 43.6403 40.6643 44.651C40.0867 45.5172 39.2205 46.2392 38.5707 47.1055C38.4263 47.3221 38.4263 47.6109 38.4263 47.8996L40.0146 55.0467C49.9771 50.8595 56.9076 41.1857 56.9076 29.8515C56.9076 14.9076 44.7793 2.7793 29.8354 2.7793ZM51.2766 40.175C50.5546 39.8141 49.6162 39.8862 49.183 40.6803C48.7498 41.4023 49.0387 42.1964 49.7605 42.6296C50.4825 43.0627 51.421 42.9906 51.8542 42.1964C52.2873 41.4023 51.9985 40.6082 51.2766 40.175ZM53.5146 32.1616C52.7205 32.0172 51.8542 32.4504 51.7098 33.3168C51.5653 34.183 52.1429 34.8327 52.937 34.905C53.7311 35.0493 54.5974 34.6162 54.7418 33.7499C54.8863 32.9558 54.3809 32.3061 53.5146 32.1616ZM14.8194 30.8622C14.6028 30.8622 14.2418 30.9344 14.2418 31.2231C14.2418 31.5841 14.8194 31.6563 15.1081 31.8007C15.3247 31.7285 15.4691 31.5119 15.4691 31.3675C15.4691 31.0788 15.2525 30.8622 14.8194 30.8622ZM42.4691 8.04934C41.675 7.61621 40.8809 7.90496 40.4477 8.62691C40.0868 9.34879 40.159 10.2873 40.8809 10.7205C41.6028 11.1537 42.3969 10.8648 42.8301 10.143C43.2632 9.49316 43.1911 8.55469 42.4691 8.04934ZM14.1697 32.5948C14.1697 32.9558 14.4584 33.1723 14.9638 33.1723C15.2525 33.1723 15.6857 33.0279 15.6857 32.7392C15.6857 32.3061 15.036 32.2338 14.675 32.1616C14.4584 32.1616 14.1697 32.3782 14.1697 32.5948ZM9.62152 18.0119L8.10547 17.7954L9.04402 18.9504L9.62152 18.0119ZM6.66164 34.3996C7.45575 34.3274 8.1777 33.6055 8.03332 32.7392C7.88895 31.8729 7.23918 31.4397 6.37287 31.5119C5.57875 31.5841 4.85682 32.2338 4.92902 33.1002C5.1456 34.0386 5.86752 34.544 6.66164 34.3996ZM10.4156 45.4451L11.8595 45.0119L11.1376 44.1456L10.4156 45.4451Z" fill="#F37421"></path>
<path d="M34.7446 31.2947C34.3115 31.8001 34.8169 32.7386 34.889 33.1717L35.8997 37.7198C35.8997 37.8642 35.972 38.0086 35.972 38.153C35.611 38.2252 35.3222 38.2974 34.9613 38.3696C34.889 38.153 35.25 38.0808 35.3944 37.9364L35.4666 37.8642C35.1056 35.8428 34.7446 34.3268 34.5281 33.3161C34.4559 32.9552 34.0949 31.3669 33.8783 31.0781L34.7446 31.2947Z" fill="#F37421"></path>
<path d="M33.8059 39.4535C33.2284 38.876 32.5786 38.2985 31.7123 38.5151C31.0626 38.5872 30.485 38.7317 29.9075 38.7317C29.6909 38.5151 29.5465 38.1541 29.6188 37.7931C29.9797 37.2878 30.7016 37.2156 31.2792 36.999C32.1455 36.638 33.084 37.0712 33.6615 37.6487L33.9503 38.1541C34.0947 38.5872 34.0947 39.1648 33.8059 39.4535ZM33.8781 41.114C33.8059 41.4027 33.7337 41.7637 33.445 41.9803C33.084 40.8252 31.9289 40.4642 30.9182 40.3199C30.6295 40.2476 30.2685 40.3199 30.0519 40.4642C29.7631 40.2476 29.7631 39.8145 29.8353 39.4535C29.9075 39.3092 30.0519 39.2369 30.1241 39.2369C30.9182 39.0926 31.7123 38.9482 32.5064 39.0926C32.8674 39.2369 33.1561 39.5258 33.445 39.8145C33.8059 40.1033 34.0225 40.6086 33.8781 41.114ZM33.445 44.0738C33.3727 44.3627 33.3006 44.5792 33.084 44.7958C32.723 45.0124 32.362 45.1568 32.0011 45.229C31.7123 44.2904 32.2177 43.0632 31.3513 42.3413C30.9904 41.9081 29.9797 41.7637 30.3406 41.0418C30.4129 40.8974 30.485 40.8252 30.6295 40.753C31.3513 40.753 31.9289 40.9696 32.5064 41.3306C33.0118 42.0525 33.8059 42.9188 33.445 44.0738ZM31.9289 50.0659C31.0626 50.0659 27.9583 50.0659 27.9583 50.0659L28.7524 36.4937C29.0412 36.4937 29.3299 36.4937 29.4744 36.4214C29.4744 36.7103 29.6188 36.9268 29.7631 37.0712C28.6802 37.721 29.2578 38.7317 29.5465 39.0204C29.1856 40.0311 29.5465 40.4642 29.9075 40.753C29.6909 41.4027 29.8353 41.7637 30.846 42.3413C31.6402 42.7744 31.4957 44.2183 31.5679 44.6514C31.5679 45.1568 31.9289 50.0659 31.9289 50.0659ZM29.9797 36.0605C30.3406 35.5552 30.9904 35.483 31.4957 35.2664C32.0733 35.1942 33.0118 34.9776 33.3727 35.6273C33.5171 36.0605 33.8059 36.4937 33.5893 36.999C33.0118 36.7103 32.4343 36.2771 31.7123 36.4937C31.207 36.5659 30.6295 36.7103 30.1241 36.8546C29.9797 36.7824 29.9075 36.3493 29.9797 36.0605ZM34.4557 38.2985C34.4557 37.9375 34.0947 37.721 33.9503 37.4321C34.2391 36.7824 33.9503 35.9883 33.7337 35.4107C33.6615 35.122 33.3006 34.9055 33.084 34.8332C32.8674 34.0391 32.1455 32.3787 32.2177 31.6568L31.6402 32.0899C32.0011 32.2343 32.2177 33.1006 32.2899 33.4616L32.6508 34.761L31.5679 34.8332C31.5679 34.5445 31.6402 34.1113 31.2792 33.9669L31.207 33.8948L31.0626 32.5952C31.0626 32.3065 31.1348 32.1621 31.2792 32.0899L31.3513 31.2236C30.9904 31.5124 30.846 32.0177 30.846 32.2343C30.7738 32.5952 30.846 33.3172 30.846 33.8948C30.1963 34.1113 28.6802 33.6782 28.6802 33.6782V33.8948C28.8968 33.9669 29.5465 34.1113 29.9075 34.1835C30.2685 34.2557 30.846 34.1113 31.1348 34.4001C31.207 34.6166 31.207 34.8332 31.0626 34.9776C30.485 35.1942 29.9075 35.4107 29.5465 35.9883C28.3192 36.1327 26.9476 36.0605 25.7203 35.9161C25.7926 36.4937 26.4423 36.3493 26.8033 36.4214H26.8754C26.9476 37.5044 27.1642 38.6594 26.731 39.6701C26.1535 40.8252 24.7096 40.6086 23.5546 40.6808V40.9696C24.493 41.0418 25.5037 41.114 26.3701 40.753C26.8754 40.6086 27.2364 40.1033 27.3808 39.5979C27.5251 38.5151 27.3808 37.5044 27.3086 36.4937C27.7417 36.4214 28.1749 36.4214 28.6081 36.4214L28.6802 36.4937L28.4637 40.3199L28.1027 45.7343C27.1642 45.8065 26.0091 45.8787 25.215 45.3734C23.9877 44.5792 23.9877 43.0632 23.9877 41.7637H23.5546L23.4102 42.991L22.9771 47.0338L22.9048 48.983C22.9048 49.1273 22.9771 49.2717 23.1214 49.2717C23.1936 47.5391 23.4102 45.9509 23.5546 44.2183L23.6268 44.1461C23.8433 44.5792 23.9877 45.0124 24.2765 45.3734C25.215 46.3841 26.6588 46.2396 27.9583 46.1675L28.0305 46.2396L27.814 50.2103H28.8246H29.0412L28.969 56.7076C29.9075 56.7797 30.9904 56.7076 32.0011 56.6354C32.1455 56.5632 32.0011 56.3466 32.0733 56.2022L31.7123 51.2931L31.6402 50.138H32.362L32.0733 45.6621L32.1455 45.5899C32.5064 45.5177 32.8674 45.3734 33.1561 45.229C34.0947 44.868 33.9503 43.7851 34.0225 42.991C33.5893 42.3413 34.3834 41.8359 34.4557 41.1862C34.6722 40.6808 34.4557 40.1755 34.2391 39.7423C34.4557 39.4535 34.3834 38.8038 34.4557 38.2985Z" fill="#E96D1F"></path>
<path d="M37.8488 37.6461C37.8488 37.213 37.56 36.491 37.7765 35.8413L37.6322 35.3359C37.4878 35.6248 37.3434 36.2023 37.3434 36.5632C37.3434 38.0071 37.56 38.8012 37.56 40.1728L37.4878 40.3894C36.4771 41.1835 34.961 41.5445 34.4557 42.844C34.2392 44.4322 34.6001 45.8761 34.961 47.3199L35.2499 47.2477C34.961 46.0927 34.7445 44.8654 34.8167 43.6381C34.8889 41.9055 36.8381 41.3279 37.9931 40.5338C38.1375 39.5953 37.9931 38.6568 37.8488 37.6461Z" fill="#F37421"></path>
</g>
</g>
<defs>
<clipPath id="clip0_1_295">
<rect width="225" height="60" fill="white"></rect>
</clipPath>
<clipPath id="clip1_1_295">
<rect width="225" height="60" fill="white"></rect>
</clipPath>
</defs>
</svg>
