<svg width="185" height="60" viewBox="0 0 185 60" fill="none" xmlns="http://www.w3.org/2000/svg">
<g clip-path="url('#clip0_1_363')">
<g clip-path="url('#clip1_1_363')">
<path d="M62.5571 26.3807C63.3616 25.5761 64.4678 25.2744 65.5741 25.2744H65.6747C67.5854 25.2744 68.4905 25.7773 68.5911 26.6824V27.5875H68.9934C68.9934 27.0847 69.094 26.5818 69.1945 26.079C69.2951 25.7773 69.2951 25.5761 69.3956 25.2744L68.39 24.9728C67.8872 24.8722 67.4849 24.7716 66.9821 24.671C66.4792 24.5705 65.9764 24.5705 65.5741 24.5705C63.965 24.4699 62.4565 25.0733 61.2497 26.079C60.1434 27.0847 59.54 28.4926 59.54 30.0011C59.4395 32.4147 61.0485 34.6272 63.3616 35.2307C64.0656 35.4318 64.7696 35.5323 65.4735 35.5323C66.077 35.5323 66.6803 35.4318 67.2837 35.3312C67.8872 35.2307 68.4905 34.9289 68.9934 34.7278L69.2951 34.0238L69.1945 33.8227C68.7923 34.1244 68.39 34.3256 67.9877 34.4261C67.2837 34.6272 66.5798 34.7278 65.8758 34.7278C63.261 34.8284 61.1491 32.817 61.0485 30.2023C61.0485 30.0011 61.0485 29.9006 61.0485 29.6994C61.0485 28.9955 61.1491 28.2914 61.4508 27.5875C61.7525 27.1853 62.1548 26.6824 62.5571 26.3807Z" fill="#B32226"></path>
<path d="M76.737 29.2025C76.0328 28.4986 75.1277 28.1969 74.2226 28.1969C72.2113 28.0963 70.5016 29.7054 70.401 31.6162C70.401 31.7168 70.401 31.8173 70.401 31.9178C70.401 32.5213 70.5016 33.1247 70.7027 33.6275C71.0045 34.3315 71.5073 34.9349 72.2113 35.2366C72.7141 35.4377 73.217 35.5383 73.6192 35.5383C74.3232 35.5383 75.0272 35.3372 75.6305 35.0354C76.2338 34.7338 76.737 34.2309 77.0385 33.6275C77.34 33.0241 77.541 32.3201 77.541 31.6162C77.7428 30.8117 77.4405 29.9065 76.737 29.2025ZM75.7311 34.5326C75.4294 34.9349 74.826 35.2366 74.3232 35.2366C73.8203 35.2366 73.418 35.0354 73.1164 34.8344C72.7141 34.4321 72.4124 34.0298 72.2113 33.4264C72.0101 32.823 71.9096 32.2196 71.9096 31.5156C71.809 30.8117 72.0101 30.0071 72.5129 29.4037C72.9152 29.0014 73.418 28.6997 74.0215 28.6997C75.0272 28.6997 75.8318 29.3031 76.1333 30.3088C76.3343 31.0127 76.536 31.7168 76.4348 32.3201C76.4348 33.1247 76.2338 33.9293 75.7311 34.5326Z" fill="#B32226"></path>
<path d="M81.0608 28.7003C80.8598 28.9015 80.7593 29.002 80.6588 29.2032C80.4578 29.4043 80.2568 29.706 80.0558 30.0077C80.0558 29.1026 80.0558 28.5997 80.0558 28.4992V28.3986H79.9545C79.854 28.3986 79.854 28.3986 79.7535 28.4992H79.653C78.9495 28.8009 78.2453 28.9015 77.541 29.002V29.4043C77.8433 29.4043 78.2453 29.4043 78.5468 29.4043C78.6473 29.4043 78.6473 29.5048 78.7478 29.5048C78.7478 29.706 78.8483 29.8066 78.8483 30.0077C78.8483 30.5105 78.8483 30.9128 78.8483 31.3151C78.8483 31.3151 78.8483 32.2202 78.8483 34.2316C78.8483 34.4327 78.8483 34.7344 78.6473 34.9355C78.5468 34.9355 78.5468 35.0361 78.4463 35.0361H77.541V35.4384C78.6473 35.4384 79.3515 35.4384 79.3515 35.4384C80.4578 35.4384 81.363 35.4384 81.564 35.4384V35.0361C81.162 35.0361 80.7593 34.9355 80.3573 34.9355C80.2568 34.9355 80.1563 34.8349 80.1563 34.6338C80.1563 34.4326 80.1563 34.2316 80.1563 34.0304C80.1563 33.1253 80.1563 32.5219 80.1563 32.2202V31.5162C80.1563 31.0134 80.2568 30.5105 80.5583 30.1083C80.7593 29.8066 81.162 29.6054 81.564 29.6054C81.966 29.6054 82.4693 29.9071 82.5698 30.3094H82.8713C82.8713 29.8066 82.8713 29.2032 82.9718 28.5997V28.4992C82.3688 28.0969 81.564 28.1975 81.0608 28.7003Z" fill="#B32226"></path>
<path d="M90.8167 34.6265C90.8167 34.2242 90.8167 33.7214 90.8167 33.3191V32.0118C90.8167 31.0061 90.8167 30.4027 90.7162 30.101C90.6157 29.397 90.2137 28.7936 89.5095 28.4919C88.8052 28.1902 87.9007 28.1902 87.1965 28.4919L85.7887 29.6987C85.7887 28.9948 85.7887 28.5925 85.7887 28.4919V28.3913H85.6882C85.587 28.3913 85.587 28.3913 85.4865 28.4919C84.783 28.7936 84.0787 28.8942 83.274 28.9948V29.397H83.3745C83.6767 29.397 83.9782 29.397 84.2797 29.397C84.3802 29.397 84.3802 29.397 84.4807 29.4976C84.582 29.6987 84.582 29.7993 84.582 30.0005C84.582 30.5033 84.582 30.9056 84.582 31.3078C84.582 31.3078 84.582 33.5203 84.582 34.3248C84.582 34.526 84.582 34.7271 84.4807 34.8277C84.3802 34.9283 84.2797 35.0288 84.0787 35.0288H83.274V35.4311H85.2855C86.0902 35.4311 86.6932 35.4311 86.9955 35.4311V35.0288H86.1907C86.0902 35.0288 85.9897 34.9283 85.8892 34.8277C85.7887 34.6265 85.7887 34.4254 85.7887 34.3248C85.7887 33.5203 85.7887 31.3078 85.7887 31.3078C85.7887 30.9056 85.7887 30.5033 85.9897 30.101C86.1907 29.7993 86.3917 29.5982 86.5927 29.4976C86.895 29.2964 87.1965 29.1959 87.5985 29.1959C88.3027 29.0953 89.0062 29.5982 89.3085 30.3021C89.409 30.805 89.409 31.3078 89.409 31.8107V33.1181C89.409 33.4197 89.409 34.2242 89.3085 35.4311H90.6157C91.1182 35.4311 91.6215 35.4311 91.8225 35.4311V35.0288H91.0177C91.0177 35.0288 90.8167 34.8277 90.8167 34.6265Z" fill="#B32226"></path>
<path d="M97.3538 28.5947C96.8513 28.293 96.348 28.1924 95.8455 28.1924C95.0408 28.1924 94.3365 28.4941 93.633 28.8964C93.432 29.0976 93.1298 29.1981 92.9288 29.3992C92.7278 29.7009 92.5268 30.0027 92.4263 30.4049C92.2245 30.9078 92.2245 31.4106 92.2245 31.9134C92.124 33.2208 92.8283 34.4276 93.9345 35.031C94.437 35.3327 95.1413 35.4333 95.745 35.4333C96.348 35.4333 96.9518 35.3327 97.4543 35.031C97.7558 34.9305 97.9575 34.7293 98.259 34.6287L98.46 34.1259L98.3595 34.0254C98.058 34.2265 97.6553 34.4276 97.2533 34.5282C95.8455 35.031 94.3365 34.4276 93.834 33.0197C93.633 32.6174 93.633 32.1146 93.633 31.7123H96.0465C96.549 31.7123 97.1528 31.7123 97.6553 31.6117C97.9575 31.6117 98.3595 31.5111 98.661 31.5111C98.661 31.31 98.661 31.2094 98.661 31.0083C98.7615 30.1032 98.259 29.1981 97.3538 28.5947ZM97.2533 31.31C97.0523 31.31 96.6495 31.31 95.946 31.31H95.8455C95.0408 31.31 94.035 31.31 93.633 31.2095C93.633 30.5055 93.7335 29.8015 94.1355 29.2986C94.437 28.8964 94.9403 28.6953 95.4428 28.6953C96.549 28.6953 97.1528 29.3992 97.1528 31.0083C97.3538 31.1089 97.2533 31.2094 97.2533 31.31Z" fill="#B32226"></path>
<path d="M101.779 34.9288C101.578 34.7276 101.578 34.5265 101.578 34.2247C101.578 34.1242 101.578 33.4202 101.578 32.1128V27.0844L101.678 24.4697V24.3691H101.578C101.578 24.3691 101.477 24.3691 101.377 24.3691C100.673 24.6709 99.8678 24.8719 99.0638 24.8719V25.2742C99.3653 25.2742 99.7672 25.2742 100.069 25.2742C100.17 25.2742 100.17 25.3748 100.17 25.3748C100.27 25.6765 100.27 26.0788 100.27 26.3805C100.27 27.2856 100.27 28.0901 100.27 28.8946V32.0122C100.27 33.3196 100.27 34.0236 100.27 34.1242C100.27 34.3253 100.27 34.5265 100.17 34.627C100.069 34.7276 99.9682 34.8282 99.7672 34.8282H99.0638V35.2304C100.371 35.2304 100.873 35.2304 100.974 35.2304C101.879 35.2304 102.584 35.2304 102.785 35.2304V34.8282H101.98C101.879 35.0293 101.779 35.0293 101.779 34.9288Z" fill="#B32226"></path>
<path d="M106.304 34.9288C106.103 34.7276 106.103 34.5265 106.103 34.2247C106.103 34.1242 106.103 33.4202 106.103 32.1128V27.0844L106.204 24.4697V24.3691H106.103C106.003 24.3691 105.802 24.4697 105.7 24.4697C104.997 24.6709 104.293 24.8719 103.589 24.8719V25.2742C103.891 25.2742 104.293 25.2742 104.594 25.2742C104.695 25.2742 104.695 25.3748 104.695 25.3748C104.796 25.6765 104.796 26.0788 104.796 26.3805C104.796 27.2856 104.796 28.0901 104.796 28.8946V32.0122C104.796 33.3196 104.796 34.0236 104.796 34.1242C104.796 34.3253 104.796 34.5265 104.695 34.627C104.594 34.7276 104.494 34.8282 104.293 34.8282H103.589V35.2304C104.796 35.2304 105.298 35.2304 105.499 35.2304C106.304 35.2304 106.908 35.2304 107.31 35.2304V34.8282H106.505C106.405 35.0293 106.304 35.0293 106.304 34.9288Z" fill="#B32226"></path>
<path d="M121.992 24.8672C120.785 24.8672 120.082 24.8672 119.88 24.8672H118.372V25.3701C118.673 25.3701 119.076 25.3701 119.378 25.4706C119.478 25.4706 119.579 25.5712 119.679 25.6718C119.78 25.9734 119.78 26.1746 119.78 26.4763C119.78 27.0797 119.78 27.7837 119.78 28.4877V30.8007C119.88 31.7058 119.78 32.6109 119.478 33.4155C119.177 34.0189 118.673 34.4211 118.07 34.6223C117.567 34.7229 117.065 34.8234 116.561 34.8234C115.757 34.8234 115.053 34.6223 114.349 34.3206C114.047 34.1195 113.846 33.8178 113.645 33.516C113.444 32.8121 113.444 32.1081 113.444 31.4041V28.4877C113.444 27.1803 113.444 26.4763 113.444 26.3757C113.444 26.1746 113.444 25.8729 113.545 25.6718C113.645 25.5712 113.645 25.5712 113.746 25.4706C114.047 25.3701 114.45 25.3701 114.752 25.3701V24.8672C113.645 24.8672 112.539 24.8672 112.338 24.8672C111.734 24.8672 111.131 24.8672 110.427 24.8672V25.3701C110.729 25.3701 111.131 25.3701 111.433 25.4706C111.533 25.4706 111.634 25.5712 111.734 25.6718C111.835 25.9734 111.835 26.1746 111.835 26.4763C111.835 27.0797 111.835 27.7837 111.835 28.4877V31.8064C111.835 32.5104 111.835 33.1137 112.036 33.8178C112.137 34.1195 112.338 34.4211 112.64 34.7229C113.545 35.4268 114.752 35.8291 115.858 35.7285C116.964 35.8291 118.07 35.5274 118.976 34.8234C119.378 34.5217 119.78 34.0189 119.88 33.516C120.082 32.7115 120.182 31.8064 120.182 31.0019V28.4877C120.182 27.1803 120.182 26.4763 120.283 26.3757C120.283 26.1746 120.283 25.8729 120.383 25.6718C120.484 25.5712 120.584 25.5712 120.685 25.4706C120.986 25.3701 121.389 25.3701 121.691 25.3701V24.8672H121.992Z" fill="#B32226"></path>
<path d="M128.932 34.6265C128.932 34.2242 128.932 33.7214 128.932 33.3191V32.0118C128.932 31.4084 128.932 30.805 128.831 30.101C128.731 29.397 128.329 28.7936 127.624 28.4919C126.921 28.1902 126.016 28.1902 125.311 28.4919L123.904 29.6987C123.904 28.9948 123.904 28.5925 123.904 28.4919V28.3913H123.803C123.703 28.3913 123.703 28.3913 123.602 28.4919C122.898 28.7936 122.194 28.9948 121.39 28.9948V29.397H121.49C121.792 29.397 122.093 29.397 122.395 29.397C122.496 29.397 122.496 29.4976 122.596 29.4976C122.697 29.6987 122.697 29.7993 122.697 30.0005C122.697 30.5033 122.697 30.9056 122.697 31.3078C122.697 31.3078 122.697 33.5203 122.697 34.3248C122.697 34.526 122.697 34.7271 122.596 34.8277C122.496 34.9283 122.395 35.0288 122.194 35.0288H121.49V35.4311H123.502C124.406 35.4311 125.01 35.4311 125.11 35.4311V35.0288H124.306C124.205 35.0288 124.105 34.9283 124.004 34.8277C123.904 34.6265 123.904 34.4254 123.904 34.3248C123.904 33.5203 123.904 31.3078 123.904 31.3078C123.904 30.9056 123.904 30.5033 124.105 30.101C124.205 29.7993 124.507 29.5982 124.708 29.4976C125.01 29.2964 125.311 29.1959 125.714 29.1959C126.418 29.0953 127.122 29.5982 127.323 30.3021C127.423 30.805 127.423 31.3078 127.423 31.8107V33.1181C127.423 33.4197 127.423 34.2242 127.323 35.4311H128.731C129.334 35.4311 129.736 35.4311 129.937 35.4311V35.0288H129.133C129.033 35.0288 128.932 34.8277 128.932 34.6265Z" fill="#B32226"></path>
<path d="M132.653 26.6813C133.156 26.6813 133.457 26.2791 133.457 25.8768C133.457 25.6756 133.357 25.4745 133.256 25.2734C133.055 25.0723 132.854 25.0723 132.653 25.0723C132.15 25.0723 131.849 25.4745 131.849 25.8768C131.849 26.0779 131.949 26.2791 132.05 26.4802C132.251 26.5807 132.452 26.6813 132.653 26.6813Z" fill="#B32226"></path>
<path d="M133.558 34.9323C133.356 34.7312 133.356 34.5301 133.356 34.2284C133.356 34.1278 133.356 33.4239 133.356 32.1165V30.8091C133.356 30.2057 133.356 29.4012 133.356 28.3955L133.155 28.2949C132.351 28.5966 131.546 28.8983 130.742 28.8983V29.3006C131.043 29.3006 131.446 29.3006 131.747 29.3006C131.848 29.3006 131.848 29.4012 131.948 29.5017C132.049 29.904 132.049 30.4068 132.049 30.8091V32.1165C132.049 33.4239 132.049 34.2284 132.049 34.2284C132.049 34.4295 132.049 34.6306 131.948 34.7312C131.848 34.8318 131.747 34.9323 131.546 34.9323H130.842V35.3346C132.149 35.3346 132.653 35.3346 132.854 35.3346C133.658 35.3346 134.362 35.3346 134.664 35.3346V34.9323H133.859C133.759 35.0329 133.658 35.0329 133.558 34.9323Z" fill="#B32226"></path>
<path d="M142.609 28.4854C141.604 28.4854 141.1 28.4854 140.899 28.4854H139.793V28.8876C140.095 28.8876 140.396 28.8876 140.698 28.9882C140.799 29.0887 140.799 29.2899 140.799 29.3905C140.698 29.8933 140.497 30.2956 140.296 30.7984C139.894 31.7035 139.693 32.3069 139.592 32.5081L138.787 34.2177L138.083 32.5081L137.179 30.2956C137.077 29.9938 136.876 29.5916 136.876 29.2899C136.876 29.1893 136.977 29.0887 136.977 29.0887C137.279 28.9882 137.581 28.9882 137.882 28.9882V28.4854C136.876 28.4854 136.072 28.4854 135.871 28.4854H134.362V28.8876C134.563 28.8876 134.764 28.8876 134.966 28.8876C135.167 28.9882 135.368 29.1893 135.469 29.491L137.681 34.5194C137.782 34.7206 137.882 35.0222 138.083 35.5251H138.888C139.592 33.8155 140.095 32.8097 140.195 32.5081L140.899 30.9995C141.402 29.9938 141.604 29.491 141.704 29.3905C141.805 29.2899 141.905 29.0887 142.006 28.9882C142.207 28.8876 142.408 28.8876 142.609 28.8876V28.4854Z" fill="#B32226"></path>
<path d="M147.536 28.5947C147.034 28.293 146.531 28.1924 146.028 28.1924C145.223 28.1924 144.52 28.4941 143.815 28.8964C143.614 29.0976 143.313 29.1981 143.111 29.3992C142.91 29.7009 142.709 30.0027 142.609 30.4049C142.408 30.9078 142.408 31.4106 142.408 31.9134C142.307 33.2208 143.011 34.4276 144.117 35.031C144.62 35.3327 145.324 35.4333 145.928 35.4333C146.531 35.4333 147.134 35.3327 147.638 35.031C147.939 34.9305 148.14 34.7293 148.441 34.6287L148.642 34.1259L148.542 34.0254C148.24 34.2265 147.838 34.4276 147.436 34.5282C146.028 35.031 144.52 34.327 144.016 32.9191C143.815 32.5168 143.815 32.014 143.916 31.6117H146.329C146.833 31.6117 147.436 31.6117 147.939 31.5111C148.24 31.5111 148.642 31.4106 148.945 31.4106C148.945 31.2094 148.945 31.1089 148.945 30.9078C148.945 30.1032 148.441 29.0976 147.536 28.5947ZM147.436 31.31C147.235 31.31 146.833 31.31 146.128 31.31H144.62H143.815C143.815 30.606 143.916 29.9021 144.319 29.3992C144.62 28.997 145.123 28.7958 145.726 28.7958C146.833 28.7958 147.436 29.4998 147.436 31.1089C147.436 31.1089 147.436 31.2094 147.436 31.31Z" fill="#B32226"></path>
<path d="M153.269 28.7003C153.068 28.9015 152.967 29.002 152.867 29.2032C152.565 29.6054 152.364 29.8066 152.263 30.0077C152.263 29.002 152.263 28.5997 152.263 28.4992V28.3986H152.162C152.062 28.3986 151.861 28.4992 151.66 28.5997C151.056 28.8009 150.352 28.9015 149.749 29.002V29.4043C150.05 29.4043 150.453 29.4043 150.755 29.4043C150.855 29.4043 150.855 29.4043 150.956 29.5048C150.956 29.706 151.056 29.8066 151.056 30.0077C151.056 30.5105 151.056 30.9128 151.056 31.3151C151.056 31.3151 151.056 32.2202 151.056 34.2316C151.056 34.4327 151.056 34.7344 150.855 34.9355C150.755 34.9355 150.754 35.0361 150.654 35.0361H149.749V35.4384C150.855 35.4384 151.459 35.4384 151.559 35.4384C152.565 35.4384 153.369 35.4384 153.772 35.4384V35.0361C153.369 35.0361 152.967 34.9355 152.565 34.9355C152.465 34.9355 152.363 34.8349 152.363 34.6338C152.363 34.4326 152.363 34.2316 152.363 34.0304C152.363 33.1253 152.363 32.5219 152.363 32.2202V31.5162C152.363 31.0134 152.465 30.5105 152.766 30.1083C152.967 29.8066 153.369 29.6054 153.772 29.6054C154.174 29.6054 154.677 29.9071 154.778 30.3094H155.079C155.079 29.8066 155.079 29.2032 155.18 28.5997V28.4992C154.576 28.0969 153.772 28.1975 153.269 28.7003Z" fill="#B32226"></path>
<path d="M160.208 31.7123C159.805 31.5111 159.403 31.4106 158.9 31.31L157.693 31.0083C157.392 30.9078 156.99 30.7066 156.889 30.4049C156.789 30.2037 156.789 30.1032 156.789 29.9021C156.789 29.6004 156.889 29.1981 157.191 28.997C157.492 28.6953 157.794 28.5947 158.197 28.5947C158.8 28.4941 159.403 28.7958 159.805 29.2986C159.906 29.3992 159.906 29.4998 159.906 29.6004C159.906 29.8015 160.006 30.1032 160.006 30.3043H160.409C160.409 29.7009 160.409 29.1981 160.51 28.5947C160.208 28.4941 159.805 28.293 159.504 28.293C159.102 28.1924 158.699 28.1924 158.197 28.1924C157.794 28.1924 157.392 28.293 156.99 28.4941C156.185 28.7958 155.683 29.4998 155.683 30.4049C155.683 30.9078 155.884 31.4106 156.185 31.7123C156.386 31.9134 156.587 32.014 156.889 32.1146C157.09 32.2152 157.492 32.3157 158.096 32.4162C158.498 32.5168 158.9 32.6174 159.303 32.8185C159.705 33.0197 159.906 33.3213 159.906 33.7236C159.906 34.1259 159.705 34.5282 159.403 34.8299C159.001 35.1316 158.599 35.2322 158.197 35.2322C157.996 35.2322 157.693 35.2322 157.492 35.2322C157.191 35.2322 156.889 35.031 156.587 34.8299C156.386 34.6287 156.185 34.2265 156.185 33.9248C156.185 33.7236 156.185 33.4219 156.185 33.2208H155.783C155.783 33.9248 155.783 34.327 155.783 34.5282C155.783 34.9305 155.683 35.2322 155.683 35.3327C155.683 35.3327 155.683 35.3328 155.683 35.4333C155.884 35.5338 156.085 35.5338 156.286 35.6344C156.889 35.735 157.392 35.8356 157.996 35.8356C158.8 35.8356 159.604 35.6344 160.208 35.1316C160.711 34.7293 161.012 34.0254 161.012 33.4219C161.012 32.6174 160.711 32.014 160.208 31.7123Z" fill="#B32226"></path>
<path d="M164.633 34.9323C164.432 34.7312 164.432 34.5301 164.432 34.2284C164.432 34.1278 164.432 33.4239 164.432 32.1165V30.8091C164.432 30.2057 164.432 29.4012 164.432 28.3955L164.231 28.2949C163.427 28.5966 162.622 28.8983 161.817 28.8983V29.3006C162.119 29.3006 162.521 29.3006 162.823 29.3006C162.923 29.3006 162.923 29.4012 163.025 29.5017C163.125 29.904 163.125 30.4068 163.125 30.8091V32.1165C163.125 33.4239 163.125 34.2284 163.125 34.2284C163.125 34.4295 163.125 34.6306 163.025 34.7312C162.923 34.8318 162.823 34.9323 162.622 34.9323H161.918V35.3346H163.929C164.834 35.3346 165.539 35.3346 165.74 35.3346V34.9323H164.935C164.834 35.0329 164.734 35.0329 164.633 34.9323Z" fill="#B32226"></path>
<path d="M164.231 26.3735C164.432 26.1724 164.432 25.9712 164.432 25.7701C164.432 25.569 164.332 25.3679 164.231 25.1667C163.929 24.865 163.427 24.865 163.025 25.1667C162.722 25.4684 162.722 25.9712 163.025 26.3735C163.427 26.6753 163.929 26.6753 164.231 26.3735Z" fill="#B32226"></path>
<path d="M168.355 29.5023H170.265L170.366 28.899H170.265C169.259 28.899 168.857 28.899 168.656 28.899H168.254C168.355 27.491 168.355 26.5859 168.455 26.1836L168.254 26.083C167.852 26.2842 167.449 26.4853 167.047 26.6865V28.899C166.645 29.1 166.243 29.2006 165.941 29.4018V29.7035C166.745 29.7035 167.047 29.7035 167.047 29.7035C167.047 29.7035 167.047 32.9217 167.047 33.1228C167.047 33.525 167.047 33.9273 167.047 34.2291C167.047 34.5307 167.148 34.7319 167.249 35.0336C167.45 35.3352 167.651 35.5364 167.952 35.7375C168.154 35.8381 168.355 35.8381 168.556 35.8381C168.958 35.8381 169.26 35.8381 169.662 35.637C169.863 35.4358 170.064 35.2347 170.366 35.0336L170.265 34.6313C170.165 34.6313 169.963 34.7319 169.863 34.7319H169.763C169.562 34.7319 169.461 34.7319 169.259 34.7319H169.159C168.857 34.7319 168.556 34.6313 168.355 34.3296C168.254 34.2291 168.254 34.1285 168.254 33.9273C168.254 33.525 168.254 33.0222 168.254 32.6199L168.355 29.5023Z" fill="#B32226"></path>
<path d="M178.511 29.0887C178.713 28.9882 178.914 28.8876 179.115 28.8876V28.4854C178.21 28.5859 177.204 28.5859 176.198 28.4854V28.8876C176.5 28.8876 176.802 28.9882 177.103 29.0887C177.204 29.1893 177.304 29.3905 177.204 29.491C177.103 29.6922 176.902 30.2956 176.5 31.3012C176.098 32.3069 175.796 32.9103 175.696 33.3126L175.294 34.2177C174.891 33.4132 174.086 31.4018 174.086 31.4018C173.885 30.9995 173.684 30.3961 173.483 29.8933C173.383 29.6922 173.383 29.5916 173.383 29.3905C173.383 29.2899 173.483 29.1893 173.584 29.0887C173.885 28.9882 174.187 28.9882 174.489 28.9882V28.4854C173.684 28.4854 172.678 28.4854 172.578 28.4854C172.075 28.4854 171.472 28.4854 170.969 28.4854V28.8876C171.17 28.8876 171.472 28.9882 171.673 28.9882C171.773 29.0887 171.874 29.1893 171.975 29.3905C172.176 29.8933 172.477 30.4967 172.879 31.4018L174.086 34.3183C174.288 34.9216 174.489 35.4245 174.69 35.8268C174.489 36.3296 174.288 36.933 173.986 37.4359C173.885 37.7376 173.684 37.9387 173.584 38.1398C173.383 38.4415 173.081 38.5421 172.678 38.5421H172.477H172.377C172.176 38.4415 172.075 38.341 171.975 38.2404H171.773L171.371 39.3466C171.673 39.5478 171.975 39.6484 172.276 39.5478C172.98 39.5478 173.584 39.2461 173.986 38.7433C174.288 38.341 174.489 37.8382 174.79 37.3353L176.5 33.3126C177.304 31.603 177.808 30.4967 178.109 29.9938C178.009 29.6922 178.21 29.3905 178.511 29.0887Z" fill="#B32226"></path>
<path d="M42.8101 17.6559C43.0938 17.4432 42.881 17.1594 42.6682 16.9466L42.5263 16.8047L41.9588 17.3722L42.1007 17.5141C42.3135 17.7269 42.5263 17.9397 42.8101 17.6559Z" fill="white"></path>
<path d="M26.5656 30.7109L25.7144 30.7818C25.2179 30.8528 24.7922 30.8528 24.4376 30.9237H23.3026C23.3026 31.775 23.3026 37.6627 23.3026 38.443H24.0829C24.7922 38.443 25.2888 38.372 25.7144 38.3012C26.1401 38.2302 26.6366 38.2302 27.275 38.2302C27.4878 38.2302 27.6297 38.2302 27.8425 38.3012V30.8528C27.7715 30.8528 27.7007 30.7818 27.6297 30.7818C27.275 30.7109 26.9204 30.7109 26.5656 30.7109ZM25.5016 31.9169C25.7144 31.9169 25.9272 31.9169 26.2109 31.8459L26.6366 31.775H26.9204V32.3425H26.6366H26.2109C25.9272 32.3425 25.7144 32.4134 25.5016 32.4134H24.2247V31.8459L25.5016 31.9169ZM26.8494 37.1661H26.6366L26.2109 37.2371C25.9272 37.2371 25.7144 37.308 25.5016 37.308H25.2888H24.2247V36.8114H25.2888H25.4306C25.6435 36.8114 25.8563 36.8114 26.1401 36.7406L26.5656 36.6696H26.8494V37.1661ZM26.8494 35.5346H26.6366L26.2109 35.6055C25.9272 35.6055 25.7144 35.6765 25.5016 35.6765H25.3598H24.2247V35.1799H25.3598H25.5016C25.7144 35.1799 25.9272 35.1799 26.1401 35.109L26.5656 35.0381H26.8494V35.5346ZM26.8494 33.9031H26.6366L26.2109 33.974C25.9272 33.974 25.7144 34.0449 25.5016 34.0449H24.2247V33.4775H25.5016C25.7144 33.4775 25.9272 33.4775 26.2109 33.4065L26.6366 33.3356H26.9204L26.8494 33.9031Z" fill="white"></path>
<path d="M28.268 9.21484C16.7763 9.21484 7.48361 18.5076 7.48361 29.9993C7.48361 41.491 16.7763 50.7837 28.1971 50.7837C39.6179 50.7837 48.9816 41.491 48.9816 30.0702C48.9816 18.5076 39.6889 9.28579 28.268 9.21484ZM48.1303 28.3677L46.9244 29.148L48.2012 29.7865V30.4249L46.3569 29.5027H45.2219V28.9353L46.3569 28.8643L48.0594 27.7293L48.1303 28.3677ZM47.35 24.1825L47.9175 26.3815L47.4919 26.5234L47.2791 25.7431L44.7963 26.2396L44.6544 25.6722L47.0662 25.1046L46.8535 24.3243L47.35 24.1825ZM46.7825 22.7637L44.0869 23.8278L43.8741 23.2603L46.5697 22.1253L46.7825 22.7637ZM44.1579 19.5006C44.5834 19.2169 45.151 19.3588 45.3638 19.7844C45.3638 19.8553 45.4347 19.8553 45.4347 19.9263C45.5766 20.1391 45.6475 20.3519 45.7185 20.5647L45.2929 20.7775C45.2929 20.5647 45.2219 20.3519 45.08 20.2101C45.0091 19.9972 44.7253 19.9263 44.5835 19.9972C44.5835 19.9972 44.5834 19.9972 44.5126 19.9972C44.0869 20.2101 44.8672 21.2031 44.0869 21.6997C43.6613 21.9834 43.0938 21.7707 42.8101 21.345C42.8101 21.2741 42.7391 21.2741 42.7391 21.2031C42.5972 20.9904 42.5263 20.7775 42.4554 20.4938L42.881 20.2809C42.881 20.4938 42.952 20.7066 43.0228 20.9194C43.0938 21.1322 43.3776 21.2741 43.5904 21.2031C44.1579 20.9194 43.3776 19.9263 44.1579 19.5006ZM42.952 16.5923C43.3776 17.0888 43.8741 17.5854 43.2357 18.1529C42.952 18.3657 42.5972 18.3657 42.3135 18.1529C42.3844 18.2947 42.3844 18.4366 42.3135 18.5785L41.746 19.7135L41.3204 19.2169L41.8169 18.3657C41.9588 18.2238 41.9588 18.011 41.8169 17.8691L41.6751 17.7273L40.7529 18.5076L40.3982 18.0819L42.5973 16.1667L42.952 16.5923ZM41.1785 14.8188L40.8948 15.1735L40.0435 14.4642L39.6179 15.0317L40.3982 15.6701L40.1145 16.0248L39.3342 15.3864L38.7667 16.0248L39.6889 16.7341L39.4051 17.0888L38.0573 16.0248L39.8307 13.7548L41.1785 14.8188ZM36.0711 11.6267L36.6385 11.9104L36.2839 14.3223L37.9864 12.6198L38.412 12.8326L36.2839 15.0317L35.5745 14.6769L36.0711 11.6267ZM34.0139 10.9173L34.5105 11.0592L33.6592 13.8966L33.0917 13.7548L34.0139 10.9173ZM29.8287 10.137L30.538 10.208L31.3183 12.5489L31.673 10.3498L32.2405 10.4208L31.8149 13.3292L31.1055 13.2582L30.3252 10.9173L30.0415 13.1163L29.4739 13.0454L29.8287 10.137ZM26.069 10.208L26.2109 11.9104C26.2818 12.407 26.4237 12.6907 26.8493 12.6907C27.2749 12.6907 27.4168 12.336 27.4168 11.8395L27.2749 10.137L27.8424 10.0661L27.9843 11.9104C28.1262 12.4779 27.7715 12.9745 27.204 13.1163C27.133 13.1163 26.9912 13.1163 26.9203 13.1163C26.3527 13.2582 25.8562 12.9036 25.7143 12.407C25.7143 12.336 25.7143 12.1942 25.7143 12.1233L25.5724 10.2789L26.069 10.208ZM21.3872 11.343L22.2385 13.6839L23.3025 13.3292L23.4443 13.7548L21.8128 14.3223L20.8197 11.5557L21.3872 11.343ZM18.4078 12.7617L19.6138 14.8898L20.6069 14.3223L20.8197 14.7479L19.2591 15.5991L17.8404 13.0454L18.4078 12.7617ZM16.3507 14.0385L16.6345 14.3932L15.7123 15.1026L16.1379 15.6701L16.9182 15.0317L17.2019 15.3864L16.4216 16.0248L16.9182 16.6632L17.7694 15.9538L18.0532 16.3085L16.8472 17.4435L15.0029 15.1026L16.3507 14.0385ZM12.4492 17.7982L14.861 18.3657L13.1585 16.947L13.5132 16.5213L15.7832 18.3657L15.3576 18.8622L12.9457 18.2947L14.6482 19.7135L14.2935 20.2101L12.0235 18.3657L12.4492 17.7982ZM10.321 21.1322C10.6048 20.5647 10.9595 19.9263 11.6689 20.2809C11.9526 20.4228 12.0945 20.7775 11.9526 21.1322C12.0945 20.9904 12.2364 20.9904 12.4492 20.9904L13.6551 21.1322L13.3714 21.6997L12.3782 21.5578C12.1654 21.4869 12.0235 21.5578 11.9526 21.7707L11.8816 21.9125L12.8748 22.551L12.5911 23.0475L10.0373 21.6997L10.321 21.1322ZM8.90235 24.679C9.11512 23.9697 9.82455 23.544 10.5339 23.6859C10.6048 23.6859 10.6757 23.7569 10.7467 23.7569C11.527 23.8987 12.0235 24.679 11.8108 25.4593C11.6689 26.2396 10.8886 26.7362 10.1083 26.5234C10.0373 26.5234 9.96637 26.5234 9.96637 26.4525C9.25702 26.3815 8.6895 25.6722 8.8314 24.9628C8.8314 24.8919 8.8314 24.75 8.90235 24.679ZM8.19298 28.3677C8.19298 28.155 8.26395 27.9421 8.33482 27.7293L8.8314 27.8003C8.6895 27.9421 8.61862 28.155 8.61862 28.3677C8.54767 28.9353 8.9733 29.3609 9.54075 29.4318H9.6117C10.1792 29.5027 10.6757 29.148 10.7467 28.5806V28.5096C10.7467 28.2968 10.7467 28.084 10.6757 27.8712H11.1723C11.2432 28.084 11.2432 28.2968 11.2432 28.5096C11.3142 29.2899 10.6757 29.9283 9.89542 29.9993C9.82455 29.9993 9.7536 29.9993 9.68265 29.9993C8.90235 30.0702 8.26395 29.4318 8.19298 28.6515C8.19298 28.5806 8.19298 28.5096 8.19298 28.3677ZM8.8314 34.6811L11.6689 33.8298L12.0945 35.3904L11.6689 35.5323L11.3851 34.5393L10.6757 34.752L10.9595 35.6742L10.4629 35.887L10.1792 34.9649L8.9733 35.3196L8.8314 34.6811ZM10.2502 38.8664C9.89542 38.2279 10.1083 37.3767 10.7467 37.022C10.8176 36.9511 10.8886 36.9511 10.9595 36.9511C11.5979 36.4545 12.4492 36.6673 12.8748 37.3058C12.9457 37.3767 12.9457 37.4476 12.9457 37.5186C13.3004 38.157 13.0876 39.0082 12.4492 39.363C12.3782 39.363 12.3073 39.4338 12.2364 39.4338C11.5979 39.8595 10.7467 39.6467 10.321 39.0082C10.321 38.9373 10.321 38.9373 10.2502 38.8664ZM12.662 42.626C12.2364 42.2713 12.1654 41.6329 12.5911 41.2073C12.662 41.1363 12.7329 41.0654 12.8038 40.9944L14.2935 39.8595L14.6482 40.356L13.3004 41.4201C12.8748 41.7039 12.7329 42.0585 13.0167 42.4132C13.3004 42.7679 13.6551 42.6969 14.0098 42.4132L15.3576 41.3492L15.7123 41.8457L14.2935 42.9807C13.8679 43.4063 13.2295 43.4063 12.8748 42.9807C12.8038 42.8388 12.7329 42.6969 12.662 42.626ZM16.0669 45.96L16.5635 43.5482L15.1447 45.2507L14.7191 44.896L16.5635 42.626L17.131 43.0516L16.6345 45.4635L18.0532 43.761L18.4788 44.1157L16.6345 46.3857L16.0669 45.96ZM21.1744 47.3079C20.6778 48.3719 19.8266 48.23 19.0463 47.8753L18.3369 47.5206L19.6847 44.896L20.3941 45.2507C21.1034 45.6763 21.7419 46.2438 21.1744 47.3079ZM24.5794 47.3079L23.5153 47.0241L23.3025 47.7335L24.2956 47.9463L24.1537 48.3719L23.1606 48.0882L22.9478 48.8685L24.0828 49.1522L23.9409 49.5778L22.2385 49.1522L23.0188 46.3147L24.7212 46.7403L24.5794 47.3079ZM26.6365 50.0744L25.8562 50.0034L25.9981 47.095L26.7784 47.166C27.7006 47.2369 28.4809 47.5916 28.4099 48.7266C28.339 49.8615 27.4877 50.0744 26.6365 50.0744ZM33.0917 49.5069L32.737 48.8685L31.6021 49.0812L31.4602 49.7906L30.8927 49.9325L31.3183 46.8113L31.9567 46.6694L33.7302 49.2941L33.0917 49.5069ZM34.5814 49.0103L34.3686 48.4428L34.9361 48.23L35.1489 48.7975L34.5814 49.0103ZM37.2061 47.8753L36.4967 48.23L35.0779 45.6763L35.7874 45.3216C36.5677 44.896 37.4188 44.7541 37.9864 45.8181C38.5539 46.8822 37.9864 47.4497 37.2061 47.8753ZM39.1923 46.7403L38.8376 46.2438L39.3342 45.8891L39.6889 46.3857L39.1923 46.7403ZM28.268 46.3147C19.2591 46.3147 11.9526 39.0082 11.9526 29.9993C11.9526 20.9904 19.2591 13.6839 28.268 13.6839C37.277 13.6839 44.5835 20.9904 44.5835 29.9993C44.5126 39.0082 37.277 46.3147 28.268 46.3147ZM42.1007 44.3285L40.5401 42.6969L40.4692 43.3354L39.9726 43.2645L40.1145 42.2004L40.4692 41.8457L42.5263 43.9029L42.1007 44.3285ZM44.2288 41.9166C44.016 42.3423 43.5194 42.5551 43.0938 42.3423C43.0228 42.3423 43.0228 42.2713 42.952 42.2713C42.6682 42.0585 42.5263 41.7039 42.6682 41.4201C42.3844 41.562 42.1007 41.562 41.8169 41.4201C41.4622 41.1363 41.3913 40.6398 41.6751 40.2851L41.746 40.2141C41.9588 39.7885 42.4554 39.6467 42.8101 39.7885H42.881C43.0938 40.0014 43.2357 40.2851 43.1647 40.5688C43.4485 40.356 43.8031 40.356 44.0869 40.5688C44.4416 40.8526 44.5835 41.3492 44.2997 41.7747C44.2997 41.8457 44.2997 41.8457 44.2288 41.9166ZM46.1441 38.8664C45.7894 39.5757 45.08 39.4338 44.5126 39.1501C43.945 38.8664 43.1647 38.157 43.5904 37.3058C43.6613 37.0929 43.8031 36.9511 43.945 36.8092L44.2997 37.0929C44.1579 37.2348 44.016 37.3058 43.945 37.5186C43.8031 37.9442 44.016 38.3698 44.4416 38.5117C44.2997 38.2989 44.2997 38.0861 44.4416 37.8732C44.5835 37.4476 45.08 37.2348 45.5056 37.4476C45.5766 37.4476 45.5766 37.5186 45.6475 37.5186C46.1441 37.6605 46.4278 38.2279 46.215 38.6535C46.215 38.7245 46.1441 38.7954 46.1441 38.8664ZM47.35 35.7452C47.2791 35.958 47.2081 36.1708 47.0662 36.3836L46.5697 36.2417C46.7116 36.0999 46.8535 35.887 46.9244 35.6742C47.0662 35.3904 46.9244 35.1067 46.6406 34.9649C46.6406 34.9649 46.6406 34.9649 46.5697 34.9649C46.2859 34.8939 45.9313 35.0358 45.8603 35.3196C45.8603 35.3196 45.8603 35.3904 45.8603 35.4614C45.7894 35.6033 45.7894 35.8161 45.7894 35.958L44.2997 35.4614L44.7963 33.8298L45.2219 33.9717L44.8672 35.0358L45.5056 35.2486C45.5056 35.1777 45.5056 35.1067 45.5766 34.9649C45.6475 34.4683 46.1441 34.1846 46.6406 34.2555C46.7116 34.2555 46.7116 34.2555 46.7825 34.3264C47.2791 34.4683 47.6338 35.0358 47.4919 35.5323C47.4209 35.6033 47.4209 35.6742 47.35 35.7452Z" fill="white"></path>
<path d="M18.9044 32.9086C18.9044 38.8673 25.6433 42.7688 27.7715 43.9037V39.7185C27.7005 39.6476 27.6296 39.5766 27.5586 39.5057C27.4877 39.3638 27.3458 39.2929 27.2039 39.2929C26.7074 39.2929 26.2109 39.2929 25.7852 39.3638C25.3596 39.4347 24.7921 39.4347 24.0827 39.5057C23.3734 39.5766 22.8059 39.5057 22.735 39.5057H22.2384V37.8741H21.2453V36.5972H22.2384V35.3204H21.2453V34.1145H22.2384V32.5538H21.2453V31.3479H22.2384V30.0002H24.3665C24.7212 30.0002 25.1468 29.9292 25.5724 29.9292L26.4236 29.8583C26.8493 29.7873 27.2749 29.8583 27.7005 29.9292V28.6523H18.9044C18.9044 30.9224 18.9044 32.9086 18.9044 32.9086Z" fill="white"></path>
<path d="M10.1083 25.8843C10.5339 26.0972 11.0304 26.0262 11.2433 25.6006C11.456 25.175 11.3851 24.6784 10.9595 24.4656C10.8176 24.3947 10.6757 24.3237 10.5339 24.3237C10.1083 24.1109 9.54075 24.3237 9.32798 24.7493V24.8203C9.25703 25.3169 9.54075 25.8134 10.1083 25.8843Z" fill="white"></path>
<path d="M11.3142 37.4484C10.8176 37.5903 10.5339 38.0868 10.6758 38.5834V38.6543C10.9595 39.08 11.4561 39.2219 11.8817 39.009C11.8817 39.009 11.9526 39.009 11.9526 38.9381C12.4492 38.7962 12.7329 38.2997 12.5201 37.8031V37.7321C12.3074 37.3065 11.7398 37.1647 11.3142 37.4484Z" fill="white"></path>
<path d="M20.2522 45.6771L19.9684 45.5352L19.0462 47.3085L19.33 47.4504C19.8265 47.6633 20.465 47.3795 20.6068 46.812C20.8197 46.4574 20.6068 45.9608 20.2522 45.6771Z" fill="white"></path>
<path d="M11.456 20.8489C11.1723 20.707 10.9594 20.9198 10.8175 21.2036L10.7467 21.3455L11.456 21.7001L11.527 21.5582C11.6688 21.3455 11.7397 20.9908 11.456 20.8489Z" fill="white"></path>
<path d="M36.142 45.6759L35.8582 45.8178L36.7804 47.5912L37.0642 47.4493C37.5607 47.1656 37.7736 46.5981 37.4898 46.1016C37.277 45.605 36.6385 45.3921 36.142 45.6759Z" fill="white"></path>
<path d="M31.8149 47.3799L31.6021 48.6568L32.4533 48.444L31.8149 47.3799Z" fill="white"></path>
<path d="M26.8493 47.5918H26.4946L26.3528 49.578H26.7074C27.2749 49.578 27.7005 49.0814 27.7005 48.5139C27.7005 48.0174 27.3458 47.6627 26.8493 47.5918Z" fill="white"></path>
<path d="M42.1717 40.3572C42.0298 40.4991 42.0298 40.7119 42.1717 40.9248C42.3845 40.9957 42.6682 40.9957 42.8101 40.7829C42.881 40.5701 42.8101 40.4282 42.6682 40.2863C42.5263 40.1445 42.3136 40.2154 42.1717 40.3572Z" fill="white"></path>
<path d="M45.4347 38.0871C45.2218 37.9453 44.9381 37.9453 44.7962 38.1581C44.7253 38.3709 44.7962 38.6546 45.08 38.7256H45.1509C45.3637 38.8674 45.6475 38.7965 45.7894 38.6546C45.7894 38.6546 45.7894 38.6546 45.7894 38.5837C45.7894 38.4418 45.7184 38.1581 45.4347 38.0871Z" fill="white"></path>
<path d="M37.6316 19.9961H18.9044C18.9044 20.4927 18.9044 24.1814 18.9044 27.5154H37.6316C37.6316 24.1814 37.6316 20.4927 37.6316 19.9961ZM26.7074 24.5361C26.6365 25.1035 26.2818 25.6001 25.7852 25.8838C25.0759 26.3804 23.9408 27.0188 23.87 27.0188L23.5862 27.1607L23.3024 27.0188C23.2315 27.0188 22.1675 26.3804 21.4581 25.8838C20.9615 25.6001 20.6069 25.1035 20.5359 24.5361C20.5359 24.4651 20.5359 22.5498 20.5359 20.9892V20.4927H26.6365V20.9892C26.7074 24.4651 26.7074 24.5361 26.7074 24.5361ZM36.142 24.5361C36.071 25.1035 35.7164 25.6001 35.2198 25.8838C34.5104 26.3804 33.3755 27.0188 33.3045 27.0188L33.0917 27.1607L32.8789 27.0188C32.8079 27.0188 31.7439 26.3804 31.0346 25.8838C30.538 25.6001 30.1833 25.1035 30.0414 24.5361C30.0414 24.5361 30.0414 24.3942 30.0414 20.9892V20.4927H36.142V20.9892C36.142 23.2592 36.142 24.4651 36.142 24.5361Z" fill="white"></path>
<path d="M43.1648 41.2089C43.0938 41.4217 43.1648 41.6345 43.3066 41.7764C43.5194 41.9183 43.7322 41.8473 43.8741 41.7054C44.016 41.5636 44.016 41.2799 43.8741 41.138C43.5904 40.9961 43.3066 40.9961 43.1648 41.2089Z" fill="white"></path>
<path d="M31.0345 21.4883C31.0345 21.843 31.0345 22.2686 31.0345 22.6233V23.1198L32.737 21.9139L33.0208 21.7011L35.0779 23.1198C35.0779 22.6233 35.0779 22.0557 35.0779 21.5592H31.0345V21.4883Z" fill="white"></path>
<path d="M28.268 14.6768C19.8265 14.6768 12.9457 21.5576 12.9457 29.999C12.9457 38.4405 19.8265 45.3214 28.268 45.3214C36.7094 45.3214 43.5903 38.4405 43.5903 29.999C43.5903 21.4867 36.7094 14.6768 28.268 14.6768ZM33.5173 42.0583C31.9567 43.2642 30.2542 44.3282 28.4808 45.1795L28.268 45.2504L28.0552 45.1795C26.2108 44.3282 24.5084 43.2642 23.0186 42.0583C19.6137 39.3627 17.8403 36.1706 17.8403 32.9784V18.9329H38.6247V33.1202C38.6247 36.2415 36.8513 39.3627 33.5173 42.0583Z" fill="white"></path>
<path d="M28.6228 28.5107V29.7876H28.6937C29.1193 29.7167 29.545 29.7167 29.9706 29.7167L30.8218 29.7876C31.3183 29.8585 31.673 29.8585 32.0277 29.8585H34.1558V31.49H35.078V32.696H34.1558V34.2566H35.078V35.4625H34.1558V36.7394H35.078V37.9453H34.1558V39.3641H33.6592C33.6592 39.3641 33.0918 39.3641 32.3115 39.3641C31.5312 39.3641 31.1765 39.4349 30.6799 39.4349C30.1834 39.3641 29.6868 39.3641 29.2612 39.3641C29.1193 39.3641 28.9774 39.4349 28.9065 39.5768C28.8355 39.6478 28.7647 39.7187 28.6937 39.7896V43.9749C30.7509 42.9109 37.7026 39.0093 37.7026 33.1925C37.7026 33.1925 37.7026 31.0644 37.7026 28.5107H28.6228Z" fill="white"></path>
<path d="M33.0918 22.9072L31.1056 24.3259C31.1056 24.3969 31.1056 24.3969 31.1056 24.3969C31.1765 24.6097 31.3894 24.8225 31.6022 24.9644C32.0278 25.3191 32.7371 25.7447 33.0918 25.9575C33.4465 25.7447 34.1559 25.3191 34.6524 25.0353C34.8653 24.8935 35.0071 24.7516 35.078 24.5388V24.4678C35.078 24.4678 35.078 24.3969 35.078 24.255L33.0918 22.9072Z" fill="white"></path>
<path d="M30.7508 30.8528L29.8996 30.7109C29.6158 30.7109 29.2611 30.7109 28.9774 30.7109C28.9064 30.7109 28.7646 30.7818 28.6936 30.8528V38.372C28.9064 38.3012 29.1193 38.2302 29.332 38.2302C29.9705 38.2302 30.3961 38.3012 30.8926 38.3012C31.3892 38.3012 31.8148 38.372 32.5242 38.443H33.3045C33.3045 37.5917 33.3045 31.704 33.3045 30.9237H32.1695C31.6729 30.9237 31.2473 30.8528 30.7508 30.8528ZM32.2405 37.379H30.9636C30.7508 37.379 30.538 37.379 30.2542 37.308L29.8286 37.2371H29.6158V36.6696H29.8996L30.3961 36.7406C30.6089 36.7406 30.8926 36.8114 31.0345 36.8114H32.3114L32.2405 37.379ZM29.6158 35.0381H29.8996L30.3961 35.109C30.6089 35.109 30.8926 35.1799 31.0345 35.1799H31.6021H32.3114V35.7474H31.6021H31.0345C30.8217 35.7474 30.6089 35.7474 30.3252 35.6765L29.8996 35.6055H29.7577L29.6158 35.0381ZM32.2405 34.1159H30.9636C30.7508 34.1159 30.538 34.1159 30.2542 34.0449L29.8286 33.974H29.6158V33.4065H29.8996L30.3252 33.4775C30.6089 33.4775 30.8217 33.5484 30.9636 33.5484H32.2405V34.1159ZM32.2405 32.4843H30.9636C30.7508 32.4843 30.538 32.4843 30.2542 32.4134L29.8286 32.3425H29.6158V31.775H29.8996L30.3252 31.8459C30.6089 31.8459 30.8217 31.9169 30.9636 31.9169H32.2405V32.4843Z" fill="white"></path>
<path d="M25.7143 21.4883H21.6709V22.4105H25.7143C25.7143 22.0557 25.7143 21.772 25.7143 21.4883Z" fill="white"></path>
<path d="M21.6709 23.4023C21.6709 23.9699 21.6709 24.4664 21.6709 24.4664C21.7418 24.6792 21.9547 24.8921 22.1674 25.0339C22.664 25.3886 23.3024 25.7432 23.6571 25.9561C24.0118 25.7432 24.7212 25.3176 25.2177 25.0339C25.4305 24.8921 25.5724 24.7502 25.6433 24.5373C25.6433 24.4664 25.6433 24.1117 25.6433 23.6152C25.6433 23.5442 25.6433 23.4733 25.6433 23.4733C25.7143 23.4023 21.6709 23.4023 21.6709 23.4023Z" fill="white"></path>
<path d="M28.268 8.22266C16.2088 8.22266 6.49045 17.941 6.49045 30.0002C6.49045 42.0594 16.2088 51.7778 28.268 51.7778C40.3273 51.7778 50.0456 42.0594 50.0456 30.0002C49.9746 17.941 40.2563 8.22266 28.268 8.22266ZM28.268 50.7137C16.7763 50.7137 7.48356 41.421 7.48356 30.0002C7.48356 18.5794 16.7763 9.21573 28.268 9.21573C39.7598 9.21573 49.0525 18.5085 49.0525 29.9293C48.9815 41.421 39.6888 50.7137 28.268 50.7137Z" fill="#B32226"></path>
<path d="M28.268 13.6133C19.259 13.6133 11.9525 20.9198 11.9525 29.9287C11.9525 38.9376 19.259 46.2441 28.268 46.2441C37.2769 46.2441 44.5834 38.9376 44.5834 29.9287C44.5124 20.9907 37.2769 13.6842 28.268 13.6133ZM28.268 45.3219C19.8265 45.3219 12.9456 38.4411 12.9456 29.9997C12.9456 21.5582 19.7555 14.6773 28.268 14.6773C36.7803 14.6773 43.5902 21.5582 43.5902 29.9997C43.5902 38.4411 36.7094 45.3219 28.268 45.3219Z" fill="#B32226"></path>
<path d="M25.5015 32.4109C25.7143 32.4109 25.9271 32.4109 26.2108 32.3399H26.6365H26.8493V31.7725H26.5656L26.14 31.8434C25.8562 31.8434 25.6434 31.9143 25.4305 31.9143H24.1537V32.4818L25.5015 32.4109Z" fill="#B32226"></path>
<path d="M26.1399 36.7376C25.8561 36.7376 25.6433 36.8086 25.4305 36.8086H25.2886H24.2245V37.3051H25.3596H25.5014C25.7143 37.3051 25.927 37.3051 26.2108 37.2342L26.6364 37.1632H26.8492V36.5957H26.5655L26.1399 36.7376Z" fill="#B32226"></path>
<path d="M26.1399 35.1071C25.8561 35.1071 25.6433 35.178 25.5014 35.178H25.3596H24.2245V35.7456H25.3596H25.5014C25.7143 35.7456 25.927 35.7456 26.2108 35.6746L26.6364 35.6037H26.8492V35.0361H26.5655L26.1399 35.1071Z" fill="#B32226"></path>
<path d="M26.14 33.4752C25.8562 33.4752 25.6434 33.5461 25.4305 33.5461H24.1537V34.1136H25.4305C25.6434 34.1136 25.8562 34.1136 26.14 34.0427L26.5656 33.9717H26.7784V33.4043H26.5656L26.14 33.4752Z" fill="#B32226"></path>
<path d="M29.8286 35.6037L30.2542 35.6746C30.538 35.6746 30.7508 35.7456 30.9637 35.7456H31.5311H32.2405V35.178H31.5311H30.9637C30.7508 35.178 30.538 35.178 30.3252 35.1071L29.8996 35.0361H29.6158V35.6037H29.8286Z" fill="#B32226"></path>
<path d="M30.3252 31.8434L29.8996 31.7725H29.6158V32.3399H29.8286L30.2542 32.4109C30.538 32.4109 30.7508 32.4818 30.9637 32.4818H32.2405V31.9852H30.9637C30.8218 31.9143 30.6089 31.8434 30.3252 31.8434Z" fill="#B32226"></path>
<path d="M30.3252 36.7379L29.8996 36.667H29.6158V37.2344H29.8286L30.2542 37.3054C30.538 37.3054 30.7508 37.3763 30.9637 37.3763H32.2405V36.8088H30.9637C30.8218 36.8088 30.6089 36.7379 30.3252 36.7379Z" fill="#B32226"></path>
<path d="M38.1282 18.9326H17.8403V32.9071C17.8403 36.1702 19.6138 39.2914 22.9478 41.9871C24.5084 43.2639 26.2109 44.257 27.9843 45.1083L28.1971 45.1792L28.4099 45.1083C30.1833 44.257 31.8858 43.193 33.4464 41.9871C36.7805 39.2914 38.5538 36.2412 38.5538 33.12V18.9326H38.1282ZM27.7715 38.3693C27.6296 38.2984 27.4168 38.2984 27.204 38.2984C26.5655 38.2984 26.1399 38.3693 25.6434 38.3693C25.1468 38.3693 24.7212 38.4403 24.0119 38.5111H23.2316C23.2316 37.6599 23.2316 31.7722 23.2316 30.9919H24.3665C24.7212 30.9919 25.1468 30.9209 25.6434 30.9209L26.4946 30.85C26.8493 30.7791 27.1331 30.7791 27.4877 30.85C27.5587 30.85 27.6296 30.9209 27.7005 30.9209L27.7715 38.3693ZM27.7715 29.7859C27.3458 29.715 26.9202 29.715 26.4946 29.715L25.6434 29.7859C25.1468 29.8569 24.7922 29.8569 24.4375 29.8569H22.3094V31.2047H21.2453V32.4106H22.2384V33.9712H21.2453V35.1772H22.2384V36.5959H21.2453V37.8018H22.2384V39.4333H22.735C22.735 39.4333 23.3024 39.4333 24.0827 39.4333C24.863 39.4333 25.3596 39.4333 25.7852 39.4333C26.2818 39.3624 26.7784 39.3624 27.204 39.3624C27.3458 39.3624 27.4877 39.4333 27.5587 39.5752C27.6296 39.6462 27.7005 39.7171 27.7715 39.788V43.9733C25.5725 42.9092 18.8335 39.0077 18.8335 32.9781C18.8335 32.9781 18.8335 30.9919 18.8335 28.58H27.7715V29.7859ZM18.9044 27.516C18.9044 24.1819 18.9044 20.4932 18.9044 19.9967H37.6316C37.6316 20.4932 37.6316 24.1819 37.6316 27.516H18.9044ZM33.2336 38.5111H32.4533C31.7439 38.5111 31.2473 38.4403 30.8218 38.3693C30.3962 38.2984 29.8996 38.2984 29.2611 38.2984C29.0483 38.2984 28.8356 38.3693 28.6227 38.4403V30.9209C28.6937 30.85 28.8356 30.85 28.9064 30.7791C29.2611 30.7081 29.5449 30.7081 29.8996 30.7081L30.7508 30.7791C31.2473 30.85 31.673 30.85 32.0277 30.9209H33.1627C33.2336 31.7722 33.2336 37.6599 33.2336 38.5111ZM28.6227 43.9733V39.788C28.6937 39.7171 28.7646 39.6462 28.8356 39.5752C28.9064 39.4333 29.0483 39.3624 29.1902 39.3624C29.6867 39.3624 30.1833 39.3624 30.6089 39.4333C31.1055 39.5043 31.6021 39.5043 32.3114 39.5752C33.0208 39.6462 33.5883 39.5752 33.6592 39.5752H34.1558V38.1565H35.078V36.9505H34.2267V35.6737H35.1489V34.4677H34.2267V32.9071H35.1489V31.7012H34.2267V30.0697H32.0986C31.7439 30.0697 31.3892 29.9988 30.8927 29.9988L30.0415 29.9278C29.6159 29.8569 29.1902 29.9278 28.7646 29.9988H28.6937V28.7219H37.7026C37.7026 31.2756 37.7026 33.4037 37.7026 33.4037C37.6316 38.9368 30.6799 42.9092 28.6227 43.9733Z" fill="#B32226"></path>
<path d="M26.7073 20.4951H20.6777V20.9916C20.6777 22.5523 20.6777 24.4676 20.6777 24.5385C20.7487 25.106 21.1033 25.6025 21.5999 25.8863C22.3093 26.3828 23.3733 26.9504 23.4442 27.0212L23.728 27.1631L24.0118 27.0212C24.0827 27.0212 25.2177 26.3828 25.927 25.8863C26.4236 25.6025 26.7783 25.106 26.7783 24.5385C26.7783 24.5385 26.7783 24.3966 26.7783 20.9916V20.4951H26.7073ZM21.6709 21.4882H25.7143C25.7143 21.772 25.7143 22.0557 25.7143 22.3394H21.6709V21.4882ZM25.7143 24.4676C25.6433 24.7513 25.5014 24.8932 25.2886 25.035C24.7921 25.3897 24.0827 25.7444 23.728 25.9572C23.3733 25.7444 22.6639 25.3188 22.2383 25.035C22.0255 24.8932 21.8127 24.7513 21.7417 24.4676C21.7417 24.3966 21.7417 23.971 21.7417 23.4035H25.7851C25.7851 23.4744 25.7851 23.5454 25.7851 23.5454C25.7143 24.1129 25.7143 24.4676 25.7143 24.4676Z" fill="#B32226"></path>
<path d="M30.3252 33.4752L29.8996 33.4043H29.6158V33.9717H29.8286L30.2542 34.0427C30.538 34.0427 30.7508 34.1136 30.9637 34.1136H32.2405V33.5461H30.9637C30.8218 33.5461 30.6089 33.5461 30.3252 33.4752Z" fill="#B32226"></path>
<path d="M36.1419 20.4951H30.0414V20.9916C30.0414 24.4676 30.0414 24.5385 30.0414 24.5385C30.1123 25.106 30.467 25.6025 30.9635 25.8153C31.6729 26.3119 32.737 26.8794 32.8079 26.9504L33.0207 27.0922L33.2335 26.9504C33.3045 26.9504 34.4395 26.3119 35.1488 25.8153C35.6454 25.5316 36.0001 25.106 36.071 24.5385C36.071 24.4676 36.071 23.2616 36.071 20.9916V20.4951H36.1419ZM35.0779 24.4676C35.0069 24.7513 34.8651 24.8932 34.6522 25.035C34.1557 25.3897 33.4463 25.7444 33.0916 25.9572C32.737 25.7444 32.0276 25.3188 31.602 25.035C31.3891 24.8932 31.1764 24.7513 31.1054 24.4676V24.3966L33.0916 22.9778L35.1488 24.3257C35.0779 24.4676 35.0779 24.5385 35.0779 24.4676ZM33.0207 21.701L32.737 21.9138L31.0345 23.1197V22.6232C31.0345 22.2685 31.0345 21.8429 31.0345 21.4882H35.0779C35.0779 21.9848 35.0779 22.5523 35.0779 23.0488L33.0207 21.701Z" fill="#B32226"></path>
<path d="M11.2433 28.5807C11.2433 28.3679 11.2433 28.155 11.1723 27.9423H10.6757C10.7467 28.0842 10.7467 28.2969 10.7467 28.5098C10.7467 29.0063 10.3211 29.4319 9.75353 29.4319C9.68265 29.4319 9.68265 29.4319 9.6117 29.4319C9.04418 29.4319 8.61855 29.0063 8.61855 28.5098V28.4388C8.61855 28.226 8.6895 28.0132 8.8314 27.8004L8.33483 27.7295C8.26388 27.9423 8.19295 28.155 8.19295 28.3679C8.05108 29.1482 8.5476 29.8575 9.3279 29.9994C9.4698 29.9994 9.54075 29.9994 9.68265 29.9994C10.463 30.0704 11.1723 29.5029 11.2433 28.7226C11.2433 28.7226 11.2433 28.6516 11.2433 28.5807Z" fill="#B32226"></path>
<path d="M9.96638 26.4518C10.6757 26.6646 11.456 26.2389 11.7398 25.5296C12.0236 24.8202 11.527 23.969 10.7467 23.7561C10.0373 23.4724 9.25703 23.8271 8.97323 24.5364C8.97323 24.6074 8.90228 24.6783 8.90228 24.7493C8.6895 25.4586 9.04418 26.2389 9.75353 26.4518C9.82448 26.4518 9.89543 26.4518 9.96638 26.4518ZM9.3279 24.8202C9.4698 24.3237 10.0373 24.1108 10.463 24.3237H10.5338C11.0304 24.3237 11.3851 24.6783 11.3851 25.1749C11.3851 25.6714 11.0304 26.0262 10.5338 26.0262C10.392 26.0262 10.2501 25.9552 10.1082 25.8843C9.6117 25.8133 9.25703 25.3877 9.3279 24.8202Z" fill="#B32226"></path>
<path d="M12.8747 22.5508L11.8107 21.9834L11.8816 21.8415C11.9526 21.6287 12.1654 21.5577 12.3073 21.6287L13.3713 21.6996L13.6551 21.1321L12.4492 20.9902C12.3073 20.9902 12.1654 20.9902 12.0235 21.1321C12.1654 20.7774 12.0235 20.4228 11.6688 20.2809C10.9594 19.9262 10.6048 20.5646 10.321 21.1321L10.0373 21.6996L12.6619 23.0474L12.8747 22.5508ZM11.456 21.5577V21.6996L10.7467 21.3449L10.8176 21.2031C10.9594 20.9193 11.1013 20.7065 11.456 20.8484C11.8107 20.9902 11.6688 21.3449 11.456 21.5577Z" fill="#B32226"></path>
<path d="M14.6482 19.7842L12.9457 18.3655L15.3575 18.933L15.7831 18.3655L13.5132 16.4502L13.1585 16.9468L14.861 18.2945L12.4492 17.798L12.0235 18.2945L14.2935 20.2099L14.6482 19.7842Z" fill="#B32226"></path>
<path d="M18.124 16.309L17.8403 15.9543L16.9891 16.6637L16.4215 16.0253L17.2728 15.3868L16.9891 15.0321L16.1378 15.6705L15.7122 15.1031L16.5634 14.3937L16.2796 14.0391L14.9319 15.1031L16.8472 17.373L18.124 16.309Z" fill="#B32226"></path>
<path d="M20.7488 14.7499L20.5359 14.3243L19.5428 14.8917L18.3369 12.7637L17.8403 13.0474L19.2591 15.6011L20.7488 14.7499Z" fill="#B32226"></path>
<path d="M23.4443 13.6847L23.2315 13.259L22.1675 13.6847L21.3871 11.3438L20.8196 11.5565L21.8128 14.3231L23.4443 13.6847Z" fill="#B32226"></path>
<path d="M26.9202 13.1167C27.4877 13.1876 27.9842 12.762 28.0552 12.1945C28.0552 12.1236 28.0552 11.9817 28.0552 11.9107L27.9133 10.0664L27.3458 10.1374L27.4168 11.7688C27.4877 12.2654 27.3458 12.6201 26.8492 12.6201C26.3527 12.6201 26.2108 12.3364 26.2108 11.8398L26.0689 10.2082L25.5015 10.2792L25.6433 12.1236C25.6433 12.691 26.0689 13.1167 26.6365 13.1876C26.7074 13.1876 26.8492 13.1876 26.9202 13.1167Z" fill="#B32226"></path>
<path d="M30.2543 10.917L31.1055 13.2579L31.8149 13.3289L32.1695 10.4205L31.6729 10.3496L31.3183 12.5486L30.538 10.2077L29.8286 10.1367L29.403 13.0451L29.9705 13.1161L30.2543 10.917Z" fill="#B32226"></path>
<path d="M34.0143 10.9043L33.1427 13.6789L33.684 13.849L34.5557 11.0744L34.0143 10.9043Z" fill="#B32226"></path>
<path d="M38.4119 12.8339L37.9153 12.5501L36.2129 14.2526L36.6385 11.9117L36.071 11.6279L35.5744 14.6782L36.2838 14.962L38.4119 12.8339Z" fill="#B32226"></path>
<path d="M39.4051 17.1618L39.6888 16.7362L38.7667 16.0977L39.2632 15.3884L40.1144 16.0268L40.3982 15.6721L39.547 15.0337L40.0435 14.4662L40.8947 15.1755L41.1785 14.8209L39.8307 13.7568L38.0573 16.0977L39.4051 17.1618Z" fill="#B32226"></path>
<path d="M40.3273 18.0116L40.6819 18.4372L41.6041 17.6569L41.746 17.7988C41.8879 17.9407 41.8879 18.1535 41.746 18.2953L41.2494 19.1466L41.675 19.6432L42.2425 18.5082C42.3135 18.3663 42.3135 18.2244 42.2425 18.0826C42.5263 18.2953 42.8809 18.2953 43.1647 18.0826C43.8031 17.515 43.3066 17.0185 42.8809 16.522L42.4553 16.0254L40.3273 18.0116ZM42.739 16.9476C42.9519 17.1604 43.0938 17.4441 42.8809 17.6569C42.6682 17.8697 42.3844 17.6569 42.1716 17.4441L41.9587 17.3731L42.5263 16.8766L42.739 16.9476Z" fill="#B32226"></path>
<path d="M43.0937 20.9927C42.9518 20.7799 42.8809 20.4961 42.9518 20.2833L42.4553 20.4961C42.5262 20.7799 42.5971 20.9927 42.739 21.2055C42.8809 21.702 43.4484 21.9149 43.874 21.773C43.945 21.773 44.0159 21.702 44.0159 21.702C44.8672 21.2055 44.0159 20.2124 44.4415 19.9287C44.6543 19.7868 44.8671 19.8577 45.009 20.0705C45.009 20.0705 45.009 20.0705 45.009 20.1414C45.0799 20.2833 45.1509 20.4961 45.2218 20.709L45.6475 20.4961C45.5765 20.2833 45.5056 20.0705 45.3637 19.8577C45.1509 19.4321 44.6543 19.2193 44.2287 19.3611C44.1577 19.3611 44.1577 19.4321 44.0868 19.4321C43.2356 19.9287 44.0868 20.9217 43.5903 21.2055C43.5193 21.3474 43.2356 21.2055 43.0937 20.9927Z" fill="#B32226"></path>
<path d="M46.5573 22.1641L43.8641 23.262L44.0783 23.7875L46.7715 22.6896L46.5573 22.1641Z" fill="#B32226"></path>
<path d="M44.6544 25.6723L44.7962 26.2398L47.2081 25.6723L47.4209 26.4526L47.8466 26.3107L47.35 24.1826L46.8534 24.2536L47.0663 25.1048L44.6544 25.6723Z" fill="#B32226"></path>
<path d="M45.2218 28.9354V29.5029L46.4278 29.4319L48.2011 30.3541V29.7866L46.9243 29.1482L48.1302 28.3679L48.0593 27.7295L46.3568 28.8645L45.2218 28.9354Z" fill="#B32226"></path>
<path d="M10.4629 35.8876L10.8885 35.7457L10.6757 34.8235L11.3141 34.6107L11.5979 35.6038L12.0944 35.462L11.5979 33.9014L8.83133 34.7526L8.97323 35.3201L10.1792 34.9654L10.4629 35.8876Z" fill="#B32226"></path>
<path d="M13.0166 37.5192C12.7328 36.8099 11.9525 36.5262 11.2432 36.8099C11.1722 36.8099 11.1013 36.8808 11.0303 36.8808C10.321 37.1646 9.9663 37.9449 10.25 38.6543C10.25 38.7252 10.321 38.7961 10.321 38.8671C10.6047 39.5764 11.456 39.8602 12.0944 39.5764C12.1654 39.5764 12.2363 39.5055 12.3072 39.5055C13.0166 39.2217 13.3713 38.4414 13.0875 37.7321C13.0875 37.6611 13.0166 37.5902 13.0166 37.5192ZM12.0235 38.938C11.5979 39.2217 11.0303 39.1508 10.7466 38.7252C10.7466 38.7252 10.7466 38.7252 10.6757 38.6543C10.4629 38.2287 10.6757 37.6611 11.1722 37.4484H11.2432C11.6688 37.1646 12.2363 37.2355 12.5201 37.6611C12.5201 37.6611 12.5201 37.6611 12.5201 37.7321C12.7328 38.2287 12.5201 38.7252 12.0235 38.938Z" fill="#B32226"></path>
<path d="M15.3575 41.2078L14.0097 42.2719C13.5841 42.5556 13.2294 42.6265 13.0165 42.2719C12.8038 41.9172 12.8747 41.5625 13.3003 41.3497L14.6481 40.2856L14.2934 39.7891L12.8038 40.995C12.3072 41.2788 12.1654 41.9172 12.52 42.4138C12.5909 42.4847 12.6619 42.5556 12.7328 42.6265C13.0165 43.1231 13.655 43.3359 14.1516 43.0522C14.2225 42.9812 14.2934 42.9812 14.3644 42.9103L15.854 41.7753L15.3575 41.2078Z" fill="#B32226"></path>
<path d="M18.0531 43.8319L16.7053 45.4635L17.2018 43.1226L16.6343 42.626L14.79 44.8959L15.2156 45.2506L16.6343 43.5482L16.1377 45.96L16.6343 46.4565L18.5496 44.1866L18.0531 43.8319Z" fill="#B32226"></path>
<path d="M20.3231 45.2502L19.6138 44.8955L18.2659 47.5202L18.9753 47.8749C19.7556 48.3005 20.6068 48.3715 21.1034 47.3074C21.6 46.2433 21.1034 45.6758 20.3231 45.2502ZM20.6778 47.0236C20.465 47.5202 19.8975 47.733 19.4009 47.5202C19.4009 47.5202 19.4009 47.5202 19.33 47.5202L19.0462 47.3783L19.9684 45.6049L20.2522 45.7468C20.7487 45.9596 20.9615 46.5271 20.6778 47.0236Z" fill="#B32226"></path>
<path d="M22.2383 49.2242L23.9408 49.6498L24.0827 49.2242L22.9477 48.9405L23.1605 48.0892L24.1536 48.3729L24.2955 47.9473L23.3024 47.6636L23.4443 46.9542L24.5792 47.3089L24.6502 46.8123L23.0186 46.3867L22.2383 49.2242Z" fill="#B32226"></path>
<path d="M26.7783 47.0954L25.998 47.0244L25.8562 49.9328L26.6365 50.0038C27.5586 50.0747 28.3389 49.7909 28.4098 48.656C28.4808 47.521 27.6295 47.1663 26.7783 47.0954ZM26.7783 49.5782H26.4236L26.5655 47.5919H26.9202C27.4876 47.6629 27.8424 48.2303 27.7714 48.7269C27.6295 49.2235 27.2039 49.5782 26.7783 49.5782Z" fill="#B32226"></path>
<path d="M31.3184 46.884L30.8218 50.0052L31.3893 49.8634L31.5311 49.154L32.7371 48.8702L33.0917 49.4378L33.7302 49.3668L32.0277 46.7422L31.3184 46.884ZM31.6021 48.6575L31.744 47.3806L32.3824 48.4446L31.6021 48.6575Z" fill="#B32226"></path>
<path d="M34.8127 48.3105L34.279 48.5036L34.472 49.0372L35.0057 48.8442L34.8127 48.3105Z" fill="#B32226"></path>
<path d="M35.8582 45.3213L35.1488 45.6761L36.5676 48.2298L37.277 47.8751C38.0573 47.4495 38.6247 46.8111 38.0573 45.747C37.4897 44.6829 36.6385 44.8958 35.8582 45.3213ZM37.1351 47.4495L36.8513 47.5914L35.8582 45.8179L36.142 45.6761C36.6385 45.4632 37.277 45.747 37.4188 46.2435C37.6316 46.6692 37.4897 47.1657 37.1351 47.4495Z" fill="#B32226"></path>
<path d="M39.3433 45.915L38.8768 46.2381L39.1999 46.7046L39.6664 46.3816L39.3433 45.915Z" fill="#B32226"></path>
<path d="M40.0434 42.2004L39.9724 43.3354H40.3981L40.469 42.7679L42.1006 44.3285L42.5262 43.9029L40.3981 41.8457L40.0434 42.2004Z" fill="#B32226"></path>
<path d="M44.1578 40.5688C43.874 40.3559 43.5194 40.3559 43.2356 40.5688C43.3066 40.2851 43.2356 39.9304 42.9519 39.7885C42.5263 39.5756 42.0297 39.7175 41.8169 40.0722V40.1432C41.5331 40.4269 41.4623 40.9235 41.8169 41.2781L41.8878 41.3491C42.1716 41.491 42.4553 41.491 42.7391 41.3491C42.5972 41.7038 42.7391 42.0584 43.0229 42.2713C43.4485 42.555 43.945 42.4841 44.2288 42.0584C44.2288 41.9875 44.2997 41.9875 44.2997 41.9166C44.6544 41.6328 44.6544 41.0654 44.3706 40.7107C44.2997 40.7107 44.2288 40.6397 44.1578 40.5688ZM42.81 40.7816C42.6682 40.9235 42.3844 40.9944 42.1716 40.9235C42.0297 40.7816 42.0297 40.5688 42.1716 40.3559C42.2426 40.2141 42.4553 40.1432 42.6682 40.2851C42.6682 40.2851 42.6681 40.2851 42.7391 40.2851C42.881 40.4269 42.881 40.6397 42.81 40.7816ZM43.874 41.6328C43.7322 41.8457 43.4485 41.8457 43.3066 41.7747C43.1647 41.6328 43.0937 41.42 43.1647 41.2072C43.3775 40.9944 43.6613 40.9944 43.874 41.1362C44.0159 41.2072 44.0869 41.42 43.874 41.6328C43.945 41.6328 43.945 41.6328 43.874 41.6328Z" fill="#B32226"></path>
<path d="M45.6475 37.5199C45.2928 37.3071 44.7962 37.378 44.5125 37.7327C44.5125 37.8036 44.4416 37.8036 44.4416 37.8746C44.2997 38.0874 44.2997 38.3002 44.4416 38.513C44.0159 38.3711 43.8032 37.9455 43.945 37.5199C44.0159 37.378 44.1578 37.2362 44.2997 37.0943L43.945 36.8105C43.8032 36.9524 43.6613 37.0943 43.5903 37.3071C43.1647 38.1583 43.8032 38.7968 44.5125 39.1514C45.2219 39.5061 45.7894 39.5771 46.144 38.8677C46.4278 38.4421 46.215 37.8746 45.7894 37.5908C45.7184 37.5908 45.6475 37.5199 45.6475 37.5199ZM45.7184 38.6549C45.5765 38.8677 45.3638 38.9386 45.1509 38.7968C45.1509 38.7968 45.1509 38.7968 45.08 38.7968C44.8672 38.7258 44.7253 38.4421 44.7962 38.2292C44.9381 38.0165 45.2219 37.9455 45.4347 38.0874C45.7184 38.1583 45.7894 38.4421 45.7184 38.6549Z" fill="#B32226"></path>
<path d="M46.7825 34.3267C46.3569 34.1139 45.8603 34.3267 45.6475 34.8232C45.6475 34.8942 45.5766 34.8942 45.5766 34.9651C45.5766 35.036 45.5057 35.107 45.5057 35.2489L44.9381 35.036L45.2928 33.972L44.7963 33.8301L44.2997 35.4616L45.7894 35.9582C45.7894 35.7454 45.7894 35.6035 45.8603 35.4616C45.8603 35.1779 46.1441 34.8942 46.4279 34.9651C46.4987 34.9651 46.4987 34.9651 46.5697 34.9651C46.8534 35.036 46.9953 35.3907 46.9244 35.6745V35.7454C46.8534 35.9582 46.7825 36.1001 46.6406 36.3129L47.1372 36.4548C47.279 36.2419 47.35 36.0292 47.4209 35.8163C47.6338 35.3198 47.4209 34.7523 46.9244 34.4686C46.8534 34.3976 46.7825 34.3976 46.7825 34.3267Z" fill="#B32226"></path>
</g>
</g>
<defs>
<clipPath id="clip0_1_363">
<rect width="183.75" height="60" fill="white" transform="translate(0.75)"></rect>
</clipPath>
<clipPath id="clip1_1_363">
<rect width="183.75" height="60" fill="white" transform="translate(0.75)"></rect>
</clipPath>
</defs>
</svg>
