<svg width="21" height="20" viewBox="0 0 21 20" fill="none" xmlns="http://www.w3.org/2000/svg">
<path d="M10.3217 1.66699C5.72167 1.66699 1.99667 5.40033 1.99667 10.0003C1.99667 14.6003 5.72167 18.3337 10.3217 18.3337C14.93 18.3337 18.6633 14.6003 18.6633 10.0003C18.6633 5.40033 14.93 1.66699 10.3217 1.66699ZM16.0967 6.66699H13.6383C13.3717 5.62533 12.9883 4.62533 12.4883 3.70033C14.0217 4.22533 15.2967 5.29199 16.0967 6.66699ZM10.33 3.36699C11.0217 4.36699 11.5633 5.47533 11.9217 6.66699H8.73834C9.09667 5.47533 9.63834 4.36699 10.33 3.36699ZM3.88001 11.667C3.74667 11.1337 3.66334 10.5753 3.66334 10.0003C3.66334 9.42533 3.74667 8.86699 3.88001 8.33366H6.69667C6.63001 8.88366 6.58001 9.43366 6.58001 10.0003C6.58001 10.567 6.63001 11.117 6.69667 11.667H3.88001ZM4.56334 13.3337H7.02167C7.28834 14.3753 7.67167 15.3753 8.17167 16.3003C6.63834 15.7753 5.36334 14.717 4.56334 13.3337ZM7.02167 6.66699H4.56334C5.36334 5.28366 6.63834 4.22533 8.17167 3.70033C7.67167 4.62533 7.28834 5.62533 7.02167 6.66699ZM10.33 16.6337C9.63834 15.6337 9.09667 14.5253 8.73834 13.3337H11.9217C11.5633 14.5253 11.0217 15.6337 10.33 16.6337ZM12.28 11.667H8.38001C8.30501 11.117 8.24667 10.567 8.24667 10.0003C8.24667 9.43366 8.30501 8.87533 8.38001 8.33366H12.28C12.355 8.87533 12.4133 9.43366 12.4133 10.0003C12.4133 10.567 12.355 11.117 12.28 11.667ZM12.4883 16.3003C12.9883 15.3753 13.3717 14.3753 13.6383 13.3337H16.0967C15.2967 14.7087 14.0217 15.7753 12.4883 16.3003ZM13.9633 11.667C14.03 11.117 14.08 10.567 14.08 10.0003C14.08 9.43366 14.03 8.88366 13.9633 8.33366H16.78C16.9133 8.86699 16.9967 9.42533 16.9967 10.0003C16.9967 10.5753 16.9133 11.1337 16.78 11.667H13.9633Z" fill="black" fill-opacity="0.87"></path>
</svg>
