<svg width="101" height="60" viewBox="0 0 101 60" fill="none" xmlns="http://www.w3.org/2000/svg">
<g clip-path="url('#clip0_1_258')">
<g clip-path="url('#clip1_1_258')">
<path fill-rule="evenodd" clip-rule="evenodd" d="M20.7325 36.385C20.0294 36.385 19.4789 36.8769 19.4789 37.5947C19.4789 38.3129 20.0322 38.802 20.7325 38.802C21.4322 38.802 21.986 38.3096 21.986 37.5947C21.986 36.8769 21.4351 36.385 20.7325 36.385ZM20.7325 38.4561C20.2311 38.4561 19.8593 38.0898 19.8593 37.5947C19.8593 37.0999 20.2283 36.7309 20.7325 36.7309C21.2305 36.7309 21.6052 37.1056 21.6052 37.5947C21.6052 38.0809 21.2272 38.4561 20.7325 38.4561ZM32.9306 32.154H26.828L27.5216 21.5469L23.5586 32.154H17.8916L26.8833 8.17871H32.9132L32.2171 18.9315L36.2553 8.17871H41.9228L32.9306 32.154ZM33.6668 32.154L42.658 8.17871H48.3249L39.3338 32.154H33.6668Z" fill="black"></path>
<path fill-rule="evenodd" clip-rule="evenodd" d="M17.2382 23.8899C9.31915 33.1896 1.84908 45.5636 8.44735 51.2618C14.8411 56.7837 22.8329 53.5143 28.282 51.3345C33.7311 49.1548 93.9603 22.9997 93.9603 22.9997C94.5415 22.7091 94.4328 22.3458 93.706 22.5272C93.4128 22.6005 28.1369 40.2907 28.1369 40.2907C19.8536 42.616 10.4088 37.5482 17.2382 23.8899Z" fill="black"></path>
<path fill-rule="evenodd" clip-rule="evenodd" d="M20.946 37.6788C21.1218 37.6702 21.2593 37.5796 21.2593 37.3362C21.2593 37.0225 21.0542 36.9436 20.7116 36.9436H20.2193V38.2444H20.5477V37.6906H20.603L20.9021 38.2444H21.2796L20.946 37.6788ZM20.7353 37.468H20.5481V37.1661H20.706C20.8028 37.1661 20.9139 37.1774 20.9139 37.3036C20.9139 37.4387 20.8496 37.468 20.7353 37.468ZM77.6987 8.10449C76.996 8.10449 76.4455 8.59687 76.4455 9.31417C76.4455 10.0319 76.999 10.521 77.6987 10.521C78.3985 10.521 78.9527 10.0286 78.9527 9.31417C78.9527 8.59687 78.4022 8.10449 77.6987 8.10449ZM77.6987 10.1761C77.1977 10.1761 76.8257 9.80984 76.8257 9.31462C76.8257 8.81992 77.1947 8.45092 77.6987 8.45092C78.1967 8.45092 78.5717 8.82562 78.5717 9.31462C78.5717 9.80092 78.1937 10.1761 77.6987 10.1761Z" fill="black"></path>
<path fill-rule="evenodd" clip-rule="evenodd" d="M77.9133 9.40016C78.0888 9.39169 78.2268 9.30094 78.2268 9.05764C78.2268 8.74384 78.0213 8.66494 77.6792 8.66494H77.1865V9.96529H77.515V9.41201H77.5705L77.869 9.96529H78.247L77.9133 9.40016ZM77.7017 9.18941H77.515V8.88746H77.6733C77.7693 8.88746 77.881 8.89931 77.881 9.02546C77.881 9.16016 77.8165 9.18941 77.7017 9.18941ZM73.9651 12.1749L75.4878 8.17871H58.1965L52.2593 15.3714L55.0004 8.17871H49.2606L40.3413 32.154H46.0082L49.8163 22.128L50.0772 32.154L67.4655 32.1162L69.1208 27.5044H62.5098L64.6819 21.6924H70.1306L71.8071 17.2242H66.3584L68.2263 12.1749H73.9651ZM55.6992 30.5555L55.3358 18.0597L63.9042 8.65219L55.6992 30.5555Z" fill="black"></path>
</g>
</g>
<defs>
<clipPath id="clip0_1_258">
<rect width="100.5" height="60" fill="white" transform="translate(0.25)"></rect>
</clipPath>
<clipPath id="clip1_1_258">
<rect width="100.5" height="60" fill="white" transform="translate(0.25)"></rect>
</clipPath>
</defs>
</svg>
