<svg width="81" height="81" viewBox="0 0 81 81" fill="none" xmlns="http://www.w3.org/2000/svg">
<path d="M40.3392 5.04732C40.3392 5.04732 61.0558 4.11485 72.0357 24.9342H38.5782C38.5782 24.9342 32.2598 24.7266 26.8728 32.3922C25.3198 35.6039 23.6628 38.9187 25.527 45.4434C22.8337 40.8867 11.2323 20.6879 11.2323 20.6879C11.2323 20.6879 19.4158 5.87545 40.3392 5.04732Z" fill="#DA4537"></path>
<path d="M11.2323 20.687C11.2323 20.687 22.8337 40.8858 25.527 45.4425C24.4752 41.7608 24.5443 39.1012 25.0835 36.9055L11.2323 20.687Z" fill="#B63729"></path>
<path d="M70.9567 57.9064C70.9567 57.9064 61.4037 76.3111 37.8827 75.4069C40.7847 70.3848 54.6152 46.4346 54.6152 46.4346C54.6152 46.4346 57.9545 41.0671 54.0123 32.5698C53.15 31.3001 52.281 30.0043 51.0465 28.8084C49.411 27.2243 47.1343 25.8158 43.3827 24.8758C48.6773 24.8238 71.9692 24.8793 71.9692 24.8793C71.9692 24.8793 80.7027 39.3734 70.9567 57.9064Z" fill="#FFCD3F"></path>
<path d="M9.87016 58.047C9.87016 58.047 -1.29229 40.569 11.2532 20.6528L27.9753 49.6322C27.9753 49.6322 30.954 55.2075 40.285 56.0422C41.967 55.9195 43.6803 55.8053 45.5182 55.204C47.5682 54.5332 49.7728 53.2563 52.2615 50.6853C49.6602 55.2957 37.964 75.4397 37.964 75.4397C37.964 75.4397 21.0455 75.7552 9.87016 58.047Z" fill="#0A9E58"></path>
<path d="M24.5787 40.5282C24.5787 31.8722 31.5963 24.8535 40.2542 24.8535C48.9113 24.8535 55.9283 31.8722 55.9283 40.5282C55.9283 49.1867 48.9113 56.2043 40.2542 56.2043C31.5963 56.2043 24.5787 49.187 24.5787 40.5282Z" fill="white"></path>
<path d="M27.9608 40.5283C27.9608 33.7406 33.4642 28.2373 40.2525 28.2373C47.0388 28.2373 52.5432 33.7406 52.5432 40.5283C52.5432 47.3168 47.039 52.82 40.2525 52.82C33.4642 52.82 27.9608 47.3166 27.9608 40.5283Z" fill="#577FC0"></path>
<path d="M71.9687 24.8793C71.9687 24.8793 48.677 24.8238 43.3823 24.8758C47.134 25.8158 49.4107 27.2243 51.0462 28.8084L71.9687 24.8793Z" fill="#E5A630"></path>
<path d="M37.964 75.4397C37.964 75.4397 49.6602 55.2957 52.2615 50.6855C49.773 53.2564 47.5682 54.5334 45.5183 55.204L37.964 75.4397Z" fill="#109155"></path>
</svg>
