<svg width="71" height="71" viewBox="0 0 71 71" fill="none" xmlns="http://www.w3.org/2000/svg">
<path d="M17.3117 29.0973C17.3117 23.9284 21.5018 19.7383 26.6706 19.7383H42.523C47.6918 19.7383 51.8819 23.9284 51.8819 29.0973V41.2465C51.8819 46.4153 47.6918 50.6055 42.523 50.6055H26.6706C21.5018 50.6055 17.3117 46.4153 17.3117 41.2465V29.0973Z" fill="#9065B0"></path>
<path d="M17.3117 29.0973C17.3117 23.9284 21.5018 19.7383 26.6706 19.7383H42.523C47.6918 19.7383 51.8819 23.9284 51.8819 29.0973V41.2465C51.8819 46.4153 47.6918 50.6055 42.523 50.6055H26.6706C21.5018 50.6055 17.3117 46.4153 17.3117 41.2465V29.0973Z" fill="white" fill-opacity="0.2"></path>
<path d="M51.8824 41.2465V29.0973C51.8824 23.9284 47.6923 19.7383 42.5235 19.7383H34.5973V50.6055H42.5235C47.6923 50.6055 51.8824 46.4153 51.8824 41.2465Z" fill="#9065B0"></path>
<path d="M51.8824 41.2465V29.0973C51.8824 23.9284 47.6923 19.7383 42.5235 19.7383H34.5973V50.6055H42.5235C47.6923 50.6055 51.8824 46.4153 51.8824 41.2465Z" fill="black" fill-opacity="0.2"></path>
<path d="M33.8426 13.2165C34.6498 12.8706 35.5714 12.8706 36.3786 13.2165L62.0447 24.2146C64.5135 25.2725 64.5135 28.6476 62.0447 29.7055L36.3786 40.7036C35.5714 41.0495 34.6498 41.0495 33.8425 40.7036L8.17647 29.7055C5.70763 28.6476 5.70764 25.2725 8.17647 24.2146L33.8426 13.2165Z" fill="#9065B0"></path>
<path d="M33.1184 26.2969C27.0899 27.1597 14.7648 28.928 13.7733 29.087C13.0413 29.2044 12.4283 29.4993 12.0662 30.1435C11.7411 30.7218 11.6891 31.4724 11.722 32.3076C11.773 33.6046 11.7431 42.3144 11.7215 46.5298L13.0585 46.5366C13.08 42.3479 13.1105 33.5911 13.058 32.255C13.0261 31.4445 13.1036 31.0266 13.2317 30.7986C13.3229 30.6364 13.4867 30.4871 13.985 30.4072C14.9617 30.2505 27.2671 28.485 33.3078 27.6204L33.1184 26.2969Z" fill="black"></path>
<path d="M38.1092 25.9298C38.1092 24.9902 36.5372 24.2285 34.5974 24.2285C32.6581 24.2285 31.0861 24.9902 31.0861 25.9298V27.9901C31.0861 28.9298 32.6581 29.6914 34.5974 29.6914C36.5372 29.6914 38.1092 28.9298 38.1092 27.9901V25.9298Z" fill="#FF9700"></path>
<path d="M34.5976 27.6311C36.537 27.6311 38.1092 26.8694 38.1092 25.9298C38.1092 24.9902 36.537 24.2285 34.5976 24.2285C32.6582 24.2285 31.086 24.9902 31.086 25.9298C31.086 26.8694 32.6582 27.6311 34.5976 27.6311Z" fill="#FFD200"></path>
<path d="M14.202 45.4816C14.202 46.4864 13.3874 47.301 12.3826 47.301C11.3777 47.301 10.5631 46.4864 10.5631 45.4816C10.5631 44.4767 11.3777 43.6621 12.3826 43.6621C13.3874 43.6621 14.202 44.4767 14.202 45.4816Z" fill="#FF9700"></path>
<path d="M10.6385 48.64C10.6806 48.1812 11.0654 47.8301 11.5261 47.8301H13.2389C13.6996 47.8301 14.0844 48.1812 14.1265 48.64L14.8543 56.5749C14.9022 57.0972 14.4911 57.5477 13.9667 57.5477H10.7983C10.2739 57.5477 9.86277 57.0972 9.91067 56.5749L10.6385 48.64Z" fill="#FFD200"></path>
</svg>
