<svg width="24" height="25" viewBox="0 0 24 25" fill="none" xmlns="http://www.w3.org/2000/svg">
<path d="M8.99962 15.125C8.99962 15.125 10.3121 16.625 12.4996 16.625C14.6871 16.625 15.9996 15.125 15.9996 15.125M15.2496 10.125H15.2596M9.74962 10.125H9.75962M12.4996 21.125C17.194 21.125 20.9996 17.3194 20.9996 12.625C20.9996 7.93058 17.194 4.125 12.4996 4.125C7.8052 4.125 3.99962 7.93058 3.99962 12.625C3.99962 13.575 4.15547 14.4886 4.443 15.3416C4.55119 15.6626 4.60529 15.8231 4.61505 15.9464C4.62469 16.0682 4.6174 16.1536 4.58728 16.2719C4.55677 16.3918 4.48942 16.5165 4.35472 16.7658L2.71906 19.7934C2.48575 20.2252 2.36909 20.4411 2.3952 20.6078C2.41794 20.7529 2.50337 20.8807 2.6288 20.9572C2.7728 21.0451 3.01692 21.0198 3.50517 20.9694L8.62619 20.44C8.78127 20.424 8.85881 20.416 8.92949 20.4187C8.999 20.4213 9.04807 20.4279 9.11586 20.4435C9.18478 20.4594 9.27145 20.4928 9.44478 20.5595C10.3928 20.9248 11.4228 21.125 12.4996 21.125ZM15.7496 10.125C15.7496 10.4011 15.5258 10.625 15.2496 10.625C14.9735 10.625 14.7496 10.4011 14.7496 10.125C14.7496 9.84886 14.9735 9.625 15.2496 9.625C15.5258 9.625 15.7496 9.84886 15.7496 10.125ZM10.2496 10.125C10.2496 10.4011 10.0258 10.625 9.74962 10.625C9.47348 10.625 9.24962 10.4011 9.24962 10.125C9.24962 9.84886 9.47348 9.625 9.74962 9.625C10.0258 9.625 10.2496 9.84886 10.2496 10.125Z" stroke="#16B364" stroke-width="2" stroke-linecap="round" stroke-linejoin="round"></path>
</svg>
