<svg width="25" height="24" viewBox="0 0 25 24" fill="none" xmlns="http://www.w3.org/2000/svg">
<g clip-path="url('#clip0_1_33')">
<path d="M0.839996 4.8C0.839996 2.14903 2.98903 0 5.64 0H24.84V19.2C24.84 21.851 22.691 24 20.04 24H5.64C2.98903 24 0.839996 21.851 0.839996 19.2V4.8Z" fill="#F79321"></path>
<path fill-rule="evenodd" clip-rule="evenodd" d="M9.97158 7.96094H9.14909V9.14085H9.97158V15.8272H11.2791V7.96094H9.97158ZM7.8361 10.3804V9.99371H9.15706V15.8256H7.86832V15.3745C7.28839 15.7934 6.54736 16.0189 5.74189 15.9545C4.32428 15.7934 3.16441 14.6334 3.00331 13.2157C2.81 11.3792 4.25984 9.80039 6.06408 9.80039C6.70845 9.80039 7.35282 10.0259 7.8361 10.3804ZM5.64524 14.6334C6.80511 14.8912 7.8361 14.0213 7.8361 12.8935C7.8361 11.8625 7.03064 11.057 6.06408 11.057C4.93643 11.057 4.03431 12.088 4.25984 13.248C4.42093 13.9568 4.96865 14.5046 5.64524 14.6334ZM22.7349 10.0617H18.2919V11.2416H21.1451L18.2917 14.6464V15.8264H22.7347V14.6464H19.8808L22.7342 11.2416L22.7349 10.0617ZM12.4698 11.2544C12.099 11.75 11.8794 12.3653 11.8794 13.0318C11.8794 14.6718 13.2088 16.0013 14.8488 16.0013C16.4887 16.0013 17.8181 14.6718 17.8181 13.0318C17.8181 11.4095 16.5172 10.0911 14.9018 10.0628L16.4955 7.96094H14.9671L12.4698 11.2544ZM14.8487 14.7588C15.8027 14.7588 16.5759 13.9854 16.5759 13.0315C16.5759 12.0775 15.8027 11.3042 14.8487 11.3042C13.8948 11.3042 13.1215 12.0775 13.1215 13.0315C13.1215 13.9854 13.8948 14.7588 14.8487 14.7588Z" fill="white"></path>
</g>
<defs>
<clipPath id="clip0_1_33">
<rect width="24" height="24" fill="white" transform="translate(0.839996)"></rect>
</clipPath>
</defs>
</svg>
