<svg width="71" height="71" viewBox="0 0 71 71" fill="none" xmlns="http://www.w3.org/2000/svg">
<path d="M13.1102 26.8464C13.1102 25.3126 14.0367 23.9309 15.4556 23.3486L33.8312 15.8075C34.3451 15.5966 34.8939 15.5035 35.4385 15.5283C35.8687 15.5479 36.2962 15.6409 36.7021 15.8075L55.0777 23.3486C56.4965 23.9309 57.4231 25.3126 57.4231 26.8464V55.5315C57.4231 57.6196 55.7303 59.3123 53.6422 59.3123H35.4385H16.891C14.8029 59.3123 13.1102 57.6196 13.1102 55.5315V26.8464Z" fill="#9065B0"></path>
<path d="M13.1102 26.8464C13.1102 25.3126 14.0367 23.9309 15.4556 23.3486L33.8312 15.8075C34.3451 15.5966 34.8939 15.5035 35.4385 15.5283C35.8687 15.5479 36.2962 15.6409 36.7021 15.8075L55.0777 23.3486C56.4965 23.9309 57.4231 25.3126 57.4231 26.8464V55.5315C57.4231 57.6196 55.7303 59.3123 53.6422 59.3123H35.4385H16.891C14.8029 59.3123 13.1102 57.6196 13.1102 55.5315V26.8464Z" fill="white" fill-opacity="0.2"></path>
<path d="M57.4239 55.5315V26.8463C57.4239 25.3126 56.4973 23.9309 55.0784 23.3486L36.7029 15.8075C36.297 15.6409 35.8694 15.5479 35.4393 15.5283V59.3123H53.643C55.7311 59.3123 57.4239 57.6196 57.4239 55.5315Z" fill="#9065B0"></path>
<path d="M47.2508 15.5759C47.2508 14.2709 48.3088 13.2129 49.6138 13.2129H53.4745C54.7796 13.2129 55.8376 14.2709 55.8376 15.5759V25.8445C55.8376 27.1495 54.7796 28.2075 53.4745 28.2075H49.6138C48.3088 28.2075 47.2508 27.1495 47.2508 25.8445V15.5759Z" fill="#9065B0"></path>
<path d="M37.5602 11.8131C36.9395 11.4114 36.233 11.2032 35.5234 11.1883C34.7612 11.1725 33.9952 11.3798 33.328 11.8103L11.1711 26.1075C9.36165 27.275 8.84134 29.6882 10.0089 31.4976C11.1764 33.307 13.5897 33.8273 15.399 32.6598L33.1295 21.2189C33.8571 20.7494 34.6922 20.5232 35.5234 20.5403C36.2979 20.5563 37.069 20.7835 37.7465 21.2219L55.4176 32.657C57.2255 33.8269 59.6394 33.3097 60.8093 31.5019C61.9791 29.694 61.462 27.2801 59.6541 26.1102L37.5602 11.8131Z" fill="#9065B0"></path>
<path d="M37.5602 11.8131C36.9395 11.4114 36.233 11.2032 35.5234 11.1883C34.7612 11.1725 33.9952 11.3798 33.328 11.8103L11.1711 26.1075C9.36165 27.275 8.84134 29.6882 10.0089 31.4976C11.1764 33.307 13.5897 33.8273 15.399 32.6598L33.1295 21.2189C33.8571 20.7494 34.6922 20.5232 35.5234 20.5403C36.2979 20.5563 37.069 20.7835 37.7465 21.2219L55.4176 32.657C57.2255 33.8269 59.6394 33.3097 60.8093 31.5019C61.9791 29.694 61.462 27.2801 59.6541 26.1102L37.5602 11.8131Z" fill="black" fill-opacity="0.2"></path>
<path d="M33.328 11.8103L11.1711 26.1075C9.36165 27.275 8.84134 29.6882 10.0089 31.4976C11.1764 33.307 13.5897 33.8273 15.399 32.6598L33.1295 21.2189C33.8571 20.7494 34.6922 20.5232 35.5234 20.5403V11.1883C34.7612 11.1725 33.9952 11.3798 33.328 11.8103Z" fill="#9065B0"></path>
<path d="M21.0731 38.0104C21.0731 36.4444 22.3426 35.1748 23.9087 35.1748H28.4844C30.0505 35.1748 31.3201 36.4444 31.3201 38.0104V59.3123H21.0731V38.0104Z" fill="#9065B0"></path>
<path d="M21.0731 38.0104C21.0731 36.4444 22.3426 35.1748 23.9087 35.1748H28.4844C30.0505 35.1748 31.3201 36.4444 31.3201 38.0104V59.3123H21.0731V38.0104Z" fill="black" fill-opacity="0.2"></path>
<path d="M38.659 38.0104C38.659 36.4444 39.9286 35.1748 41.4947 35.1748H46.0704C47.6364 35.1748 48.906 36.4444 48.906 38.0104V42.5853C48.906 44.1513 47.6364 45.4209 46.0704 45.4209H41.4947C39.9286 45.4209 38.659 44.1513 38.659 42.5853V38.0104Z" fill="#FACE1C"></path>
</svg>
